<?xml version="1.0" encoding="UTF-8" standalone="no"?>
<svg width="633px" height="146px" viewBox="0 0 633 146" version="1.1" xmlns="http://www.w3.org/2000/svg" xmlns:xlink="http://www.w3.org/1999/xlink" xmlns:sketch="http://www.bohemiancoding.com/sketch/ns">
    <!-- Generator: Sketch 3.2.2 (9983) - http://www.bohemiancoding.com/sketch -->
    <title>Slice 1</title>
    <desc>Created with Sketch.</desc>
    <defs>
        <path id="path-1" d="M0.06,0.604 L632.047,0.604 L632.047,146 L0.06,146"></path>
    </defs>
    <g id="Page-1" stroke="none" stroke-width="1" fill="none" fill-rule="evenodd" sketch:type="MSPage">
        <g id="ONE0004_onegovch_f1_01_rgb" sketch:type="MSLayerGroup">
            <path d="M365.18,86.426 C362.617,90.266 359.676,92.672 356.371,93.631 C353.062,94.588 349.801,94.482 346.602,93.311 C343.398,92.139 341.16,90.699 339.875,88.984 C337.907,86.62 336.465,83.144 335.545,78.56 C328.155,78.543 320.811,78.494 313.515,78.414 C313.99,81.513 314.657,84.559 315.539,87.545 C317.461,94.061 320.668,99.233 325.152,103.076 C329.418,106.916 335.125,109.637 342.281,111.24 C349.426,112.842 356.527,112.686 363.57,110.758 C371.465,109.055 377.988,104.676 383.105,97.631 C385.453,94.219 387.379,90.058 388.875,85.141 C389.523,82.984 390.026,80.63 390.395,78.101 C383.06,78.242 375.668,78.352 368.226,78.43 C367.528,81.733 366.518,84.41 365.18,86.426" id="Fill-1" fill="#3C8091" sketch:type="MSShapeGroup"></path>
            <path d="M423.734,85.465 L421.421,77.307 C414.777,77.52 408.082,77.706 401.334,77.866 L412.836,110.758 L435.57,110.758 L447.745,76.316 C440.609,76.626 433.402,76.903 426.13,77.151 L423.734,85.465" id="Fill-2" fill="#3C8091" sketch:type="MSShapeGroup"></path>
            <path d="M450.145,99.871 L450.145,110.758 L467.766,110.758 L467.766,93.148 L456.871,93.148 C452.395,93.148 450.145,95.393 450.145,99.871" id="Fill-3" fill="#3F494D" sketch:type="MSShapeGroup"></path>
            <path d="M552.645,110.758 L574.418,110.758 L574.418,66.903 C567.302,67.686 560.041,68.434 552.645,69.145 L552.645,110.758" id="Fill-4" fill="#3F494D" sketch:type="MSShapeGroup"></path>
            <path d="M610.598,66.571 L610.598,110.758 L632.047,110.758 L632.047,61.127 C632.047,60.511 632.016,59.927 631.999,59.327 C625.017,60.417 617.823,61.469 610.43,62.479 C610.535,63.794 610.598,65.151 610.598,66.571" id="Fill-5" fill="#3F494D" sketch:type="MSShapeGroup"></path>
            <path d="M283.141,86.76 C279.086,92.318 272.781,94.283 264.258,92.688 C257.619,91.438 253.575,86.189 252.106,76.976 C246.838,76.786 241.605,76.579 236.409,76.356 L232.75,86.877 C233.793,89.783 234.996,92.535 236.586,94.926 C241.168,101.869 246.664,106.615 253.066,109.178 C259.465,111.74 265.906,112.271 272.41,110.777 C278.926,109.291 284.102,105.549 287.945,99.572 L287.945,105.014 C287.512,111.848 285.867,116.969 282.977,120.385 C280.102,123.799 276.898,125.877 273.375,126.629 C269.852,127.375 266.336,126.943 262.82,125.348 C259.301,123.746 256.691,121.451 254.988,118.465 L231.617,118.465 C236.305,136.824 248.473,146 268.094,146 C278.332,146 287.828,143.279 296.586,137.838 C305.34,132.393 309.715,122.199 309.715,107.256 L309.715,78.369 C302.038,78.272 294.415,78.144 286.855,77.979 C285.989,81.851 284.756,84.79 283.141,86.76" id="Fill-6" fill="#3C8091" sketch:type="MSShapeGroup"></path>
            <g id="Group-10">
                <mask id="mask-2" sketch:name="Clip 8" fill="white">
                    <use xlink:href="#path-1"></use>
                </mask>
                <g id="Clip-8"></g>
                <path d="M482.09,100.551 C488.934,108.469 498.461,112.428 510.656,112.428 C520.719,112.428 529.066,109.967 535.695,105.041 C542.336,100.338 546.828,93.488 549.18,84.498 L533.137,84.498 C530.562,84.498 528.641,85.025 527.359,86.103 C526.063,87.174 525.211,88.025 524.781,88.67 C524.144,89.311 523.555,89.902 523.023,90.439 C522.492,90.971 521.891,91.348 521.25,91.557 C518.687,93.055 515.578,93.805 511.945,93.805 C506.379,93.805 502.203,92.096 499.426,88.67 C496.42,85.508 494.65,80.516 493.992,73.83 C486.823,74.294 479.561,74.725 472.214,75.124 C473.243,85.787 476.512,94.28 482.09,100.551" id="Fill-7" fill="#3F494D" sketch:type="MSShapeGroup" mask="url(#mask-2)"></path>
                <path d="M56.91,66.899 C56.691,75.476 55.305,81.69 52.727,85.549 C50.156,89.406 47.211,91.82 43.891,92.783 C40.559,93.748 37.301,93.643 34.078,92.461 C30.863,91.287 28.613,89.842 27.324,88.119 C24.117,84.262 22.289,77.463 21.863,67.706 C21.642,62.67 22.082,58.282 23.177,54.531 C15.826,53.152 8.782,51.725 2.057,50.253 C0.689,55.586 0,60.924 0,66.256 C0,73.33 0.965,80.139 2.895,86.674 C4.82,93.217 8.043,98.41 12.539,102.268 C16.824,106.125 22.555,108.857 29.738,110.467 C36.922,112.074 44.047,111.914 51.117,109.986 C59.051,108.271 65.594,103.875 70.734,96.801 C73.098,93.381 75.027,89.197 76.523,84.262 C78.023,79.334 78.773,73.446 78.773,66.581 C78.773,65.461 78.744,64.359 78.692,63.272 C71.098,62.271 63.702,61.228 56.522,60.144 C56.771,62.208 56.91,64.444 56.91,66.899" id="Fill-9" fill="#3F494D" sketch:type="MSShapeGroup" mask="url(#mask-2)"></path>
            </g>
            <path d="M133.539,99.053 C133.539,102.268 134.551,104.897 136.586,106.928 C138.629,108.973 141.25,109.986 144.469,109.986 L155.723,109.986 L155.723,71.382 C148.204,70.767 140.809,70.115 133.539,69.428 L133.539,99.053" id="Fill-11" fill="#3F494D" sketch:type="MSShapeGroup"></path>
            <path d="M81.129,109.986 L103.633,109.986 L103.633,66.326 C95.955,65.455 88.449,64.543 81.129,63.592 L81.129,109.986" id="Fill-12" fill="#3F494D" sketch:type="MSShapeGroup"></path>
            <path d="M168.75,99.695 C175.613,107.631 185.148,111.592 197.367,111.592 C199.125,111.592 200.77,111.418 202.426,111.267 L209.961,89.359 L209.75,89.566 C209.211,90.105 208.617,90.482 207.976,90.691 C205.406,92.197 202.301,92.943 198.656,92.943 C193.078,92.943 188.902,91.232 186.113,87.799 C183.155,84.631 181.557,79.797 181.307,73.303 C173.63,72.776 166.062,72.214 158.612,71.616 C159.338,83.547 162.712,92.908 168.75,99.695" id="Fill-13" fill="#3F494D" sketch:type="MSShapeGroup"></path>
            <path d="M385.664,42.873 C381.828,34.979 375.844,29.426 367.734,26.225 C360.691,23.661 352.789,22.975 344.039,24.141 C335.285,25.315 328.133,29.106 322.59,35.51 C319.168,39.35 316.664,44.155 315.062,49.916 C313.461,55.686 312.664,61.444 312.664,67.213 C312.664,71.025 312.953,74.757 313.515,78.414 C320.811,78.494 328.155,78.543 335.545,78.56 C334.97,75.691 334.598,72.392 334.434,68.651 C334.004,58.94 336.035,51.633 340.523,46.717 C342.008,45.229 344.355,43.998 347.559,43.034 C350.766,42.071 353.969,42.131 357.172,43.196 C360.363,44.264 363.195,46.717 365.652,50.561 C368.105,54.405 369.34,60.165 369.34,67.854 C369.236,71.917 368.858,75.43 368.226,78.43 C375.668,78.352 383.06,78.242 390.395,78.101 C390.865,74.876 391.113,71.36 391.113,67.532 C391.113,58.135 389.293,49.916 385.664,42.873" id="Fill-14" fill="#3C8091" sketch:type="MSShapeGroup"></path>
            <path d="M335.545,78.56 C328.155,78.543 320.811,78.494 313.515,78.414 C312.953,74.757 312.664,71.025 312.664,67.213 C312.664,61.444 313.461,55.686 315.062,49.916 C316.664,44.155 319.168,39.35 322.59,35.51 C328.133,29.106 335.285,25.315 344.039,24.141 C346.788,23.775 349.453,23.591 352.034,23.591 C357.669,23.591 362.904,24.466 367.734,26.225 C375.844,29.426 381.828,34.979 385.664,42.873 C389.293,49.916 391.113,58.135 391.113,67.532 C391.113,71.36 390.865,74.876 390.395,78.101 C383.06,78.242 375.668,78.352 368.226,78.43 C368.858,75.43 369.236,71.917 369.34,67.854 C369.34,60.165 368.105,54.405 365.652,50.561 C363.195,46.717 360.363,44.264 357.172,43.196 C355.482,42.634 353.793,42.352 352.103,42.352 C350.589,42.352 349.074,42.579 347.559,43.034 C344.355,43.998 342.008,45.229 340.523,46.717 C336.43,51.201 334.38,57.674 334.377,66.146 C334.377,66.962 334.396,67.797 334.434,68.651 C334.598,72.392 334.97,75.691 335.545,78.56" id="Fill-15" fill="#5D97A4" sketch:type="MSShapeGroup"></path>
            <path d="M449.016,25.583 C443.891,25.583 440.484,28.141 438.773,33.264 L426.13,77.151 C433.402,76.903 440.609,76.626 447.745,76.316 L465.68,25.583 L449.016,25.583" id="Fill-16" fill="#3C8091" sketch:type="MSShapeGroup"></path>
            <path d="M426.13,77.151 L438.773,33.264 C440.484,28.141 443.891,25.583 449.016,25.583 L465.68,25.583 L447.745,76.316 C440.609,76.626 433.402,76.903 426.13,77.151" id="Fill-17" fill="#5D97A4" sketch:type="MSShapeGroup"></path>
            <path d="M406.754,25.583 L383.051,25.583 L401.334,77.866 C408.082,77.706 414.777,77.52 421.421,77.307 L406.754,25.583" id="Fill-18" fill="#3C8091" sketch:type="MSShapeGroup"></path>
            <path d="M401.334,77.866 L383.051,25.583 L406.754,25.583 L421.421,77.307 C414.777,77.52 408.082,77.706 401.334,77.866" id="Fill-19" fill="#5D97A4" sketch:type="MSShapeGroup"></path>
            <path d="M610.914,25.909 C604.516,23.34 597.781,22.916 590.75,24.62 C583.687,26.334 578.254,30.383 574.418,36.793 L574.418,11.489 C574.418,8.506 573.332,5.942 571.211,3.807 C569.078,1.676 566.516,0.604 563.527,0.604 L552.645,0.604 L552.645,69.145 C560.041,68.434 567.302,67.686 574.418,66.903 L574.418,66.891 C574.418,59.42 576.008,53.553 579.215,49.278 C582.422,45.01 587.008,42.873 592.996,42.873 C598.547,42.873 602.906,45.12 606.109,49.596 C608.043,52.375 609.266,55.096 609.801,57.764 C610.092,59.251 610.297,60.829 610.43,62.479 C617.823,61.469 625.017,60.417 631.999,59.327 C631.762,50.378 629.772,43.276 625.973,38.073 C621.914,32.522 616.895,28.467 610.914,25.909" id="Fill-20" fill="#3F494D" sketch:type="MSShapeGroup"></path>
            <path d="M552.645,69.145 L552.645,0.604 L563.527,0.604 C566.516,0.604 569.078,1.676 571.211,3.807 C573.332,5.942 574.418,8.506 574.418,11.489 L574.418,36.793 C578.254,30.383 583.687,26.334 590.75,24.62 C593.561,23.939 596.323,23.598 599.036,23.598 C603.111,23.598 607.073,24.367 610.914,25.909 C616.895,28.467 621.914,32.522 625.973,38.073 C629.772,43.276 631.762,50.378 631.999,59.327 C625.017,60.417 617.823,61.469 610.43,62.479 C610.297,60.829 610.092,59.251 609.801,57.764 C609.266,55.096 608.043,52.375 606.109,49.596 C602.906,45.12 598.547,42.873 592.996,42.873 C587.008,42.873 582.422,45.01 579.215,49.278 C576.008,53.553 574.418,59.42 574.418,66.891 L574.418,66.903 C567.302,67.686 560.041,68.434 552.645,69.145" id="Fill-21" fill="#616C6D" sketch:type="MSShapeGroup"></path>
            <path d="M296.586,31.364 C287.828,25.819 278.332,23.041 268.094,23.041 C262.965,23.041 258.391,23.649 254.328,24.842 L236.409,76.356 C241.605,76.579 246.838,76.786 252.106,76.976 C251.69,74.361 251.469,71.445 251.469,68.188 C251.469,61.36 252.754,55.276 255.305,49.932 C257.863,44.604 262.773,41.932 270.016,41.932 C275.344,41.932 279.406,43.852 282.18,47.694 C284.949,51.54 286.715,55.918 287.465,60.827 C288.215,65.737 288.156,70.704 287.309,75.713 C287.172,76.506 287.017,77.253 286.855,77.979 C294.415,78.144 302.038,78.272 309.715,78.369 L309.715,62.106 C309.715,47.166 305.34,36.92 296.586,31.364" id="Fill-22" fill="#3C8091" sketch:type="MSShapeGroup"></path>
            <path d="M309.715,78.369 L309.715,78.369 C302.038,78.272 294.415,78.144 286.855,77.979 C287.017,77.253 287.172,76.506 287.309,75.713 C287.762,73.032 287.99,70.364 287.989,67.709 C287.987,65.404 287.813,63.109 287.465,60.827 C286.715,55.918 284.949,51.54 282.18,47.694 C279.406,43.852 275.344,41.932 270.016,41.932 C262.773,41.932 257.863,44.604 255.305,49.932 C252.754,55.276 251.469,61.36 251.469,68.188 C251.469,71.445 251.69,74.361 252.106,76.976 C246.838,76.786 241.605,76.579 236.409,76.356 L254.328,24.842 C258.391,23.649 262.965,23.041 268.094,23.041 C278.332,23.041 287.828,25.819 296.586,31.364 C305.34,36.92 309.715,47.166 309.715,62.106 L309.715,78.369" id="Fill-23" fill="#5D97A4" sketch:type="MSShapeGroup"></path>
            <path d="M493.637,67.801 C493.637,57.958 495.57,50.897 499.426,46.612 C502.418,43.614 506.27,42.118 510.981,42.118 C516.113,42.118 520.078,43.614 522.859,46.612 C523.934,47.682 524.992,49.29 526.063,51.424 L548.543,51.424 C546.828,45.219 544.043,39.762 540.188,35.055 C533.137,27.346 523.18,23.495 510.344,23.495 C499.727,23.495 491.156,26.497 484.594,32.483 L471.883,69.848 L471.895,70.067 C471.947,71.805 472.056,73.488 472.214,75.124 C479.561,74.725 486.823,74.294 493.992,73.83 C493.861,72.498 493.769,71.103 493.727,69.635 C493.719,69.005 493.637,68.459 493.637,67.801" id="Fill-24" fill="#3F494D" sketch:type="MSShapeGroup"></path>
            <path d="M472.214,75.124 C472.056,73.488 471.947,71.805 471.895,70.067 L471.883,69.848 L484.594,32.483 C491.156,26.497 499.727,23.495 510.344,23.495 C523.18,23.495 533.137,27.346 540.188,35.055 C544.043,39.762 546.828,45.219 548.543,51.424 L526.063,51.424 C524.992,49.29 523.934,47.682 522.859,46.612 C520.078,43.614 516.113,42.118 510.981,42.118 C506.27,42.118 502.418,43.614 499.426,46.612 C495.57,50.897 493.637,57.958 493.637,67.801 C493.637,68.459 493.719,69.005 493.727,69.635 C493.769,71.103 493.861,72.498 493.992,73.83 C486.823,74.294 479.561,74.725 472.214,75.124" id="Fill-25" fill="#616C6D" sketch:type="MSShapeGroup"></path>
            <path d="M55.305,25.1 C48.23,22.532 40.297,21.838 31.508,23.01 C22.719,24.194 15.539,27.997 9.969,34.426 C6.539,38.284 4.02,43.106 2.41,48.895 C2.284,49.348 2.172,49.8 2.057,50.253 C8.782,51.725 15.826,53.152 23.177,54.531 C24.201,51.02 25.797,48.065 27.977,45.678 C29.473,44.186 31.832,42.944 35.051,41.981 C38.258,41.018 41.476,41.073 44.691,42.141 C47.91,43.219 50.754,45.678 53.215,49.537 C54.895,52.169 55.988,55.719 56.522,60.144 C63.702,61.228 71.098,62.271 78.692,63.272 C78.312,55.209 76.52,48.055 73.312,41.821 C69.449,33.897 63.445,28.315 55.305,25.1" id="Fill-26" fill="#3F494D" sketch:type="MSShapeGroup"></path>
            <path d="M78.692,63.272 C71.098,62.271 63.702,61.228 56.522,60.144 C55.988,55.719 54.895,52.169 53.215,49.537 C50.754,45.678 47.91,43.219 44.691,42.141 C42.999,41.579 41.306,41.297 39.613,41.297 C38.091,41.297 36.569,41.525 35.051,41.981 C31.832,42.944 29.473,44.186 27.977,45.678 C25.797,48.065 24.201,51.02 23.177,54.531 C15.826,53.152 8.782,51.725 2.057,50.253 C2.172,49.8 2.284,49.348 2.41,48.895 C4.02,43.106 6.539,38.284 9.969,34.426 C15.539,27.997 22.719,24.194 31.508,23.01 C34.267,22.642 36.941,22.458 39.531,22.458 C45.192,22.458 50.451,23.338 55.305,25.1 C63.445,28.315 69.449,33.897 73.312,41.821 C76.52,48.055 78.312,55.209 78.692,63.272" id="Fill-27" fill="#616C6D" sketch:type="MSShapeGroup"></path>
            <path d="M143.82,29.924 C135.895,24.997 127.211,22.532 117.781,22.532 C108.566,22.965 100.148,25.641 92.535,30.569 C84.93,35.502 81.129,45.256 81.129,59.827 L81.129,63.592 C88.449,64.543 95.955,65.455 103.633,66.326 L103.633,55.325 C103.633,50.178 105.133,46.436 108.137,44.073 C111.137,41.717 114.563,40.536 118.422,40.536 C122.281,40.536 125.766,41.717 128.875,44.073 C131.977,46.436 133.539,50.178 133.539,55.325 L133.539,69.428 C140.809,70.115 148.204,70.767 155.723,71.382 L155.723,59.827 C155.723,44.829 151.754,34.862 143.82,29.924" id="Fill-28" fill="#3F494D" sketch:type="MSShapeGroup"></path>
            <path d="M155.723,71.382 L155.723,71.382 C148.204,70.767 140.809,70.115 133.539,69.428 L133.539,55.325 C133.539,50.178 131.977,46.436 128.875,44.073 C125.766,41.717 122.281,40.536 118.422,40.536 C114.563,40.536 111.137,41.717 108.137,44.073 C105.133,46.436 103.633,50.178 103.633,55.325 L103.633,66.326 C95.955,65.455 88.449,64.543 81.129,63.592 L81.129,59.827 C81.129,45.256 84.93,35.502 92.535,30.569 C100.148,25.641 108.566,22.965 117.781,22.532 C127.211,22.532 135.895,24.997 143.82,29.924 C151.754,34.862 155.723,44.829 155.723,59.827 L155.723,71.382" id="Fill-29" fill="#616C6D" sketch:type="MSShapeGroup"></path>
            <path d="M186.113,45.678 C189.117,42.682 192.977,41.176 197.688,41.176 C202.832,41.176 206.801,42.682 209.586,45.678 C212.156,48.467 213.656,52.752 214.082,58.542 L181.289,58.542 C181.5,52.969 183.109,48.686 186.113,45.678 M229.508,73.01 L236.008,54.514 C234.5,46.34 231.57,39.454 226.945,34.102 C219.875,26.389 209.906,22.532 197.043,22.532 C184.828,22.532 175.293,26.498 168.43,34.426 C161.785,42.141 158.461,52.868 158.461,66.581 C158.461,68.308 158.514,69.985 158.612,71.616 C166.062,72.214 173.63,72.776 181.307,73.303 C181.303,73.203 181.292,73.111 181.289,73.01 L229.508,73.01" id="Fill-30" fill="#3F494D" sketch:type="MSShapeGroup"></path>
            <path d="M181.307,73.303 C173.63,72.776 166.062,72.214 158.612,71.616 C158.514,69.985 158.461,68.308 158.461,66.581 C158.461,52.868 161.785,42.141 168.43,34.426 C175.293,26.498 184.828,22.532 197.043,22.532 C209.906,22.532 219.875,26.389 226.945,34.102 C231.57,39.454 234.5,46.34 236.008,54.514 L229.508,73.01 L181.289,73.01 C181.292,73.111 181.303,73.203 181.307,73.303 M181.289,58.542 L214.082,58.542 C213.656,52.752 212.156,48.467 209.586,45.678 C206.801,42.682 202.832,41.176 197.688,41.176 C192.977,41.176 189.117,42.682 186.113,45.678 C183.109,48.686 181.5,52.969 181.289,58.542" id="Fill-31" fill="#616C6D" sketch:type="MSShapeGroup"></path>
        </g>
    </g>
</svg>