<?xml version="1.0" encoding="UTF-8"?>
<svg width="445px" height="399px" viewBox="0 0 445 399" version="1.1" xmlns="http://www.w3.org/2000/svg" xmlns:xlink="http://www.w3.org/1999/xlink">
    <defs>
        <path d="M182.737557,375.152953 C182.159477,374.456353 181.288557,373.886453 180.802257,373.886453 C180.315907,373.886453 178.117657,372.671453 175.917357,371.186453 C173.717057,369.701453 171.592757,368.486453 171.196857,368.486453 C170.800937,368.486453 168.694957,367.170253 166.516957,365.561453 C164.338957,363.952653 161.245757,361.826453 159.643257,360.836453 C151.750057,355.960153 130.166257,339.814453 110.720257,324.239453 C100.874257,316.353553 84.1482572,300.510453 70.3072572,285.960453 C58.8272572,273.891453 54.3542572,268.520453 44.5992572,255.087453 C40.4653572,249.394953 36.0280572,243.319453 34.7387572,241.587453 C29.4180572,234.437953 14.5077572,206.580453 14.5077572,203.788453 C14.5077572,203.321073 13.5144672,200.692753 12.3004572,197.947553 C9.30665718,191.178053 5.98745718,179.478553 3.61605718,167.337553 C3.13266718,164.862553 2.28815718,160.610053 1.73945718,157.887553 C0.457857184,151.528953 0.380857184,111.589553 1.63539718,103.887553 C4.33839718,87.2925533 15.3193972,61.4685533 25.3433972,48.1345533 C33.6951972,37.0245533 53.5993972,19.1095533 63.2423972,14.0225533 C66.3860972,12.3642533 72.8056972,9.62295333 77.5083972,7.93095333 C101.633397,-0.749246674 126.250397,-2.26604667 147.258397,3.63215333 C161.302397,7.57555333 164.166397,8.63855333 172.008397,12.8198533 C179.062597,16.5809533 182.507397,18.9155533 193.608397,27.4598533 C199.331897,31.8652533 210.647397,44.0688533 214.202397,49.6698533 C217.224897,54.4322533 221.416097,56.9147533 222.243497,54.4327533 C223.809897,49.7336533 241.846497,31.8787533 250.877497,26.0877533 C254.277297,23.9075533 258.071397,21.3578533 259.308897,20.4217533 C265.776997,15.5289533 284.298897,7.72575333 296.208897,4.87575333 C312.629897,0.946153326 341.626897,1.61085333 358.131897,6.29505333 C366.186797,8.58105333 378.500714,11.2719107 392.607897,22.2380533 C406.71508,33.204196 406.71508,34.8740629 413.268746,42.7553205 C420.073491,50.93852 426.060842,59.6904787 429.803897,67.2830533 C434.593697,76.9990533 440.035897,91.6820533 441.201897,98.0380533 C444.056697,113.592053 444.823397,122.925053 444.381197,136.738053 C443.867207,152.791053 443.062997,159.054053 439.411397,175.438053 C438.071997,181.447753 428.039397,209.834053 426.673397,211.481053 C425.970407,212.328123 423.735497,216.309953 421.706997,220.329753 C417.436797,228.791453 410.039997,241.225753 407.720997,243.838753 C406.842607,244.828763 404.280797,248.473753 402.028097,251.938753 C397.503797,258.897853 397.701197,258.642753 386.009097,272.638753 C376.670797,283.817753 347.897097,313.409753 342.828097,317.047753 C339.323597,319.563153 324.687097,331.680753 317.809097,337.761753 C315.581597,339.730853 311.734097,342.714553 309.259097,344.392053 C306.784097,346.069453 301.114097,350.033153 296.659097,353.200153 C292.204097,356.367153 284.104097,361.877253 278.659097,365.445153 C273.214097,369.012653 266.738097,373.485753 264.269097,375.385353 C261.799497,377.284853 258.761897,379.244153 257.518897,379.739053 C256.275897,380.234053 252.423997,382.502053 248.959097,384.779153 C241.090597,389.592453 233.061097,394.062953 224.861097,398.305153 C215.321997,394.671253 206.128097,388.957553 196.379097,383.410153 C189.453157,379.563753 183.315557,375.849453 182.737557,375.152953 Z" id="path-1"></path>
    </defs>
    <g id="Icon" stroke="none" stroke-width="1" fill="none" fill-rule="evenodd">
        <g id="Heart">
            <mask id="mask-2" fill="white">
                <use xlink:href="#path-1"></use>
            </mask>
            <use id="Mask" fill="#FF0000" fill-rule="nonzero" xlink:href="#path-1"></use>
            <path d="M101.371412,352.778405 C100.680992,351.989454 99.6408235,351.343999 99.0600195,351.343999 C98.4791558,351.343999 95.8537139,349.967921 93.2258237,348.286048 C90.5979334,346.604174 88.0608124,345.228096 87.5879761,345.228096 C87.1151159,345.228096 84.5998751,343.737401 81.9986185,341.915315 C79.3973619,340.093229 75.7030519,337.685149 73.7891338,336.5639 C64.3620268,331.041126 38.5837885,312.754916 15.3587947,295.115066 C3.59939484,286.183695 -16.377014,268.240202 -32.907773,251.761241 C-46.6187125,238.092197 -51.9609627,232.009139 -63.6116783,216.795263 C-68.5489303,210.348082 -73.8485428,203.467125 -75.388396,201.505506 C-81.743082,193.408163 -99.550941,161.857465 -99.550941,158.695316 C-99.550941,158.165974 -100.73726,155.189205 -102.187192,152.080061 C-105.762785,144.413097 -109.727014,131.16254 -112.559255,117.411951 C-113.136583,114.608829 -114.145209,109.792555 -114.800539,106.70912 C-116.331196,99.5075312 -116.42316,54.2731792 -114.924822,45.5500892 C-111.69654,26.7550129 -98.5815728,-2.49259493 -86.6095817,-17.5943453 C-76.6347538,-30.1772497 -52.8625167,-50.4673246 -41.3455664,-56.2287319 C-37.5909427,-58.1068804 -29.9238044,-61.2116073 -24.307216,-63.1279236 C4.50606058,-72.9588981 33.9069488,-74.6767873 58.9974904,-67.9966355 C75.7706989,-63.5304406 79.1912678,-62.3265138 88.5572249,-57.5908794 C96.9822867,-53.3311529 101.096524,-50.6870441 114.354811,-41.0099865 C121.190575,-36.0205421 134.705046,-22.1990541 138.950899,-15.8555035 C142.56077,-10.46173 147.566457,-7.65011338 148.554648,-10.4611637 C150.425451,-15.7832452 171.967152,-36.0052524 182.753171,-42.5639922 C186.813663,-45.0332314 191.345081,-47.920957 192.823067,-48.9811601 C200.548131,-54.5226214 222.669442,-63.3603279 236.893944,-66.5881657 C256.506082,-71.038731 291.138147,-70.2859087 310.850609,-64.9807025 C320.470839,-62.3916368 335.177753,-59.34404 352.026423,-46.9240648 C368.875093,-34.5040896 368.875093,-32.6128406 376.70235,-23.6867281 C384.82948,-14.4186437 391.980369,-4.50639715 396.450822,4.09276038 C402.171437,15.0968557 408.671235,31.7264493 410.063827,38.9250938 C413.473408,56.5411599 414.389103,67.1114792 413.860969,82.7557328 C413.247094,100.936954 412.286599,108.030269 407.925374,126.586372 C406.325685,133.392806 394.343422,165.54241 392.711964,167.40776 C391.87236,168.36713 389.203134,172.87685 386.78043,177.429573 C381.68039,187.01308 372.84615,201.095853 370.076493,204.055271 C369.027403,205.176531 365.967749,209.304754 363.277276,213.229125 C357.873757,221.110826 358.109518,220.821906 344.14526,236.673421 C332.992223,249.334473 298.626852,282.849622 292.57278,286.969928 C288.387241,289.818807 270.90639,303.542893 262.69177,310.43008 C260.031394,312.660233 255.436199,316.039496 252.480225,317.93939 C249.524252,319.83917 242.752385,324.328356 237.431633,327.91522 C232.110881,331.502084 222.436786,337.742684 215.933644,341.783597 C209.430503,345.824057 201.696004,350.890177 198.747197,353.041615 C195.797673,355.192941 192.169767,357.411995 190.685212,357.972506 C189.200656,358.53313 184.600206,361.10181 180.461963,363.680795 C171.064356,369.132217 161.474461,374.195392 151.680933,379 C140.288074,374.884337 129.307499,368.413145 117.663949,362.130301 C109.392072,357.773965 102.061736,353.567243 101.371412,352.778405 Z" id="path2848-1" fill-opacity="0.1" fill="#FFFFFF" fill-rule="nonzero" mask="url(#mask-2)"></path>
        </g>
        <g id="Eyes" transform="translate(127.000000, 120.000000)" fill="#000000">
            <circle id="Right-Eye" cx="167.5" cy="22.5" r="22.5"></circle>
            <circle id="Left-Eye" cx="22.5" cy="22.5" r="22.5"></circle>
        </g>
        <g id="Pleased" display="none" transform="translate(130.000000, 132.000000)" stroke="#000000" stroke-linecap="round" stroke-width="12">
            <path d="M0,0 C4.32183908,9.33333333 11.0344828,14 20.137931,14 C29.2413793,14 35.862069,9.33333333 40,0" id="Smile" transform="translate(20.000000, 7.000000) rotate(-180.000000) translate(-20.000000, -7.000000) "></path>
            <path d="M145,0 C149.321839,9.33333333 156.034483,14 165.137931,14 C174.241379,14 180.862069,9.33333333 185,0" id="Smile" transform="translate(165.000000, 7.000000) rotate(-180.000000) translate(-165.000000, -7.000000) "></path>
        </g>
        <path d="M172,236 C182.912644,251.333333 199.862069,259 222.848276,259 C245.834483,259 262.551724,251.333333 273,236" id="Smile" stroke="#000000" stroke-width="22" stroke-linecap="round"></path>
    </g>
</svg>