<?xml version="1.0" encoding="UTF-8"?>
<svg xmlns="http://www.w3.org/2000/svg" width="151" height="152" viewBox="0 0 151 152">
  <g fill="none">
    <path fill="#000000" d="M69.7240866,124.944329 C45.5980779,124.944329 25.9687316,105.315636 25.9687316,81.188974 C25.9687316,57.0623117 45.5974242,37.4342727 69.7240866,37.4342727 C77.0995541,37.4342727 84.3893896,39.3096797 90.8268268,42.8611212 C90.9137662,42.8964199 90.9987445,42.9362944 91.0817619,42.9820519 C91.977303,43.473619 92.6316364,43.6742987 93.3408788,43.6742987 C95.5627359,43.6742987 97.3701602,41.8668745 97.3701602,39.6450173 C97.3701602,39.1508355 97.2760303,38.657961 97.0897316,38.1814286 C97.0668528,38.1219438 97.0465887,38.0618052 97.027632,38.0016666 C95.7725671,34.7744503 95.1358831,31.3811991 95.1358831,27.9127749 C95.1358831,12.547381 107.636199,0.047064935 123.001593,0.047064935 C138.366987,0.047064935 150.867303,12.547381 150.867303,27.9127749 C150.867303,43.2781688 138.366987,55.7784849 123.001593,55.7784849 C119.623377,55.7784849 116.305952,55.1686018 113.139528,53.9671386 C112.962381,53.9102684 112.794385,53.8520909 112.628351,53.7945671 C112.07403,53.6023853 111.768762,53.4964892 111.157571,53.4853766 L111.088935,53.484723 C108.92787,53.484723 107.170779,55.2934546 107.170779,57.516619 C107.170779,58.2853463 107.39826,58.9926277 107.931009,59.8829393 C107.944736,59.9051645 107.95781,59.9273896 107.970883,59.9509221 C111.574619,66.4262727 113.479442,73.7703636 113.479442,81.188974 C113.479442,105.314983 93.8500952,124.944329 69.7240866,124.944329 L69.7240866,124.944329 Z"/>
    <path fill="#F1C728" d="M69.7240866,42.3702077 C48.3186926,42.3702077 30.9046666,59.7842338 30.9046666,81.188974 C30.9046666,102.594368 48.3186926,120.008393 69.7240866,120.008393 C91.1294805,120.008393 108.543506,102.594368 108.543506,81.188974 C108.543506,74.6201472 106.860935,68.1186494 103.676208,62.3826104 C102.693727,60.7314156 102.235498,59.1835022 102.235498,57.516619 C102.235498,52.5721862 106.207255,48.5494415 111.089589,48.5494415 L111.245164,48.5507489 C112.643385,48.5755887 113.53239,48.8841255 114.246861,49.1318702 C114.390671,49.1815497 114.537095,49.2325368 114.693978,49.2815628 C114.741697,49.2965975 114.789416,49.3129393 114.835827,49.3305887 C117.457736,50.3333334 120.205805,50.8418961 123.002901,50.8418961 C135.647025,50.8418961 145.932675,40.5562467 145.932675,27.9121212 C145.932675,15.2679957 135.647025,4.98234632 123.002901,4.98234632 C110.358775,4.98234632 100.073126,15.2679957 100.073126,27.9121212 C100.073126,30.8216494 100.616987,33.6671169 101.690329,36.3687749 C101.720398,36.4452555 101.746545,36.5223896 101.768771,36.6001775 C102.12568,37.5865801 102.306749,38.608935 102.306749,39.6443636 C102.306749,44.5874892 98.2853117,48.6095801 93.3415325,48.6095801 C91.8642165,48.6095801 90.5084849,48.2520173 88.9834503,47.4558355 C88.8782077,47.4153074 88.7749264,47.3662813 88.6742598,47.310065 C82.9081515,44.0789264 76.3556666,42.3702077 69.7240866,42.3702077 L69.7240866,42.3702077 Z"/>
    <g fill="#000000" transform="translate(39.874 49.025)">
      <path d="M0.541900433,0.608575758 L5.66348052,0.608575758 C7.0486277,0.608575758 8.11347187,0.71708658 8.85866666,0.934108225 C9.60386147,1.15178355 10.1634113,1.46554978 10.537316,1.87606061 C10.9118745,2.28722511 11.1655022,2.78467533 11.2981991,3.36841126 C11.4308961,3.95214718 11.4975714,4.85553246 11.4975714,6.07922077 L11.4975714,7.78205628 C11.4975714,9.02993074 11.3694502,9.9405065 11.1112468,10.5124762 C10.8530433,11.0844459 10.3804329,11.5224113 9.69210822,11.8289871 C9.00312987,12.1355628 8.10301298,12.2878702 6.99241126,12.2878702 L5.62752813,12.2878702 L5.62752813,20.1634025 L0.541900433,20.1634025 L0.541900433,0.608575758 L0.541900433,0.608575758 Z M5.62752813,3.95410822 L5.62752813,8.92991775 C5.77264503,8.93906926 5.89684415,8.94299134 6.00143291,8.94299134 C6.46881386,8.94299134 6.79238528,8.82794372 6.97345454,8.59850217 C7.15452381,8.36906061 7.24538528,7.89252813 7.24538528,7.1675974 L7.24538528,5.5615065 C7.24538528,4.89279221 7.14079654,4.45809524 6.93161905,4.2567619 C6.72244156,4.05477489 6.28774459,3.95410822 5.62752813,3.95410822 Z M12.9591991,0.608575758 L16.5590129,0.608575758 C18.9586709,0.608575758 20.583065,0.701398268 21.4328485,0.88638961 C22.282632,1.07138095 22.9748788,1.54464503 23.5108961,2.30552813 C24.0456061,3.06641126 24.3142684,4.28029438 24.3142684,5.94717749 C24.3142684,7.46894372 24.1247013,8.49260607 23.7468745,9.0148961 C23.3683939,9.53914718 22.6231991,9.85291341 21.5119438,9.95684849 C22.5186104,10.2065541 23.1945151,10.5412381 23.5409654,10.9595931 C23.8867619,11.3786017 24.1024761,11.7629654 24.1868009,12.112684 C24.2717792,12.4637099 24.3136147,13.4278874 24.3136147,15.0058702 L24.3136147,20.1640562 L19.5901255,20.1640562 L19.5901255,13.6658268 C19.5901255,12.618632 19.5077619,11.9708355 19.3430346,11.7211298 C19.1776537,11.4714242 18.7449178,11.3465714 18.0448268,11.3465714 L18.0448268,20.1640562 L12.9591991,20.1640562 L12.9591991,0.608575758 L12.9591991,0.608575758 Z M18.0448268,3.95410822 L18.0448268,8.30238528 C18.6161429,8.30238528 19.0168485,8.22394372 19.2462901,8.06706061 C19.4763853,7.91017749 19.5901255,7.40030736 19.5901255,6.53875758 L19.5901255,5.46345454 C19.5901255,4.84376623 19.4796537,4.43717749 19.2580562,4.24368831 C19.0364589,4.05019914 18.6324849,3.95410822 18.0448268,3.95410822 Z M37.9016537,12.0590822 C37.9016537,14.0240433 37.8552424,15.4150736 37.7630736,16.2321732 C37.6695975,17.0499264 37.3800173,17.7970822 36.893026,18.4729871 C36.4060346,19.1488918 35.7477792,19.6685671 34.9182598,20.0313593 C34.0880866,20.3941515 33.1219481,20.5752208 32.0185368,20.5752208 C30.971342,20.5752208 30.0320043,20.403303 29.1985628,20.0614286 C28.3651212,19.7195541 27.6944459,19.2057619 27.1878442,18.5213593 C26.6805887,17.8369567 26.3785887,17.0924156 26.2811905,16.2870822 C26.1850996,15.4824025 26.1360736,14.0724156 26.1360736,12.0597359 L26.1360736,8.71354978 C26.1360736,6.74858874 26.1824849,5.35755844 26.2753074,4.53980519 C26.3681298,3.72270562 26.6577099,2.97554978 27.1447013,2.29899134 C27.6316926,1.62308659 28.2906018,1.10406494 29.1194675,0.741272727 C29.9483334,0.378480519 30.9151255,0.197411255 32.0185368,0.197411255 C33.0657316,0.197411255 34.005723,0.368675325 34.8391645,0.710549783 C35.6719524,1.05307792 36.3426277,1.56687013 36.8498831,2.25061905 C37.3571386,2.93567533 37.6591386,3.68021645 37.7558831,4.48554978 C37.851974,5.29022944 37.901,6.69956277 37.901,8.7128961 L37.901,12.0590822 L37.9016537,12.0590822 Z M32.8166797,5.63275758 C32.8166797,4.7228355 32.7663463,4.14106061 32.6663334,3.88743291 C32.5656666,3.63380519 32.3577966,3.50699134 32.0440303,3.50699134 C31.7786364,3.50699134 31.5746883,3.60961905 31.4341472,3.81552813 C31.2929524,4.02012987 31.222355,4.62609091 31.222355,5.63275758 L31.222355,14.7646623 C31.222355,15.8994503 31.2687662,16.6008485 31.3615887,16.8662424 C31.4544113,17.1316364 31.6701255,17.2649871 32.0074242,17.2649871 C32.3538745,17.2649871 32.5754718,17.1126797 32.6722165,16.8061039 C32.768961,16.4995282 32.8173334,15.7713291 32.8173334,14.6195454 L32.8173334,5.63275758 L32.8166797,5.63275758 Z" transform="translate(10.46)"/>
      <g transform="translate(0 20.918)">
        <path d="M7.12183982,0.519021645 L7.12183982,13.5886926 C7.12183982,15.5451558 7.10222944,16.8034892 7.06104761,17.363039 C7.02051948,17.9225887 6.8368355,18.4278831 6.50934199,18.8789221 C6.18184849,19.3293074 5.73865368,19.6417662 5.17975758,19.8149914 C4.62020779,19.9888702 3.77696104,20.0745022 2.65067099,20.0745022 L0.103935065,20.0745022 L0.103935065,16.6564113 C0.409857143,16.6805975 0.631454546,16.6930173 0.768073593,16.6930173 C1.1308658,16.6930173 1.41652381,16.6041169 1.62570129,16.4276234 C1.83487878,16.2504761 1.95580952,16.0328009 1.98783982,15.7752511 C2.02052381,15.5170476 2.03621212,15.0182901 2.03621212,14.2776709 L2.03621212,0.519021645 L7.12183982,0.519021645 L7.12183982,0.519021645 Z M20.6503939,0.519021645 L20.6503939,13.5886926 C20.6503939,15.0705844 20.6020217,16.1112424 20.505277,16.7106666 C20.4085325,17.3107445 20.1222208,17.9265108 19.6476494,18.558619 C19.1724242,19.191381 18.5461991,19.6698745 17.7696277,19.9960607 C16.9924025,20.3222467 16.0759438,20.4850129 15.0215585,20.4850129 C13.8540866,20.4850129 12.8232338,20.2921775 11.9296537,19.9051991 C11.0360736,19.5188745 10.3673593,19.0155411 9.92481818,18.3951991 C9.48227706,17.7748571 9.22015151,17.1211775 9.13974892,16.4321991 C9.05934632,15.7438745 9.01881818,14.295974 9.01881818,12.0898052 L9.01881818,0.517714286 L14.1037923,0.517714286 L14.1037923,15.1823636 C14.1037923,16.0360693 14.1495497,16.5818918 14.243026,16.8191775 C14.3351948,17.0564632 14.5228009,17.1754329 14.8038831,17.1754329 C15.1261472,17.1754329 15.3340173,17.044697 15.4261862,16.7825714 C15.518355,16.5204459 15.5654199,15.9027187 15.5654199,14.9280822 L15.5654199,0.517714286 L20.6503939,0.517714286 L20.6503939,0.519021645 Z M34.7097359,0.519021645 L32.1218182,20.0751558 L24.3979393,20.0751558 L21.4596494,0.519021645 L26.8224372,0.519021645 C27.4453939,5.90599567 27.8912034,10.4641039 28.1572511,14.1926926 C28.4200303,10.4242294 28.6984978,7.07869697 28.993961,4.15609524 L29.3469481,0.519675325 L34.7097359,0.519675325 L34.7097359,0.519021645 Z"/>
        <polygon points="35.567 .519 44.047 .519 44.047 4.433 40.652 4.433 40.652 8.141 43.829 8.141 43.829 11.861 40.652 11.861 40.652 16.16 44.385 16.16 44.385 20.075 35.567 20.075"/>
        <polygon points="57.201 .519 57.201 20.075 52.744 20.075 50.099 11.186 50.099 20.075 45.846 20.075 45.846 .519 50.099 .519 52.949 9.325 52.949 .519"/>
      </g>
      <polygon points="17.471 42.266 17.471 46.179 14.451 46.179 14.451 61.821 9.367 61.821 9.367 46.179 6.358 46.179 6.358 42.266"/>
      <path d="M30.2784415,42.2662727 L30.2784415,55.3352901 C30.2784415,56.8171818 30.2300693,57.8578398 30.1333246,58.4572641 C30.0365801,59.057342 29.7502684,59.6731082 29.275697,60.3052165 C28.8004718,60.9379783 28.1742467,61.4164718 27.3976754,61.742658 C26.6204503,62.0688442 25.7039914,62.2316104 24.6496061,62.2316104 C23.4821341,62.2316104 22.4512813,62.0387749 21.5577013,61.6517966 C20.6641212,61.2654718 19.995407,60.7621386 19.5528659,60.1417966 C19.1103246,59.5214546 18.8481991,58.8677749 18.7677966,58.1787966 C18.6873939,57.4904718 18.6468659,56.0425714 18.6468659,53.8364025 L18.6468659,42.2649654 L23.7318398,42.2649654 L23.7318398,56.928961 C23.7318398,57.7826666 23.7775975,58.3284892 23.8710736,58.5657749 C23.9632424,58.8030607 24.1508485,58.9220303 24.4319307,58.9220303 C24.7541948,58.9220303 24.962065,58.7912944 25.0542338,58.5291688 C25.1464025,58.2670433 25.1934675,57.649316 25.1934675,56.6746797 L25.1934675,42.2649654 L30.2784415,42.2649654 L30.2784415,42.2662727 Z"/>
      <polygon points="42.491 42.266 42.491 46.179 39.471 46.179 39.471 61.821 34.387 61.821 34.387 46.179 31.378 46.179 31.378 42.266"/>
      <polygon points="43.649 42.266 52.13 42.266 52.13 46.179 48.736 46.179 48.736 49.888 51.912 49.888 51.912 53.607 48.736 53.607 48.736 57.908 52.467 57.908 52.467 61.821 43.651 61.821 43.651 42.266"/>
    </g>
    <path fill="#000000" d="M41.0197056,32.3506061 C41.0197056,38.8259567 35.768697,44.0782727 29.2900779,44.0782727 C22.8114589,44.0782727 17.5611039,38.8259567 17.5611039,32.3506061 C17.5611039,25.8713334 22.8114589,20.6203246 29.2900779,20.6203246 C35.768697,20.6203246 41.0197056,25.8713334 41.0197056,32.3506061 Z"/>
    <g fill="#000000" transform="translate(0 48.372)">
      <path d="M19.5169134,5.44645887 L18.5501212,7.51470129 C17.9062467,8.89265801 17.4166407,9.80127273 17.081303,10.2398918 C16.746619,10.6778571 16.2890433,10.9491342 15.7079221,11.0517619 C15.1268009,11.1550433 14.3580736,10.9831255 13.3997792,10.535355 C12.5258095,10.1261515 11.9891386,9.74309524 11.7897662,9.38487878 C11.5903939,9.02666234 11.610658,8.51417749 11.8492511,7.84742424 C11.4348182,8.35860173 11.0615671,8.65733334 10.7281905,8.74427273 C10.3941602,8.83055844 10.115039,8.85082251 9.8921342,8.80571862 C9.66792208,8.76061472 9.10248918,8.52529004 8.1958355,8.10170562 L5.23270562,6.71590476 L6.50149783,4.0031342 L10.2346623,5.74911255 C10.8360476,6.03019481 11.2302164,6.15635497 11.4184762,6.12890043 C11.6060822,6.10079221 11.794342,5.88638528 11.9819481,5.48371862 L6.91658442,3.11543723 L8.28277489,0.193489178 L19.5169134,5.44645887 Z M16.2289048,7.4695974 L13.7311948,6.30147187 C13.5775801,6.62961905 13.5148268,6.88128571 13.5435887,7.0551645 C13.5723506,7.22904329 13.8338225,7.43168398 14.328658,7.66308659 L14.9463853,7.95201298 C15.3026407,8.11870129 15.5654199,8.16380519 15.7360303,8.08863203 C15.9066407,8.01345887 16.0707143,7.8068961 16.2289048,7.4695974 Z"/>
      <polygon points="15.576 14.577 14.097 19.748 11.711 19.064 12.302 16.995 10.042 16.348 9.488 18.285 7.218 17.636 7.772 15.699 5.151 14.95 4.5 17.226 2.114 16.542 3.653 11.166"/>
      <path d="M8.95279654,28.6762727 L9.3201645,25.7039914 L10.2327013,25.8164242 C10.6582468,25.8693723 10.9340996,25.8647966 11.0609134,25.802697 C11.1864199,25.7412511 11.2609394,25.6216277 11.2825108,25.4438268 C11.306697,25.251645 11.2459048,25.0960693 11.1007879,24.9777533 C10.955671,24.8594372 10.7236147,24.780342 10.404619,24.7411212 C9.99345454,24.6907878 9.67772727,24.7077835 9.45612987,24.7934156 C9.23453246,24.8738182 8.94691341,25.1444415 8.59196537,25.604632 C7.57026407,26.925065 6.76558442,27.736935 6.17792641,28.0402424 C5.58961472,28.3428961 4.69276623,28.4200303 3.48607359,28.2709914 C2.60948918,28.1631341 1.97541991,27.9807576 1.58582684,27.7238614 C1.19623377,27.4669654 0.896194805,27.0276926 0.687670996,26.4047359 C0.479147187,25.7817792 0.422930736,25.080381 0.519021645,24.2998874 C0.624917749,23.4429134 0.877238095,22.7323636 1.27598268,22.166277 C1.67538095,21.6008442 2.13753246,21.2543939 2.66243723,21.1295411 C3.18734199,21.0040346 3.91096537,20.9981515 4.83330736,21.1125454 L5.6386407,21.2119048 L5.27127273,24.1841862 L3.77369264,23.9991948 C3.31219481,23.9423246 3.01084849,23.9475541 2.86834632,24.0148831 C2.72649783,24.0822122 2.64217316,24.2220996 2.61602598,24.4351991 C2.58922511,24.6482987 2.65393939,24.8169481 2.80820779,24.9411472 C2.96247619,25.0653463 3.20368398,25.1483636 3.53379221,25.1888918 C4.25806926,25.2790996 4.74440693,25.2385714 4.99149783,25.067961 C5.2398961,24.8927749 5.67393939,24.4391212 6.29428138,23.7083074 C6.91919914,22.9774935 7.36762338,22.4976926 7.63759307,22.2689048 C7.90756277,22.0401169 8.2631645,21.8662381 8.70505195,21.7485758 C9.14693939,21.6302598 9.69472294,21.6119567 10.3490563,21.6930129 C11.2910087,21.809368 11.9662598,22.0146234 12.3721948,22.3094329 C12.7781298,22.6035887 13.0709783,23.0343636 13.2507402,23.603065 C13.4298485,24.1704589 13.4729914,24.8345975 13.3788614,25.5948268 C13.2762338,26.4256537 13.0546364,27.1172467 12.7134156,27.6696061 C12.3728485,28.222619 11.9865239,28.5677619 11.5550952,28.7076494 C11.1236667,28.8475368 10.419,28.857342 9.44044156,28.7364113 L8.95279654,28.6762727 Z"/>
      <polygon points="12.61 31.941 12.77 37.315 10.29 37.388 10.225 35.237 7.875 35.306 7.934 37.32 5.577 37.39 5.517 35.377 2.791 35.457 2.861 37.824 .379 37.898 .213 32.307"/>
      <path d="M14.0207749,45.4627662 L2.15975758,49.5293074 L1.56098702,46.2883636 L3.72205195,45.7131255 L3.51287445,44.5789914 L1.28578788,44.7927445 L0.67982684,41.5138874 L13.1742598,40.8785108 L14.0207749,45.4627662 Z M5.86873593,45.2300562 C7.21989178,44.814316 8.89788745,44.3384372 10.9014156,43.8004589 C8.50633334,43.9089697 6.76166234,44.0214025 5.66674892,44.1384113 L5.86873593,45.2300562 Z M17.4591298,56.0589134 L9.68491775,58.9324892 C8.8031039,59.2580217 8.17361039,59.4587013 7.79512987,59.5325671 C7.41730303,59.6070866 6.9878355,59.5730952 6.50738095,59.4292857 C6.02692641,59.2854761 5.60399567,59.0181212 5.23924242,58.6278745 C4.87448918,58.236974 4.57575758,57.7277576 4.34435497,57.1002251 C4.08745887,56.4060173 3.97633334,55.7503766 4.00901732,55.133303 C4.04170129,54.5162294 4.19466234,54.0083203 4.46593939,53.6089221 C4.73721645,53.2088702 5.06928571,52.9094849 5.46083982,52.7101126 C5.85239393,52.5107402 6.70413853,52.1688659 8.01672727,51.6838355 L14.899974,49.1390607 L16.0184199,52.1636364 L7.29571862,55.3882381 C6.78780952,55.5758442 6.47338961,55.7242294 6.35245887,55.8314329 C6.23152813,55.9386364 6.20276623,56.0759091 6.26421212,56.2439048 C6.33480952,56.4354329 6.45835497,56.5302165 6.63419481,56.5276018 C6.81003463,56.5249871 7.18851515,56.4171298 7.76767533,56.202723 L16.338723,53.033684 L17.4591298,56.0589134 Z M25.2849827,68.8605758 L14.1737359,74.608381 L11.3714113,70.5908659 L20.4784761,61.9681775 L22.4244805,64.7580822 C19.8483291,67.0361558 17.6388918,68.921368 15.7955151,70.413065 C17.8513377,69.1821862 19.6927533,68.1134199 21.3204156,67.2067662 L23.339632,66.0713246 L25.2849827,68.8605758 Z M30.5307619,74.3475628 L22.9650736,84.345593 L20.6582381,81.9916926 L22.1290173,80.3078138 L21.321723,79.4835239 L19.5933939,80.9059307 L17.2597576,78.5239221 L27.2689004,71.0183723 L30.5307619,74.3475628 Z M23.6396709,78.7089134 C24.5280217,77.6087706 25.653658,76.2765714 27.0159264,74.7116623 C25.0901862,76.1399524 23.7056926,77.2074113 22.8624459,77.916 L23.6396709,78.7089134 Z M36.2896797,85.7248571 L33.6756147,83.835723 L34.9378702,82.0884372 C35.3052381,81.5805282 35.5059178,81.2432294 35.5412165,81.0765411 C35.5765151,80.9105065 35.499381,80.7588528 35.3085065,80.6209264 C35.0934459,80.4660043 34.9012641,80.4437792 34.7326147,80.5542511 C34.5639654,80.6660303 34.2959567,80.9765282 33.9285887,81.4850909 L30.5549481,86.1549783 C30.201961,86.643277 30.0006277,86.9831905 29.9509481,87.174065 C29.9012684,87.3649393 29.9777489,87.5342424 30.1810433,87.6800129 C30.3758398,87.8205541 30.5569091,87.8382034 30.7249048,87.7316537 C30.8929004,87.6257576 31.1759438,87.2969567 31.5746883,86.7445975 L32.4872251,85.4810346 L35.1019438,87.3695151 L34.8182467,87.761723 C34.0671688,88.802381 33.4599004,89.4874372 32.9984025,89.8168918 C32.5369048,90.1456926 31.9368268,90.2927706 31.1968614,90.2568182 C30.4575497,90.2202122 29.7188918,89.9365151 28.9821948,89.4044199 C28.2160822,88.8507533 27.6859481,88.2559048 27.3885239,87.6198745 C27.092407,86.9838442 27.0407662,86.3621948 27.2336018,85.7549264 C27.4264372,85.147658 27.8787835,84.3514761 28.5906407,83.366381 L30.7124849,80.4293982 C31.2360822,79.7051212 31.6531298,79.1795628 31.964935,78.8533766 C32.2760866,78.5271905 32.6761386,78.2853291 33.1644372,78.1284459 C33.6527359,77.9709091 34.1854849,77.9532598 34.760723,78.0768052 C35.335961,78.2003506 35.9079307,78.4663982 36.4753246,78.8762555 C37.2453593,79.4325368 37.7728788,80.0398052 38.0591905,80.7000217 C38.3448485,81.3595844 38.4056407,81.9675065 38.2415671,82.5264025 C38.0781472,83.084645 37.6571775,83.8324546 36.9793117,84.7711386 L36.2896797,85.7248571 Z M46.7132555,85.0979783 L42.9251818,97.0505108 L39.9640129,95.6032641 L40.7869957,93.5245628 L39.7509134,93.017961 L38.5978225,94.9365108 L35.6020086,93.4722684 L42.5251298,83.051961 L46.7132555,85.0979783 Z M41.6766537,91.5118831 C42.1466494,90.1783766 42.7611082,88.5467923 43.5219914,86.6164761 C42.1839091,88.606277 41.2360736,90.0757489 40.6784849,91.0248918 L41.6766537,91.5118831 Z"/>
      <polygon points="57.152 88.605 53.678 100.511 50.964 99.719 50.933 93.837 49.354 99.248 46.765 98.493 50.238 86.588 52.827 87.343 52.999 93.21 54.563 87.85"/>
      <path d="M66.709316,95.3189134 L63.5030173,94.9718095 L63.7350736,92.8290476 C63.8030562,92.2060909 63.8102467,91.8132294 63.7586061,91.6511169 C63.7069654,91.4890043 63.5638095,91.3955282 63.3310996,91.3700346 C63.0670129,91.3412727 62.8885585,91.4170996 62.797697,91.5975151 C62.7068355,91.7779307 62.6264329,92.1805975 62.5591039,92.8048614 L61.9387619,98.5317489 C61.8740476,99.1311732 61.8675108,99.5259957 61.9184978,99.7162165 C61.9701386,99.9064372 62.1204849,100.014948 62.3682294,100.042403 C62.6068225,100.067896 62.7728571,99.9933766 62.8669871,99.8181905 C62.9604632,99.6423506 63.0441341,99.2168052 63.1173463,98.539593 L63.285342,96.9897187 L66.4909871,97.3374761 L66.4393463,97.817277 C66.3007662,99.0932598 66.1125065,99.9888009 65.8745671,100.503247 C65.6366277,101.017039 65.1875497,101.442584 64.5266797,101.776615 C63.8664632,102.111952 63.0840086,102.229615 62.1806234,102.132216 C61.240632,102.030242 60.4849783,101.775961 59.9130086,101.370026 C59.3403853,100.964091 58.9880519,100.449645 58.855355,99.8266883 C58.722658,99.2037316 58.7213506,98.2879264 58.8520866,97.0792727 L59.2429871,93.4768442 C59.3384242,92.5891472 59.4417056,91.9256623 59.5508702,91.487697 C59.6600346,91.0503853 59.8881688,90.6418355 60.234619,90.263355 C60.5810693,89.8848745 61.0353766,89.606407 61.5962338,89.4286061 C62.1570909,89.2514589 62.7859307,89.1991645 63.4814459,89.2749914 C64.4260129,89.3769654 65.1855887,89.6443203 65.7601732,90.0764025 C66.3347576,90.5084849 66.6890519,91.0072424 66.8230562,91.5726754 C66.9570607,92.1387619 66.9616364,92.9970433 66.8367835,94.1475195 L66.709316,95.3189134 Z"/>
      <polygon points="69.978 89.931 75.349 89.665 75.472 92.145 73.321 92.251 73.438 94.6 75.45 94.501 75.567 96.857 73.555 96.956 73.69 99.68 76.054 99.563 76.178 102.041 70.592 102.318"/>
      <path d="M85.4418138,91.6746494 L82.5087533,92.2812641 L82.3224546,91.3804935 C82.2355151,90.9601775 82.1433463,90.7006666 82.0439871,90.6013074 C81.9452813,90.5026018 81.8086623,90.4705714 81.6334761,90.5065239 C81.4432555,90.5457445 81.3157878,90.6529481 81.2497662,90.8281341 C81.1843982,91.003974 81.1843982,91.2491039 81.2497662,91.5641775 C81.3334372,91.9694589 81.4510996,92.262961 81.603407,92.4459914 C81.7504849,92.6296754 82.0988961,92.8153203 82.6492944,93.0042338 C84.2279307,93.5480952 85.2542077,94.0501212 85.7307402,94.509658 C86.206619,94.9698485 86.5667966,95.7947923 86.8125801,96.9844892 C86.9916883,97.849961 87.0217576,98.5088702 86.9047489,98.9599091 C86.7864329,99.4116018 86.4667835,99.8371472 85.9438398,100.233931 C85.4208961,100.631368 84.774407,100.909836 84.0037187,101.06868 C83.1585108,101.243866 82.4041645,101.232753 81.7406797,101.035996 C81.0765411,100.839238 80.601316,100.512398 80.313697,100.055476 C80.0260779,99.5992077 79.7881386,98.9154589 79.5998788,98.0048831 L79.4358052,97.209355 L82.3688659,96.6033939 L82.6741341,98.0813636 C82.7689178,98.5363246 82.8702381,98.8206754 82.9794025,98.9337619 C83.0892208,99.0468485 83.2487187,99.0814935 83.4585497,99.037697 C83.668381,98.9939004 83.8076147,98.8795065 83.8762511,98.6938614 C83.9442338,98.5075628 83.9448874,98.251974 83.8782122,97.9264415 C83.7304805,97.211316 83.5369914,96.7641991 83.2957835,96.5837835 C83.05,96.4053291 82.4812987,96.1392813 81.5903334,95.7862944 C80.697407,95.4287316 80.0992901,95.1587619 79.7959827,94.9763853 C79.4920217,94.7940086 79.2135541,94.5129264 78.9605801,94.1318312 C78.7069524,93.7520433 78.5134632,93.2389048 78.3801126,92.593723 C78.1879307,91.6628831 78.1663593,90.9588702 78.3147445,90.479723 C78.4631298,90.0005758 78.7775497,89.5848355 79.2573506,89.2325022 C79.7371515,88.8808225 80.3529178,88.6265411 81.1026883,88.4722727 C81.9224025,88.302316 82.6486407,88.2905497 83.2814025,88.4363203 C83.9141645,88.5820909 84.3652034,88.8363723 84.6358268,89.2004718 C84.9064503,89.5645714 85.1417749,90.2287099 85.3411472,91.1941948 L85.4418138,91.6746494 Z"/>
    </g>
    <g transform="translate(103.935 13.728)">
      <path fill="#000000" d="M18.6625541,32.5251386 L18.6625541,32.5251386 C17.9683463,32.5251386 17.3414675,32.2636666 16.7962987,31.7485671 C15.300026,30.2947835 13.5403203,28.8370779 11.6773334,27.2937402 C6.06941558,22.6473853 0.271277056,17.8428398 0.271277056,12.0499307 C0.271277056,5.23074459 4.84834199,0.0882467533 10.9184113,0.0882467533 C13.5834632,0.0882467533 16.2275975,1.05307792 18.6658225,2.8977619 C21.1047013,1.05307792 23.7494892,0.0882467533 26.4145411,0.0882467533 C32.4859178,0.0882467533 37.0636364,5.23074459 37.0636364,12.0499307 C37.0636364,17.8434935 31.2641905,22.6493463 25.6562727,27.296355 C23.7939393,28.8383853 22.0355411,30.2960909 20.5660693,31.7230736 C19.9038918,32.3826364 19.1632727,32.5251386 18.6625541,32.5251386 L18.6625541,32.5251386 Z"/>
      <path fill="#FFFFFF" d="M10.9177576,5.02287445 C7.55392208,5.02287445 5.20525108,7.91213853 5.20525108,12.049277 C5.20525108,15.5216234 10.3163723,19.7568138 14.8254546,23.4932467 C16.1177792,24.563974 17.4401732,25.6595411 18.6677835,26.7544546 C19.8999697,25.6549654 21.2184415,24.5626666 22.5068442,23.4958614 C27.0165801,19.7587749 32.1290086,15.5235844 32.1290086,12.049277 C32.1290086,7.91213853 29.7790303,5.02287445 26.4145411,5.02287445 C24.4188571,5.02287445 22.3342727,6.02365801 20.385,7.91736797 C19.4273593,8.84820779 17.9029783,8.84820779 16.9453377,7.91736797 C14.9967187,6.02365801 12.9127878,5.02287445 10.9177576,5.02287445 L10.9177576,5.02287445 Z"/>
    </g>
  </g>
</svg>
