<?xml version="1.0" encoding="UTF-8"?>
<svg viewBox="0 0 192 192" version="1.1" xmlns="http://www.w3.org/2000/svg" xmlns:xlink="http://www.w3.org/1999/xlink">
    <g id="Page-1" stroke="none" stroke-width="1" fill="none" fill-rule="evenodd">
        <g id="PJ_Logo_Sti_ge">
            <path d="M67.664,191.139 C30.756,191.139 0.727,161.111 0.727,124.202 C0.727,87.293 30.755,57.266 67.664,57.266 C78.947,57.266 90.099,60.135 99.947,65.568 C100.08,65.622 100.21,65.683 100.337,65.753 C101.707,66.505 102.708,66.812 103.793,66.812 C107.192,66.812 109.957,64.047 109.957,60.648 C109.957,59.892 109.813,59.138 109.528,58.409 C109.493,58.318 109.462,58.226 109.433,58.134 C107.513,53.197 106.539,48.006 106.539,42.7 C106.539,19.194 125.662,0.071 149.168,0.071 C172.674,0.071 191.797,19.194 191.797,42.7 C191.797,66.206 172.674,85.329 149.168,85.329 C144,85.329 138.925,84.396 134.081,82.558 C133.81,82.471 133.553,82.382 133.299,82.294 C132.451,82 131.984,81.838 131.049,81.821 L130.944,81.82 C127.638,81.82 124.95,84.587 124.95,87.988 C124.95,89.164 125.298,90.246 126.113,91.608 C126.134,91.642 126.154,91.676 126.174,91.712 C131.687,101.618 134.601,112.853 134.601,124.202 C134.601,161.11 104.572,191.139 67.664,191.139 Z" id="Path" fill="#000000"></path>
            <path d="M67.664,64.817 C34.918,64.817 8.278,91.457 8.278,124.202 C8.278,156.948 34.918,183.588 67.664,183.588 C100.41,183.588 127.05,156.948 127.05,124.202 C127.05,114.153 124.476,104.207 119.604,95.432 C118.101,92.906 117.4,90.538 117.4,87.988 C117.4,80.424 123.476,74.27 130.945,74.27 L131.183,74.272 C133.322,74.31 134.682,74.782 135.775,75.161 C135.995,75.237 136.219,75.315 136.459,75.39 C136.532,75.413 136.605,75.438 136.676,75.465 C140.687,76.999 144.891,77.777 149.17,77.777 C168.513,77.777 184.248,62.042 184.248,42.699 C184.248,23.356 168.513,7.621 149.17,7.621 C129.827,7.621 114.092,23.356 114.092,42.699 C114.092,47.15 114.924,51.503 116.566,55.636 C116.612,55.753 116.652,55.871 116.686,55.99 C117.232,57.499 117.509,59.063 117.509,60.647 C117.509,68.209 111.357,74.362 103.794,74.362 C101.534,74.362 99.46,73.815 97.127,72.597 C96.966,72.535 96.808,72.46 96.654,72.374 C87.833,67.431 77.809,64.817 67.664,64.817 Z" id="Path" fill="#E6AE40"></path>
            <path d="M149.083,71.094 C148.021,71.094 147.062,70.694 146.228,69.906 C143.939,67.682 141.247,65.452 138.397,63.091 C129.818,55.983 120.948,48.633 120.948,39.771 C120.948,29.339 127.95,21.472 137.236,21.472 C141.313,21.472 145.358,22.948 149.088,25.77 C152.819,22.948 156.865,21.472 160.942,21.472 C170.23,21.472 177.233,29.339 177.233,39.771 C177.233,48.634 168.361,55.986 159.782,63.095 C156.933,65.454 154.243,67.684 151.995,69.867 C150.982,70.875 149.85,71.094 149.083,71.094 Z" id="Path" fill="#000000"></path>
            <path d="M137.235,29.021 C132.089,29.021 128.496,33.441 128.496,39.77 C128.496,45.082 136.315,51.561 143.213,57.277 C145.19,58.915 147.213,60.591 149.091,62.266 C150.976,60.584 152.993,58.913 154.964,57.281 C161.863,51.564 169.684,45.085 169.684,39.77 C169.684,33.441 166.089,29.021 160.942,29.021 C157.889,29.021 154.7,30.552 151.718,33.449 C150.253,34.873 147.921,34.873 146.456,33.449 C143.476,30.552 140.287,29.021 137.235,29.021 Z" id="Path" fill="#FFFFFF"></path>
            <path d="M39.716,105.547 L39.716,75.695 L49.673,75.695 C52.314,75.695 54.288,76.433 55.597,77.909 C56.905,79.386 57.559,81.535 57.559,84.355 C57.559,85.471 57.46,86.473 57.262,87.362 C57.064,88.251 56.773,89.001 56.389,89.612 C56.004,90.224 55.561,90.744 55.057,91.17 C54.552,91.597 53.964,91.93 53.292,92.169 C52.619,92.409 51.933,92.581 51.23,92.683 C50.527,92.785 49.751,92.836 48.898,92.836 L46.305,92.836 L46.305,105.547 L39.716,105.547 Z M46.306,88.244 L48.412,88.244 C49.6,88.244 50.39,87.941 50.78,87.335 C51.17,86.73 51.365,85.7 51.365,84.247 C51.365,83.731 51.349,83.299 51.32,82.951 C51.29,82.602 51.217,82.249 51.104,81.889 C50.99,81.529 50.828,81.243 50.618,81.034 C50.408,80.825 50.116,80.653 49.745,80.521 C49.373,80.389 48.923,80.323 48.394,80.323 L46.305,80.323 L46.305,88.244 L46.306,88.244 Z" id="Shape" fill="#000000" fill-rule="nonzero"></path>
            <path d="M59.638,105.547 L59.638,75.695 L67.777,75.695 C69.037,75.695 70.153,75.766 71.126,75.911 C72.099,76.055 73.011,76.307 73.862,76.667 C74.715,77.027 75.417,77.502 75.969,78.09 C76.521,78.678 76.952,79.434 77.265,80.359 C77.577,81.283 77.733,82.364 77.733,83.599 C77.733,85.556 77.469,87.128 76.941,88.317 C76.413,89.506 75.459,90.429 74.079,91.089 L78.183,105.547 L71.36,105.547 L68.083,92.188 L66.229,92.188 L66.229,105.547 L59.638,105.547 Z M66.228,88.389 L67.92,88.389 C69.265,88.389 70.213,88.04 70.765,87.344 C71.317,86.649 71.593,85.598 71.593,84.194 C71.593,82.814 71.344,81.791 70.846,81.124 C70.348,80.458 69.487,80.125 68.263,80.125 L66.228,80.125 L66.228,88.389 Z" id="Shape" fill="#000000" fill-rule="nonzero"></path>
            <path d="M89.246,105.961 C87.59,105.961 86.177,105.742 85.006,105.304 C83.836,104.866 82.905,104.212 82.216,103.341 C81.526,102.471 81.028,101.448 80.721,100.272 C80.415,99.096 80.262,97.71 80.262,96.113 L80.262,85.094 C80.262,83.486 80.415,82.096 80.721,80.926 C81.028,79.755 81.526,78.738 82.216,77.874 C82.905,77.01 83.836,76.361 85.006,75.929 C86.177,75.497 87.59,75.282 89.246,75.282 C92.475,75.282 94.789,76.107 96.187,77.758 C97.584,79.408 98.285,81.854 98.285,85.095 L98.285,96.114 C98.285,99.355 97.585,101.806 96.187,103.469 C94.789,105.13 92.476,105.961 89.246,105.961 Z M88.229,101.082 C88.51,101.226 88.85,101.298 89.246,101.298 C89.642,101.298 89.984,101.229 90.272,101.091 C90.56,100.953 90.782,100.779 90.938,100.569 C91.094,100.359 91.217,100.087 91.307,99.75 C91.397,99.414 91.454,99.1 91.478,98.805 C91.502,98.511 91.514,98.16 91.514,97.752 L91.514,83.439 C91.514,83.043 91.502,82.698 91.478,82.403 C91.455,82.109 91.397,81.798 91.307,81.467 C91.217,81.136 91.094,80.869 90.938,80.665 C90.782,80.461 90.56,80.29 90.272,80.152 C89.984,80.014 89.642,79.945 89.246,79.945 C88.85,79.945 88.511,80.014 88.229,80.152 C87.947,80.29 87.727,80.458 87.572,80.656 C87.416,80.854 87.296,81.124 87.212,81.467 C87.128,81.809 87.077,82.118 87.059,82.394 C87.041,82.67 87.033,83.018 87.033,83.439 L87.033,97.752 C87.033,98.172 87.042,98.523 87.059,98.805 C87.078,99.087 87.128,99.4 87.212,99.742 C87.296,100.084 87.416,100.357 87.572,100.561 C87.728,100.764 87.947,100.938 88.229,101.082 Z" id="Shape" fill="#000000" fill-rule="nonzero"></path>
            <path d="M22.402,138.44 L22.402,133.849 C22.486,133.849 22.564,133.849 22.636,133.849 C23.908,133.861 24.779,133.675 25.246,133.291 C25.751,132.883 26.003,132.061 26.003,130.824 L26.003,107.868 L32.593,107.868 L32.593,131.076 C32.569,132.36 32.446,133.437 32.224,134.307 C32.001,135.178 31.629,135.934 31.108,136.576 C30.586,137.219 29.875,137.689 28.974,137.99 C28.074,138.29 26.952,138.439 25.607,138.439 L22.402,138.439 L22.402,138.44 Z" id="Path" fill="#000000"></path>
            <path d="M44.629,138.135 C43.272,138.135 42.087,137.993 41.072,137.712 C40.057,137.43 39.218,137.03 38.551,136.515 C37.885,135.998 37.345,135.329 36.931,134.507 C36.517,133.685 36.226,132.778 36.058,131.788 C35.889,130.798 35.805,129.642 35.805,128.322 L35.805,107.869 L42.324,107.869 L42.324,129.295 C42.324,129.763 42.336,130.162 42.36,130.492 C42.383,130.822 42.44,131.179 42.531,131.563 C42.621,131.947 42.744,132.262 42.9,132.508 C43.055,132.754 43.281,132.957 43.575,133.119 C43.869,133.281 44.221,133.362 44.629,133.362 C45.036,133.362 45.385,133.281 45.673,133.119 C45.961,132.957 46.183,132.754 46.339,132.508 C46.495,132.262 46.618,131.946 46.708,131.563 C46.798,131.178 46.854,130.819 46.879,130.482 C46.903,130.146 46.915,129.751 46.915,129.294 L46.915,107.868 L53.451,107.868 L53.451,128.321 C53.451,129.977 53.309,131.388 53.027,132.552 C52.745,133.716 52.274,134.73 51.614,135.594 C50.954,136.458 50.048,137.098 48.895,137.512 C47.742,137.926 46.321,138.135 44.629,138.135 Z" id="Path" fill="#000000"></path>
            <polygon id="Path" fill="#000000" points="61.679 137.721 56.278 107.869 61.914 107.869 65.119 127.998 68.09 107.869 74.085 107.869 68.611 137.721"></polygon>
            <polygon id="Path" fill="#000000" points="77.055 137.721 77.055 107.869 90.469 107.869 90.469 112.37 83.645 112.37 83.645 119.752 88.848 119.752 88.848 124.343 83.645 124.343 83.645 133.256 90.541 133.256 90.541 137.721"></polygon>
            <polygon id="Path" fill="#000000" points="93.529 137.721 93.529 107.869 98.175 107.869 104.315 122.2 104.315 107.869 109.789 107.869 109.789 137.721 105.323 137.721 99.166 122.273 99.166 137.721"></polygon>
            <polygon id="Path" fill="#000000" points="35.054 170.229 35.054 145.256 30.463 145.256 30.463 140.377 46.199 140.377 46.199 145.256 41.661 145.256 41.661 170.229"></polygon>
            <path d="M57.38,170.643 C56.023,170.643 54.838,170.501 53.823,170.22 C52.808,169.938 51.969,169.538 51.302,169.023 C50.636,168.506 50.096,167.837 49.682,167.015 C49.268,166.193 48.977,165.286 48.809,164.296 C48.64,163.306 48.556,162.15 48.556,160.83 L48.556,140.377 L55.075,140.377 L55.075,161.803 C55.075,162.271 55.087,162.67 55.111,163 C55.134,163.33 55.191,163.687 55.282,164.071 C55.372,164.455 55.495,164.77 55.651,165.016 C55.806,165.262 56.032,165.465 56.326,165.627 C56.62,165.789 56.972,165.87 57.38,165.87 C57.787,165.87 58.136,165.789 58.424,165.627 C58.712,165.465 58.934,165.262 59.09,165.016 C59.246,164.77 59.369,164.454 59.459,164.071 C59.549,163.686 59.605,163.327 59.63,162.99 C59.654,162.654 59.666,162.259 59.666,161.802 L59.666,140.376 L66.202,140.376 L66.202,160.829 C66.202,162.485 66.06,163.896 65.778,165.06 C65.496,166.224 65.025,167.238 64.365,168.102 C63.705,168.966 62.799,169.606 61.646,170.02 C60.493,170.434 59.072,170.643 57.38,170.643 Z" id="Path" fill="#000000"></path>
            <polygon id="Path" fill="#000000" points="73.151 170.229 73.151 145.256 68.56 145.256 68.56 140.377 84.296 140.377 84.296 145.256 79.758 145.256 79.758 170.229"></polygon>
            <polygon id="Path" fill="#000000" points="86.853 170.229 86.853 140.377 100.267 140.377 100.267 144.878 93.443 144.878 93.443 152.26 98.646 152.26 98.646 156.851 93.443 156.851 93.443 165.764 100.339 165.764 100.339 170.229"></polygon>
        </g>
    </g>
</svg>
