<svg xmlns="http://www.w3.org/2000/svg" width="151" height="131" viewBox="0 0 151 131">
  <g fill="none">
    <path fill="#000000" d="M69.7240866,124.944329 C45.5980779,124.944329 25.9687316,105.315636 25.9687316,81.188974 C25.9687316,57.0623117 45.5974242,37.4342727 69.7240866,37.4342727 C77.0995541,37.4342727 84.3893896,39.3096797 90.8268268,42.8611212 C90.9137662,42.8964199 90.9987446,42.9362944 91.0817619,42.9820519 C91.977303,43.473619 92.6316364,43.6742987 93.3408788,43.6742987 C95.5627359,43.6742987 97.3701602,41.8668745 97.3701602,39.6450173 C97.3701602,39.1508355 97.2760303,38.657961 97.0897316,38.1814286 C97.0668528,38.1219437 97.0465887,38.0618052 97.027632,38.0016667 C95.7725671,34.7744502 95.1358831,31.3811991 95.1358831,27.9127749 C95.1358831,12.547381 107.636199,0.0470649351 123.001593,0.0470649351 C138.366987,0.0470649351 150.867303,12.547381 150.867303,27.9127749 C150.867303,43.2781688 138.366987,55.7784848 123.001593,55.7784848 C119.623377,55.7784848 116.305952,55.1686017 113.139528,53.9671385 C112.962381,53.9102684 112.794385,53.8520909 112.628351,53.7945671 C112.07403,53.6023853 111.768762,53.4964892 111.157571,53.4853766 L111.088935,53.4847229 C108.92787,53.4847229 107.170779,55.2934545 107.170779,57.516619 C107.170779,58.2853463 107.39826,58.9926277 107.931009,59.8829394 C107.944736,59.9051645 107.95781,59.9273896 107.970883,59.9509221 C111.574619,66.4262727 113.479442,73.7703636 113.479442,81.188974 C113.479442,105.314983 93.8500952,124.944329 69.7240866,124.944329 L69.7240866,124.944329 Z"/>
    <path fill="#FFD300" d="M69.7240866,42.3702078 C48.3186926,42.3702078 30.9046667,59.7842338 30.9046667,81.188974 C30.9046667,102.594368 48.3186926,120.008394 69.7240866,120.008394 C91.1294805,120.008394 108.543506,102.594368 108.543506,81.188974 C108.543506,74.6201472 106.860935,68.1186494 103.676208,62.3826104 C102.693727,60.7314156 102.235498,59.1835022 102.235498,57.516619 C102.235498,52.5721861 106.207255,48.5494416 111.089589,48.5494416 L111.245165,48.5507489 C112.643385,48.5755887 113.53239,48.8841255 114.246861,49.1318701 C114.390671,49.1815498 114.537095,49.2325368 114.693978,49.2815628 C114.741697,49.2965974 114.789416,49.3129394 114.835827,49.3305887 C117.457736,50.3333333 120.205805,50.8418961 123.0029,50.8418961 C135.647026,50.8418961 145.932675,40.5562468 145.932675,27.9121212 C145.932675,15.2679957 135.647026,4.98234632 123.0029,4.98234632 C110.358775,4.98234632 100.073126,15.2679957 100.073126,27.9121212 C100.073126,30.8216494 100.616987,33.6671169 101.690329,36.3687749 C101.720398,36.4452554 101.746545,36.5223896 101.768771,36.6001775 C102.12568,37.5865801 102.306749,38.6089351 102.306749,39.6443636 C102.306749,44.5874892 98.2853117,48.6095801 93.3415325,48.6095801 C91.8642165,48.6095801 90.5084848,48.2520173 88.9834502,47.4558355 C88.8782078,47.4153074 88.7749264,47.3662814 88.6742597,47.3100649 C82.9081515,44.0789264 76.3556667,42.3702078 69.7240866,42.3702078 L69.7240866,42.3702078 Z"/>
    <g fill="#000000" transform="translate(39.874 49.026)">
      <g transform="translate(10.459)">
        <path d="M.541900433.608575758L5.66348052.608575758C7.04862771.608575758 8.11347186.71708658 8.85866667.934108225 9.60386147 1.15178355 10.1634113 1.46554978 10.537316 1.87606061 10.9118745 2.28722511 11.1655022 2.78467532 11.2981991 3.36841126 11.4308961 3.95214719 11.4975714 4.85553247 11.4975714 6.07922078L11.4975714 7.78205628C11.4975714 9.02993074 11.3694502 9.94050649 11.1112468 10.5124762 10.8530433 11.0844459 10.3804329 11.5224113 9.69210823 11.828987 9.00312987 12.1355628 8.10301299 12.2878701 6.99241126 12.2878701L5.62752814 12.2878701 5.62752814 20.1634026.541900433 20.1634026.541900433.608575758.541900433.608575758zM5.62752814 3.95410823L5.62752814 8.92991775C5.77264502 8.93906926 5.89684416 8.94299134 6.0014329 8.94299134 6.46881385 8.94299134 6.79238528 8.82794372 6.97345455 8.59850216 7.15452381 8.36906061 7.24538528 7.89252814 7.24538528 7.1675974L7.24538528 5.56150649C7.24538528 4.89279221 7.14079654 4.45809524 6.93161905 4.2567619 6.72244156 4.05477489 6.28774459 3.95410823 5.62752814 3.95410823zM12.9591991.608575758L16.559013.608575758C18.958671.608575758 20.5830649.701398268 21.4328485.88638961 22.282632 1.07138095 22.9748788 1.54464502 23.5108961 2.30552814 24.0456061 3.06641126 24.3142684 4.28029437 24.3142684 5.94717749 24.3142684 7.46894372 24.1247013 8.49260606 23.7468745 9.0148961 23.3683939 9.53914719 22.6231991 9.85291342 21.5119437 9.95684848 22.5186104 10.2065541 23.1945152 10.5412381 23.5409654 10.9595931 23.8867619 11.3786017 24.1024762 11.7629654 24.1868009 12.112684 24.2717792 12.46371 24.3136147 13.4278874 24.3136147 15.0058701L24.3136147 20.1640563 19.5901255 20.1640563 19.5901255 13.6658268C19.5901255 12.618632 19.5077619 11.9708355 19.3430346 11.7211299 19.1776537 11.4714242 18.7449177 11.3465714 18.0448268 11.3465714L18.0448268 20.1640563 12.9591991 20.1640563 12.9591991.608575758 12.9591991.608575758zM18.0448268 3.95410823L18.0448268 8.30238528C18.6161429 8.30238528 19.0168485 8.22394372 19.24629 8.06706061 19.4763853 7.91017749 19.5901255 7.40030736 19.5901255 6.53875758L19.5901255 5.46345455C19.5901255 4.84376623 19.4796537 4.43717749 19.2580563 4.24368831 19.0364589 4.05019913 18.6324848 3.95410823 18.0448268 3.95410823zM37.9016537 12.0590823C37.9016537 14.0240433 37.8552424 15.4150736 37.7630736 16.2321732 37.6695974 17.0499264 37.3800173 17.7970823 36.893026 18.472987 36.4060346 19.1488918 35.7477792 19.6685671 34.9182597 20.0313593 34.0880866 20.3941515 33.1219481 20.5752208 32.0185368 20.5752208 30.971342 20.5752208 30.0320043 20.403303 29.1985628 20.0614286 28.3651212 19.7195541 27.6944459 19.2057619 27.1878442 18.5213593 26.6805887 17.8369567 26.3785887 17.0924156 26.2811905 16.2870823 26.1850996 15.4824026 26.1360736 14.0724156 26.1360736 12.0597359L26.1360736 8.71354978C26.1360736 6.74858874 26.1824848 5.35755844 26.2753074 4.53980519 26.3681299 3.72270563 26.65771 2.97554978 27.1447013 2.29899134 27.6316926 1.62308658 28.2906017 1.10406494 29.1194675.741272727 29.9483333.378480519 30.9151255.197411255 32.0185368.197411255 33.0657316.197411255 34.0057229.368675325 34.8391645.710549784 35.6719524 1.05307792 36.3426277 1.56687013 36.8498831 2.25061905 37.3571385 2.93567532 37.6591385 3.68021645 37.7558831 4.48554978 37.851974 5.29022944 37.901 6.69956277 37.901 8.7128961L37.901 12.0590823 37.9016537 12.0590823zM32.8166797 5.63275758C32.8166797 4.7228355 32.7663463 4.14106061 32.6663333 3.8874329 32.5656667 3.63380519 32.3577965 3.50699134 32.0440303 3.50699134 31.7786364 3.50699134 31.5746883 3.60961905 31.4341472 3.81552814 31.2929524 4.02012987 31.222355 4.62609091 31.222355 5.63275758L31.222355 14.7646623C31.222355 15.8994502 31.2687662 16.6008485 31.3615887 16.8662424 31.4544113 17.1316364 31.6701255 17.264987 32.0074242 17.264987 32.3538745 17.264987 32.5754719 17.1126797 32.6722165 16.8061039 32.768961 16.4995281 32.8173333 15.771329 32.8173333 14.6195455L32.8173333 5.63275758 32.8166797 5.63275758z"/>
      </g>
      <g transform="translate(0 20.918)">
        <path d="M7.12183983.519021645L7.12183983 13.5886926C7.12183983 15.5451558 7.10222944 16.8034892 7.06104762 17.363039 7.02051948 17.9225887 6.8368355 18.4278831 6.50934199 18.8789221 6.18184848 19.3293074 5.73865368 19.6417662 5.17975758 19.8149913 4.62020779 19.9888701 3.77696104 20.0745022 2.650671 20.0745022L.103935065 20.0745022.103935065 16.6564113C.409857143 16.6805974.631454545 16.6930173.768073593 16.6930173 1.1308658 16.6930173 1.41652381 16.6041169 1.6257013 16.4276234 1.83487879 16.2504762 1.95580952 16.0328009 1.98783983 15.7752511 2.02052381 15.5170476 2.03621212 15.01829 2.03621212 14.277671L2.03621212.519021645 7.12183983.519021645 7.12183983.519021645zM20.6503939.519021645L20.6503939 13.5886926C20.6503939 15.0705844 20.6020216 16.1112424 20.5052771 16.7106667 20.4085325 17.3107446 20.1222208 17.9265108 19.6476494 18.558619 19.1724242 19.191381 18.5461991 19.6698745 17.7696277 19.9960606 16.9924026 20.3222468 16.0759437 20.485013 15.0215584 20.485013 13.8540866 20.485013 12.8232338 20.2921775 11.9296537 19.9051991 11.0360736 19.5188745 10.3673593 19.0155411 9.92481818 18.3951991 9.48227706 17.7748571 9.22015152 17.1211775 9.13974892 16.4321991 9.05934632 15.7438745 9.01881818 14.295974 9.01881818 12.0898052L9.01881818.517714286 14.1037922.517714286 14.1037922 15.1823636C14.1037922 16.0360693 14.1495498 16.5818918 14.243026 16.8191775 14.3351948 17.0564632 14.5228009 17.1754329 14.8038831 17.1754329 15.1261472 17.1754329 15.3340173 17.044697 15.4261861 16.7825714 15.518355 16.5204459 15.5654199 15.9027186 15.5654199 14.9280823L15.5654199.517714286 20.6503939.517714286 20.6503939.519021645zM34.7097359.519021645L32.1218182 20.0751558 24.3979394 20.0751558 21.4596494.519021645 26.8224372.519021645C27.4453939 5.90599567 27.8912035 10.4641039 28.1572511 14.1926926 28.4200303 10.4242294 28.6984978 7.07869697 28.993961 4.15609524L29.3469481.519675325 34.7097359.519675325 34.7097359.519021645z"/>
        <polygon points="35.567 .519 44.047 .519 44.047 4.433 40.653 4.433 40.653 8.141 43.829 8.141 43.829 11.861 40.653 11.861 40.653 16.161 44.385 16.161 44.385 20.075 35.567 20.075"/>
        <polygon points="57.201 .519 57.201 20.075 52.744 20.075 50.099 11.185 50.099 20.075 45.846 20.075 45.846 .519 50.099 .519 52.949 9.325 52.949 .519"/>
      </g>
      <polygon points="17.471 42.266 17.471 46.179 14.452 46.179 14.452 61.822 9.367 61.822 9.367 46.179 6.358 46.179 6.358 42.266"/>
      <path d="M30.2784416,42.2662727 L30.2784416,55.33529 C30.2784416,56.8171818 30.2300693,57.8578398 30.1333247,58.4572641 C30.0365801,59.057342 29.7502684,59.6731082 29.275697,60.3052165 C28.8004719,60.9379784 28.1742468,61.4164719 27.3976753,61.742658 C26.6204502,62.0688442 25.7039913,62.2316104 24.6496061,62.2316104 C23.4821342,62.2316104 22.4512814,62.0387749 21.5577013,61.6517965 C20.6641212,61.2654719 19.9954069,60.7621385 19.5528658,60.1417965 C19.1103247,59.5214545 18.8481991,58.8677749 18.7677965,58.1787965 C18.6873939,57.4904719 18.6468658,56.0425714 18.6468658,53.8364026 L18.6468658,42.2649654 L23.7318398,42.2649654 L23.7318398,56.928961 C23.7318398,57.7826667 23.7775974,58.3284892 23.8710736,58.5657749 C23.9632424,58.8030606 24.1508485,58.9220303 24.4319307,58.9220303 C24.7541948,58.9220303 24.9620649,58.7912944 25.0542338,58.5291688 C25.1464026,58.2670433 25.1934675,57.649316 25.1934675,56.6746797 L25.1934675,42.2649654 L30.2784416,42.2649654 L30.2784416,42.2662727 Z"/>
      <polygon points="42.49 42.266 42.49 46.179 39.471 46.179 39.471 61.822 34.386 61.822 34.386 46.179 31.378 46.179 31.378 42.266"/>
      <polygon points="43.649 42.266 52.13 42.266 52.13 46.179 48.736 46.179 48.736 49.888 51.912 49.888 51.912 53.608 48.736 53.608 48.736 57.908 52.468 57.908 52.468 61.821 43.65 61.821 43.65 42.266"/>
    </g>
    <path fill="#000000" d="M41.0197056,32.3506061 C41.0197056,38.8259567 35.768697,44.0782727 29.2900779,44.0782727 C22.8114589,44.0782727 17.5611039,38.8259567 17.5611039,32.3506061 C17.5611039,25.8713333 22.8114589,20.6203247 29.2900779,20.6203247 C35.768697,20.6203247 41.0197056,25.8713333 41.0197056,32.3506061 Z"/>
    <g fill="#000000" transform="translate(0 48.372)">
      <polygon points="19.523 5.558 17.123 10.464 14.893 9.373 15.877 7.364 13.765 6.331 12.889 8.119 10.77 7.082 11.646 5.293 6.967 3.004 8.385 .107"/>
      <polygon points="16.254 12.677 14.591 17.791 12.232 17.024 12.897 14.976 10.661 14.25 10.038 16.166 7.794 15.437 8.417 13.521 5.823 12.677 5.092 14.928 2.731 14.161 4.46 8.843"/>
      <path d="M13.910303,20.3608139 L13.5566623,22.6160087 C13.3213377,24.1194719 13.1036623,25.1280996 12.9036364,25.6418918 C12.7042641,26.1563377 12.3401645,26.543316 11.810684,26.8041342 C11.2805498,27.0642987 10.4941732,27.1133247 9.45024675,26.9499048 C8.49652814,26.8002121 7.87422511,26.5812294 7.58399134,26.292303 C7.2931039,26.0040303 7.16955844,25.5065801 7.21335498,24.7999524 C6.95776623,25.4065671 6.6825671,25.7968139 6.38579654,25.9733074 C6.08967965,26.1491472 5.82755411,26.2458918 5.59941991,26.2641948 C5.37128571,26.2824978 4.76336364,26.2145152 3.77434632,26.0595931 L0.543207792,25.553645 L1.00732035,22.5944372 L5.07909091,23.2330823 C5.73538528,23.3363636 6.14981818,23.3481299 6.32173593,23.2696883 C6.49430736,23.1905931 6.6152381,22.9317359 6.68387446,22.4931169 L1.15962771,21.6269913 L1.65969264,18.4409567 L13.910303,20.3608139 Z M11.3145411,23.2187013 L8.59000433,22.7911948 C8.53378788,23.1500649 8.54359307,23.4082684 8.61941991,23.5677662 C8.69524675,23.7272641 9.00312987,23.8495022 9.54306926,23.9338268 L10.2163593,24.0397229 C10.604645,24.1005152 10.8706926,24.0710996 11.0131948,23.9514762 C11.1563506,23.8305455 11.2563636,23.5867229 11.3145411,23.2187013 Z"/>
      <polygon points="12.644 33.511 .244 33.31 .296 30.085 12.696 30.286"/>
      <polygon points="12.721 36.52 13.306 41.866 10.84 42.136 10.605 39.997 8.268 40.253 8.487 42.255 6.142 42.513 5.922 40.51 3.212 40.807 3.47 43.161 1.003 43.43 .394 37.872"/>
      <polygon points="15.639 51.42 3.678 54.7 2.93 51.973 7.925 48.865 2.487 50.356 1.775 47.755 13.735 44.475 14.448 47.076 9.54 50.296 14.926 48.819"/>
      <polygon points="19.665 60.469 8.457 65.78 7.246 63.226 11.622 59.295 6.528 61.709 5.373 59.272 16.58 53.961 17.735 56.398 13.463 60.423 18.51 58.032"/>
      <polygon points="21.132 62.864 24.172 67.3 22.124 68.702 20.908 66.926 18.968 68.256 20.107 69.918 18.16 71.251 17.021 69.589 14.772 71.13 16.11 73.083 14.062 74.485 10.901 69.872"/>
      <polygon points="30.27 74.189 28.45 75.877 27.148 74.472 19.874 81.218 17.682 78.853 24.956 72.108 23.659 70.709 25.478 69.021"/>
    </g>
    <g transform="translate(104.589 13.727)">
      <path fill="#000000" d="M18.4958658,32.8127576 L18.4958658,32.8127576 C17.801658,32.8127576 17.1747792,32.5512857 16.6296104,32.0361861 C15.1333377,30.5824026 13.373632,29.124697 11.510645,27.5813593 C5.90272727,22.9350043 0.104588745,18.1304589 0.104588745,12.3375498 C0.104588745,5.51836364 4.68165368,0.375865801 10.7517229,0.375865801 C13.4167749,0.375865801 16.0609091,1.34069697 18.4991342,3.18538095 C20.938013,1.34069697 23.5828009,0.375865801 26.2478528,0.375865801 C32.3192294,0.375865801 36.8969481,5.51836364 36.8969481,12.3375498 C36.8969481,18.1311126 31.0975022,22.9369654 25.4895844,27.583974 C23.6272511,29.1260043 21.8688528,30.58371 20.399381,32.0106926 C19.7372035,32.6702554 18.9972381,32.8127576 18.4958658,32.8127576 L18.4958658,32.8127576 Z"/>
      <path fill="#FFFFFF" d="M10.7510693,5.31049351 C7.38723377,5.31049351 5.03856277,8.19975758 5.03856277,12.3368961 C5.03856277,15.8092424 10.149684,20.0444329 14.6587662,23.7808658 C15.9510909,24.8515931 17.2734848,25.9471602 18.5010952,27.0420736 C19.7332814,25.9425844 21.0517532,24.8502857 22.3401558,23.7834805 C26.8498918,20.0463939 31.9623203,15.8112035 31.9623203,12.3368961 C31.9623203,8.19975758 29.612342,5.31049351 26.2478528,5.31049351 C24.2521688,5.31049351 22.1675844,6.31127706 20.2183117,8.20498701 C19.260671,9.13582684 17.73629,9.13582684 16.7786494,8.20498701 C14.830684,6.31127706 12.7460996,5.31049351 10.7510693,5.31049351 L10.7510693,5.31049351 Z"/>
    </g>
  </g>
</svg>
