<?xml version="1.0" encoding="UTF-8" standalone="no"?>
<svg
   xmlns:dc="http://purl.org/dc/elements/1.1/"
   xmlns:cc="http://creativecommons.org/ns#"
   xmlns:rdf="http://www.w3.org/1999/02/22-rdf-syntax-ns#"
   xmlns:svg="http://www.w3.org/2000/svg"
   xmlns="http://www.w3.org/2000/svg"
   xmlns:sodipodi="http://sodipodi.sourceforge.net/DTD/sodipodi-0.dtd"
   xmlns:inkscape="http://www.inkscape.org/namespaces/inkscape"
   xml:space="preserve"
   enable-background="new 0 0 841.89 595.28"
   viewBox="0 0 224.40246 99.999995"
   height="100"
   width="224.40247"
   y="0px"
   x="0px"
   id="Ebene_1"
   version="1.1"
   sodipodi:docname="logo.svg"
   inkscape:version="0.92.2 5c3e80d, 2017-08-06"><sodipodi:namedview
     pagecolor="#ffffff"
     bordercolor="#666666"
     borderopacity="1"
     objecttolerance="10"
     gridtolerance="10"
     guidetolerance="10"
     inkscape:pageopacity="0"
     inkscape:pageshadow="2"
     inkscape:window-width="1223"
     inkscape:window-height="562"
     id="namedview18"
     showgrid="false"
     fit-margin-top="0"
     fit-margin-left="0"
     fit-margin-right="0"
     fit-margin-bottom="0"
     inkscape:zoom="1.9726838"
     inkscape:cx="112.20122"
     inkscape:cy="50.000013"
     inkscape:window-x="0"
     inkscape:window-y="0"
     inkscape:window-maximized="0"
     inkscape:current-layer="Ebene_1" /><metadata
     id="metadata33"><rdf:RDF><cc:Work
         rdf:about=""><dc:format>image/svg+xml</dc:format><dc:type
           rdf:resource="http://purl.org/dc/dcmitype/StillImage" /><dc:title></dc:title></cc:Work></rdf:RDF></metadata><defs
     id="defs31" /><g
     transform="matrix(1.5370664,0,0,1.5370664,-355.13612,-313.11426)"
     id="g26"><g
       id="g12"><path
         style="fill:#a4112e"
         id="path2"
         d="m 272.402,222.911 h -1.728 c -0.72,-3.168 -2.977,-6.049 -6.529,-6.049 -2.16,0 -4.608,1.008 -4.608,3.265 0,2.4 2.304,2.976 5.376,3.696 l 3.024,0.72 c 3.312,0.768 6.289,2.353 6.289,7.441 0,6.048 -4.945,8.785 -10.465,8.785 -1.296,0 -2.641,-0.096 -3.889,-0.336 -0.72,-0.144 -2.208,-0.432 -2.832,-0.432 -1.008,0 -2.064,0.336 -2.928,0.768 v -8.977 h 1.728 c 0.576,4.32 3.36,7.296 7.873,7.296 2.448,0 4.752,-1.392 4.752,-3.6 0,-2.064 -0.816,-3.024 -4.608,-3.984 l -2.304,-0.576 c -4.224,-1.056 -7.776,-2.592 -7.776,-7.584 0,-5.521 4.704,-8.161 9.745,-8.161 1.584,0 2.928,0.192 4.464,0.384 0.672,0.096 1.296,0.144 1.92,0.144 0.864,0 1.728,-0.144 2.496,-0.624 z"
         inkscape:connector-curvature="0" /><path
         style="fill:#a4112e"
         id="path4"
         d="m 284.737,240 c -1.104,-3.696 -2.544,-7.489 -3.984,-11.281 l -3.888,-10.273 c -0.336,-0.96 -0.72,-1.104 -1.584,-1.104 h -0.528 v -1.392 h 13.394 v 1.392 h -0.72 c -1.104,0 -2.016,0 -2.016,1.2 0,0.384 0.576,1.968 1.344,3.84 l 0.768,1.92 2.161,5.424 h 0.096 l 2.304,-5.809 c 0.912,-2.352 1.68,-4.608 1.68,-5.521 0,-1.056 -1.536,-1.056 -2.496,-1.056 v -1.392 h 13.057 v 1.392 h -0.672 c -0.864,0 -2.017,0.048 -2.017,0.672 0,0.72 0.864,2.496 2.304,5.953 l 2.4,5.76 h 0.096 l 2.016,-6.289 c 0.768,-2.352 1.488,-4.752 1.488,-5.28 0,-0.768 -0.96,-0.816 -1.776,-0.816 h -0.672 v -1.392 h 7.441 v 1.392 h -0.528 c -1.44,0 -1.776,0.96 -2.256,2.256 l -3.457,9.505 c -1.296,3.552 -2.592,7.201 -3.36,10.897 h -3.408 c -0.96,-2.88 -2.064,-5.761 -3.264,-8.641 l -1.344,-3.168 -2.544,-6.048 -2.641,6.672 -1.152,2.928 c -1.104,2.736 -2.112,5.473 -2.88,8.257 h -3.362 z"
         inkscape:connector-curvature="0" /><path
         style="fill:#a4112e"
         id="path6"
         d="m 315.648,238.608 h 1.152 c 1.824,0 2.16,-0.288 2.16,-5.856 v -6.625 c 0,-8.353 -0.192,-8.785 -2.064,-8.785 h -1.248 v -1.392 h 2.16 c 3.168,0 7.057,-0.24 9.649,-0.768 -0.096,1.968 -0.24,3.937 -0.24,5.905 v 13.009 c 0,3.36 0.048,4.512 1.872,4.512 h 0.912 V 240 h -14.354 v -1.392 z m 7.201,-34.899 c 2.448,0 4.8,2.064 4.8,4.608 0,2.544 -2.304,4.608 -4.8,4.608 -2.496,0 -4.849,-2.015 -4.849,-4.608 0,-2.544 2.353,-4.608 4.849,-4.608 z"
         inkscape:connector-curvature="0" /><path
         style="fill:#a4112e"
         id="path8"
         d="m 351.218,222.911 h -1.728 c -0.72,-3.168 -2.977,-6.049 -6.529,-6.049 -2.16,0 -4.608,1.008 -4.608,3.265 0,2.4 2.304,2.976 5.376,3.696 l 3.024,0.72 c 3.312,0.768 6.289,2.353 6.289,7.441 0,6.048 -4.944,8.785 -10.465,8.785 -1.296,0 -2.641,-0.096 -3.889,-0.336 -0.72,-0.144 -2.208,-0.432 -2.832,-0.432 -1.008,0 -2.064,0.336 -2.928,0.768 v -8.977 h 1.728 c 0.576,4.32 3.36,7.296 7.873,7.296 2.448,0 4.752,-1.392 4.752,-3.6 0,-2.064 -0.816,-3.024 -4.608,-3.984 l -2.304,-0.576 c -4.224,-1.056 -7.776,-2.592 -7.776,-7.584 0,-5.521 4.704,-8.161 9.745,-8.161 1.584,0 2.928,0.192 4.464,0.384 0.672,0.096 1.296,0.144 1.92,0.144 0.864,0 1.728,-0.144 2.496,-0.624 z"
         inkscape:connector-curvature="0" /><path
         style="fill:#a4112e"
         id="path10"
         d="m 375.218,222.911 h -1.728 c -0.72,-3.168 -2.977,-6.049 -6.529,-6.049 -2.16,0 -4.608,1.008 -4.608,3.265 0,2.4 2.304,2.976 5.376,3.696 l 3.024,0.72 c 3.312,0.768 6.289,2.353 6.289,7.441 0,6.048 -4.944,8.785 -10.465,8.785 -1.296,0 -2.641,-0.096 -3.889,-0.336 -0.72,-0.144 -2.208,-0.432 -2.832,-0.432 -1.008,0 -2.064,0.336 -2.928,0.768 v -8.977 h 1.728 c 0.576,4.32 3.36,7.296 7.873,7.296 2.448,0 4.752,-1.392 4.752,-3.6 0,-2.064 -0.816,-3.024 -4.608,-3.984 l -2.304,-0.576 c -4.224,-1.056 -7.776,-2.592 -7.776,-7.584 0,-5.521 4.704,-8.161 9.745,-8.161 1.584,0 2.928,0.192 4.464,0.384 0.672,0.096 1.296,0.144 1.92,0.144 0.864,0 1.728,-0.144 2.496,-0.624 z"
         inkscape:connector-curvature="0" /></g><g
       id="g24"><path
         style="fill:#a4112e"
         id="path14"
         d="m 241.753,268 -4.705,-12.481 c -1.152,-3.072 -2.208,-6.24 -3.744,-9.168 -0.528,-1.008 -1.104,-1.008 -2.256,-1.008 v -1.392 h 14.161 v 1.392 h -1.008 c -1.248,0 -2.16,0 -2.16,0.72 0,0.816 0.672,2.496 1.104,3.648 l 1.44,3.696 2.256,5.857 h 0.096 l 2.016,-4.897 0.96,-2.304 c 0.816,-1.92 1.92,-4.512 1.92,-5.568 0,-1.152 -1.104,-1.152 -2.064,-1.152 h -0.672 v -1.392 h 7.633 v 1.392 c -1.008,0 -1.584,0.048 -2.161,1.2 -0.672,1.392 -2.304,4.993 -3.792,8.497 l -1.584,3.744 c -1.296,3.072 -2.448,6.24 -3.648,9.217 h -3.792 z"
         inkscape:connector-curvature="0" /><path
         style="fill:#a4112e"
         id="path16"
         d="m 281.93,255.951 c 0,7.681 -4.656,12.816 -12.385,12.816 -7.729,0 -12.385,-5.136 -12.385,-12.816 0,-7.633 4.656,-12.77 12.385,-12.77 7.728,10e-4 12.385,5.137 12.385,12.77 z m -16.13,0 c 0,7.297 0.288,11.137 3.745,11.137 3.456,0 3.744,-3.84 3.744,-11.137 0,-7.249 -0.288,-11.089 -3.744,-11.089 -3.457,0 -3.745,3.84 -3.745,11.089 z"
         inkscape:connector-curvature="0" /><path
         style="fill:#a4112e"
         id="path18"
         d="m 296.136,243.95 h 4.752 v 1.392 h -4.752 v 15.025 c 0,1.776 0,5.232 2.112,5.232 2.304,0 2.304,-3.36 2.304,-5.04 h 1.729 v 1.152 c 0,4.176 -1.873,7.056 -6.817,7.056 -5.568,0 -7.488,-2.976 -7.537,-8.208 0,-1.44 -0.048,-2.881 -0.048,-4.32 v -10.897 h -3.12 v -1.392 c 5.04,-0.48 8.785,-5.664 10.033,-10.128 h 1.344 z"
         inkscape:connector-curvature="0" /><path
         style="fill:#a4112e"
         id="path20"
         d="m 313.752,256.095 c 0,5.856 0.24,10.993 5.28,10.993 4.561,0 7.153,-3.601 7.489,-7.44 h 2.016 c -0.768,6.24 -4.416,9.12 -11.041,9.12 -7.729,0 -12.385,-5.136 -12.385,-12.816 0,-7.633 4.656,-12.77 12.385,-12.77 7.345,0 11.665,4.896 11.665,12.337 v 0.576 z m 6.769,-1.68 c 0,-4.465 -0.192,-9.553 -3.024,-9.553 -3.072,0 -3.456,1.968 -3.744,9.553 z"
         inkscape:connector-curvature="0" /><path
         style="fill:#a4112e"
         id="path22"
         d="m 351.241,250.911 h -1.728 c -0.72,-3.168 -2.977,-6.049 -6.529,-6.049 -2.16,0 -4.608,1.008 -4.608,3.265 0,2.4 2.304,2.976 5.376,3.696 l 3.024,0.72 c 3.312,0.768 6.289,2.353 6.289,7.441 0,6.049 -4.945,8.784 -10.465,8.784 -1.296,0 -2.641,-0.096 -3.889,-0.336 -0.72,-0.144 -2.208,-0.432 -2.832,-0.432 -1.008,0 -2.064,0.336 -2.928,0.768 v -8.977 h 1.728 c 0.576,4.32 3.36,7.297 7.873,7.297 2.448,0 4.752,-1.393 4.752,-3.601 0,-2.063 -0.816,-3.024 -4.608,-3.984 l -2.304,-0.576 c -4.224,-1.056 -7.776,-2.592 -7.776,-7.584 0,-5.521 4.704,-8.161 9.745,-8.161 1.584,0 2.928,0.192 4.464,0.384 0.672,0.096 1.296,0.144 1.92,0.144 0.864,0 1.728,-0.144 2.496,-0.624 z"
         inkscape:connector-curvature="0" /></g></g></svg>
