<?xml version="1.0" encoding="UTF-8" standalone="no"?>
<svg
   xmlns:dc="http://purl.org/dc/elements/1.1/"
   xmlns:cc="http://creativecommons.org/ns#"
   xmlns:rdf="http://www.w3.org/1999/02/22-rdf-syntax-ns#"
   xmlns:svg="http://www.w3.org/2000/svg"
   xmlns="http://www.w3.org/2000/svg"
   xmlns:sodipodi="http://sodipodi.sourceforge.net/DTD/sodipodi-0.dtd"
   xmlns:inkscape="http://www.inkscape.org/namespaces/inkscape"
   xml:space="preserve"
   height="100"
   width="118.87882"
   viewBox="0 0 118.8788 100"
   y="0px"
   x="0px"
   id="Ebene_1"
   version="1.1"
   sodipodi:docname="logo_aps.svg"
   inkscape:version="0.92.2 5c3e80d, 2017-08-06"><sodipodi:namedview
     pagecolor="#ffffff"
     bordercolor="#666666"
     borderopacity="1"
     objecttolerance="10"
     gridtolerance="10"
     guidetolerance="10"
     inkscape:pageopacity="0"
     inkscape:pageshadow="2"
     inkscape:window-width="1628"
     inkscape:window-height="985"
     id="namedview27"
     showgrid="false"
     fit-margin-top="26"
     fit-margin-left="0"
     fit-margin-right="0"
     fit-margin-bottom="0"
     inkscape:zoom="4.2182348"
     inkscape:cx="91.120563"
     inkscape:cy="18.034708"
     inkscape:window-x="112"
     inkscape:window-y="168"
     inkscape:window-maximized="0"
     inkscape:current-layer="Ebene_1"
     inkscape:measure-start="54.7622,-0.948264"
     inkscape:measure-end="55.9476,65.6673" /><metadata
     id="metadata51"><rdf:RDF><cc:Work
         rdf:about=""><dc:format>image/svg+xml</dc:format><dc:type
           rdf:resource="http://purl.org/dc/dcmitype/StillImage" /><dc:title></dc:title></cc:Work></rdf:RDF></metadata><defs
     id="defs49" /><style
     id="style3"
     type="text/css">
	.st0{fill:#C10B25;}
</style><g
     transform="matrix(0.43529412,0,0,0.43529412,0,26)"
     id="g5"><path
       style="fill:#a4112e"
       id="path7"
       d="m 40,42.8 v 2 c 0,5.6 -2.2,8.7 -9,8.7 -4.6,0 -7.5,-1 -8.5,-4.4 -1.8,3.3 -5.8,4.4 -9.4,4.4 -6.6,0 -11.6,-3.5 -11.6,-9.9 0,-8.3 9.4,-11.5 17.3,-11.5 1.2,0 2.2,0 3.1,0.1 v -6.9 c 0,-3.5 -1,-5.8 -4.5,-5.8 -1.3,0 -3.8,0.2 -3.8,2 0,1.2 1.6,1.7 1.6,4 0,3.1 -2.6,5.2 -5.6,5.2 -3.2,0 -5.7,-2.3 -5.7,-5.6 0,-7 9.6,-8 14.9,-8 8.6,0 14.8,1.7 14.8,12.4 v 15.4 c 0,2.9 0,4.4 1.6,4.4 1.7,0 1.8,-2.7 1.8,-4.7 v -2 h 3 z m -18.2,-8 c -0.4,-0.1 -0.9,-0.2 -2,-0.2 -5.1,0 -6.7,4.1 -6.7,8.8 0,3.7 1.4,6.2 4.1,6.2 3.1,0 4.6,-2.2 4.6,-5.5 z"
       class="st0"
       inkscape:connector-curvature="0" /><path
       style="fill:#a4112e"
       id="path9"
       d="m 40.6,50.5 h 1.8 c 2.3,0 2.9,-1.1 2.9,-3.9 V 24.5 c 0,-3.7 -0.7,-4.1 -2.6,-4.1 h -2.1 v -2 h 2.3 c 4.5,0 10,-0.3 13.7,-1.1 v 5.9 h 0.1 c 2.2,-4.1 6.4,-5.9 10.7,-5.9 9.5,0 10.6,4.6 10.6,10.6 v 17.4 c 0,4.7 0.2,5.2 2.7,5.2 h 1.6 v 2 H 62.8 v -2 H 64 c 1.9,0 2.3,-0.8 2.3,-4.8 V 26.5 c 0,-3.6 -1.6,-4.8 -3.9,-4.8 -3.1,0 -5.4,2.4 -5.4,8.6 V 45 c 0,4.6 0.3,5.5 2.7,5.5 h 1.2 v 2 H 40.6 Z"
       class="st0"
       inkscape:connector-curvature="0" /><path
       style="fill:#a4112e"
       id="path11"
       d="m 80.7,50.5 h 1.8 c 2.3,0 2.9,-1.1 2.9,-3.9 V 24.5 c 0,-3.7 -0.7,-4.1 -2.6,-4.1 h -2.1 v -2 H 83 c 4.5,0 10,-0.3 13.7,-1.1 v 5.9 h 0.1 c 2.2,-4.1 6.4,-5.9 10.7,-5.9 9.5,0 10.6,4.6 10.6,10.6 v 17.4 c 0,4.7 0.2,5.2 2.7,5.2 h 1.6 v 2 h -19.5 v -2 h 1.2 c 1.9,0 2.3,-0.8 2.3,-4.8 V 26.5 c 0,-3.6 -1.6,-4.8 -3.9,-4.8 -3.1,0 -5.4,2.4 -5.4,8.6 V 45 c 0,4.6 0.3,5.5 2.7,5.5 h 1.2 v 2 H 80.7 Z"
       class="st0"
       inkscape:connector-curvature="0" /><path
       style="fill:#a4112e"
       id="path13"
       d="m 133.4,35.6 c 0,8.3 0.3,15.6 7.5,15.6 6.5,0 10.1,-5.1 10.6,-10.5 h 2.9 c -1.1,8.8 -6.3,12.9 -15.6,12.9 -10.9,0 -17.5,-7.3 -17.5,-18.2 0,-10.8 6.6,-18.1 17.5,-18.1 10.4,0 16.5,6.9 16.5,17.5 v 0.8 z M 139.9,3.1 C 141.2,1.4 142.7,0 145,0 c 2.3,0 4.5,1.2 4.5,3.6 0,2.7 -2.6,4 -4.6,5.2 l -8.2,4.5 h -4.4 z m 3.1,30.1 c 0,-6.3 -0.3,-13.5 -4.3,-13.5 -4.4,0 -4.9,2.8 -5.3,13.5 z"
       class="st0"
       inkscape:connector-curvature="0" /><path
       style="fill:#a4112e"
       id="path15"
       d="m 170.2,35.6 c 0,8.3 0.3,15.6 7.5,15.6 6.5,0 10.1,-5.1 10.6,-10.5 h 2.9 c -1.1,8.8 -6.3,12.9 -15.6,12.9 -10.9,0 -17.5,-7.3 -17.5,-18.2 0,-10.8 6.6,-18.1 17.5,-18.1 10.4,0 16.5,6.9 16.5,17.5 v 0.8 z m 9.6,-2.4 c 0,-6.3 -0.3,-13.5 -4.3,-13.5 -4.4,0 -4.9,2.8 -5.3,13.5 z"
       class="st0"
       inkscape:connector-curvature="0" /><path
       style="fill:#a4112e"
       id="path17"
       d="m 0,123.5 h 0.7 c 3,0 3.9,-1.6 3.9,-6.9 V 84.8 c 0,-5 -0.5,-6.3 -3.9,-6.3 H 0 v -2 h 2.3 c 4.5,0 10,-0.3 13.7,-1.1 v 5.7 h 0.1 c 1.8,-4.1 6,-5.7 9.8,-5.7 9.5,0 13.2,8.4 13.2,15.8 0,9.6 -2.5,20.4 -13.7,20.4 -3.9,0 -6.9,-1.8 -8.8,-5.2 h -0.1 v 12.7 c 0,3.3 1.9,4.2 3.4,4.2 h 1.3 v 2 H 0 Z M 16.4,93.9 c 0,4.8 0.1,14.6 6,14.6 3.7,0 4.5,-5.4 4.5,-15.4 0,-8 -0.3,-14.1 -4.4,-14.1 -5.4,0.1 -6.1,7.8 -6.1,14.9 z"
       class="st0"
       inkscape:connector-curvature="0" /><path
       style="fill:#a4112e"
       id="path19"
       d="m 76.7,93.6 c 0,10.9 -6.6,18.2 -17.5,18.2 -10.9,0 -17.5,-7.3 -17.5,-18.2 0,-10.8 6.6,-18.1 17.5,-18.1 10.9,0 17.5,7.3 17.5,18.1 z m -22.9,0 c 0,10.3 0.4,15.8 5.3,15.8 4.9,0 5.3,-5.4 5.3,-15.8 0,-10.3 -0.4,-15.7 -5.3,-15.7 -4.8,0 -5.3,5.4 -5.3,15.7 z"
       class="st0"
       inkscape:connector-curvature="0" /><path
       style="fill:#a4112e"
       id="path21"
       d="m 92.9,100.7 c 0,7.1 0.3,8 2.7,8 h 1.6 v 2 h -21 v -2 h 2.1 c 2.3,0 2.9,-1.1 2.9,-3.9 v -37 C 81.2,62.9 80.5,62 78.6,62 h -2.4 v -2 h 16.7 z"
       class="st0"
       inkscape:connector-curvature="0" /><path
       style="fill:#a4112e"
       id="path23"
       d="m 96.6,108.7 h 1.6 c 2.6,0 3.1,-0.4 3.1,-8.3 V 91 c 0,-11.8 -0.3,-12.4 -2.9,-12.4 h -1.8 v -2 h 3.1 c 4.5,0 10,-0.3 13.7,-1.1 -0.1,2.8 -0.3,5.6 -0.3,8.4 v 18.4 c 0,4.8 0.1,6.4 2.7,6.4 h 1.3 v 2 H 96.6 Z m 10.2,-49.4 c 3.5,0 6.8,2.9 6.8,6.5 0,3.6 -3.3,6.5 -6.8,6.5 -3.5,0 -6.9,-2.9 -6.9,-6.5 0,-3.6 3.4,-6.5 6.9,-6.5 z"
       class="st0"
       inkscape:connector-curvature="0" /><path
       style="fill:#a4112e"
       id="path25"
       d="m 132.1,76.6 h 6.7 v 2 h -6.7 v 21.3 c 0,2.5 0,7.4 3,7.4 3.3,0 3.3,-4.8 3.3,-7.1 h 2.4 v 1.6 c 0,5.9 -2.7,10 -9.7,10 -7.9,0 -10.6,-4.2 -10.7,-11.6 0,-2 -0.1,-4.1 -0.1,-6.1 V 78.6 H 116 v -2 c 7.1,-0.7 12.4,-8 14.2,-14.3 h 1.9 z"
       class="st0"
       inkscape:connector-curvature="0" /><path
       style="fill:#a4112e"
       id="path27"
       d="m 141.1,108.7 h 1.6 c 2.6,0 3.1,-0.4 3.1,-8.3 V 91 c 0,-11.8 -0.3,-12.4 -2.9,-12.4 h -1.8 v -2 h 3.1 c 4.5,0 10,-0.3 13.7,-1.1 -0.1,2.8 -0.3,5.6 -0.3,8.4 v 18.4 c 0,4.8 0.1,6.4 2.7,6.4 h 1.3 v 2 h -20.3 v -2 z m 10.2,-49.4 c 3.5,0 6.8,2.9 6.8,6.5 0,3.6 -3.3,6.5 -6.8,6.5 -3.5,0 -6.9,-2.9 -6.9,-6.5 0,-3.6 3.3,-6.5 6.9,-6.5 z"
       class="st0"
       inkscape:connector-curvature="0" /><path
       style="fill:#a4112e"
       id="path29"
       d="m 178.5,125.4 v -2 h 1.3 c 1.5,0 3.4,-1 3.4,-4.2 v -12.7 h -0.1 c -2,3.5 -5.1,5.2 -9.9,5.2 -10.2,0 -12.7,-10.8 -12.7,-19 0,-8 3.7,-17.3 13.2,-17.3 3.8,0 8,1.6 9.8,5.7 h 0.1 v -4.6 h 16 v 2 h -0.7 c -3.4,0 -3.9,1.3 -3.9,6.3 v 31.7 c 0,5.3 1,6.9 3.9,6.9 h 0.7 v 2 z m -5.7,-32.2 c 0,9.9 0.8,15.4 4.5,15.4 5.8,0 6,-9.9 6,-14.6 0,-7.1 -0.7,-14.8 -6.1,-14.8 -4.1,-0.1 -4.4,6 -4.4,14 z"
       class="st0"
       inkscape:connector-curvature="0" /><path
       style="fill:#a4112e"
       id="path31"
       d="m 196.5,76.6 h 3 c 4.5,0 10,-0.3 13.7,-1.1 -0.3,4.4 -0.3,8.5 -0.3,12.7 v 12.6 c 0,4.4 0.5,6.5 3.7,6.5 5.7,0 5.7,-9.5 5.7,-14.1 V 83.1 c 0,-3.9 -0.5,-4.5 -2.9,-4.5 h -1.6 v -2 h 2.9 c 4.5,0 10,-0.3 13.7,-1.1 -0.3,4.6 -0.4,8.2 -0.4,12.7 v 7.1 c 0,4.7 -0.1,9 0.2,10.9 0.2,2.4 2.1,2.4 4.1,2.4 v 2 c -5.1,0 -10.3,-0.1 -15.6,0.4 v -5.6 h -0.1 c -2.1,4 -5.9,6.3 -10.5,6.3 -10.5,0 -10.7,-8.2 -10.7,-12.1 V 85.2 c 0,-5.6 0,-6.7 -2.9,-6.7 h -1.8 v -1.9 z"
       class="st0"
       inkscape:connector-curvature="0" /><path
       style="fill:#a4112e"
       id="path33"
       d="m 251.2,93.8 c 0,8.3 0.3,15.6 7.5,15.6 6.5,0 10.1,-5.1 10.6,-10.5 h 2.9 c -1.1,8.8 -6.3,12.9 -15.6,12.9 -10.9,0 -17.5,-7.3 -17.5,-18.2 0,-10.8 6.6,-18.1 17.5,-18.1 10.4,0 16.5,6.9 16.5,17.5 v 0.8 z m 9.6,-2.4 c 0,-6.3 -0.3,-13.5 -4.3,-13.5 -4.4,0 -4.9,2.8 -5.3,13.5 z"
       class="st0"
       inkscape:connector-curvature="0" /><path
       style="fill:#a4112e"
       id="path35"
       d="m 27.7,144.7 h -2.4 c -1,-4.5 -4.2,-8.6 -9.2,-8.6 -3.1,0 -6.5,1.4 -6.5,4.6 0,3.4 3.3,4.2 7.6,5.2 l 4.3,1 c 4.7,1.1 8.9,3.3 8.9,10.5 0,8.6 -7,12.4 -14.8,12.4 -1.8,0 -3.7,-0.1 -5.5,-0.5 -1,-0.2 -3.1,-0.6 -4,-0.6 -1.4,0 -2.9,0.5 -4.1,1.1 v -12.7 h 2.4 c 0.8,6.1 4.8,10.3 11.2,10.3 3.5,0 6.7,-2 6.7,-5.1 0,-2.9 -1.2,-4.3 -6.5,-5.6 l -3.3,-0.8 c -6,-1.5 -11,-3.7 -11,-10.7 0,-7.8 6.7,-11.6 13.8,-11.6 2.2,0 4.1,0.3 6.3,0.5 1,0.1 1.8,0.2 2.7,0.2 1.2,0 2.4,-0.2 3.5,-0.9 v 11.3 z"
       class="st0"
       inkscape:connector-curvature="0" /><path
       style="fill:#a4112e"
       id="path37"
       d="m 31.1,134.8 h 3 c 4.5,0 10,-0.3 13.7,-1.1 -0.3,4.4 -0.3,8.5 -0.3,12.7 V 159 c 0,4.4 0.5,6.5 3.7,6.5 5.7,0 5.7,-9.5 5.7,-14.1 v -10.2 c 0,-3.9 -0.5,-4.5 -2.9,-4.5 h -1.6 v -2 h 2.9 c 4.5,0 10,-0.3 13.7,-1.1 -0.3,4.6 -0.4,8.2 -0.4,12.7 v 7.1 c 0,4.7 -0.1,9 0.2,10.9 0.2,2.4 2.1,2.4 4.1,2.4 v 2 c -5.1,0 -10.3,-0.1 -15.6,0.4 v -5.6 H 57 c -2.1,4 -5.9,6.3 -10.5,6.3 -10.5,0 -10.7,-8.2 -10.7,-12.1 v -14.4 c 0,-5.6 0,-6.7 -2.9,-6.7 h -1.8 z"
       class="st0"
       inkscape:connector-curvature="0" /><path
       style="fill:#a4112e"
       id="path39"
       d="m 72.5,166.9 h 1.6 c 2.6,0 3.1,-0.4 3.1,-8.3 v -9.4 c 0,-11.8 -0.3,-12.4 -2.9,-12.4 h -1.8 v -2 h 3.1 c 4.5,0 10,-0.3 13.7,-1.1 -0.1,2.8 -0.3,5.6 -0.3,8.4 v 18.4 c 0,4.8 0.1,6.4 2.7,6.4 H 93 v 2 H 72.5 Z m 10.2,-49.4 c 3.5,0 6.8,2.9 6.8,6.5 0,3.6 -3.3,6.5 -6.8,6.5 -3.5,0 -6.9,-2.9 -6.9,-6.5 0,-3.6 3.3,-6.5 6.9,-6.5 z"
       class="st0"
       inkscape:connector-curvature="0" /><path
       style="fill:#a4112e"
       id="path41"
       d="m 121,144.7 h -2.4 c -1,-4.5 -4.2,-8.6 -9.2,-8.6 -3.1,0 -6.5,1.4 -6.5,4.6 0,3.4 3.3,4.2 7.6,5.2 l 4.3,1 c 4.7,1.1 8.9,3.3 8.9,10.5 0,8.6 -7,12.4 -14.8,12.4 -1.8,0 -3.7,-0.1 -5.5,-0.5 -1,-0.2 -3.1,-0.6 -4,-0.6 -1.4,0 -2.9,0.5 -4.1,1.1 v -12.7 h 2.4 c 0.8,6.1 4.8,10.3 11.1,10.3 3.5,0 6.7,-2 6.7,-5.1 0,-2.9 -1.2,-4.3 -6.5,-5.6 l -3.3,-0.8 c -6,-1.5 -11,-3.7 -11,-10.7 0,-7.8 6.7,-11.6 13.8,-11.6 2.2,0 4.1,0.3 6.3,0.5 1,0.1 1.8,0.2 2.7,0.2 1.2,0 2.4,-0.2 3.5,-0.9 z"
       class="st0"
       inkscape:connector-curvature="0" /><path
       style="fill:#a4112e"
       id="path43"
       d="m 153,144.7 h -2.4 c -1,-4.5 -4.2,-8.6 -9.2,-8.6 -3.1,0 -6.5,1.4 -6.5,4.6 0,3.4 3.3,4.2 7.6,5.2 l 4.3,1 c 4.7,1.1 8.9,3.3 8.9,10.5 0,8.6 -7,12.4 -14.8,12.4 -1.8,0 -3.7,-0.1 -5.5,-0.5 -1,-0.2 -3.1,-0.6 -4,-0.6 -1.4,0 -2.9,0.5 -4.1,1.1 v -12.7 h 2.4 c 0.8,6.1 4.8,10.3 11.1,10.3 3.5,0 6.7,-2 6.7,-5.1 0,-2.9 -1.2,-4.3 -6.5,-5.6 l -3.3,-0.8 c -6,-1.5 -11,-3.7 -11,-10.7 0,-7.8 6.7,-11.6 13.8,-11.6 2.2,0 4.1,0.3 6.3,0.5 1,0.1 1.8,0.2 2.7,0.2 1.2,0 2.4,-0.2 3.5,-0.9 z"
       class="st0"
       inkscape:connector-curvature="0" /><path
       style="fill:#a4112e"
       id="path45"
       d="m 169.9,152 c 0,8.3 0.3,15.6 7.5,15.6 6.5,0 10.1,-5.1 10.6,-10.5 h 2.9 c -1.1,8.8 -6.3,12.9 -15.6,12.9 -10.9,0 -17.5,-7.3 -17.5,-18.2 0,-10.8 6.6,-18.1 17.5,-18.1 10.4,0 16.5,6.9 16.5,17.5 v 0.8 z m 9.6,-2.4 c 0,-6.3 -0.3,-13.5 -4.3,-13.5 -4.4,0 -4.9,2.8 -5.3,13.5 z"
       class="st0"
       inkscape:connector-curvature="0" /></g></svg>
