<?xml version="1.0" encoding="UTF-8" standalone="no"?>
<svg
   xmlns:dc="http://purl.org/dc/elements/1.1/"
   xmlns:cc="http://creativecommons.org/ns#"
   xmlns:rdf="http://www.w3.org/1999/02/22-rdf-syntax-ns#"
   xmlns:svg="http://www.w3.org/2000/svg"
   xmlns="http://www.w3.org/2000/svg"
   xmlns:sodipodi="http://sodipodi.sourceforge.net/DTD/sodipodi-0.dtd"
   xmlns:inkscape="http://www.inkscape.org/namespaces/inkscape"
   id="svg2"
   viewBox="0 0 103.7151 100"
   height="100"
   width="103.7151"
   version="1.0"
   sodipodi:docname="logo_unibe.svg"
   inkscape:version="0.92.2 5c3e80d, 2017-08-06">
  <sodipodi:namedview
     pagecolor="#ffffff"
     bordercolor="#666666"
     borderopacity="1"
     objecttolerance="10"
     gridtolerance="10"
     guidetolerance="10"
     inkscape:pageopacity="0"
     inkscape:pageshadow="2"
     inkscape:window-width="1046"
     inkscape:window-height="622"
     id="namedview44"
     showgrid="false"
     fit-margin-top="20"
     fit-margin-left="0"
     fit-margin-right="0"
     fit-margin-bottom="0"
     inkscape:zoom="1.1918492"
     inkscape:cx="-71.060685"
     inkscape:cy="16.701437"
     inkscape:window-x="239"
     inkscape:window-y="18"
     inkscape:window-maximized="0"
     inkscape:current-layer="svg2"
     units="px" />
  <metadata
     id="metadata47">
    <rdf:RDF>
      <cc:Work
         rdf:about="">
        <dc:format>image/svg+xml</dc:format>
        <dc:type
           rdf:resource="http://purl.org/dc/dcmitype/StillImage" />
        <dc:title></dc:title>
      </cc:Work>
    </rdf:RDF>
  </metadata>
  <defs
     id="defs85" />
  <g
     transform="matrix(0.57228127,0,0,0.57228127,-5.1259405,3.1551297)"
     id="g2462">
    <g
       style="fill:#161413;fill-rule:nonzero;stroke:none;stroke-width:1;stroke-linecap:butt;stroke-linejoin:miter;stroke-dasharray:none"
       id="g8"
       transform="translate(8.95703,53.8965)">
      <path
         id="path10"
         d="m 23.378,27.8262 c -3.75,4.7128 -8.2032,8.3759 -14.30573,8.3759 -4.1045,0 -7.7666,-1.3945 -7.7666,-6.2851 0,-1.2178 0.5254,-4.0117 1.1338,-6.8047 0,0 4.4473,-20.585 4.4473,-20.585 0,0 -6.88677,0 -6.88677,0 0,0 0.6084,-2.1777 0.6084,-2.1777 0,0 8.02737,0 8.02737,0 C 11.3409,0.3496 13.9571,0 16.6563,0 c 0,0 -5.3154,22.5928 -5.3154,22.5928 -0.7032,3.1416 -1.3116,6.1064 -1.3116,7.2412 0,2.2675 2.0088,2.7881 3.75,2.7881 1.4834,0 3.3155,-1.1338 4.5371,-1.92 3.9278,-2.5293 5.7579,-7.3242 6.8037,-11.6894 0,0 4.4493,-18.6631 4.4493,-18.6631 0,0 9.0713,0 9.0713,0 0,0 -5.8418,25.5557 -5.8418,25.5557 -0.6133,2.6171 -0.9629,4.625 -0.8741,5.2334 0.0899,0.875 0.9639,1.4003 1.7412,1.4003 3.1446,0 6.9825,-7.2421 8.1172,-9.7753 0,0 1.92,1.0517 1.92,1.0517 -2.2676,5.8408 -7.0635,12.3867 -13.7881,12.3867 -5.2315,0 -6.625,-3.3134 -6.5371,-8.3759"
         inkscape:connector-curvature="0" />
    </g>
    <g
       style="fill:#161413;fill-rule:nonzero;stroke:none;stroke-width:1;stroke-linecap:butt;stroke-linejoin:miter;stroke-dasharray:none"
       id="g12"
       transform="translate(55.415,29.4346)">
      <path
         id="path14"
         d="M 0,23.0049 C 0,23.0049 3.1133,0 3.1133,0 c 0,0 2.9004,0 2.9004,0 0,0 -1.2676,8.914 -1.2676,8.914 0,0 0.0625,0.0625 0.0625,0.0625 1.2364,-1.2343 2.2373,-1.665 3.6446,-1.665 3.1347,0 5.2773,2.8057 5.2773,6.8418 0,4.0107 -2.2051,9.085 -9.7568,9.085 C 2.542,23.2383 0.8702,23.1377 0,23.0049 Z M 4.3789,11.6836 c 0,0 -1.3046,9.2168 -1.3046,9.2168 0,0 1.5712,0 1.5712,0 3.9415,0 6.1758,-2.7676 6.1758,-6.8096 0,-2.7383 -1.2334,-4.3086 -3.2353,-4.3086 -0.9385,0 -3.0108,0.6338 -3.2071,1.9014"
         inkscape:connector-curvature="0" />
    </g>
    <g
       style="fill:none;stroke:#161413;stroke-width:1.79931998;stroke-linecap:butt;stroke-linejoin:miter;stroke-dasharray:none"
       id="g16"
       transform="translate(9.16602,126.383)">
      <path
         id="path18"
         d="M 0,0 C 0,0 181.022,0 181.022,0"
         inkscape:connector-curvature="0" />
    </g>
    <g
       style="fill:#161413;fill-rule:nonzero;stroke:none;stroke-width:1.79931998;stroke-linecap:butt;stroke-linejoin:miter;stroke-dasharray:none"
       id="g20"
       transform="translate(9.50879,133.387)">
      <path
         id="path22"
         d="M 0,7.76 C 0,7.76 1.04591,0 1.04591,0 c 0,0 0.9805,0 0.9805,0 0,0 -0.4297,3.008 -0.4297,3.008 0,0 0.0254,0.025 0.0254,0.025 0.4111,-0.417 0.7529,-0.564 1.2207,-0.564 1.0595,0 1.7822,0.944 1.7822,2.305 0,1.359 -0.7422,3.068 -3.2881,3.068 C 0.85451,7.842 0.29004,7.802 0,7.76 Z M 1.46781,3.947 c 0,0 -0.4366,3.104 -0.4366,3.104 0,0 0.5332,0 0.5332,0 1.3252,0 2.085,-0.932 2.085,-2.295 0,-0.923 -0.4199,-1.455 -1.0977,-1.455 -0.3154,0 -1.0126,0.211 -1.0839,0.646"
         inkscape:connector-curvature="0" />
    </g>
    <g
       style="fill:#e3003a;fill-rule:nonzero;stroke:none;stroke-width:1.79931998;stroke-linecap:butt;stroke-linejoin:miter;stroke-dasharray:none"
       id="g24"
       transform="translate(9.78711,147.286)">
      <path
         id="path26"
         d="M 0,4.877 C 0,4.877 0,0 0,0 c 0,0 2.09669,0 2.09669,0 0,0 0,4.529 0,4.529 0,1.039 0.2803,1.914 1.3496,1.914 1.0723,0 1.3486,-0.875 1.3486,-1.914 0,0 0,-4.529 0,-4.529 0,0 2.0987,0 2.0987,0 0,0 0,4.877 0,4.877 0,2.154 -1.3936,3.125 -3.4473,3.125 C 1.39359,8.002 0,7.031 0,4.877"
         inkscape:connector-curvature="0" />
    </g>
    <g
       style="fill:#e3003a;fill-rule:nonzero;stroke:none;stroke-width:1.79931998;stroke-linecap:butt;stroke-linejoin:miter;stroke-dasharray:none"
       id="g28"
       transform="translate(19.4863,147.286)">
      <path
         id="path30"
         d="m 4.6319,7.862 c 0,0 -2.75,-5.372 -2.75,-5.372 0,0 -0.0176,0 -0.0176,0 0,0 0.0635,5.372 0.0635,5.372 0,0 -1.9278,0 -1.9278,0 C 0,7.862 0,0 0,0 c 0,0 2.6739,0 2.6739,0 0,0 2.6543,5.342 2.6543,5.342 0,0 0.0263,0 0.0263,0 0,0 -0.0322,-5.342 -0.0322,-5.342 0,0 1.9131,0 1.9131,0 0,0 0,7.862 0,7.862 0,0 -2.6035,0 -2.6035,0"
         inkscape:connector-curvature="0" />
    </g>
    <g
       style="fill:#e3003a;fill-rule:nonzero;stroke:none;stroke-width:1.79931998;stroke-linecap:butt;stroke-linejoin:miter;stroke-dasharray:none"
       id="g32"
       transform="translate(29.8447,147.286)">
      <path
         id="path34"
         d="M 0,7.862 C 0,7.862 0,0 0,0 c 0,0 2.0918,0 2.0918,0 0,0 0,7.862 0,7.862 0,0 -2.0918,0 -2.0918,0"
         inkscape:connector-curvature="0" />
    </g>
    <g
       style="fill:#e3003a;fill-rule:nonzero;stroke:none;stroke-width:1.79931998;stroke-linecap:butt;stroke-linejoin:miter;stroke-dasharray:none"
       id="g36"
       transform="translate(34.1035,147.286)">
      <path
         id="path38"
         d="M 2.6358,7.862 C 2.6358,7.862 0,0 0,0 c 0,0 2.2305,0 2.2305,0 0,0 1.7412,6.169 1.7412,6.169 0,0 0.0254,0 0.0254,0 0,0 1.7558,-6.169 1.7558,-6.169 0,0 2.1534,0 2.1534,0 0,0 -2.6797,7.862 -2.6797,7.862 0,0 -2.5908,0 -2.5908,0"
         inkscape:connector-curvature="0" />
    </g>
    <g
       style="fill:#e3003a;fill-rule:nonzero;stroke:none;stroke-width:1.79931998;stroke-linecap:butt;stroke-linejoin:miter;stroke-dasharray:none"
       id="g40"
       transform="translate(44.127,147.286)">
      <path
         id="path42"
         d="M 0,7.862 C 0,7.862 0,0 0,0 c 0,0 5.5429,0 5.5429,0 0,0 0,1.488 0,1.488 0,0 -3.4472,0 -3.4472,0 0,0 0,1.623 0,1.623 0,0 3.2578,0 3.2578,0 0,0 0,1.487 0,1.487 0,0 -3.2578,0 -3.2578,0 0,0 0,1.773 0,1.773 0,0 3.5752,0 3.5752,0 0,0 0,1.491 0,1.491 0,0 -5.6709,0 -5.6709,0"
         inkscape:connector-curvature="0" />
    </g>
    <g
       style="fill:#e3003a;fill-rule:nonzero;stroke:none;stroke-width:1.79931998;stroke-linecap:butt;stroke-linejoin:miter;stroke-dasharray:none"
       id="g44"
       transform="translate(52.3867,147.286)">
      <path
         id="path46"
         d="m 4.461,7.862 c 0,0 -0.4551,-1.419 -0.4551,-1.419 C 3.5821,5.093 3.3086,4.751 2.5303,4.751 c 0,0 -0.4385,0 -0.4385,0 0,0 0,3.111 0,3.111 0,0 -2.0918,0 -2.0918,0 C 0,7.862 0,0 0,0 c 0,0 3.7403,0 3.7403,0 1.3925,0 2.5332,0.633 2.5332,1.982 0,1.045 -0.501,1.749 -1.5137,1.984 0,0 0,0.023 0,0.023 0.6767,0.18 0.7217,0.774 1.1142,1.731 0,0 0.7666,2.142 0.7666,2.142 0,0 -2.1796,0 -2.1796,0 z M 2.0918,3.269 c 0,0 0.5518,0 0.5518,0 0.6777,0 1.5332,-0.027 1.5332,-0.912 0,-0.737 -0.7295,-0.869 -1.5332,-0.869 0,0 -0.5518,0 -0.5518,0 0,0 0,1.781 0,1.781"
         inkscape:connector-curvature="0" />
    </g>
    <g
       style="fill:#e3003a;fill-rule:nonzero;stroke:none;stroke-width:1.79931998;stroke-linecap:butt;stroke-linejoin:miter;stroke-dasharray:none"
       id="g48"
       transform="translate(61.1445,147.151)">
      <path
         id="path50"
         d="m 0.0752,7.792 c 0,0 0.1856,-1.733 0.1856,-1.733 0.5371,0.297 1.291,0.519 2.1592,0.519 0.665,0 1.291,-0.133 1.291,-0.765 C 3.711,4.346 0,5.273 0,2.411 0,0.522 1.8438,0 3.42,0 c 0.7539,0 1.4951,0.117 2.0283,0.291 0,0 -0.1328,1.623 -0.1328,1.623 -0.5459,-0.246 -1.1534,-0.361 -1.75,-0.361 -0.5254,0 -1.4053,0.046 -1.4053,0.736 0,1.274 3.7119,0.417 3.7119,3.254 0,2.037 -1.71,2.594 -3.4521,2.594 -0.7354,0 -1.6475,-0.114 -2.3448,-0.345"
         inkscape:connector-curvature="0" />
    </g>
    <g
       style="fill:#e3003a;fill-rule:nonzero;stroke:none;stroke-width:1.79931998;stroke-linecap:butt;stroke-linejoin:miter;stroke-dasharray:none"
       id="g52"
       transform="translate(69.6846,147.286)">
      <path
         id="path54"
         d="M 0,7.862 C 0,7.862 0,0 0,0 c 0,0 2.0967,0 2.0967,0 0,0 0,7.862 0,7.862 0,0 -2.0967,0 -2.0967,0"
         inkscape:connector-curvature="0" />
    </g>
    <g
       style="fill:#e3003a;fill-rule:nonzero;stroke:none;stroke-width:1.79931998;stroke-linecap:butt;stroke-linejoin:miter;stroke-dasharray:none"
       id="g56"
       transform="translate(73.7324,147.286)">
      <path
         id="path58"
         d="m 1.9395,7.862 c 0,0 0,-6.302 0,-6.302 0,0 -1.9395,0 -1.9395,0 C 0,1.56 0,0 0,0 c 0,0 5.9688,0 5.9688,0 0,0 0,1.56 0,1.56 0,0 -1.9395,0 -1.9395,0 0,0 0,6.302 0,6.302 0,0 -2.0898,0 -2.0898,0"
         inkscape:connector-curvature="0" />
    </g>
    <g
       style="fill:#e3003a;fill-rule:nonzero;stroke:none;stroke-width:1.79931998;stroke-linecap:butt;stroke-linejoin:miter;stroke-dasharray:none"
       id="g60"
       transform="translate(80.6191,145.253)">
      <path
         id="path62"
         d="m 6.2852,9.895 c 0,0 -0.582,-1.677 -0.582,-1.677 0,0 -2.9541,0 -2.9541,0 0,0 -0.6211,1.677 -0.6211,1.677 0,0 -2.128,0 -2.128,0 0,0 2.9854,-7.862 2.9854,-7.862 0,0 2.5644,0 2.5644,0 0,0 3.0352,7.862 3.0352,7.862 0,0 -2.2998,0 -2.2998,0 z M 3.2325,6.733 c 0,0 1.9697,0 1.9697,0 0,0 -0.9317,-3.08 -0.9317,-3.08 0,0 -0.0253,0 -0.0253,0 0,0 -1.0127,3.08 -1.0127,3.08 z M 4.7774,1.622 c 0,0 0,-1.622 0,-1.622 0,0 1.6221,0 1.6221,0 0,0 0,1.622 0,1.622 0,0 -1.6221,0 -1.6221,0 z m -2.5713,0 c 0,0 0,-1.622 0,-1.622 0,0 1.626,0 1.626,0 0,0 0,1.622 0,1.622 0,0 -1.626,0 -1.626,0"
         inkscape:connector-curvature="0" />
    </g>
    <g
       style="fill:#e3003a;fill-rule:nonzero;stroke:none;stroke-width:1.79931998;stroke-linecap:butt;stroke-linejoin:miter;stroke-dasharray:none"
       id="g64"
       transform="translate(90.1484,147.286)">
      <path
         id="path66"
         d="m 1.9395,7.862 c 0,0 0,-6.302 0,-6.302 0,0 -1.9395,0 -1.9395,0 C 0,1.56 0,0 0,0 c 0,0 5.9737,0 5.9737,0 0,0 0,1.56 0,1.56 0,0 -1.9385,0 -1.9385,0 0,0 0,6.302 0,6.302 0,0 -2.0957,0 -2.0957,0"
         inkscape:connector-curvature="0" />
    </g>
    <g
       style="fill:#e3003a;fill-rule:nonzero;stroke:none;stroke-width:1.79931998;stroke-linecap:butt;stroke-linejoin:miter;stroke-dasharray:none"
       id="g68"
       transform="translate(9.84473,161.362)">
      <path
         id="path70"
         d="M 0,7.864 C 0,7.864 0,0 0,0 c 0,0 3.61617,0 3.61617,0 1.4639,0 2.5537,0.648 2.5537,1.998 0,0.994 -0.5058,1.544 -1.3867,1.835 0,0 0,0.021 0,0.021 1.0528,0.216 1.5899,0.777 1.5899,1.734 0,1.884 -1.6524,2.276 -3.0596,2.276 0,0 -3.31347,0 -3.31347,0 z M 2.09567,6.379 c 0,0 0.6162,0 0.6162,0 0.7657,0 1.5645,-0.113 1.5645,-0.912 0,-0.854 -0.8174,-0.935 -1.541,-0.935 0,0 -0.6397,0 -0.6397,0 0,0 0,1.847 0,1.847 z m 0,-3.266 c 0,0 0.584,0 0.584,0 0.6846,0 1.3945,-0.171 1.3945,-0.831 0,-0.722 -0.6728,-0.792 -1.3701,-0.792 0,0 -0.6084,0 -0.6084,0 0,0 0,1.623 0,1.623"
         inkscape:connector-curvature="0" />
    </g>
    <g
       style="fill:#e3003a;fill-rule:nonzero;stroke:none;stroke-width:1.79931998;stroke-linecap:butt;stroke-linejoin:miter;stroke-dasharray:none"
       id="g72"
       transform="translate(18.5811,161.362)">
      <path
         id="path74"
         d="M 0,7.864 C 0,7.864 0,0 0,0 c 0,0 5.5439,0 5.5439,0 0,0 0,1.49 0,1.49 0,0 -3.4473,0 -3.4473,0 0,0 0,1.623 0,1.623 0,0 3.2491,0 3.2491,0 0,0 0,1.488 0,1.488 0,0 -3.2491,0 -3.2491,0 0,0 0,1.778 0,1.778 0,0 3.5674,0 3.5674,0 0,0 0,1.485 0,1.485 0,0 -5.664,0 -5.664,0"
         inkscape:connector-curvature="0" />
    </g>
    <g
       style="fill:#e3003a;fill-rule:nonzero;stroke:none;stroke-width:1.79931998;stroke-linecap:butt;stroke-linejoin:miter;stroke-dasharray:none"
       id="g76"
       transform="translate(26.9883,161.362)">
      <path
         id="path78"
         d="m 4.4599,7.864 c 0,0 -0.4492,-1.419 -0.4492,-1.419 C 3.5791,5.095 3.3076,4.757 2.5342,4.757 c 0,0 -0.4424,0 -0.4424,0 0,0 0,3.107 0,3.107 0,0 -2.0918,0 -2.0918,0 C 0,7.864 0,0 0,0 c 0,0 3.7383,0 3.7383,0 1.3925,0 2.5341,0.635 2.5341,1.985 0,1.051 -0.4941,1.749 -1.5087,1.98 0,0 0,0.028 0,0.028 0.6728,0.176 0.7177,0.773 1.1162,1.736 0,0 0.7666,2.135 0.7666,2.135 0,0 -2.1866,0 -2.1866,0 z M 2.0918,3.272 c 0,0 0.5498,0 0.5498,0 0.6787,0 1.5342,-0.021 1.5342,-0.915 0,-0.734 -0.7286,-0.867 -1.5342,-0.867 0,0 -0.5498,0 -0.5498,0 0,0 0,1.782 0,1.782"
         inkscape:connector-curvature="0" />
    </g>
    <g
       style="fill:#e3003a;fill-rule:nonzero;stroke:none;stroke-width:1.79931998;stroke-linecap:butt;stroke-linejoin:miter;stroke-dasharray:none"
       id="g80"
       transform="translate(35.9658,161.362)">
      <path
         id="path82"
         d="m 4.625,7.864 c 0,0 -2.751,-5.372 -2.751,-5.372 0,0 -0.0166,0 -0.0166,0 0,0 0.0694,5.372 0.0694,5.372 0,0 -1.9268,0 -1.9268,0 C 0,7.864 0,0 0,0 c 0,0 2.666,0 2.666,0 0,0 2.6563,5.342 2.6563,5.342 0,0 0.0264,0 0.0264,0 0,0 -0.0342,-5.342 -0.0342,-5.342 0,0 1.914,0 1.914,0 0,0 0,7.864 0,7.864 0,0 -2.6035,0 -2.6035,0"
         inkscape:connector-curvature="0" />
    </g>
  </g>
</svg>
