<?xml version="1.0" encoding="UTF-8"?>
<svg xmlns="http://www.w3.org/2000/svg" viewBox="0 0 366.2687645 134.633401">
  <defs>
    <style>
      .cls-1 {
        fill: #fff;
      }
    </style>
  </defs>
  <g id="Word_Mark_Kopie_2" data-name="Word Mark Kopie 2">
    <g>
      <path class="cls-1" d="M130.452847,52.4598694c-1.4140625,0-2.6445312-.2119141-3.6923828-.6367188-1.0478516-.4257812-1.8623047-1.0751953-2.4443359-1.9511719-.5810547-.875-.8779297-1.9785156-.8896484-3.3105469h2.4082031c.0117188.9482422.2167969,1.7060547.6142578,2.2734375.3974609.5683594.9365234.9736328,1.6152344,1.2167969.6796875.2421875,1.4755859.3642578,2.3886719.3642578.8496094,0,1.5732422-.1083984,2.1708984-.3232422.5966797-.2158203,1.0517436-.5400391,1.3632812-.9726562.3105469-.4326172.4667969-.9658203.4667969-1.6005859,0-.5058594-.1259766-.9306641-.3759766-1.2753906-.2509766-.3447266-.65625-.6396484-1.2158203-.8867188-.5605469-.2470703-1.3183594-.4697266-2.2744141-.6699219l-1.6972656-.3466797c-.9990234-.2070312-1.8623047-.5068359-2.5908203-.8984375s-1.3027344-.9160156-1.7216797-1.5722656c-.4189453-.6552734-.6289062-1.4570312-.6289062-2.4052734,0-.9013672.234375-1.6894531.7021484-2.3652344.4677734-.6748047,1.1425781-1.1982422,2.0244-1.5683594.8808734-.3701172,1.9248187-.5546875,3.1308734-.5546875,1.5507812,0,2.8144531.2304688,3.7900391.6933594.9746094.4619141,1.6845703,1.0869141,2.1289062,1.8740234s.6787109,1.6875.7021484,2.7021484h-2.3320312c-.0585938-.7128906-.2285156-1.3037109-.5087891-1.7714844-.2792969-.4677734-.7216797-.8261719-1.3271484-1.0751953-.6054688-.2480469-1.4150391-.3730469-2.4296875-.3730469-.7519531,0-1.3876953.0966797-1.90625.2880859-.5185547.1923828-.9072266.4677734-1.1660156.828125s-.3876953.7890625-.3876953,1.2871094c0,.5126953.1025391.9433594.3085938,1.2919922.2050781.3486328.5615234.6484375,1.0693359.8994141.5068359.25,1.2148438.4697266,2.1230469.6582031l1.7041016.3457031c1.2841797.2705078,2.3154297.6220703,3.0927734,1.0546875.7783203.4335938,1.3408203.9580078,1.6894531,1.5751953.3486328.6162109.5224609,1.3515625.5224609,2.2060547,0,1.0175781-.2509766,1.9033203-.7548828,2.6552734-.5029297.7519531-1.2373047,1.3310547-2.203125,1.7363281-.9648438.4052734-2.1211079.6074219-3.46875.6074219Z"></path>
      <path class="cls-1" d="M141.2633939,52.0838928l-3.8603516-12.1259766h2.4033203l1.5039062,5.1699219c.2744141.9482422.5136719,1.7919922.7197266,2.5322266.2050781.7402344.4335938,1.6181641.6845703,2.6318359h-.4052734c.2578125-1.0576172.4970703-1.9921875.7167969-2.8046875.21875-.8125.4404297-1.5996094.6630859-2.359375l1.5097656-5.1699219h2.1855469l1.5166016,5.1699219c.2773438.9404297.5234375,1.8134766.7373047,2.6201172.2128906.8076172.4277344,1.6552734.6425781,2.5439453l-.3994141-.0058594c.1884766-.7949219.4013672-1.6425781.640625-2.5439453.2392578-.9003906.4833984-1.7714844.734375-2.6142578l1.5039062-5.1699219h2.4033203l-3.8603516,12.1259766h-2.3378906l-1.6103516-5.4228516c-.2421875-.8105469-.4570312-1.5712891-.6425781-2.2822266-.1865234-.7109375-.4150391-1.6083984-.6845703-2.6933594l.5107422.0058594c-.2392578.9404297-.4609375,1.7900391-.6669922,2.5498047-.2050781.7597656-.4335938,1.5664062-.6845703,2.4199219l-1.5859375,5.4228516h-2.3378906Z"></path>
      <path class="cls-1" d="M157.4782377,38.6073303c-.2509766,0-.4873047-.0654297-.7080078-.1943359-.2216797-.1289062-.3984375-.3056641-.5322266-.5283203-.1328125-.2236328-.1992188-.4628906-.1992188-.7167969,0-.2587891.0654297-.5.1962891-.7226562.1318359-.2236328.3066406-.3994141.5263672-.5292969.21875-.1289062.4580078-.1933594.7167969-.1933594.2617188,0,.5029297.0625.7226562.1875.21875.1259766.3945312.2998047.5253906.5234375.1308594.2226562.1972656.4677734.1972656.734375,0,.2578125-.0673828.4990234-.2001953.7226562-.1328125.2226562-.3105469.3984375-.53125.5253906-.2216797.1269531-.4599609.1914062-.7138672.1914062ZM156.3678861,52.0838928v-12.1259766h2.2265625v12.1259766h-2.2265625Z"></path>
      <path class="cls-1" d="M165.7204252,52.3719788c-1.0771484,0-1.9970703-.1484375-2.7587891-.4462891s-1.3564453-.7529297-1.7832031-1.3662109-.6689453-1.3896484-.7285156-2.3291016h2.2324219c.0634766.5791016.2060547,1.0410156.4296875,1.3837891.2226562.3427734.546875.5908203.9716797.7460938.4248047.1542969.9785156.2314453,1.6601562.2314453.6376953,0,1.1591797-.0654297,1.5625-.1962891.4033203-.1318359.7011719-.3251953.8925781-.5820312.1923828-.2568359.2880859-.5722656.2880859-.9492188,0-.3476562-.0810547-.6367188-.2431641-.8662109-.1630859-.2294922-.4345703-.4208984-.8144531-.5751953-.3798828-.1552734-.90625-.2929688-1.5800781-.4150391l-1.2275391-.2109375c-.8193359-.1416016-1.5117188-.3632812-2.0800781-.6669922s-1.0048828-.6992188-1.3095703-1.1865234c-.3056641-.4882812-.4589844-1.0703125-.4589844-1.7480469,0-.7167969.1835938-1.3388672.5498047-1.8652344s.8964844-.9345703,1.5917969-1.2216797c.6953125-.2880859,1.5205078-.4326172,2.4765625-.4326172,1.1201172,0,2.0537109.1582031,2.8017578.4736328s1.3105469.7744141,1.6865234,1.3769531c.3759766.6035156.5761719,1.3339844.5996094,2.1914062h-2.1796875c-.0273438-.5712891-.1582031-1.0224609-.390625-1.3535156-.2334135-.3310547-.5556641-.5634766-.9667969-.6962891s-.9257812-.2001953-1.5449219-.2001953c-.5175781,0-.9541016.0654297-1.3105469.1943359s-.6259766.3164062-.8105469.5605469c-.1835938.2451172-.2763672.5400391-.2763672.8847656,0,.3486328.0888672.6386719.2646484.8691406.1767578.2314453.4316406.4160156.7666016.5556641.3349609.1386719.7587891.2529297,1.2724609.34375l1.2216797.2109375c.9433594.1650391,1.7226562.3935547,2.3349609.6875.6132812.2939453,1.078125.6767578,1.3955078,1.1484375.3173828.4726562.4755859,1.0605469.4755859,1.765625,0,.7792969-.1992188,1.4443359-.5986328,1.9941406-.3994141.5507812-.9746094.9697266-1.7246094,1.2578125s-1.6455078.4316406-2.6875.4316406Z"></path>
      <path class="cls-1" d="M177.1881986,52.3719788c-1.0771484,0-1.9970703-.1484375-2.7587891-.4462891s-1.3564453-.7529297-1.7832031-1.3662109-.6689453-1.3896484-.7285156-2.3291016h2.2324219c.0634766.5791016.2060547,1.0410156.4296875,1.3837891.2226562.3427734.546875.5908203.9716797.7460938.4248047.1542969.9785156.2314453,1.6601562.2314453.6376953,0,1.1591797-.0654297,1.5625-.1962891.4033203-.1318359.7011719-.3251953.8925781-.5820312.1923828-.2568359.2880859-.5722656.2880859-.9492188,0-.3476562-.0810547-.6367188-.2431641-.8662109-.1630859-.2294922-.4345703-.4208984-.8144531-.5751953-.3798828-.1552734-.90625-.2929688-1.5800781-.4150391l-1.2275391-.2109375c-.8193359-.1416016-1.5117188-.3632812-2.0800781-.6669922s-1.0048828-.6992188-1.3095703-1.1865234c-.3056641-.4882812-.4589844-1.0703125-.4589844-1.7480469,0-.7167969.1835938-1.3388672.5498047-1.8652344s.8964844-.9345703,1.5917969-1.2216797c.6953125-.2880859,1.5205078-.4326172,2.4765625-.4326172,1.1201172,0,2.0537109.1582031,2.8017578.4736328s1.3105469.7744141,1.6865234,1.3769531c.3759766.6035156.5761719,1.3339844.5996094,2.1914062h-2.1796875c-.0273438-.5712891-.1582031-1.0224609-.390625-1.3535156-.2333984-.3310547-.5556641-.5634766-.9667969-.6962891s-.9257812-.2001953-1.5449219-.2001953c-.5175781,0-.9541016.0654297-1.3105469.1943359s-.6259766.3164062-.8105469.5605469c-.1835938.2451172-.2763672.5400391-.2763672.8847656,0,.3486328.0888672.6386719.2646484.8691406.1767578.2314453.4316406.4160156.7666016.5556641.3349609.1386719.7587891.2529297,1.2724609.34375l1.2216797.2109375c.9433594.1650391,1.7226562.3935547,2.3349609.6875.6132812.2939453,1.078125.6767578,1.3955078,1.1484375.3173828.4726562.4755859,1.0605469.4755859,1.765625,0,.7792969-.1992188,1.4443359-.5986328,1.9941406-.3994141.5507812-.9746094.9697266-1.7246094,1.2578125s-1.6455078.4316406-2.6875.4316406Z"></path>
      <path class="cls-1" d="M187.4928861,52.0838928l6.5556641-16.7314453h2.6972656l6.6796715,16.7314453h-2.4970543l-4.2939453-11.1035156c-.2080078-.5283203-.4082031-1.0488281-.5996094-1.5595703-.1923828-.5117188-.3769531-1.0097656-.5556641-1.4951172-.1777344-.4863281-.3652344-1.0029297-.5605469-1.5517578h.8867188c-.1757812.5449219-.3476562,1.0576172-.5136719,1.5400391-.1669922.4814453-.3457031.9785156-.5380859,1.4921875-.1914062.5126953-.3876953,1.0380859-.5869141,1.5742188l-4.2304688,11.1035156h-2.4433594ZM191.3112455,47.5604553v-2.0507812h8.2900391l.0058594,2.0507812h-8.2958984Z"></path>
      <path class="cls-1" d="M209.8063627,52.3661194c-1.1318359,0-2.1298828-.2587891-2.9931641-.7753906-.8642578-.5175781-1.5371094-1.2548828-2.0185547-2.2148438s-.7226562-2.078125-.7226562-3.3544922c0-1.2851562.2382812-2.40625.7138672-3.3632812.4755859-.9580078,1.1464844-1.6943359,2.0126953-2.2089844.8652344-.515625,1.8681641-.7734375,3.0078125-.7734375.9902344,0,1.8681641.1835938,2.6318359.5498047s1.3808594.8857422,1.8505859,1.5595703.7675781,1.4648438.8925781,2.3740234h-2.2910156c-.1054688-.5566406-.3076172-1.0244141-.6054688-1.4042969-.296875-.3798828-.6601562-.6630859-1.0898438-.8486328-.4287109-.1865234-.8935547-.2792969-1.3945474-.2792969-.6659995,0-1.2558432.1601562-1.7685385.4814453-.5136719.3212891-.9150391.8115234-1.2041016,1.4716797-.2900391.6601562-.4355469,1.4736328-.4355469,2.4414062,0,.9667969.1484375,1.7802734.4443359,2.4375.2949219.6582031.6992188,1.1494141,1.2128906,1.4716797.5126953.3232422,1.0966797.4853516,1.7509604.4853516.5088052,0,.9795083-.0966797,1.4131021-.2880859.4326172-.1923828.7998047-.4824219,1.1015625-.8720703.3007812-.3896484.5029297-.8730469.6044922-1.4482422h2.2734375c-.125.9355469-.4335938,1.7460938-.9248047,2.4316406-.4921875.6855469-1.1210938,1.2119141-1.8886719,1.578125-.7675781.3652344-1.6259766.5488281-2.5732422.5488281Z"></path>
      <path class="cls-1" d="M221.9430814,52.3661194c-1.0654297,0-2.0009766-.2597656-2.8056641-.7783203s-1.4267578-1.2578125-1.8652344-2.2148438c-.4384766-.9580078-.6582031-2.0751953-.6582031-3.3515625,0-1.2773438.2197266-2.3945312.6582031-3.3515625.4384766-.9580078,1.0605469-1.6962891,1.8652344-2.2148438.8046875-.5195312,1.7402344-.7792969,2.8056641-.7792969,1.0058594,0,1.8798828.2607422,2.6201172.7822266.7402344.5205078,1.3076172,1.2548828,1.703125,2.203125.3955078.9472656.5957031,2.0517578.5996094,3.3134766v.046875c.0039062,1.2724609-.1904463,2.3867188-.5820312,3.3427734-.3916016.9550781-.9580078,1.6943359-1.7001953,2.2177734-.7421875.5224609-1.6230469.7841797-2.640625.7841797ZM222.3483549,50.4393616c.7011719,0,1.3095703-.1748047,1.8271319-.5234375.5166181-.3486328.9150556-.8544922,1.195329-1.5185547s.4199219-1.4560547.4199219-2.3759766c0-.9169922-.1396484-1.7080078-.4199219-2.3740234s-.6787109-1.1728516-1.195329-1.5214844c-.5175616-.3486328-1.1259601-.5224609-1.8271319-.5224609-.6816406,0-1.28125.1806641-1.797868.5429688-.5175617.3623047-.9159992.8828125-1.1952961,1.5595703-.2802734.6777344-.4208984,1.4785156-.4208984,2.4033203,0,.9287109.1396484,1.7158203.4179688,2.3613281.2773438.6464844.6728516,1.1367188,1.1865234,1.46875.5126953.3330078,1.1162109.5,1.8095703.5ZM225.8141752,52.0838928v-2.7841797h.1708984v-6.515625h-.1708984v-2.8261719h2.1328125v12.1259766h-2.1328125Z"></path>
      <path class="cls-1" d="M235.397183,52.3661194c-1.0654297,0-2.0009766-.2597656-2.8056641-.7783203s-1.4267578-1.2578125-1.8652344-2.2148438c-.4384766-.9580078-.6582031-2.0751953-.6582031-3.3515625,0-1.2773438.2197266-2.3945312.6582031-3.3515625.4384766-.9580078,1.0605469-1.6962891,1.8652344-2.2148438.8046875-.5195312,1.7402344-.7792969,2.8056641-.7792969,1.0058594,0,1.8798828.2607422,2.6201172.7822266.7402344.5205078,1.3076172,1.2548828,1.703125,2.203125.3955078.9472656.5957031,2.0517578.5996094,3.3134766v.046875c.0039062,1.2724609-.1904297,2.3867188-.5820312,3.3427734-.3916016.9550781-.9580078,1.6943359-1.7001953,2.2177734-.7421875.5224609-1.6230469.7841797-2.640625.7841797ZM235.8024564,50.4393616c.7011719,0,1.3095703-.1748047,1.8271484-.5234375.5166016-.3486328.9150391-.8544922,1.1953125-1.5185547s.4199219-1.4560547.4199219-2.3759766c0-.9169922-.1396484-1.7080078-.4199219-2.3740234s-.6787109-1.1728516-1.1953125-1.5214844c-.5175781-.3486328-1.1259766-.5224609-1.8271484-.5224609-.6816406,0-1.28125.1806641-1.7978516.5429688-.5175781.3623047-.9160156.8828125-1.1953125,1.5595703-.2802734.6777344-.4208984,1.4785156-.4208984,2.4033203,0,.9287109.1396484,1.7158203.4179688,2.3613281.2773438.6464844.6728516,1.1367188,1.1865234,1.46875.5126953.3330078,1.1162109.5,1.8095703.5ZM239.2682767,52.0838928v-2.7841797h.1708984v-6.515625h-.2646484v-7.4316406h2.2265625v16.7314453h-2.1328125Z"></path>
      <path class="cls-1" d="M249.3024564,52.3661194c-1.1318359,0-2.1347656-.2578125-3.0078125-.7724609-.8740234-.5146484-1.5546875-1.25-2.0419922-2.2060547s-.7314453-2.078125-.7314453-3.3662109c0-1.2578125.2373047-2.3662109.7109375-3.3251953.4736328-.9599609,1.1445312-1.703125,2.0126953-2.2294922.8671875-.5273438,1.8710938-.7910156,3.0107422-.7910156,1.1826172,0,2.2021484.2802734,3.0576172.8408203.8554688.5595703,1.5078125,1.3222656,1.9560547,2.2880859.4492188.9658203.6728516,2.0517578.6728516,3.2578125v.6992188h-10.3632812v-1.8037109h9.0302734l-.9580078.5341797c-.0078125-.7441406-.1425781-1.4101562-.4052734-2s-.6494141-1.0537109-1.1601562-1.3925781c-.5117188-.3388672-1.1289062-.5078125-1.8535156-.5078125-.6816577,0-1.28125.1572266-1.7978516.4726562-.5175781.3154297-.9228516.7900391-1.2167969,1.4248047-.2929688.6347656-.4443359,1.4199219-.4521484,2.3554688v.2529297c0,.9794922.1455078,1.7939453.4345703,2.4443359.2900391.6494141.7001953,1.1308594,1.2314453,1.4423828.5302734.3105469,1.1621094.4667969,1.8945312.4667969.5322266,0,1.0058594-.0839844,1.4189453-.2529297.4130859-.1679688.7587891-.4082031,1.0371094-.7197266.2773438-.3115234.4833984-.6806641.6162109-1.1074219h2.25c-.1992188.7871094-.5380859,1.4814453-1.015625,2.0830078-.4785156.6015625-1.0839844,1.0703125-1.8183594,1.4072266s-1.5722656.5048828-2.5117188.5048828Z"></path>
      <path class="cls-1" d="M257.0573392,52.0838928v-12.1259766h2.1318359v3.0371094h.0947266v9.0888672h-2.2265625ZM264.5768705,44.1942444c0-.5800781-.0917969-1.0566406-.2763847-1.4306641-.1835762-.3740234-.4550606-.6523438-.813459-.8339844-.3583984-.1826172-.7939453-.2734375-1.3066406-.2734375-.4902344,0-.9550781.1337891-1.3955078.4023438s-.8007812.6875-1.0810547,1.2568359c-.2802734.5703125-.4199219,1.2841797-.4199219,2.1416016h-1.4570312v-2.5380859h.8398438c.2119141-.6416016.4990234-1.2060547.8632812-1.6914062.3642578-.4863281.8115234-.8662109,1.3398438-1.1396484.5292969-.2744141,1.1298828-.4121094,1.8037109-.4121094.8847656,0,1.6376953.1865234,2.2587891.5585938s1.0888672.8789062,1.4042969,1.5214844.4726562,1.359375.4726562,2.1503906v8.1777344h-2.2324219v-7.8896484ZM272.1032377,44.1942444c0-.5800781-.09375-1.0576172-.2792969-1.4335938-.1865234-.3759766-.4550781-.6542969-.8076172-.8339844-.3525391-.1806641-.7900391-.2705078-1.3105469-.2705078-.5087891,0-.9833984.1347656-1.421875.4052734s-.7939453.6894531-1.0664062,1.2568359c-.2714844.5683594-.4082031,1.28125-.4082031,2.1386719h-1.4628906v-2.2207031l.5351562-.0234375c.2148438-.6777344.5185547-1.28125.9101562-1.8125.3916016-.5302734.875-.9501953,1.4482422-1.2597656.5742188-.3095703,1.2167969-.4648438,1.9296875-.4648438.8974609,0,1.6572266.1806641,2.2802734.5410156.6220703.3603516,1.0917969.8583984,1.40625,1.4951172.3154297.6367188.4736328,1.3701172.4736328,2.2001953v8.171875h-2.2265625v-7.8896484Z"></path>
      <path class="cls-1" d="M276.0094877,55.0506897h1.1523438c.3916016,0,.7265625-.0556641,1.0039062-.1669922.2783203-.1113281.5087891-.2724609.6904297-.4814453.1826172-.2099609.3339844-.4794922.4550781-.8085938l.8291016-2.2265625-.0644531,2.0273438-4.8945312-13.4365234h2.4208984l2.4199219,7.2148438c.2275391.6933594.4394531,1.3554688.6347656,1.9853516.1962891.6308594.3896484,1.2734375.5820312,1.9277344l-.6347656.0234375c.2197266-.7841797.4326172-1.5195312.640625-2.2089844.2070312-.6894531.3916016-1.2734375.5517578-1.7509766l2.3916016-7.1914062h2.3964844l-5.0400391,13.9472656c-.2783203.7714844-.6103516,1.3759766-.9960938,1.8125s-.8457031.7470703-1.3808594.9316406c-.5341797.1835938-1.1875.2753906-1.9589844.2753906-.2001953,0-.4033203-.0048828-.6113281-.0146484s-.4033203-.0205078-.5878906-.0322266v-1.8271484Z"></path>
      <path class="cls-1" d="M129.5241361,75.8661194c-1.1708984,0-2.2089844-.2607422-3.1132812-.78125-.9052734-.5205078-1.6103656-1.2607422-2.1181641-2.2177734-.5068359-.9580078-.7607422-2.0732422-.7607422-3.3457031,0-1.2734375.2529297-2.3876953.7578125-3.3427734.5058594-.9560547,1.2109375-1.6943359,2.1181641-2.2148438.90625-.5214844,1.9453125-.7822266,3.1162109-.7822266,1.1552734,0,2.1845703.2597656,3.0878906.7792969.9023438.5185547,1.6074219,1.2568359,2.1152344,2.2148438.5068359.9570312.7607422,2.0722656.7607422,3.3457031,0,1.2724609-.2539062,2.3876953-.7607422,3.3457031-.5078125.9570312-1.2128906,1.6972656-2.1152344,2.2177734-.9033203.5205078-1.9326172.78125-3.0878906.78125ZM129.5241361,73.9393616c.7324219,0,1.3730469-.1728516,1.921875-.5175781.5478516-.3447266.9716797-.8496094,1.2714844-1.515625s.4492188-1.4609375.4492188-2.3847656c0-.9248047-.1503906-1.71875-.4521484-2.3828125s-.7255859-1.1689453-1.2714844-1.515625c-.546875-.3466797-1.1865234-.5195312-1.9189453-.5195312-.7441406,0-1.3916016.1728516-1.9443359.5195312-.5517578.3466797-.9785156.8515625-1.2773438,1.5126953-.2998047.6621094-.4501953,1.4570312-.4501953,2.3857422,0,.9277344.1503906,1.7226562.4501953,2.3847656.2988281.6621094.7255859,1.1660156,1.2773438,1.5126953.5527344.3466797,1.2001953.5205078,1.9443359.5205078Z"></path>
      <path class="cls-1" d="M136.1100736,65.3085022v-1.8505859h6.7148438v1.8505859h-6.7148438ZM138.030972,75.5838928v-13.2597656c0-.7441406.1240234-1.3769531.3730469-1.8974609s.6386719-.921875,1.1689453-1.2011719c.53125-.2802734,1.2138672-.4199219,2.0478516-.4199219.1640625,0,.3652344.0039062.6025391.0117188.2363281.0078125.4492188.0175781.6367188.0292969.0078125,0,.0175781.0009766.0292969.0029297s.0214844.0029297.0292969.0029297v1.8271484h-1.0625c-.3564453,0-.6523438.0625-.8876953.1875-.2353516.1259766-.4111328.3085938-.5283203.5498047-.1181641.2402344-.1767578.5390625-.1767578.8955078v13.2714844h-2.2324219Z"></path>
      <path class="cls-1" d="M149.6169095,75.5838928v-16.7314453h2.3789062v16.7314453h-2.3789062ZM151.2380033,68.0292053v-2.109375h10.5693359v2.109375h-10.5693359ZM160.796597,75.5838928v-16.7314453h2.3798828v16.7314453h-2.3798828Z"></path>
      <path class="cls-1" d="M171.0592924,75.8661194c-1.0136719,0-1.9033203-.2109375-2.6669922-.6318359s-1.3535156-1.0058594-1.7714844-1.7558594c-.4169922-.75-.625-1.6054688-.625-2.5644531v-7.4560547h2.2265625v7.4794922c0,.6337891.1210938,1.1767578.3642578,1.6269531.2421875.4501953.5771484.7910156,1.0039062,1.0224609.4277344.2314453.9169922.3466797,1.46875.3466797.5488281,0,1.0419922-.1152344,1.4814453-.3466797.4384766-.2314453.7841797-.5732422,1.0361328-1.0253906.2529297-.4521484.3789062-.9941406.3789062-1.6240234v-7.4794922h2.2324219v7.4560547c0,.9550781-.2148438,1.8085938-.6455078,2.5576172-.4316406.7509766-1.0371094,1.3369141-1.8183594,1.7597656s-1.6699219.6347656-2.6650391.6347656Z"></path>
      <path class="cls-1" d="M178.8854642,75.5838928v-12.1259766h2.1318359v3.0371094h.0947266v9.0888672h-2.2265625ZM186.4049955,67.6942444c0-.5800781-.0917969-1.0566406-.2763672-1.4306641-.1835938-.3740234-.4550781-.6523438-.8134766-.8339844-.3583984-.1826172-.7939453-.2734375-1.3066406-.2734375-.4902344,0-.9550781.1337891-1.3955078.4023438s-.8007812.6875-1.0810547,1.2568359c-.2802734.5703125-.4199219,1.2841797-.4199219,2.1416016h-1.4570312v-2.5380859h.8398438c.2119141-.6416016.4990234-1.2060547.8632812-1.6914062.3642578-.4863281.8115234-.8662109,1.3398438-1.1396484.5292969-.2744141,1.1298828-.4121094,1.8037109-.4121094.8847656,0,1.6376953.1865234,2.2587891.5585938s1.0888672.8789062,1.4042969,1.5214844.4726562,1.359375.4726562,2.1503906v8.1777344h-2.2324219v-7.8896484ZM193.9313627,67.6942444c0-.5800781-.09375-1.0576172-.2792969-1.4335938-.1865234-.3759766-.4550781-.6542969-.8076172-.8339844-.3525391-.1806641-.7900391-.2705078-1.3105469-.2705078-.5087891,0-.9834141.1347656-1.421875.4052734-.4384766.2705078-.7939453.6894531-1.0664062,1.2568359-.2714844.5683594-.4082031,1.28125-.4082031,2.1386719h-1.4628906v-2.2207031l.5351562-.0234375c.2148438-.6777344.5185547-1.28125.9101562-1.8125.3916016-.5302734.875-.9501953,1.4482422-1.2597656.5742188-.3095703,1.2167969-.4648438,1.9296875-.4648438.8974609,0,1.6572266.1806641,2.2802734.5410156.6220703.3603516,1.0917969.8583984,1.40625,1.4951172.3154297.6367188.4736328,1.3701172.4736328,2.2001953v8.171875h-2.2265625v-7.8896484Z"></path>
      <path class="cls-1" d="M203.6081205,75.8661194c-1.0654297,0-2.0009766-.2597656-2.8056641-.7783203s-1.4267578-1.2578125-1.8652344-2.2148438c-.4384766-.9580078-.6582031-2.0751953-.6582031-3.3515625,0-1.2773438.2197266-2.3945312.6582031-3.3515625.4384766-.9580078,1.0605469-1.6962891,1.8652344-2.2148438.8046875-.5195312,1.7402344-.7792969,2.8056641-.7792969,1.0058594,0,1.8798828.2607422,2.6201172.7822266.7402344.5205078,1.3076172,1.2548828,1.703125,2.203125.3955078.9472656.5957031,2.0517578.5996094,3.3134766v.046875c.0039062,1.2724609-.1904297,2.3867188-.5820312,3.3427734-.3916016.9550781-.9580078,1.6943359-1.7001953,2.2177734-.7421875.5224609-1.6230469.7841797-2.640625.7841797ZM204.0133939,73.9393616c.7011719,0,1.3095703-.1748047,1.8271484-.5234375.5166016-.3486328.9150391-.8544922,1.1953125-1.5185547s.4199219-1.4560547.4199219-2.3759766c0-.9169922-.1396484-1.7080078-.4199219-2.3740234s-.6787109-1.1728516-1.1953125-1.5214844c-.5175781-.3486328-1.1259766-.5224609-1.8271484-.5224609-.6816406,0-1.28125.1806641-1.7978516.5429688-.5175781.3623047-.9160156.8828125-1.1953125,1.5595703-.2802734.6777344-.4208984,1.4785156-.4208984,2.4033203,0,.9287109.1396484,1.7158203.4179688,2.3613281.2773438.6464844.6728516,1.1367188,1.1865234,1.46875.5126953.3330078,1.1162109.5,1.8095703.5ZM207.4792142,75.5838928v-2.7841797h.1708984v-6.515625h-.1708984v-2.8261719h2.1328125v12.1259766h-2.1328125Z"></path>
      <path class="cls-1" d="M212.3141752,75.5838928v-12.1259766h2.1318359v3.0078125h.0947266v9.1181641h-2.2265625ZM220.2741361,67.7176819c0-.5800781-.1005859-1.0595703-.3017578-1.4394531-.2021484-.3798828-.4960938-.6621094-.8818359-.8457031-.3857422-.1845703-.8564453-.2763672-1.4130859-.2763672-.5244141,0-1.0263672.1308594-1.5039062.3935547s-.8691406.6630859-1.1748047,1.2011719c-.3056641.5390625-.4580078,1.2041016-.4580078,1.9951172h-1.4511719v-2.3330078h.7871094c.2119141-.6142578.5214844-1.1650391.9306641-1.6503906.4101562-.4853516.9091797-.8720703,1.4990234-1.1572266.5888672-.2861328,1.2382812-.4296875,1.9472656-.4296875.8847656,0,1.6455078.1660156,2.2822266.4970703s1.1240234.8154297,1.4628906,1.4541016.5078125,1.4121094.5078125,2.3203125v8.1367188h-2.2324219v-7.8662109Z"></path>
      <path class="cls-1" d="M226.3141752,62.1073303c-.2509766,0-.4873047-.0654297-.7080078-.1943359-.2216797-.1289062-.3984375-.3056641-.5322266-.5283203-.1328125-.2236328-.1992188-.4628906-.1992188-.7167969,0-.2587891.0654297-.5.1962891-.7226562.1318359-.2236328.3066406-.3994141.5263672-.5292969.21875-.1289062.4580078-.1933594.7167969-.1933594.2617188,0,.5029297.0625.7226562.1875.21875.1259766.3945312.2998047.5253906.5234375.1308594.2226562.1972656.4677734.1972656.734375,0,.2578125-.0673828.4990234-.2001953.7226562-.1328125.2226562-.3105469.3984375-.53125.5253906-.2216797.1269531-.4599609.1914062-.7138672.1914062ZM225.2038236,75.5838928v-12.1259766h2.2265625v12.1259766h-2.2265625Z"></path>
      <path class="cls-1" d="M229.1100736,65.3085022v-1.8505859h6.6152344v1.8505859h-6.6152344ZM234.3268705,75.6307678c-.7285156,0-1.3339844-.0878906-1.8154297-.2636719-.4814453-.1767578-.8486328-.4628906-1.1015625-.8583984s-.3789062-.9140625-.3789062-1.5566406v-13.2070312h2.2324219v12.9716797c0,.2392578.0429688.4345703.1298828.5849609.0859375.1503906.2304688.2646484.4345703.3408203.203125.0761719.4775391.1142578.8222656.1142578h1.0751953v1.8271484c-.0234375,0-.0478516.0009766-.0732422.0029297s-.0498047.0029297-.0732422.0029297c-.2236328.0117188-.4462891.0214844-.6669922.0292969-.2216797.0078125-.4160156.0117188-.5849609.0117188Z"></path>
      <path class="cls-1" d="M238.7516752,62.1073303c-.2509766,0-.4873047-.0654297-.7080078-.1943359-.2216797-.1289062-.3984375-.3056641-.5322266-.5283203-.1328125-.2236328-.1992188-.4628906-.1992188-.7167969,0-.2587891.0654297-.5.1962891-.7226562.1318359-.2236328.3066406-.3994141.5263672-.5292969.21875-.1289062.4580078-.1933594.7167969-.1933594.2617188,0,.5029297.0625.7226562.1875.21875.1259766.3945312.2998047.5253906.5234375.1308594.2226562.1972656.4677734.1972656.734375,0,.2578125-.0673828.4990234-.2001953.7226562-.1328125.2226562-.3105469.3984375-.53125.5253906-.2216797.1269531-.4599609.1914062-.7138672.1914062ZM237.6413236,75.5838928v-12.1259766h2.2265625v12.1259766h-2.2265625Z"></path>
      <path class="cls-1" d="M247.7692533,75.8661194c-1.1318359,0-2.1347656-.2578125-3.0078125-.7724609-.8740234-.5146484-1.5546875-1.25-2.0419922-2.2060547s-.7314453-2.078125-.7314453-3.3662109c0-1.2578125.2373047-2.3662109.7109375-3.3251953.4736328-.9599609,1.1445312-1.703125,2.0126953-2.2294922.8671875-.5273438,1.8710938-.7910156,3.0107422-.7910156,1.1826172,0,2.2021484.2802734,3.0576172.8408203.8554688.5595703,1.5078125,1.3222656,1.9560547,2.2880859.4492188.9658203.6728516,2.0517578.6728516,3.2578125v.6992188h-10.3632812v-1.8037109h9.0302734l-.9580078.5341797c-.0078125-.7441406-.1425781-1.4101562-.4052734-2s-.6494141-1.0537109-1.1601562-1.3925781c-.5117188-.3388672-1.1289062-.5078125-1.8535156-.5078125-.6816406,0-1.28125.1572266-1.7978516.4726562-.5175781.3154297-.9228516.7900391-1.2167969,1.4248047-.2929688.6347656-.4443359,1.4199219-.4521484,2.3554688v.2529297c0,.9794922.1455078,1.7939453.4345703,2.4443359.2900391.6494141.7001953,1.1308594,1.2314453,1.4423828.5302734.3105469,1.1621094.4667969,1.8945312.4667969.5322266,0,1.0058594-.0839844,1.4189453-.2529297.4130859-.1679688.7587891-.4082031,1.0371094-.7197266.2773438-.3115234.4833984-.6806641.6162109-1.1074219h2.25c-.1992188.7871094-.5380859,1.4814453-1.015625,2.0830078-.4785156.6015625-1.0839844,1.0703125-1.8183594,1.4072266s-1.5722656.5048828-2.5117188.5048828Z"></path>
      <path class="cls-1" d="M259.7663236,75.8719788c-1.0771484,0-1.9970703-.1484375-2.7587891-.4462891s-1.3564453-.7529297-1.7832031-1.3662109-.6689453-1.3896484-.7285156-2.3291016h2.2324219c.0634766.5791016.2060547,1.0410156.4296875,1.3837891.2226562.3427734.546875.5908203.9716797.7460938.4248047.1542969.9785156.2314453,1.6601562.2314453.6376953,0,1.1591797-.0654297,1.5625-.1962891.4033203-.1318359.7011719-.3251953.8925781-.5820312.1923828-.2568359.2880859-.5722656.2880859-.9492188,0-.3476562-.0810547-.6367188-.2431641-.8662109-.1630859-.2294922-.4345703-.4208984-.8144531-.5751953-.3798828-.1552734-.90625-.2929688-1.5800781-.4150391l-1.2275391-.2109375c-.8193359-.1416016-1.5117188-.3632812-2.0800781-.6669922s-1.0048828-.6992188-1.3095703-1.1865234c-.3056641-.4882812-.4589844-1.0703125-.4589844-1.7480469,0-.7167969.1835938-1.3388672.5498047-1.8652344s.8964844-.9345703,1.5917969-1.2216797c.6953125-.2880859,1.5205078-.4326172,2.4765625-.4326172,1.1201172,0,2.0537109.1582031,2.8017578.4736328s1.3105469.7744141,1.6865059,1.3769531c.3759941.6035156.5761894,1.3339844.5996269,2.1914062h-2.1796875c-.0273438-.5712891-.1582031-1.0224609-.390625-1.3535156-.2333984-.3310547-.5556641-.5634766-.9667969-.6962891s-.9257812-.2001953-1.5449219-.2001953c-.5175955,0-.9541016.0654297-1.3105469.1943359s-.6259766.3164062-.8105469.5605469c-.1835938.2451172-.2763672.5400391-.2763672.8847656,0,.3486328.0888672.6386719.2646484.8691406.1767578.2314453.4316406.4160156.7666016.5556641.3349609.1386719.7587891.2529297,1.2724609.34375l1.2216797.2109375c.9433594.1650391,1.7226562.3935547,2.3349609.6875.6132812.2939453,1.078125.6767578,1.3955078,1.1484375.3173828.4726562.4755859,1.0605469.4755859,1.765625,0,.7792969-.1992188,1.4443359-.5986328,1.9941406-.3994141.5507812-.9746094.9697266-1.7246094,1.2578125s-1.6455078.4316406-2.6875.4316406Z"></path>
      <path class="cls-1" d="M128.8610502,99.3661194c-1.0654297,0-2.0009766-.2597656-2.8056641-.7783203s-1.4267578-1.2578125-1.8652344-2.2148438c-.4384766-.9580078-.6582031-2.0751953-.6582031-3.3515625,0-1.2773438.2197266-2.3945312.6582031-3.3515625.4384766-.9580078,1.0605469-1.6962891,1.8652344-2.2148438.8046875-.5195312,1.7402344-.7792969,2.8056641-.7792969,1.0058594,0,1.8798828.2607422,2.6201172.7822266.7402344.5205078,1.3076172,1.2548828,1.703125,2.203125.3955078.9472656.5957031,2.0517578.5996094,3.3134766v.046875c.0039062,1.2724609-.1904297,2.3867188-.5820312,3.3427734-.3916016.9550781-.9580078,1.6943359-1.7001953,2.2177734-.7421875.5224609-1.6230469.7841797-2.640625.7841797ZM129.2663236,97.438385c.7011719,0,1.3095703-.1738281,1.8271484-.5224609.5166016-.3486328.9150391-.8544922,1.1953125-1.5185547s.4199219-1.4560547.4199219-2.3759766c0-.9169922-.1396484-1.7080078-.4199219-2.3740234s-.6787109-1.1728516-1.1953125-1.5214844c-.5175781-.3486328-1.1259766-.5224609-1.8271484-.5224609-.6816406,0-1.28125.1806641-1.7978516.5429688-.5175781.3623047-.9160156.8828125-1.1953125,1.5595703-.2802734.6777344-.4208984,1.4785156-.4208984,2.4033203,0,.9287109.1396484,1.7158203.4179688,2.3613281.2773438.6464844.6728516,1.1367188,1.1865234,1.46875.5126953.3330078,1.1162109.4990234,1.8095703.4990234ZM132.7321439,99.0838928v-2.7841797h.1708984v-6.515625h-.1708984v-2.8261719h2.1328125v12.1259766h-2.1328125Z"></path>
      <path class="cls-1" d="M137.5680814,99.0838928v-12.1259766h2.1318359v3.0078125h.0947266v9.1181641h-2.2265625ZM145.5280424,91.2176819c0-.5800781-.1005859-1.0595703-.3017578-1.4394531-.2021484-.3798828-.4960938-.6621094-.8818359-.8457031-.3857422-.1845703-.8564453-.2763672-1.4130859-.2763672-.5244141,0-1.0263672.1308594-1.5039062.3935547s-.8691406.6630859-1.1748047,1.2011719c-.3056641.5390625-.4580078,1.2041016-.4580078,1.9951172h-1.4511719v-2.3330078h.7871094c.2119141-.6142578.5214844-1.1650391.9306641-1.6503906.4101562-.4853516.9091797-.8720703,1.4990234-1.1572266.5888672-.2861328,1.2382812-.4296875,1.9472656-.4296875.8847656,0,1.6455078.1660156,2.2822266.4970703s1.1240234.8154297,1.4628906,1.4541016.5078125,1.4121094.5078125,2.3203125v8.1367188h-2.2324219v-7.8662109Z"></path>
      <path class="cls-1" d="M155.2038236,99.3661194c-1.0654297,0-2.0009766-.2597656-2.8056641-.7783203s-1.4267578-1.2578125-1.8652344-2.2148438c-.4384766-.9580078-.6582031-2.0751953-.6582031-3.3515625,0-1.2773438.2197266-2.3945312.6582031-3.3515625.4384766-.9580078,1.0605469-1.6962891,1.8652344-2.2148438.8046875-.5195312,1.7402344-.7792969,2.8056641-.7792969,1.0058594,0,1.8798828.2607422,2.6201172.7822266.7402344.5205078,1.3076172,1.2548828,1.703125,2.203125.3955078.9472656.5957031,2.0517578.5996094,3.3134766v.046875c.0039062,1.2724609-.1904297,2.3867188-.5820312,3.3427734-.3916016.9550781-.9580078,1.6943359-1.7001953,2.2177734-.7421875.5224609-1.6230469.7841797-2.640625.7841797ZM155.609097,97.438385c.7011719,0,1.3095703-.1738281,1.8271484-.5224609.5166016-.3486328.9150391-.8544922,1.1953125-1.5185547s.4199219-1.4560547.4199219-2.3759766c0-.9169922-.1396484-1.7080078-.4199219-2.3740234s-.6787109-1.1728516-1.1953125-1.5214844c-.5175781-.3486328-1.1259766-.5224609-1.8271484-.5224609-.6816406,0-1.28125.1806641-1.7978516.5429688-.5175781.3623047-.9160156.8828125-1.1953125,1.5595703-.2802734.6777344-.4208984,1.4785156-.4208984,2.4033203,0,.9287109.1396484,1.7158203.4179688,2.3613281.2773438.6464844.6728516,1.1367188,1.1865234,1.46875.5126953.3330078,1.1162109.4990234,1.8095703.4990234ZM159.0749174,99.0838928v-2.7841797h.1708984v-6.515625h-.2646484v-7.4316406h2.2265625v16.7314453h-2.1328125Z"></path>
      <path class="cls-1" d="M174.8962064,99.4598694c-1.4140625,0-2.6445312-.2128906-3.6923828-.6376953s-1.8623047-1.0751953-2.4443359-1.9501953c-.5810547-.875-.8779297-1.9785156-.8896484-3.3105469h2.4082031c.0117188.9482422.2167969,1.7060547.6142578,2.2734375.3974609.5683594.9365234.9736328,1.6152344,1.2167969.6796875.2421875,1.4755859.3632812,2.3886719.3632812.8496094,0,1.5732422-.1074219,2.1708984-.3222656.5966797-.2158203,1.0517578-.5400391,1.3632812-.9726562.3105469-.4326172.4667969-.9658203.4667969-1.6005859,0-.5058594-.1259766-.9306641-.3759766-1.2753906-.2509766-.3447266-.65625-.6396484-1.2158203-.8867188-.5605469-.2470703-1.3183594-.4697266-2.2744141-.6699219l-1.6972656-.3466797c-.9990234-.2070312-1.8623047-.5068359-2.5908203-.8984375s-1.3027344-.9160156-1.7216797-1.5722656c-.4189453-.6552734-.6289062-1.4570312-.6289062-2.4052734,0-.9013672.234375-1.6894531.7021484-2.3652344.4677734-.6748047,1.1425781-1.1982422,2.0244141-1.5683594.8808594-.3701172,1.9248047-.5546875,3.1308594-.5546875,1.550766,0,2.8144531.2304688,3.7900391.6933594.9746094.4619141,1.6845703,1.0869141,2.1289062,1.8740234s.6787109,1.6875.7021484,2.7021484h-2.3320312c-.0585938-.7128906-.2285156-1.3037109-.5087891-1.7714844-.2792969-.4677734-.7216797-.8261719-1.3271484-1.0751953-.6054688-.2480469-1.4150391-.3730469-2.4296875-.3730469-.7519531,0-1.3876953.0966797-1.90625.2880859-.5185547.1923828-.9072266.4677734-1.1660156.828125s-.3876953.7890625-.3876953,1.2871094c0,.5126953.1025391.9433594.3085938,1.2919922.2050781.3486328.5615234.6484375,1.0693359.8994141.5068359.25,1.2148438.4697266,2.1230469.6582031l1.7041016.3457031c1.2841797.2705078,2.3154297.6220703,3.0927734,1.0546875.7783203.4335938,1.3408203.9580078,1.6894377,1.5751953.3486482.6162109.5224763,1.3515625.5224763,2.2060547,0,1.0175781-.2509766,1.9033203-.7548828,2.6552734-.5029297.7519531-1.2373047,1.3300781-2.203125,1.7353516-.9648438.4052734-2.1210938.6083984-3.46875.6083984Z"></path>
      <path class="cls-1" d="M188.7546049,99.3661194c-1.1708984,0-2.2089844-.2607422-3.1132812-.78125-.9052734-.5214844-1.6103516-1.2607422-2.1181641-2.2177734-.5068359-.9580078-.7607422-2.0732422-.7607422-3.3457031,0-1.2734375.2529297-2.3876953.7578125-3.3427734.5058594-.9560547,1.2109375-1.6943359,2.1181641-2.2148438.90625-.5214844,1.9453125-.7822266,3.1162109-.7822266,1.1552734,0,2.1845703.2597656,3.0878906.7792969.9023438.5185547,1.6074219,1.2568359,2.1152344,2.2148438.5068359.9570312.7607422,2.0722656.7607422,3.3457031,0,1.2724609-.2539062,2.3876953-.7607422,3.3457031-.5078125.9570312-1.2128906,1.6962891-2.1152344,2.2177734-.9033203.5205078-1.9326172.78125-3.0878906.78125ZM188.7546049,97.438385c.7324219,0,1.3730469-.171875,1.921875-.5166016.5478516-.3447266.9716797-.8496094,1.2714844-1.515625s.4492188-1.4609375.4492188-2.3847656c0-.9248047-.1503906-1.71875-.4521484-2.3828125s-.7255859-1.1689453-1.2714844-1.515625c-.546875-.3466797-1.1865234-.5195312-1.9189453-.5195312-.7441406,0-1.3916016.1728516-1.9443359.5195312-.5517578.3466797-.9785156.8515625-1.2773438,1.5126953-.2998047.6621094-.4501953,1.4570312-.4501953,2.3857422,0,.9277344.1503906,1.7226562.4501953,2.3847656.2988281.6621094.7255859,1.1660156,1.2773438,1.5126953.5527344.3466797,1.2001953.5195312,1.9443359.5195312Z"></path>
      <path class="cls-1" d="M201.9850736,99.3661194c-1.1318359,0-2.1298828-.2587891-2.9931641-.7753906-.8642578-.5175781-1.5371094-1.2548828-2.0185547-2.2148438s-.7226562-2.078125-.7226562-3.3544922c0-1.2851562.2382812-2.40625.7138672-3.3632812.4755859-.9580078,1.1464844-1.6943359,2.0126953-2.2089844.8652344-.515625,1.8681641-.7734375,3.0078125-.7734375.9902344,0,1.8681641.1835938,2.6318359.5498047s1.3808594.8857422,1.8505859,1.5595703.7675781,1.4648438.8925781,2.3740234h-2.2910156c-.1054688-.5566406-.3076172-1.0244141-.6054688-1.4042969-.296875-.3798828-.6601562-.6630859-1.0898438-.8486328-.4287109-.1865234-.8935547-.2792969-1.3945312-.2792969-.6660156,0-1.2558594.1601562-1.7685547.4814453-.5136719.3212891-.9150391.8115234-1.2041016,1.4716797-.2900391.6601562-.4355469,1.4736328-.4355469,2.4414062,0,.9667969.1484375,1.7802734.4443359,2.4375.2949219.6582031.6992188,1.1494141,1.2128906,1.4716797.5126953.3232422,1.0966797.484375,1.7509766.484375.5087891,0,.9794922-.0957031,1.4130859-.2871094.4326172-.1923828.7998047-.4824219,1.1015625-.8720703.3007812-.3896484.5029297-.8730469.6044922-1.4482422h2.2734375c-.125.9355469-.4335938,1.7460938-.9248047,2.4316406-.4921875.6855469-1.1210938,1.2109375-1.8886719,1.5771484s-1.6259766.5498047-2.5732422.5498047Z"></path>
      <path class="cls-1" d="M210.4860502,85.6073303c-.2509766,0-.4873047-.0654297-.7080078-.1943359-.2216797-.1289062-.3984375-.3056641-.5322266-.5283203-.1328125-.2236328-.1992188-.4628906-.1992188-.7167969,0-.2587891.0654297-.5.1962891-.7226562.1318359-.2236328.3066406-.3994141.5263672-.5292969.21875-.1289062.4580078-.1933594.7167969-.1933594.2617188,0,.5029297.0625.7226562.1875.21875.1259766.3945312.2998047.5253906.5234375.1308594.2226562.1972656.4677734.1972656.734375,0,.2578125-.0673828.4990234-.2001953.7226562-.1328125.2226562-.3105469.3984375-.53125.5253906-.2216797.1269531-.4599609.1914062-.7138672.1914062ZM209.3756986,99.0838928v-12.1259766h2.2265625v12.1259766h-2.2265625Z"></path>
      <path class="cls-1" d="M219.0524564,99.3661194c-1.0654297,0-2.0009766-.2597656-2.8056641-.7783203s-1.4267578-1.2578125-1.8652344-2.2148438c-.4384766-.9580078-.6582031-2.0751953-.6582031-3.3515625,0-1.2773438.2197266-2.3945312.6582031-3.3515625.4384766-.9580078,1.0605469-1.6962891,1.8652344-2.2148438.8046875-.5195312,1.7402344-.7792969,2.8056641-.7792969,1.0058594,0,1.8798828.2607422,2.6201172.7822266.7402344.5205078,1.3076172,1.2548828,1.703125,2.203125.3955078.9472656.5957031,2.0517578.5996094,3.3134766v.046875c.0039062,1.2724609-.1904297,2.3867188-.5820312,3.3427734-.3916016.9550781-.9580078,1.6943359-1.7001953,2.2177734-.7421875.5224609-1.6230469.7841797-2.640625.7841797ZM219.4577299,97.438385c.7011719,0,1.3095703-.1738281,1.8271484-.5224609.5166016-.3486328.9150391-.8544922,1.1953125-1.5185547s.4199219-1.4560547.4199219-2.3759766c0-.9169922-.1396484-1.7080078-.4199219-2.3740234s-.6787109-1.1728516-1.1953125-1.5214844c-.5175781-.3486328-1.1259766-.5224609-1.8271484-.5224609-.6816406,0-1.28125.1806641-1.7978516.5429688-.5175781.3623047-.9160156.8828125-1.1953125,1.5595703-.2802734.6777344-.4208984,1.4785156-.4208984,2.4033203,0,.9287109.1396484,1.7158203.4179688,2.3613281.2773438.6464844.6728516,1.1367188,1.1865234,1.46875.5126953.3330078,1.1162109.4990234,1.8095703.4990234ZM222.9235502,99.0838928v-2.7841797h.1708984v-6.515625h-.1708984v-2.8261719h2.1328125v12.1259766h-2.1328125Z"></path>
      <path class="cls-1" d="M230.7370267,99.1542053c-.6542969,0-1.2011719-.0878906-1.6396484-.2646484-.4384766-.1757812-.7714844-.4619141-.9980469-.8574219-.2275391-.3955078-.3408203-.9140625-.3408203-1.5566406v-14.1230469h2.2265625v13.8886719c0,.2382812.0361328.4326172.1083984.5810547.0722656.1494141.1933594.2626953.3613281.3408203s.3955078.1171875.6816406.1171875h.8632812v1.8037109c-.2226562.0234375-.4433594.0410156-.6611328.0527344-.2167969.0117188-.4179688.0175781-.6015625.0175781Z"></path>
      <path class="cls-1" d="M244.5719877,99.4598694c-1.4140625,0-2.6445312-.2128906-3.6923828-.6376953s-1.8623047-1.0751953-2.4443359-1.9501953c-.5810547-.875-.8779297-1.9785156-.8896484-3.3105469h2.4082031c.0117188.9482422.2167969,1.7060547.6142578,2.2734375.3974609.5683594.9365234.9736328,1.6152344,1.2167969.6796875.2421875,1.4755859.3632812,2.3886719.3632812.8496094,0,1.5732422-.1074219,2.1708984-.3222656.5966797-.2158203,1.0517578-.5400391,1.3632812-.9726562.3105469-.4326172.4667969-.9658203.4667969-1.6005859,0-.5058594-.1259766-.9306641-.3759766-1.2753906-.2509766-.3447266-.65625-.6396484-1.2158203-.8867188-.5605469-.2470703-1.3183594-.4697266-2.2744141-.6699219l-1.6972656-.3466797c-.9990234-.2070312-1.8623047-.5068359-2.5908203-.8984375s-1.3027344-.9160156-1.7216797-1.5722656c-.4189453-.6552734-.6289062-1.4570312-.6289062-2.4052734,0-.9013672.234375-1.6894531.7021484-2.3652344.4677734-.6748047,1.1425781-1.1982422,2.0244141-1.5683594.8808424-.3701172,1.9248047-.5546875,3.1308424-.5546875,1.5507983,0,2.8144701.2304688,3.7900561.6933594.9746094.4619141,1.6845703,1.0869141,2.1289062,1.8740234s.6787109,1.6875.7021484,2.7021484h-2.3320312c-.0585938-.7128906-.2285156-1.3037109-.5087891-1.7714844-.2792969-.4677734-.7216797-.8261719-1.3271484-1.0751953-.6054688-.2480469-1.4150391-.3730469-2.4296875-.3730469-.7519531,0-1.3876953.0966797-1.90625.2880859-.5185547.1923828-.9072266.4677734-1.1660156.828125s-.3876953.7890625-.3876953,1.2871094c0,.5126953.1025391.9433594.3085938,1.2919922.2050781.3486328.5615234.6484375,1.0693359.8994141.5068359.25,1.2148438.4697266,2.1230469.6582031l1.7041016.3457031c1.2841797.2705078,2.3154297.6220703,3.0927734,1.0546875.7783203.4335938,1.3408203.9580078,1.6894531,1.5751953.3486328.6162109.5224609,1.3515625.5224609,2.2060547,0,1.0175781-.2509766,1.9033203-.7548828,2.6552734-.5029297.7519531-1.2373047,1.3300781-2.203125,1.7353516-.9648438.4052734-2.1210938.6083984-3.46875.6083984Z"></path>
      <path class="cls-1" d="M258.1725736,99.3661194c-1.1318359,0-2.1298828-.2587891-2.9931641-.7753906-.8642578-.5175781-1.5371094-1.2548828-2.0185547-2.2148438s-.7226562-2.078125-.7226562-3.3544922c0-1.2851562.2382812-2.40625.7138672-3.3632812.4755859-.9580078,1.1464844-1.6943359,2.0126953-2.2089844.8652344-.515625,1.8681641-.7734375,3.0078125-.7734375.9902344,0,1.8681641.1835938,2.6318359.5498047s1.3808594.8857422,1.8505859,1.5595703.7675781,1.4648438.8925781,2.3740234h-2.2910156c-.1054688-.5566406-.3076172-1.0244141-.6054688-1.4042969-.296875-.3798828-.6601562-.6630859-1.0898438-.8486328-.4287109-.1865234-.8935547-.2792969-1.3945312-.2792969-.6660156,0-1.2558594.1601562-1.7685547.4814453-.5136719.3212891-.9150391.8115234-1.2041016,1.4716797-.2900391.6601562-.4355469,1.4736328-.4355469,2.4414062,0,.9667969.1484375,1.7802734.4443359,2.4375.2949219.6582031.6992188,1.1494141,1.2128906,1.4716797.5126953.3232422,1.0966797.484375,1.7509766.484375.5087717,0,.9794922-.0957031,1.4130859-.2871094.4326172-.1923828.7998047-.4824219,1.1015625-.8720703.3007812-.3896484.5029297-.8730469.6044922-1.4482422h2.2734375c-.125.9355469-.4335938,1.7460938-.9248047,2.4316406-.4921875.6855469-1.1210938,1.2109375-1.8886719,1.5771484s-1.6259766.5498047-2.5732422.5498047Z"></path>
      <path class="cls-1" d="M266.6735502,85.6073303c-.2509766,0-.4873047-.0654297-.7080078-.1943359-.2216797-.1289062-.3984375-.3056641-.5322266-.5283203-.13283-.2236328-.1992188-.4628906-.1992188-.7167969,0-.2587891.0654297-.5.1962891-.7226562.1318359-.2236328.3066406-.3994141.5263672-.5292969.2187324-.1289062.4580078-.1933594.7167969-.1933594.2617188,0,.5029297.0625.7226562.1875.21875.1259766.3945312.2998047.5253906.5234375.1308594.2226562.1972656.4677734.1972656.734375,0,.2578125-.0673828.4990234-.2001953.7226562-.1328125.2226562-.3105469.3984375-.53125.5253906-.2216797.1269531-.4599609.1914062-.7138672.1914062ZM265.5631986,99.0838928v-12.1259766h2.2265625v12.1259766h-2.2265625Z"></path>
      <path class="cls-1" d="M275.6911283,99.3661194c-1.1318359,0-2.1347656-.2578125-3.0078125-.7724609-.8740234-.5146484-1.5546875-1.25-2.0419922-2.2060547s-.7314453-2.078125-.7314453-3.3662109c0-1.2578125.2373047-2.3662109.7109375-3.3251953.4736328-.9599609,1.1445312-1.703125,2.0126953-2.2294922.8671875-.5273438,1.8710938-.7910156,3.0107422-.7910156,1.1826172,0,2.2021484.2802734,3.0576172.8408203.8554688.5595703,1.5078125,1.3222656,1.9560547,2.2880859.4492188.9658203.6728516,2.0517578.6728516,3.2578125v.6992188h-10.3632812v-1.8037109h9.0302734l-.9580078.5341797c-.0078125-.7441406-.1425781-1.4101562-.4052734-2s-.6494141-1.0537109-1.1601562-1.3925781c-.5117188-.3388672-1.1289062-.5078125-1.8535156-.5078125-.6816406,0-1.28125.1572266-1.7978516.4726562-.5175781.3154297-.9228516.7900391-1.2167969,1.4248047-.2929688.6347656-.4443359,1.4199219-.4521484,2.3554688v.2529297c0,.9794922.1455078,1.7939453.4345703,2.4443359.2900391.6494141.7001953,1.1308594,1.2314453,1.4423828.5302734.3105469,1.1621094.4658203,1.8945312.4658203.5322266,0,1.0058594-.0830078,1.4189453-.2519531.4130859-.1679688.7587891-.4082031,1.0371094-.7197266.2773438-.3115234.4833984-.6806641.6162109-1.1074219h2.25c-.1992188.7871094-.5380859,1.4814453-1.015625,2.0830078-.4785156.6015625-1.0839844,1.0703125-1.8183594,1.40625-.734375.3369141-1.5722656.5058594-2.5117188.5058594Z"></path>
      <path class="cls-1" d="M283.4460111,99.0838928v-12.1259766h2.1318359v3.0078125h.0947266v9.1181641h-2.2265625ZM291.405972,91.2176819c0-.5800781-.1005859-1.0595703-.3017578-1.4394531-.2021484-.3798828-.4960938-.6621094-.8818359-.8457031-.3857422-.1845703-.8564453-.2763672-1.4130859-.2763672-.5244141,0-1.0263672.1308594-1.5039062.3935547s-.8691406.6630859-1.1748047,1.2011719c-.3056641.5390625-.4580078,1.2041016-.4580078,1.9951172h-1.4511719v-2.3330078h.7871094c.2119141-.6142578.5214844-1.1650391.9306641-1.6503906.4101562-.4853516.9091797-.8720703,1.4990234-1.1572266.5888672-.2861328,1.2382812-.4296875,1.9472656-.4296875.8847656,0,1.6455078.1660156,2.2822266.4970703s1.1240234.8154297,1.4628906,1.4541016.5078125,1.4121094.5078125,2.3203125v8.1367188h-2.2324219v-7.8662109Z"></path>
      <path class="cls-1" d="M301.4880033,99.3661194c-1.1318359,0-2.1298828-.2587891-2.9931641-.7753906-.8642578-.5175781-1.5371094-1.2548828-2.0185547-2.2148438s-.7226562-2.078125-.7226562-3.3544922c0-1.2851562.2382812-2.40625.7138672-3.3632812.4755859-.9580078,1.1464844-1.6943359,2.0126953-2.2089844.8652344-.515625,1.8681641-.7734375,3.0078125-.7734375.9902344,0,1.8681641.1835938,2.6318359.5498047s1.3808594.8857422,1.8505859,1.5595703.7675781,1.4648438.8925781,2.3740234h-2.2910156c-.1054688-.5566406-.3076172-1.0244141-.6054688-1.4042969-.296875-.3798828-.6601562-.6630859-1.0898438-.8486328-.4287109-.1865234-.8935547-.2792969-1.3945312-.2792969-.6660156,0-1.2558594.1601562-1.7685547.4814453-.5136719.3212891-.9150391.8115234-1.2041016,1.4716797-.2900391.6601562-.4355469,1.4736328-.4355469,2.4414062,0,.9667969.1484375,1.7802734.4443359,2.4375.2949219.6582031.6992188,1.1494141,1.2128906,1.4716797.5126953.3232422,1.0966797.484375,1.7509766.484375.5087891,0,.9794922-.0957031,1.4130859-.2871094.4326172-.1923828.7998047-.4824219,1.1015625-.8720703.3007812-.3896484.5029297-.8730469.6044922-1.4482422h2.2734375c-.125.9355469-.4335938,1.7460938-.9248047,2.4316406-.4921875.6855469-1.1210938,1.2109375-1.8886719,1.5771484s-1.6259766.5498047-2.5732422.5498047Z"></path>
      <path class="cls-1" d="M314.077847,99.3661194c-1.1318359,0-2.1347656-.2578125-3.0078125-.7724609-.8740234-.5146484-1.5546875-1.25-2.0419922-2.2060547s-.7314453-2.078125-.7314453-3.3662109c0-1.2578125.2373047-2.3662109.7109375-3.3251953.4736328-.9599609,1.1445312-1.703125,2.0126953-2.2294922.8671875-.5273438,1.8710938-.7910156,3.0107422-.7910156,1.1826172,0,2.2021484.2802734,3.0576172.8408203.8554688.5595703,1.5078125,1.3222656,1.9560547,2.2880859.4492188.9658203.6728516,2.0517578.6728516,3.2578125v.6992188h-10.3632812v-1.8037109h9.0302734l-.9580078.5341797c-.0078125-.7441406-.1425781-1.4101562-.4052734-2s-.6494141-1.0537109-1.1601562-1.3925781c-.5117188-.3388672-1.1289062-.5078125-1.8535156-.5078125-.6816406,0-1.28125.1572266-1.7978516.4726562-.5175781.3154297-.9228516.7900391-1.2167969,1.4248047-.2929688.6347656-.4443359,1.4199219-.4521484,2.3554688v.2529297c0,.9794922.1455078,1.7939453.4345703,2.4443359.2900391.6494141.7001766,1.1308594,1.2314453,1.4423828.5302734.3105469,1.1621094.4658203,1.8945312.4658203.5322266,0,1.0058594-.0830078,1.4189453-.2519531.4130859-.1679688.7587891-.4082031,1.0371094-.7197266.2773438-.3115234.4833984-.6806641.6162109-1.1074219h2.25c-.1992188.7871094-.5380859,1.4814453-1.015625,2.0830078-.4785156.6015625-1.0839844,1.0703125-1.8183594,1.40625-.734375.3369141-1.5722656.5058594-2.5117188.5058594Z"></path>
      <path class="cls-1" d="M326.0749174,99.3719788c-1.0771484,0-1.9970703-.1494141-2.7587891-.4462891-.7617188-.2978516-1.3564453-.7529297-1.7832031-1.3662109s-.6689453-1.3896484-.7285156-2.3291016h2.2324219c.0634766.5791016.2060547,1.0410156.4296875,1.3837891.2226562.3427734.546875.5908203.9716797.7460938.4248047.1542969.9785156.2314453,1.6601562.2314453.6376953,0,1.1591797-.0654297,1.5625-.1962891.4033203-.1318359.7011719-.3251953.8925781-.5820312.1923828-.2568359.2880859-.5722656.2880859-.9492188,0-.3476562-.0810547-.6367188-.2431641-.8662109-.1630859-.2294922-.4345703-.4208984-.8144531-.5751953-.3798828-.1552734-.90625-.2929688-1.5800781-.4150391l-1.2275391-.2109375c-.8193359-.1416016-1.5117188-.3632812-2.0800781-.6669922s-1.0048828-.6992188-1.3095703-1.1865234c-.3056641-.4882812-.4589844-1.0703125-.4589844-1.7480469,0-.7167969.1835938-1.3388672.5498047-1.8652344s.8964844-.9345703,1.5917969-1.2216797c.6953125-.2880859,1.5205078-.4326172,2.4765625-.4326172,1.1201172,0,2.0537109.1582031,2.8017578.4736328s1.3105469.7744141,1.6865234,1.3769531c.3759766.6035156.5761719,1.3339844.5996094,2.1914062h-2.1796875c-.0273438-.5712891-.1582031-1.0224609-.390625-1.3535156-.2333984-.3310547-.5556641-.5634766-.9667969-.6962891s-.9257812-.2001953-1.5449219-.2001953c-.5175781,0-.9541016.0654297-1.3105469.1943359s-.6259766.3164062-.8105469.5605469c-.1835938.2451172-.2763672.5400391-.2763672.8847656,0,.3486328.0888672.6386719.2646484.8691406.1767578.2314453.4316216.4160156.7666016.5556641.3349609.1386719.7587891.2529297,1.2724609.34375l1.2216797.2109375c.9433594.1650391,1.7226562.3935547,2.3349609.6875.6132812.2939453,1.078125.6767578,1.3955078,1.1484375.3173828.4726562.4755859,1.0605469.4755859,1.765625,0,.7792969-.1992188,1.4443359-.5986328,1.9941406-.3994141.5507812-.9746094.9697266-1.7246094,1.2578125-.75.2871094-1.6455078.4316406-2.6875.4316406Z"></path>
    </g>
  </g>
  <g id="Fig._Mark" data-name="Fig. Mark">
    <g>
      <rect class="cls-1" x="35.4315" y="92.1158948" width="70.8630066" height="7.0860062"></rect>
      <path class="cls-1" d="M44.4405332,63.7794919c0-14.594986,11.8309937-26.4259949,26.4279785-26.4259949,14.5960083,0,26.4290161,11.8310089,26.4290161,26.4259949,0,9.6410065-7.8170166,17.4580078-17.4590149,17.4580078-1.5039978,0-2.723999-1.2200012-2.723999-2.7230072,0-1.5039978,1.2200012-2.7229919,2.723999-2.7229919,6.6350098,0,12.0130005-5.3789978,12.0130005-12.0120087,0-11.5889893-9.394989-20.9809875-20.9830017-20.9809875-11.5889893,0-20.9809875,9.3919983-20.9809875,20.9809875,0,8.4790039,7.0849915,15.6830139,15.1309814,15.6830139.5310059,0,.9609985-.4190063.9609985-.9480133,0-.5309906-.4289856-.9609985-.9589844-.9609985-7.0169983,0-13.2130127-6.3559875-13.2130127-13.7740021,0-10.5279999,8.5339966-19.0589905,19.0610046-19.0589905s19.0610046,8.5309906,19.0610046,19.0589905c0,5.5730133-4.5180054,10.0900116-10.0910034,10.0900116-2.565979,0-4.6459961,2.0780029-4.6459961,4.644989,0,2.5640106,2.0800171,4.6440125,4.6459961,4.6440125,10.70401,0,19.381012-8.6750031,19.381012-19.3790131,0-15.6559906-12.6940002-28.3479919-28.3510132-28.3479919-15.6579895,0-28.348999,12.6920013-28.348999,28.3479919,0,12.5470123,10.2430115,23.0620041,22.4989929,23.0620041,4.6809998,0,8.4130249-3.7259903,8.4130249-8.3270035v-6.4079895h6.4069824c4.6000061,0,8.32901-3.727005,8.32901-8.3270111,0-9.5529938-7.7449951-17.29599-17.2990112-17.29599-9.5549927,0-17.2999878,7.7429962-17.2999878,17.29599,0,6.4730072,5.5079956,12.0120087,11.5339966,12.0120087,1.5029907,0,2.7219849,1.2189941,2.7219849,2.7229919,0,1.503006-1.1829834,2.7230072-2.8059998,2.7230072-9.09198,0-16.894989-8.0059967-16.894989-17.4580078,0-12.5609894,10.1830139-22.743988,22.7449951-22.743988,12.5620117,0,22.7440186,10.1829987,22.7440186,22.743988,0,7.6080017-6.1670227,13.7740021-13.7740173,13.7740021-.5310059,0-.9609985.4300079-.9609985.9609985,0,.529007.4299927.9610138.9609985.9610138,8.6690063,0,15.697998-7.0279999,15.697998-15.6960144,0-13.6239929-11.0449829-24.6660004-24.6679993-24.6660004-13.6239929,0-24.6659851,11.0420074-24.6659851,24.6660004,0,10.5140076,8.6789856,19.3790131,18.815979,19.3790131,2.70401,0,4.7270203-2.0800018,4.7270203-4.6440125,0-2.5669861-2.0780029-4.6559906-4.6430054-4.6559906-5.1499939,0-9.6109924-4.6690063-9.6109924-10.07901,0-8.4919891,6.8840027-15.375,15.3769836-15.375,8.4920044,0,15.3760071,6.8830109,15.3760071,15.375,0,3.5380096-2.8680115,6.404007-6.4060059,6.404007h-6.4069824v-6.404007c0-1.4149933-1.1480103-2.5629883-2.5630188-2.5629883-1.4159851,0-2.5610046,1.147995-2.5610046,2.5629883,0,1.5040131-1.2209778,2.7230072-2.7249756,2.7230072s-2.7220154-1.2189941-2.7220154-2.7230072c0-4.4229889,3.5840149-8.0079956,8.0079956-8.0079956,4.4230042,0,8.0090027,3.5850067,8.0090027,8.0079956,0,.5310059.4299927.9600067.9609985.9600067.5299988,0,.9609985-.4290009.9609985-.9600067,0-5.4839935-4.4459839-9.9299927-9.9309998-9.9299927-5.4849854,0-9.9309998,4.4459991-9.9309998,9.9299927,0,2.5650024,2.0800171,4.6450043,4.6450195,4.6450043s4.6469727-2.0800018,4.6469727-4.6450043c0-.3539886.2850037-.6409912.6390076-.6409912s.6410217.2870026.6410217.6409912v6.404007h-5.927002c-3.5500183,0-6.4049988-2.8659973-6.4049988-6.404007,0-6.4579926,5.2329712-11.6919861,11.690979-11.6919861,6.4570007,0,11.6929932,5.2339935,11.6929932,11.6919861,0,1.5040131-1.2189941,2.7230072-2.7229919,2.7230072s-2.723999-1.2189941-2.723999-2.7230072c0-3.4499969-2.7969971-6.2479858-6.2460022-6.2479858-3.4499817,0-6.2449951,2.7979889-6.2449951,6.2479858,0,.5310059.428009.9600067.9590149.9600067.5299988,0,.9629822-.4290009.9629822-.9600067,0-2.3879852,1.9339905-4.3249969,4.322998-4.3249969,2.3880005,0,4.3240051,1.9370117,4.3240051,4.3249969,0,2.5650024,2.0800171,4.6450043,4.6459961,4.6450043,2.5650024,0,4.6440125-2.0800018,4.6440125-4.6450043,0-7.5189972-6.0950012-13.6139984-13.6140137-13.6139984-7.5189819,0-13.6149902,6.0950012-13.6149902,13.6139984,0,4.6000061,3.7179871,8.3270111,8.3309937,8.3270111h5.9250183v6.4079895c0,3.5390015-2.8410034,6.4060059-6.4910278,6.4060059-11.0699768,0-20.5779724-9.6539917-20.5779724-21.1410065"></path>
    </g>
  </g>
  <g id="Additions">
    <g>
      <path class="cls-1" d="M124.7899927,22.6772505v-8.5390625h1.0078125v8.5390625h-1.0078125Z"></path>
      <path class="cls-1" d="M132.3017114,18.4917036v4.1855469h-.9599609v-4.0898438c0-.9589844-.5273438-1.3789062-1.4150391-1.3789062-.8037109,0-1.703125.5996094-1.703125,1.9667969v3.5019531h-.9589844v-6.1884766h.9111328v.9238281c.4082031-.6240234,1.0791016-1.0683594,1.9433594-1.0683594,1.3789062,0,2.1826172.7802734,2.1826172,2.1474609Z"></path>
      <path class="cls-1" d="M133.2860864,20.7104536h.9716797c.1083984.9355469.5634766,1.2832031,1.6552734,1.2832031,1.0439453,0,1.4873047-.3476562,1.4873047-.9599609,0-.5507812-.3359375-.8027344-1.4150391-1.0068359l-.5761719-.1083984c-1.3427734-.2519531-1.9306641-.8632812-1.9306641-1.8222656,0-1.0556641.8398438-1.7519531,2.2548828-1.7519531,1.6552734,0,2.4941406.7324219,2.5185547,2.0517578h-.9599609c-.0478516-.9599609-.6113281-1.2236328-1.5585938-1.2236328-.828125,0-1.2958984.3359375-1.2958984.9111328,0,.5878906.4560547.8037109,1.2480469.9599609l.5517578.1074219c1.5224609.2998047,2.1347656.8154297,2.1347656,1.8232422,0,1.1757812-.9355469,1.8466797-2.4589844,1.8466797-1.5712891,0-2.5302734-.6591797-2.6269531-2.1103516Z"></path>
      <path class="cls-1" d="M142.0565943,17.3286177h-1.2705078v4.0058594c0,.3232422.1552734.5273438.7070312.5273438h.5634766v.8154297c-.2392578.0117188-.4912109.0244141-.6835938.0244141-.9589844,0-1.546875-.3359375-1.546875-1.2841797v-4.0888672h-1.0195312v-.8398438h1.0195312v-1.7509766h.9599609v1.7509766h1.2705078v.8398438Z"></path>
      <path class="cls-1" d="M142.7480005,15.0014693c0-.3476562.2880859-.6474609.6474609-.6474609.3476562,0,.6474609.2880859.6474609.6474609,0,.3476562-.2871094.6474609-.6474609.6474609-.3476562,0-.6474609-.2880859-.6474609-.6474609ZM142.9159693,22.6772505v-6.1884766h.9589844v6.1884766h-.9589844Z"></path>
      <path class="cls-1" d="M147.912063,17.3286177h-1.2705078v4.0058594c0,.3232422.1552734.5273438.7070312.5273438h.5634766v.8154297c-.2392578.0117188-.4912109.0244141-.6835938.0244141-.9589844,0-1.546875-.3359375-1.546875-1.2841797v-4.0888672h-1.0195312v-.8398438h1.0195312v-1.7509766h.9599609v1.7509766h1.2705078v.8398438Z"></path>
      <path class="cls-1" d="M152.8554224,16.4887739h.9599609v6.1884766h-.9111328v-.9238281c-.4082031.6240234-1.0800781,1.0673828-1.9433594,1.0673828-1.3789062,0-2.1826172-.7792969-2.1826172-2.1464844v-4.1855469h.9589844v4.0898438c0,.9589844.5283203,1.3789062,1.4160156,1.3789062.8027344,0,1.7021484-.5996094,1.7021484-1.9667969v-3.5019531Z"></path>
      <path class="cls-1" d="M157.8778833,17.3286177h-1.2705078v4.0058594c0,.3232422.1552734.5273438.7070312.5273438h.5634766v.8154297c-.2392578.0117188-.4912109.0244141-.6835938.0244141-.9589844,0-1.546875-.3359375-1.546875-1.2841797v-4.0888672h-1.0195312v-.8398438h1.0195312v-1.7509766h.9599609v1.7509766h1.2705078v.8398438Z"></path>
      <path class="cls-1" d="M158.3241724,19.5825239c0-1.9423828,1.1396484-3.2382812,2.8544922-3.2382812,1.8466797,0,2.8417969,1.4638672,2.8417969,3.2382812v.3359375h-4.7011719c.0957031,1.3916016.828125,2.0273438,1.9072266,2.0273438.875,0,1.4267578-.4560547,1.6425781-1.1513672h.9960938c-.2998047,1.1630859-1.1875,2.0263672-2.6630859,2.0263672-1.6904297,0-2.8779297-1.2353516-2.8779297-3.2382812ZM162.9892114,19.0551802c-.0957031-1.0195312-.7070312-1.8349609-1.8105469-1.8349609-.9716797,0-1.6796875.6113281-1.8349609,1.8349609h3.6455078Z"></path>
      <path class="cls-1" d="M167.0233911,19.5825239c0-1.9785156,1.2587891-3.2382812,2.9980469-3.2382812s2.9980469,1.2597656,2.9980469,3.2382812c0,1.9794922-1.2587891,3.2382812-2.9980469,3.2382812s-2.9980469-1.2587891-2.9980469-3.2382812ZM172.0126489,19.5825239c0-1.4990234-.7919922-2.3740234-1.9912109-2.3740234s-1.9912109.875-1.9912109,2.3740234c0,1.5.7919922,2.375,1.9912109,2.375s1.9912109-.875,1.9912109-2.375Z"></path>
      <path class="cls-1" d="M175.3749536,15.8286177v.6601562h1.3193359v.8398438h-1.3193359v5.3486328h-.9599609v-5.3486328h-1.0195312v-.8398438h1.0195312v-.6357422c0-1.0917969.5039062-1.7392578,1.7275391-1.7392578.1796875,0,.4677734.0117188.6113281.0244141v.8154297h-.5517578c-.5517578,0-.8271484.3115234-.8271484.875Z"></path>
    </g>
  </g>
</svg>
