<?xml version="1.0" encoding="UTF-8"?>
<svg id="_x3C_Ebene_x3E_" xmlns="http://www.w3.org/2000/svg" version="1.1" viewBox="0 0 260.62 120.3">
  <!-- Generator: Adobe Illustrator 30.2.1, SVG Export Plug-In . SVG Version: 2.1.1 Build 1)  -->
  <defs>
    <style>
      .st0 {
        fill: #fff;
      }
    </style>
  </defs>
  <g>
    <path class="st0" d="M41.99,76.25c-.67,3-1.25,5.83-1.25,6.91,0,2.16,1.91,2.66,3.58,2.66,1.42,0,3.16-1.08,4.33-1.83,3.75-2.41,5.49-6.99,6.49-11.16l4.25-17.82h8.66l-5.58,24.39c-.58,2.5-.92,4.41-.83,4.99.08.83.92,1.33,1.66,1.33,3,0,6.66-6.91,7.74-9.32l1.83,1c-2.16,5.58-6.74,11.82-13.15,11.82-4.99,0-6.33-3.16-6.24-7.99-3.58,4.5-7.83,7.99-13.65,7.99-3.91,0-7.41-1.33-7.41-5.99,0-1.17.5-3.83,1.08-6.49l4.25-19.65h-6.58l.58-2.08h7.66c2.58,0,5.08-.33,7.66-.33l-5.08,21.56Z"/>
    <path class="st0" d="M80.03,39.86l.06.06c1.18-1.18,2.14-1.59,3.47-1.59,3,0,5.03,2.68,5.03,6.53s-2.1,8.67-9.31,8.67c-1.37,0-2.96-.1-3.79-.22l2.96-21.96h2.77l-1.21,8.51ZM79.94,51.3c3.76,0,5.9-2.65,5.9-6.5,0-2.61-1.18-4.11-3.09-4.11-.89,0-2.87.61-3.06,1.82l-1.24,8.8h1.5Z"/>
  </g>
  <g>
    <path class="st0" d="M116.61,61.99c0,3.06-1.98,4.43-4.9,4.43s-4.9-1.38-4.9-4.43v-6.93h2.98v6.43c0,1.47.4,2.72,1.92,2.72s1.92-1.25,1.92-2.72v-6.43h2.98v6.93Z"/>
    <path class="st0" d="M120.6,55.07h3.79l3.78,7.58h.03l-.05-7.58h2.72v11.17h-3.7l-3.9-7.63h-.03l.1,7.63h-2.74v-11.17Z"/>
    <path class="st0" d="M135.31,55.07h2.98v11.17h-2.98v-11.17Z"/>
    <path class="st0" d="M141.36,55.07h3.17l2.48,8.77h.03l2.5-8.77h3.06l-3.81,11.17h-3.68l-3.74-11.17Z"/>
    <path class="st0" d="M155.6,55.07h7.87v2.11h-4.9v2.3h4.62v2.11h-4.62v2.53h5.07v2.11h-8.05v-11.17Z"/>
    <path class="st0" d="M167.33,55.07h5.31c1.98,0,3.6.9,3.6,2.82,0,1.49-.71,2.48-2.14,2.82v.03c.96.26,1.02,1.1,1.58,2.46l1.09,3.04h-3.1l-.64-2.02c-.61-1.92-.99-2.4-2.1-2.4h-.62v4.42h-2.98v-11.17ZM170.31,59.71h.78c.96,0,2.18-.03,2.18-1.3,0-1.04-1.04-1.23-2.18-1.23h-.78v2.53Z"/>
    <path class="st0" d="M180.14,63.48c.77.42,1.84.74,3.07.74.95,0,1.84-.19,1.84-1.09,0-2.08-5.28-.77-5.28-4.83,0-2.69,2.62-3.42,4.87-3.42,1.07,0,2.13.16,2.88.42l-.19,2.3c-.77-.35-1.63-.51-2.48-.51-.75,0-2,.06-2,1.04,0,1.81,5.28.59,5.28,4.62,0,2.9-2.43,3.68-4.91,3.68-1.04,0-2.34-.16-3.33-.48l.26-2.46Z"/>
    <path class="st0" d="M191.91,55.07h2.97v11.17h-2.97v-11.17Z"/>
    <path class="st0" d="M200.41,57.27h-2.75v-2.21h8.48v2.21h-2.75v8.96h-2.97v-8.96Z"/>
    <path class="st0" d="M211.68,55.07h3.65l4.3,11.17h-3.26l-.83-2.38h-4.19l-.88,2.38h-3.02l4.24-11.17ZM210.58,52.17h2.3v2.3h-2.3v-2.3ZM213.5,57.37h-.03l-1.44,4.37h2.8l-1.33-4.37ZM214.22,52.17h2.3v2.3h-2.3v-2.3Z"/>
    <path class="st0" d="M223.73,57.27h-2.75v-2.21h8.48v2.21h-2.75v8.96h-2.98v-8.96Z"/>
    <path class="st0" d="M106.9,75.07h5.14c2.08,0,3.63.91,3.63,2.83,0,1.41-.72,2.19-1.97,2.61v.03c1.49.3,2.26,1.1,2.26,2.46,0,2.67-2.35,3.23-4.35,3.23h-4.7v-11.17ZM109.88,79.48h.83c.98,0,1.98-.24,1.98-1.18,0-1.02-.96-1.12-1.95-1.12h-.86v2.3ZM109.88,84.12h.88c1.09,0,2.22-.16,2.22-1.3,0-1.22-1.17-1.33-2.19-1.33h-.91v2.62Z"/>
    <path class="st0" d="M119.31,75.07h7.87v2.11h-4.9v2.3h4.62v2.11h-4.62v2.53h5.07v2.11h-8.05v-11.17Z"/>
    <path class="st0" d="M131.25,75.07h5.31c1.98,0,3.6.9,3.6,2.82,0,1.49-.7,2.48-2.14,2.82v.03c.96.26,1.02,1.1,1.58,2.46l1.09,3.04h-3.1l-.64-2.02c-.61-1.92-.99-2.4-2.1-2.4h-.62v4.42h-2.98v-11.17ZM134.23,79.71h.78c.96,0,2.18-.03,2.18-1.3,0-1.04-1.04-1.23-2.18-1.23h-.78v2.53Z"/>
    <path class="st0" d="M144,75.07h3.79l3.78,7.58h.03l-.05-7.58h2.72v11.17h-3.7l-3.9-7.63h-.03l.1,7.63h-2.74v-11.17Z"/>
  </g>
</svg>