<?xml version="1.0" encoding="UTF-8" standalone="no"?>
<svg xmlns="http://www.w3.org/2000/svg" width="273" height="48" viewBox="0 0 273 48">
  <g fill="none">
    <path fill="#E63312" d="M211.2 0C219.3 15.6 227.4 31.8 235.2 47.4 231 47.4 227.1 47.4 223.2 47.4L222.9 47.4C218.1 37.8 198.9 0 198.9 0 198.9 0 207.3 0 211.2 0M193.8 36L199.5 47.4C198.6 47.4 187.2 47.4 187.2 47.4 179.1 31.8 170.7 15.9 163.2 0 167.1 0 171.3 0 175.5 0 175.2 0 193.2 34.8 193.8 36M266.4 36L272.1 47.4C271.2 47.4 259.8 47.4 259.8 47.4 252 31.8 243.3 15.9 235.8 0 239.7 0 243.9 0 248.1 0 247.8 0 265.8 34.8 266.4 36"/>
    <path fill="#000000" d="M10.5 32.4C9.9 30 9 28.2 6.6 28.2 4.8 28.2 3 29.7 3 31.5 3 36.3 12.6 34.5 12.6 41.4 12.6 45 9.9 47.1 6.6 47.1 3 47.1.6 45 0 41.4L2.1 40.8C2.7 43.2 4.5 45.3 6.9 45.3 9 45.3 10.8 43.8 10.8 41.7 10.8 36.3 1.2 38.4 1.2 31.8 1.2 28.5 3.6 26.4 6.9 26.4 9.9 26.4 12 28.8 12.9 31.5L10.5 32.4zM17.1 32.7L20.4 32.7 20.4 34.5 17.1 34.5 17.1 43.2C17.1 44.7 17.1 45.6 18.6 45.6 19.2 45.6 19.8 45.6 20.1 45.3L20.1 46.8C19.5 47.1 18.9 47.1 18 47.1 14.7 47.1 14.7 44.7 14.7 42.3L14.7 34.5 13.2 34.5 13.2 32.7 15.3 32.7 15.3 28.2 17.4 28.2 17.4 32.7 17.1 32.7zM29.1 38.7L29.1 42.9C28.2 44.1 26.7 45.3 25.2 45.3 24 45.3 23.1 44.1 23.1 42.9 23.1 40.5 26.4 39.6 28.5 39L29.1 38.7zM31.5 46.8C31.2 45.9 31.2 44.7 31.2 43.8L31.2 36.9C31.2 33.6 28.5 32.4 26.4 32.4 24.3 32.4 22.8 33.6 21.6 35.4L23.1 36.3C24 35.1 24.9 34.2 26.4 34.2 27.9 34.2 29.1 35.1 29.1 36.6L29.1 37.5 28.5 37.8C25.5 38.7 21.3 39.6 21.3 43.5 21.3 45.6 23.1 47.4 25.2 47.4 27 47.4 28.2 46.2 29.4 45.3L29.7 47.1 31.5 47.1 31.5 46.8zM42.3 42.9C41.7 44.1 40.5 45.6 39 45.6 37.5 45.6 35.7 44.4 35.7 40.2 35.7 38.1 36.3 34.2 39 34.2 40.5 34.2 41.7 35.1 42.3 36.6L42.3 42.9zM42.3 34.2C41.4 33.3 40.2 32.4 38.7 32.4 36.3 32.4 33.6 34.5 33.6 40.2 33.6 45.6 36.9 47.4 38.7 47.4 40.2 47.4 41.4 46.5 42.3 45.3L42.3 46.8 44.4 46.8 44.4 27 42.3 27 42.3 34.2zM49.5 32.7L52.8 32.7 52.8 34.5 49.5 34.5 49.5 43.2C49.5 44.7 49.5 45.6 51 45.6 51.6 45.6 52.2 45.6 52.5 45.3L52.5 46.8C51.9 47.1 51.3 47.1 50.4 47.1 47.1 47.1 47.1 44.7 47.1 42.3L47.1 34.5 45 34.5 45 32.7 47.1 32.7 47.1 28.2 49.2 28.2 49.2 32.7 49.5 32.7z"/>
    <polygon fill="#000000" points="74.4 46.8 72.3 46.8 69 30.6 68.7 30.6 65.4 46.8 63.3 46.8 59.1 27 61.2 27 64.2 42.9 64.5 42.9 67.8 27 69.9 27 73.2 42.9 73.2 42.9 76.8 27 78.9 27"/>
    <path fill="#000000" d="M81.9 46.8L79.8 46.8 79.8 32.7 81.9 32.7 81.9 46.8zM81.9 29.1L79.8 29.1 79.8 27 81.9 27 81.9 29.1zM86.7 46.8L84.6 46.8 84.6 32.7 86.7 32.7 86.7 34.2C87.9 33.3 89.1 32.4 90.6 32.4 92.7 32.4 94.2 33.6 94.2 37.2L94.2 46.8 92.1 46.8 92.1 37.5C92.1 36 92.4 33.9 90.3 33.9 89.1 33.9 87.6 35.1 86.7 36L86.7 46.8zM99.3 32.7L102.6 32.7 102.6 34.5 99.3 34.5 99.3 43.2C99.3 44.7 99.3 45.6 100.8 45.6 101.4 45.6 102 45.6 102.3 45.3L102.3 46.8C101.7 47.1 101.1 47.1 100.2 47.1 96.9 47.1 96.9 44.7 96.9 42.3L96.9 34.5 94.8 34.5 94.8 32.7 96.9 32.7 96.9 28.2 99 28.2 99 32.7 99.3 32.7zM105.6 38.4C105.6 36.3 106.8 33.9 108.9 33.9 111 33.9 111.9 36.6 111.9 38.4L105.6 38.4zM114 39.9C114.3 36.6 113.1 32.1 109.2 32.1 106.2 32.1 103.5 34.2 103.5 39.6 103.5 45 105.9 47.1 109.2 47.1 111.6 47.1 113.4 45.6 114.3 43.8L112.8 42.9C112.2 44.1 110.7 45.3 109.5 45.3 107.4 45.3 105.6 43.8 105.6 39.9L114 39.9zM118.2 35.7C119.1 33.9 120 32.4 122.1 32.4L123 32.4 123 34.2C120.3 33.9 119.1 36.6 118.2 38.7L118.2 46.8 116.1 46.8 116.1 32.7 118.2 32.7 118.2 35.7zM127.5 32.7L130.8 32.7 130.8 34.5 127.5 34.5 127.5 43.2C127.5 44.7 127.5 45.6 129 45.6 129.6 45.6 130.2 45.6 130.5 45.3L130.5 46.8C129.9 47.1 129.3 47.1 128.4 47.1 125.1 47.1 125.1 44.7 125.1 42.3L125.1 34.5 123 34.5 123 32.7 125.1 32.7 125.1 28.2 127.2 28.2 127.2 32.7 127.5 32.7zM133.8 34.2C135 33.3 136.2 32.4 137.7 32.4 139.8 32.4 141.3 33.6 141.3 37.2L141.3 46.8 139.2 46.8 139.2 37.5C139.2 36 139.5 33.9 137.4 33.9 136.2 33.9 134.7 35.1 133.8 36L133.8 46.8 132 46.8 132 27 134.1 27 134.1 34.2 133.8 34.2zM151.2 32.7L153.3 32.7 153.3 46.8 151.2 46.8 151.2 45.3C150 46.2 148.8 47.1 147.3 47.1 145.2 47.1 143.7 45.9 143.7 42.3L143.7 32.7 145.8 32.7 145.8 42C145.8 43.5 146.1 45.6 147.6 45.6 148.8 45.6 150.3 44.4 151.2 43.5L151.2 32.7zM157.8 35.7C158.7 33.9 159.6 32.4 161.7 32.4L162.6 32.4 162.6 34.2C159.9 33.9 158.7 36.6 157.8 38.7L157.8 46.8 155.7 46.8 155.7 32.7 157.8 32.7 157.8 35.7z"/>
    <path fill="#E95B25" d="M200.7,13.2 C200.1,14.7 202.8,15.3 202.2,16.8 C201.6,17.1 201.9,16.2 201.6,16.2 C201,15.6 199.8,15 200.1,13.8 C200.1,13.5 200.1,12.9 200.7,13.2"/>
    <path fill="#E95B25" d="M203.1,13.8 C202.8,14.4 202.2,14.7 202.2,15.3 C202.2,15.9 202.5,16.2 202.8,16.2 C202.8,16.5 202.5,16.8 202.2,17.1 C201.9,17.4 201.6,17.1 201.3,16.8 C201.3,16.5 201,16.8 200.7,16.8 C200.7,17.1 200.1,17.4 200.4,17.7 C201.3,18 201.9,18.6 202.8,18.9 C204.3,18.9 204.6,17.1 205.5,16.2 C205.8,14.7 204,14.1 203.1,13.8 Z M204.9,16.2 C204.9,16.2 204.6,16.5 204.6,16.5 C204.6,16.5 204.3,16.5 204.3,16.2 C204.3,15.9 204.3,15.9 204.3,15.6 L204.6,15.6 C204.9,15.6 204.9,15.9 204.9,16.2 Z"/>
    <path fill="#E63312" d="M206.1,25.5 C205.5,24.9 204.9,24.3 205.2,23.4 C205.2,22.8 205.8,22.5 206.1,22.5 C206.7,22.5 207.3,22.8 207.6,23.4 C207.9,24 207,24.3 207.3,24.9 C207.3,25.5 207.9,25.8 208.5,25.5 C209.1,25.5 209.4,24.6 209.4,24.3 C209.4,23.1 208.8,22.2 207.9,21.6 C206.7,21 205.5,21 204.9,21.3 C205.8,20.1 205.5,18.6 206.7,18 C207,17.7 206.7,17.1 206.4,16.8 C206.4,16.8 205.8,16.5 205.8,16.8 C205.2,18 204.6,19.5 202.8,19.5 C201.3,18.9 199.2,17.7 197.7,18.9 C196.5,16.8 195.9,14.7 195,12.6 C194.4,11.7 193.8,10.2 192.3,10.2 C192.3,10.2 192,10.2 192,10.5 C192.3,10.8 192.9,11.1 192.9,11.7 C192.6,11.7 192.3,11.4 192,11.1 C191.7,10.8 191.1,10.5 190.8,10.8 C190.2,12 191.7,11.4 192.3,12 C192.3,12.3 192.6,12.6 192.3,12.6 C192.3,12.6 192.3,12.3 192,12 C191.4,12 191.1,11.7 190.8,12 C190.5,12.3 190.8,12.9 190.8,13.2 C191.1,14.1 192,15 192.6,15 C192.9,16.2 193.2,17.4 193.2,18.9 C191.4,17.7 190.2,15 187.8,15 C187.5,15 187.2,15 187.2,15.6 C187.5,15.6 188.4,15.9 188.4,16.5 C188.1,16.5 188.1,16.5 188.1,16.2 C187.5,16.2 186.9,15.9 186.6,16.5 C186.3,17.1 186.9,17.1 187.2,17.4 C186.9,17.4 186.6,17.7 186.6,18 C186.9,18.9 187.8,19.5 188.7,19.8 C189.3,20.1 189.9,19.5 190.2,20.1 C191.7,21.9 193.2,23.7 194.7,25.2 C195.3,25.2 195.6,24.9 196.2,25.2 C196.5,27.3 198.6,28.2 199.8,29.7 L199.8,30 L198.3,30 C197.7,30 197.1,30.6 197.1,30.9 C195.6,29.4 195.3,26.7 192.9,26.1 C192.6,26.1 192.3,26.1 192.3,26.4 C192.6,26.7 193.2,26.7 193.2,27.3 C192.9,27.3 192.9,27 192.6,27 C192.3,27 191.7,26.7 191.4,27 C190.8,28.2 192.3,27.9 192.9,28.5 C192.9,28.5 193.2,28.8 192.9,29.1 L192.3,28.5 C192,28.5 191.7,28.2 191.4,28.5 C191.1,29.1 191.4,29.7 192,30.3 C192.3,30.9 193.2,31.5 193.8,31.2 C194.7,32.7 195.6,34.5 196.2,36.3 L196.5,36.3 C197.4,35.7 198.3,34.8 199.5,34.5 C200.1,34.5 200.7,34.5 201,34.8 C200.7,36 200.4,36.6 200.1,37.8 C200.1,39.6 201.9,40.2 203.1,41.1 C202.5,42.9 201,44.7 201.3,46.8 C201.3,47.1 201.9,47.7 202.2,47.7 C202.2,47.1 202.2,46.5 202.5,45.9 C202.5,46.5 202.2,46.8 202.5,47.1 C202.5,47.4 202.8,48 203.4,48 C204.6,47.7 203.4,47.1 203.7,46.2 C203.7,45.9 203.7,45.3 204.3,45.6 L204.3,46.5 C204.3,46.8 204.9,47.1 205.2,46.8 C205.8,46.5 206.1,45.6 206.1,45 C206.1,44.4 206.1,43.8 205.5,43.5 C206.1,42.3 207,41.1 207.6,39.9 C206.7,39.3 205.5,38.7 204.9,37.8 C204.3,36.6 204.9,35.7 205.5,34.8 C206.4,35.7 207.6,36.3 208.8,36.6 C210,36.6 211.5,36 211.8,34.8 C213.3,30.3 208.5,27.9 206.1,25.5 Z M203.1,20.1 L203.7,21 C203.7,21 203.7,21.3 203.4,21.3 C203.4,21.3 203.1,21.3 203.1,21.3 C202.8,21 202.8,20.7 202.8,20.4 L203.1,20.1 Z M199.2,19.5 L199.8,20.1 L199.5,20.4 C199.2,20.4 198.9,20.1 198.9,19.8 C198.9,19.5 198.9,19.5 199.2,19.5 Z M197.7,20.1 L198,20.4 L198.3,21 L198,21 C198,21 197.7,20.7 197.7,20.1 Z M196.5,21.9 C196.5,21.9 196.2,21.6 196.2,21.6 L196.2,21.3 L196.2,21.6 C196.2,21.6 196.8,22.5 196.8,22.5 C196.8,22.2 196.5,21.9 196.5,21.9 Z M197.1,23.7 C197.1,23.4 196.8,23.1 197.1,23.1 L197.7,24 C197.4,24 197.1,24 197.1,23.7 Z M198,25.5 C197.7,25.5 197.7,25.2 197.4,24.9 C197.4,24.9 197.4,24.6 197.4,24.6 L197.7,24.9 L198,25.5 Z M198.3,22.8 C198.3,22.8 198,22.5 198,22.2 L198,21.9 C198,21.9 198.6,22.5 198.6,22.8 C198.6,22.8 198.3,22.8 198.3,22.8 C198.6,22.8 198.3,22.8 198.3,22.8 Z M199.5,24.6 C199.2,24.6 199.2,24.3 198.9,24.3 C198.9,24.3 198.6,24 198.6,24 C198.6,24 198.6,23.7 198.9,23.7 L199.5,24.6 Z M199.5,21.3 C199.5,21.3 199.5,21 199.5,21.3 L200.1,21.3 L200.4,21.9 C199.8,21.9 199.5,21.6 199.5,21.3 Z M200.7,23.7 C200.4,23.7 200.1,23.7 200.1,23.4 L200.1,23.1 C200.1,23.1 200.1,22.8 200.1,22.8 C200.1,22.8 200.1,22.8 200.4,22.5 L200.7,23.7 Z M201,20.4 C201,20.4 200.7,20.1 200.7,19.8 C200.7,19.8 200.7,19.5 201,19.5 L201.3,20.4 L201.3,20.7 C201.3,20.7 201.3,20.7 201,20.4 Z M202.2,22.5 C201.9,22.5 201.6,22.2 201.6,22.2 C201.6,22.2 201.3,21.6 201.3,21.6 L201.6,21.9 L202.2,22.5 Z M210,33.6 C209.7,34.2 209.1,34.5 208.5,34.2 C207,33.9 206.1,32.1 205.2,30.9 L202.2,24 L203.4,23.1 C203.4,27.3 208.5,28.5 210.3,31.8 C210.3,32.4 210.3,33 210,33.6 Z"/>
    <path fill="#E95B25" d="M232.2,3.6 C231.6,5.1 234.3,5.7 233.7,7.2 C233.1,7.5 233.4,6.6 233.1,6.6 C232.5,5.7 231.6,5.4 231.6,4.2 C231.6,3.9 231.6,3.3 232.2,3.6"/>
    <path fill="#E95B25" d="M234.6,3.9 C234.3,4.5 233.7,4.8 233.7,5.4 C233.7,6 234,6.3 234.3,6.3 C234.3,6.6 234,6.9 233.7,7.2 C233.4,7.5 233.1,7.2 232.8,6.9 C232.8,6.6 232.5,6.9 232.2,6.9 C232.2,7.2 231.6,7.5 231.9,7.8 C232.8,8.1 233.4,8.7 234.3,9 C235.8,9 236.1,7.2 237,6.3 C237.3,5.1 235.5,4.5 234.6,3.9 Z M236.7,6.3 C236.7,6.3 236.4,6.3 236.4,6.6 C236.4,6.6 236.1,6.6 236.1,6.3 C236.1,6 236.1,6 236.1,5.7 L236.4,5.7 C236.4,5.7 236.7,6.3 236.7,6.3 Z"/>
    <path fill="#E63312" d="M237.6,15.9 C237,15.3 236.4,14.7 236.4,13.8 C236.4,13.2 237,12.9 237.6,12.9 C238.2,12.9 238.8,13.2 239.1,13.8 C239.4,14.4 238.5,14.4 238.8,15 C238.8,15.6 239.4,15.9 240,15.6 C240.6,15.6 240.9,14.7 240.9,14.4 C240.9,13.2 240.3,12.3 239.4,11.7 C238.5,11.1 237.3,11.1 236.7,11.4 C237.6,10.2 237.3,8.7 238.5,8.1 C238.8,7.8 238.5,7.2 238.2,6.9 C238.2,6.9 237.6,6.6 237.6,6.9 C237,8.1 236.4,9.6 234.6,9.6 C233.1,9 231,7.8 229.2,9 C228,6.9 227.4,4.8 226.5,2.7 C225.9,1.8 225.3,0.3 223.8,0.3 C223.8,0.3 223.5,0.3 223.5,0.6 C223.8,0.9 224.4,1.2 224.4,1.8 C224.1,1.8 223.8,1.5 223.5,1.2 C223.2,0.9 222.6,0.6 222.3,0.9 C221.7,2.1 223.2,1.5 223.5,2.1 C223.5,2.4 223.8,2.7 223.5,2.7 C223.5,2.7 223.5,2.4 223.2,2.1 C222.9,1.8 222.6,1.8 222,1.8 C221.7,2.1 222,2.7 222,3 C222.3,3.9 223.2,4.5 223.8,4.8 C224.1,6 224.4,7.2 224.4,8.7 C222.6,7.5 221.1,4.8 218.7,4.8 C218.4,4.8 218.1,4.8 218.1,5.4 C218.4,5.4 219.3,5.7 219.3,6.3 C219,6.3 219,6.3 219,6 C219,6 218.4,6 218.1,6.6 C217.8,7.2 218.4,7.2 218.7,7.5 C218.4,7.5 218.1,7.8 218.1,8.1 C218.4,9 219.3,9.6 220.2,9.9 C220.8,10.2 221.4,9.6 221.7,10.2 C223.2,12 224.7,13.8 226.2,15.3 C226.8,15.3 227.1,15 227.7,15.3 C228,17.4 230.1,18.3 231.3,19.8 L231.3,20.1 L229.8,20.1 C229.2,20.1 228.6,20.7 228.6,21 C227.1,19.5 226.8,16.8 224.4,16.2 C224.1,16.2 223.8,16.2 223.8,16.5 C224.1,16.8 224.7,16.8 224.7,17.4 C224.4,17.4 224.4,17.1 224.1,17.1 C223.8,17.1 223.2,16.8 222.9,17.1 C222,18 223.5,17.7 223.8,18.3 C223.8,18.3 224.1,18.6 223.8,18.9 L223.5,18 C223.2,18 222.9,17.7 222.6,18 C222.3,18.6 222.6,19.2 223.2,19.8 C223.5,20.4 224.1,21 225,20.7 C225.9,22.2 226.8,24 227.4,25.8 L227.7,25.8 C228.6,25.2 229.5,24.3 230.7,24 C231.3,24 231.9,24 232.2,24.3 C231.9,25.5 231.6,26.1 231.3,27.3 C231.3,29.1 233.1,29.7 234.6,30.6 C234,32.4 232.5,34.2 232.8,36.3 C232.8,36.6 233.4,37.2 233.7,37.2 C233.7,36.6 233.7,36 234,35.4 C234,36 233.7,36.3 234,36.6 C234,36.9 234.3,37.5 234.9,37.5 C236.1,37.2 234.9,36.6 235.2,35.7 C235.2,35.4 235.2,34.8 235.8,35.1 L235.8,36 C235.8,36.3 236.4,36.6 236.7,36.3 C237.3,36 237.6,35.1 237.6,34.5 C237.6,33.9 237.6,33.3 237,33 C237.6,31.8 238.5,30.6 239.1,29.4 C238.2,28.8 237,28.2 236.4,27.3 C235.8,26.1 236.4,25.2 237,24.3 C237.9,25.2 239.1,25.8 240.3,26.1 C241.5,26.1 243,25.5 243.3,24.3 C244.8,20.4 240,18.3 237.6,15.9 Z M234.6,10.2 L235.5,11.1 C235.5,11.1 235.5,11.4 235.2,11.4 C235.2,11.4 234.9,11.4 234.9,11.4 C234.6,11.1 234.6,10.8 234.6,10.5 L234.6,10.2 Z M230.7,9.6 L231.3,10.2 L231,10.8 C230.7,10.8 230.4,10.5 230.4,10.2 C230.7,9.9 230.7,9.9 230.7,9.6 Z M229.5,10.5 L229.8,10.8 L230.1,11.4 L229.8,11.4 C229.8,11.4 229.5,10.8 229.5,10.5 Z M228.3,12 C228,12 228,11.7 228,11.7 L228,11.4 L228,11.7 C228,11.7 228.6,12.6 228.6,12.6 C228.3,12.3 228.3,12.3 228.3,12 Z M228.6,13.8 C228.6,13.5 228.3,13.2 228.6,13.2 L229.2,14.1 C228.9,14.1 228.9,14.1 228.6,13.8 Z M229.5,15.9 C229.2,15.9 229.2,15.6 228.9,15.3 C228.9,15.3 228.9,15 228.9,15 L229.2,15.3 L229.5,15.9 Z M230.1,12.9 C230.1,12.9 229.8,12.6 229.8,12.3 L229.8,12 C229.8,12 230.4,12.6 230.4,12.9 C230.4,12.9 230.1,12.9 230.1,12.9 C230.1,13.2 230.1,13.2 230.1,12.9 Z M231,14.7 C230.7,14.7 230.7,14.4 230.4,14.4 C230.4,14.4 230.1,14.1 230.1,14.1 C230.1,14.1 230.1,13.8 230.4,13.8 L231,14.7 Z M231,11.4 C231,11.4 231.3,11.1 231,11.4 L231.6,11.4 L231.9,12 C231.6,12.3 231.3,11.7 231,11.4 Z M232.5,14.1 C232.2,14.1 231.9,14.1 231.9,13.8 L231.9,13.5 C231.9,13.5 231.9,13.2 231.9,13.2 C231.9,13.2 231.9,13.2 232.2,12.9 L232.5,14.1 Z M232.8,10.8 C232.8,10.8 232.5,10.5 232.5,10.2 C232.5,10.2 232.5,9.9 232.8,9.9 L233.1,10.8 L233.1,11.1 C233.1,11.1 232.8,10.8 232.8,10.8 Z M233.7,12.9 C233.4,12.9 233.1,12.6 233.1,12.6 C233.1,12.3 232.8,12 232.8,12 L233.1,12.3 L233.7,12.9 Z M241.5,23.7 C241.2,24.3 240.6,24.6 240,24.3 C238.5,24 237.6,22.5 236.7,21 L233.7,14.1 L234.6,13.2 C234.6,17.4 239.7,18.6 241.5,21.9 C241.8,22.8 241.8,23.4 241.5,23.7 Z"/>
  </g>
</svg>
