<?xml version="1.0" standalone="no"?>
<!DOCTYPE svg PUBLIC "-//W3C//DTD SVG 20010904//EN"
 "http://www.w3.org/TR/2001/REC-SVG-20010904/DTD/svg10.dtd">
<svg version="1.0" xmlns="http://www.w3.org/2000/svg"
 width="16.000000pt" height="16.000000pt" viewBox="0 0 16.000000 16.000000"
 preserveAspectRatio="xMidYMid meet">
<metadata>
Created by potrace 1.11, written by Peter Selinger 2001-2013
</metadata>
<g transform="translate(0.000000,16.000000) scale(0.003125,-0.003125)"
fill="#000000" stroke="none">
<path d="M2656 4820 c-21 -10 -45 -28 -53 -39 -13 -20 -21 -20 -151 -14 -366
16 -687 -87 -909 -291 -137 -127 -235 -283 -271 -434 -13 -57 -21 -73 -37 -76
-11 -3 -127 -21 -258 -41 -390 -59 -581 -119 -643 -201 -31 -41 -42 -110 -24
-154 19 -47 105 -117 194 -159 98 -47 300 -114 496 -166 80 -21 146 -40 148
-41 2 -1 -25 -44 -59 -95 -334 -496 -401 -1134 -177 -1682 288 -706 972 -1151
1728 -1124 187 7 337 33 503 87 361 119 686 358 909 671 85 118 198 342 242
479 66 207 81 308 81 560 0 196 -3 240 -23 340 -78 385 -280 743 -562 996 -50
45 -146 124 -156 128 -1 1 7 42 17 91 26 124 25 303 -1 412 -61 255 -243 446
-540 566 -47 19 -109 40 -137 47 -41 11 -53 18 -53 33 0 35 -40 85 -84 106
-54 27 -129 27 -180 1z m-39 -266 c305 -45 518 -136 654 -281 107 -113 144
-218 143 -408 -1 -178 -2 -179 -111 -199 -297 -55 -906 -40 -1343 35 -209 36
-421 99 -442 132 -13 21 -9 131 8 188 45 152 156 301 294 395 93 64 212 112
346 138 95 19 324 19 451 0z m-1260 -871 c27 -54 98 -97 221 -137 190 -61 471
-107 782 -127 96 -6 202 -14 235 -17 l60 -7 -130 -32 c-187 -47 -292 -63 -449
-71 -273 -14 -494 12 -842 98 -226 56 -447 126 -532 169 l-57 29 70 21 c88 28
516 105 607 110 9 1 24 -15 35 -36z m2182 -300 c320 -239 543 -599 617 -998
28 -150 26 -452 -5 -595 -116 -547 -490 -990 -995 -1180 -429 -162 -886 -141
-1287 61 -314 157 -561 405 -721 722 -219 437 -220 961 -4 1411 47 96 132 230
197 307 l38 45 103 -17 c243 -41 502 -50 719 -24 257 30 497 92 949 248 215
74 279 92 295 84 11 -5 53 -34 94 -64z"/>
<path d="M2025 2707 c-35 -16 -92 -77 -106 -114 -30 -79 6 -186 80 -238 37
-26 51 -30 109 -30 59 0 72 4 114 32 114 80 117 238 5 327 -33 26 -48 31 -105
33 -41 2 -79 -2 -97 -10z"/>
<path d="M2935 2704 c-47 -26 -76 -56 -96 -99 -74 -160 97 -337 259 -270 84
36 126 106 120 200 -4 71 -30 117 -86 156 -45 31 -152 38 -197 13z"/>
<path d="M1480 2319 c-77 -31 -96 -88 -80 -236 31 -289 152 -545 351 -742 233
-230 524 -351 850 -351 313 0 598 115 828 335 234 223 366 516 373 825 2 82 0
91 -25 123 -50 66 -140 73 -197 16 -34 -35 -34 -35 -50 -183 -45 -429 -364
-772 -780 -837 -105 -16 -305 -6 -400 21 -179 50 -360 169 -477 315 -122 151
-190 329 -211 548 -10 108 -26 136 -89 163 -37 16 -58 17 -93 3z"/>
</g>
</svg>
