<svg xmlns="http://www.w3.org/2000/svg" version="1.1" width="2020" height="950"><g transform="translate(10,20)"><g class="line" transform="translate(0,0)"><text y="11" dy="4" class="name" style="font-size: 14px; font-family: sans-serif; text-anchor: end;" x="46.2">110.9%</text><rect x="51.2" width="1945.8" height="22" class="bar yea" style="fill: #428bca; opacity: 1;"></rect></g><g class="line" transform="translate(0,26)"><text y="11" dy="4" class="name" style="font-size: 14px; font-family: sans-serif; text-anchor: end;" x="46.2">105%</text><rect x="51.2" width="1945.8" height="22" class="bar yea" style="fill: #428bca; opacity: 1;"></rect></g><g class="line" transform="translate(0,52)"><text y="11" dy="4" class="name" style="font-size: 14px; font-family: sans-serif; text-anchor: end;" x="46.2">100%</text><rect x="51.2" width="1945.8" height="22" class="bar yea" style="fill: #428bca; opacity: 1;"></rect></g><g class="line" transform="translate(0,78)"><text y="11" dy="4" class="name" style="font-size: 14px; font-family: sans-serif; text-anchor: end;" x="46.2">100.0%</text><rect x="51.2" width="1945.8" height="22" class="bar yea" style="fill: #428bca; opacity: 1;"></rect></g><g class="line" transform="translate(0,104)"><text y="11" dy="4" class="name" style="font-size: 14px; font-family: sans-serif; text-anchor: end;" x="46.2">99.9%</text><rect x="51.2" width="1943.8542000000002" height="22" class="bar yea" style="fill: #428bca; opacity: 1;"></rect><rect x="1995.0542000000003" width="1.9458" height="22" class="bar none" style="fill: #ccc; opacity: 1;"></rect></g><g class="line" transform="translate(0,130)"><text y="11" dy="4" class="name" style="font-size: 14px; font-family: sans-serif; text-anchor: end;" x="46.2">88.8%</text><rect x="51.2" width="1727.8704" height="22" class="bar yea" style="fill: #428bca; opacity: 1;"></rect><rect x="1779.0704" width="217.92959999999997" height="22" class="bar none" style="fill: #ccc; opacity: 1;"></rect></g><g class="line" transform="translate(0,156)"><text y="11" dy="4" class="name" style="font-size: 14px; font-family: sans-serif; text-anchor: end;" x="46.2">50.1%</text><rect x="51.2" width="974.8457999999999" height="22" class="bar yea" style="fill: #428bca; opacity: 1;"></rect><rect x="1026.0457999999999" width="970.9542" height="22" class="bar none" style="fill: #ccc; opacity: 1;"></rect></g><g class="line" transform="translate(0,182)"><text y="11" dy="4" class="name" style="font-size: 14px; font-family: sans-serif; text-anchor: end;" x="46.2">50.0%</text><rect x="51.2" width="972.9" height="22" class="bar yea" style="fill: #428bca; opacity: 1;"></rect><rect x="1024.1" width="972.9" height="22" class="bar none" style="fill: #ccc; opacity: 1;"></rect></g><g class="line" transform="translate(0,208)"><text y="11" dy="4" class="name" style="font-size: 14px; font-family: sans-serif; text-anchor: end;" x="46.2">50%</text><rect x="51.2" width="972.9" height="22" class="bar yea" style="fill: #428bca; opacity: 1;"></rect><rect x="1024.1" width="972.9" height="22" class="bar none" style="fill: #ccc; opacity: 1;"></rect></g><g class="line" transform="translate(0,234)"><text y="11" dy="4" class="name" style="font-size: 14px; font-family: sans-serif; text-anchor: end;" x="46.2">49.9%</text><rect x="51.2" width="970.9542" height="22" class="bar yea" style="fill: #428bca; opacity: 1;"></rect><rect x="1022.1542000000001" width="974.8457999999999" height="22" class="bar none" style="fill: #ccc; opacity: 1;"></rect></g><g class="line" transform="translate(0,260)"><text y="11" dy="4" class="name" style="font-size: 14px; font-family: sans-serif; text-anchor: end;" x="46.2">11.1%</text><rect x="51.2" width="215.9838" height="22" class="bar yea" style="fill: #428bca; opacity: 1;"></rect><rect x="267.1838" width="1729.8162" height="22" class="bar none" style="fill: #ccc; opacity: 1;"></rect></g><g class="line" transform="translate(0,286)"><text y="11" dy="4" class="name" style="font-size: 14px; font-family: sans-serif; text-anchor: end;" x="46.2">0.1%</text><rect x="51.2" width="1.9458" height="22" class="bar yea" style="fill: #428bca; opacity: 1;"></rect><rect x="53.1458" width="1943.8542000000002" height="22" class="bar none" style="fill: #ccc; opacity: 1;"></rect></g><g class="line" transform="translate(0,312)"><text y="11" dy="4" class="name" style="font-size: 14px; font-family: sans-serif; text-anchor: end;" x="46.2">0.0%</text><rect x="51.2" width="1945.8" height="22" class="bar none" style="fill: #ccc; opacity: 1;"></rect></g><g class="line" transform="translate(0,338)"><text y="11" dy="4" class="name" style="font-size: 14px; font-family: sans-serif; text-anchor: end;" x="46.2">0%</text><rect x="51.2" width="1945.8" height="22" class="bar none" style="fill: #ccc; opacity: 1;"></rect></g><g class="line" transform="translate(0,364)"><text y="11" dy="4" class="name" style="font-size: 14px; font-family: sans-serif; text-anchor: end;" x="46.2">-5%</text><rect x="51.2" width="1945.8" height="22" class="bar none" style="fill: #ccc; opacity: 1;"></rect></g><g class="line" transform="translate(0,390)"><text y="11" dy="4" class="name" style="font-size: 14px; font-family: sans-serif; text-anchor: end;" x="46.2">-10.9%</text><rect x="51.2" width="1945.8" height="22" class="bar none" style="fill: #ccc; opacity: 1;"></rect></g><g class="line" transform="translate(0,416)"><text y="11" dy="4" class="name" style="font-size: 14px; font-family: sans-serif; text-anchor: end;" x="46.2"></text></g><g class="line" transform="translate(0,442)"><text y="11" dy="4" class="name" style="font-size: 14px; font-family: sans-serif; text-anchor: end;" x="46.2">8 0 0</text><rect x="51.2" width="1945.8" height="22" class="bar yea" style="fill: #428bca; opacity: 1;"></rect></g><g class="line" transform="translate(0,468)"><text y="11" dy="4" class="name" style="font-size: 14px; font-family: sans-serif; text-anchor: end;" x="46.2">6 1 1</text><rect x="51.2" width="1459.35" height="22" class="bar yea" style="fill: #428bca; opacity: 1;"></rect><rect x="1510.55" width="243.225" height="22" class="bar none" style="fill: #ccc; opacity: 1;"></rect><rect x="1753.7749999999999" width="243.225" height="22" class="bar nay" style="fill: #a4112e; opacity: 1;"></rect></g><g class="line" transform="translate(0,494)"><text y="11" dy="4" class="name" style="font-size: 14px; font-family: sans-serif; text-anchor: end;" x="46.2">4 2 2</text><rect x="51.2" width="972.9" height="22" class="bar yea" style="fill: #428bca; opacity: 1;"></rect><rect x="1024.1" width="486.45" height="22" class="bar none" style="fill: #ccc; opacity: 1;"></rect><rect x="1510.55" width="486.45" height="22" class="bar nay" style="fill: #a4112e; opacity: 1;"></rect></g><g class="line" transform="translate(0,520)"><text y="11" dy="4" class="name" style="font-size: 14px; font-family: sans-serif; text-anchor: end;" x="46.2">2 3 3</text><rect x="51.2" width="486.45" height="22" class="bar yea" style="fill: #428bca; opacity: 1;"></rect><rect x="537.65" width="729.675" height="22" class="bar none" style="fill: #ccc; opacity: 1;"></rect><rect x="1267.3249999999998" width="729.675" height="22" class="bar nay" style="fill: #a4112e; opacity: 1;"></rect></g><g class="line" transform="translate(0,546)"><text y="11" dy="4" class="name" style="font-size: 14px; font-family: sans-serif; text-anchor: end;" x="46.2">0 4 4</text><rect x="51.2" width="972.9" height="22" class="bar none" style="fill: #ccc; opacity: 1;"></rect><rect x="1024.1" width="972.9" height="22" class="bar nay" style="fill: #a4112e; opacity: 1;"></rect></g><g class="line" transform="translate(0,572)"><text y="11" dy="4" class="name" style="font-size: 14px; font-family: sans-serif; text-anchor: end;" x="46.2">0 2 6</text><rect x="51.2" width="486.45" height="22" class="bar none" style="fill: #ccc; opacity: 1;"></rect><rect x="537.65" width="1459.35" height="22" class="bar nay" style="fill: #a4112e; opacity: 1;"></rect></g><g class="line" transform="translate(0,598)"><text y="11" dy="4" class="name" style="font-size: 14px; font-family: sans-serif; text-anchor: end;" x="46.2">0 0 8</text><rect x="51.2" width="1945.8" height="22" class="bar nay" style="fill: #a4112e; opacity: 1;"></rect></g><g class="line" transform="translate(0,624)"><text y="11" dy="4" class="name" style="font-size: 14px; font-family: sans-serif; text-anchor: end;" x="46.2"></text></g><g class="line" transform="translate(0,650)"><text y="11" dy="4" class="name" style="font-size: 14px; font-family: sans-serif; text-anchor: end;" x="46.2">111</text><rect x="51.2" width="22" height="22" class="bar yea" style="fill: #428bca; opacity: 1;"></rect><rect x="73.2" width="22" height="22" class="bar none" style="fill: #ccc; opacity: 1;"></rect><rect x="95.2" width="22" height="22" class="bar nay" style="fill: #a4112e; opacity: 1;"></rect></g><g class="line" transform="translate(0,676)"><text y="11" dy="4" class="name" style="font-size: 14px; font-family: sans-serif; text-anchor: end;" x="46.2">110</text><rect x="51.2" width="22" height="22" class="bar yea" style="fill: #428bca; opacity: 1;"></rect><rect x="73.2" width="22" height="22" class="bar none" style="fill: #ccc; opacity: 1;"></rect></g><g class="line" transform="translate(0,702)"><text y="11" dy="4" class="name" style="font-size: 14px; font-family: sans-serif; text-anchor: end;" x="46.2">101</text><rect x="51.2" width="22" height="22" class="bar yea" style="fill: #428bca; opacity: 1;"></rect><rect x="73.2" width="22" height="22" class="bar nay" style="fill: #a4112e; opacity: 1;"></rect></g><g class="line" transform="translate(0,728)"><text y="11" dy="4" class="name" style="font-size: 14px; font-family: sans-serif; text-anchor: end;" x="46.2">100</text><rect x="51.2" width="22" height="22" class="bar yea" style="fill: #428bca; opacity: 1;"></rect></g><g class="line" transform="translate(0,754)"><text y="11" dy="4" class="name" style="font-size: 14px; font-family: sans-serif; text-anchor: end;" x="46.2">011</text><rect x="51.2" width="22" height="22" class="bar none" style="fill: #ccc; opacity: 1;"></rect><rect x="73.2" width="22" height="22" class="bar nay" style="fill: #a4112e; opacity: 1;"></rect></g><g class="line" transform="translate(0,780)"><text y="11" dy="4" class="name" style="font-size: 14px; font-family: sans-serif; text-anchor: end;" x="46.2">010</text><rect x="51.2" width="22" height="22" class="bar none" style="fill: #ccc; opacity: 1;"></rect></g><g class="line" transform="translate(0,806)"><text y="11" dy="4" class="name" style="font-size: 14px; font-family: sans-serif; text-anchor: end;" x="46.2">001</text><rect x="51.2" width="22" height="22" class="bar nay" style="fill: #a4112e; opacity: 1;"></rect></g><g class="line" transform="translate(0,832)"><text y="11" dy="4" class="name" style="font-size: 14px; font-family: sans-serif; text-anchor: end;" x="46.2">000</text></g><g class="line" transform="translate(0,858)"><text y="11" dy="4" class="name" style="font-size: 14px; font-family: sans-serif; text-anchor: end;" x="46.2"></text></g><g class="line" transform="translate(0,884)"><text y="11" dy="4" class="name" style="font-size: 14px; font-family: sans-serif; text-anchor: end;" x="46.2">111<title>text label</title></text><rect x="51.2" width="22" height="22" class="bar yea" style="fill: #428bca; opacity: 1;"><title>yea label</title></rect><rect x="73.2" width="22" height="22" class="bar none" style="fill: #ccc; opacity: 1;"><title>none label</title></rect><rect x="95.2" width="22" height="22" class="bar nay" style="fill: #a4112e; opacity: 1;"><title>nay label</title></rect></g><line x1="1024.1" x2="1024.1" y1="0" y2="910" stroke-width="1" stroke="white" style="stroke-dasharray: 4, 4;"></line></g></svg>