<?xml version="1.0" encoding="UTF-8"?><svg id="Ebene_1" xmlns="http://www.w3.org/2000/svg" viewBox="0 0 301 139"><defs><style>.cls-1{fill:#fff;}</style></defs><path class="cls-1" d="M11.73,77.63h.75c3.02,0,3.98-1.64,3.98-6.99v-31.94c0-5-.55-6.31-3.98-6.31h-.75v-1.99h2.33c4.52,0,10.08-.34,13.78-1.1v5.76h.14c1.85-4.18,6.03-5.76,9.87-5.76,9.53,0,13.3,8.43,13.3,15.97,0,9.66-2.54,20.56-13.85,20.56-3.98,0-6.92-1.78-8.91-5.28h-.14v12.82c0,3.29,1.92,4.25,3.43,4.25h1.3v1.99H11.73v-1.99ZM28.25,47.88c0,4.8.14,14.74,6.03,14.74,3.7,0,4.52-5.48,4.52-15.49,0-8.02-.34-14.19-4.46-14.19-5.35,0-6.1,7.75-6.1,14.94Z"/><path class="cls-1" d="M93.16,55.01v2.06c0,5.62-2.26,8.77-9.12,8.77-4.59,0-7.54-.96-8.57-4.46-1.78,3.36-5.89,4.46-9.46,4.46-6.65,0-11.72-3.56-11.72-9.94,0-8.36,9.46-11.58,17.41-11.58,1.17,0,2.19,0,3.15.14v-6.92c0-3.5-1.03-5.83-4.52-5.83-1.3,0-3.84.21-3.84,1.99,0,1.17,1.58,1.71,1.58,4.04,0,3.08-2.6,5.28-5.62,5.28-3.22,0-5.76-2.33-5.76-5.62,0-7.06,9.66-8.09,15.01-8.09,8.71,0,14.94,1.71,14.94,12.47v15.56c0,2.95,0,4.46,1.64,4.46s1.85-2.67,1.85-4.73v-2.06h3.02ZM74.86,46.92c-.41-.14-.89-.21-1.99-.21-5.14,0-6.79,4.11-6.79,8.84,0,3.77,1.37,6.24,4.11,6.24,3.08,0,4.66-2.26,4.66-5.55v-9.32Z"/><path class="cls-1" d="M92.68,62.76h1.78c2.33,0,2.95-1.1,2.95-3.91v-20.56c0-4.94-.69-5.9-2.6-5.9h-2.12v-1.99h2.33c4.52,0,10.08-.34,13.78-1.1v7.27h.14c1.92-3.77,4.93-7.27,9.53-7.27,3.63,0,6.72,2.4,6.72,6.17s-2.54,6.17-6.17,6.17c-2.81,0-5.35-1.78-5.35-4.8,0-.75.14-.89.14-1.37,0-.55-.14-.89-.55-.89-2.4,0-4.04,7.33-4.04,11.52v12.75c0,2.81.62,3.91,2.95,3.91h2.33v1.99h-21.8v-1.99Z"/><path class="cls-1" d="M142.78,30.4h6.79v1.99h-6.79v21.45c0,2.54,0,7.47,3.02,7.47,3.29,0,3.29-4.8,3.29-7.2h2.47v1.64c0,5.96-2.67,10.08-9.73,10.08-7.95,0-10.69-4.25-10.76-11.72,0-2.06-.07-4.11-.07-6.17v-15.56h-4.46v-1.99c7.2-.69,12.54-8.09,14.33-14.46h1.92v14.46Z"/><path class="cls-1" d="M165.87,47.75c0,8.36.34,15.7,7.54,15.7,6.51,0,10.21-5.14,10.69-10.62h2.88c-1.1,8.91-6.31,13.02-15.77,13.02-11.04,0-17.68-7.33-17.68-18.3s6.65-18.23,17.68-18.23,16.66,6.99,16.66,17.62v.82h-22ZM175.54,45.35c0-6.38-.27-13.64-4.32-13.64-4.39,0-4.93,2.81-5.35,13.64h9.66Z"/><path class="cls-1" d="M189.38,62.76h1.65c2.6,0,3.08-.41,3.08-8.36v-9.46c0-11.93-.27-12.54-2.95-12.54h-1.78v-1.99h3.08c4.52,0,10.08-.34,13.78-1.1-.14,2.81-.34,5.62-.34,8.43v18.58c0,4.8.07,6.44,2.67,6.44h1.3v1.99h-20.49v-1.99ZM199.66,12.93c3.5,0,6.85,2.95,6.85,6.58s-3.29,6.58-6.85,6.58-6.92-2.88-6.92-6.58,3.36-6.58,6.92-6.58Z"/><path class="cls-1" d="M223.92,47.75c0,8.36.34,15.7,7.54,15.7,6.51,0,10.21-5.14,10.69-10.62h2.88c-1.1,8.91-6.31,13.02-15.76,13.02-11.04,0-17.68-7.33-17.68-18.3s6.65-18.23,17.68-18.23,16.66,6.99,16.66,17.62v.82h-22ZM233.59,45.35c0-6.38-.27-13.64-4.32-13.64-4.39,0-4.94,2.81-5.35,13.64h9.66Z"/><path class="cls-1" d="M247.43,62.76h1.78c2.33,0,2.95-1.1,2.95-3.91v-22.34c0-3.7-.69-4.11-2.6-4.11h-2.12v-1.99h2.33c4.52,0,10.08-.34,13.78-1.1v5.96h.14c2.19-4.11,6.44-5.96,10.83-5.96,9.6,0,10.69,4.59,10.69,10.69v17.55c0,4.73.21,5.21,2.74,5.21h1.58v1.99h-19.67v-1.99h1.23c1.92,0,2.33-.82,2.33-4.87v-19.33c0-3.63-1.64-4.8-3.98-4.8-3.08,0-5.48,2.47-5.48,8.71v14.74c0,4.66.34,5.55,2.67,5.55h1.17v1.99h-20.36v-1.99Z"/><path class="cls-1" d="M80.23,112.99v2.06c0,5.62-2.26,8.77-9.12,8.77-4.59,0-7.54-.96-8.57-4.45-1.78,3.36-5.9,4.45-9.46,4.45-6.65,0-11.72-3.56-11.72-9.94,0-8.36,9.46-11.58,17.41-11.58,1.16,0,2.19,0,3.15.14v-6.92c0-3.5-1.03-5.83-4.52-5.83-1.3,0-3.84.21-3.84,1.99,0,1.16,1.58,1.71,1.58,4.04,0,3.08-2.61,5.28-5.62,5.28-3.22,0-5.76-2.33-5.76-5.62,0-7.06,9.66-8.09,15.01-8.09,8.7,0,14.94,1.71,14.94,12.47v15.56c0,2.95,0,4.45,1.64,4.45s1.85-2.67,1.85-4.73v-2.06h3.02ZM61.93,104.91c-.41-.14-.89-.21-1.99-.21-5.14,0-6.78,4.11-6.78,8.84,0,3.77,1.37,6.24,4.11,6.24,3.09,0,4.66-2.26,4.66-5.55v-9.32Z"/><path class="cls-1" d="M96.27,88.39h6.78v1.99h-6.78v21.45c0,2.53,0,7.47,3.02,7.47,3.29,0,3.29-4.8,3.29-7.2h2.47v1.64c0,5.96-2.67,10.07-9.73,10.07-7.95,0-10.69-4.25-10.76-11.72,0-2.06-.07-4.11-.07-6.17v-15.56h-4.45v-1.99c7.2-.69,12.54-8.09,14.32-14.46h1.92v14.46Z"/><path class="cls-1" d="M122.11,112.72c0,7.13.34,8.02,2.67,8.02h1.64v1.99h-21.18v-1.99h2.13c2.33,0,2.95-1.1,2.95-3.91v-35.37c0-4.93-.68-5.89-2.6-5.89h-2.47v-1.99h16.86v39.14Z"/><path class="cls-1" d="M166.66,112.99v2.06c0,5.62-2.26,8.77-9.12,8.77-4.59,0-7.54-.96-8.57-4.45-1.78,3.36-5.9,4.45-9.46,4.45-6.65,0-11.72-3.56-11.72-9.94,0-8.36,9.46-11.58,17.41-11.58,1.16,0,2.19,0,3.15.14v-6.92c0-3.5-1.03-5.83-4.52-5.83-1.3,0-3.84.21-3.84,1.99,0,1.16,1.58,1.71,1.58,4.04,0,3.08-2.61,5.28-5.62,5.28-3.22,0-5.76-2.33-5.76-5.62,0-7.06,9.66-8.09,15.01-8.09,8.7,0,14.94,1.71,14.94,12.47v15.56c0,2.95,0,4.45,1.64,4.45s1.85-2.67,1.85-4.73v-2.06h3.02ZM148.36,104.91c-.41-.14-.89-.21-1.99-.21-5.14,0-6.78,4.11-6.78,8.84,0,3.77,1.37,6.24,4.11,6.24,3.09,0,4.66-2.26,4.66-5.55v-9.32Z"/><path class="cls-1" d="M194.14,98.33h-2.47c-1.03-4.52-4.25-8.64-9.32-8.64-3.08,0-6.58,1.44-6.58,4.66,0,3.43,3.29,4.25,7.68,5.28l4.32,1.03c4.73,1.1,8.98,3.36,8.98,10.62,0,8.64-7.06,12.54-14.94,12.54-1.85,0-3.77-.14-5.55-.48-1.03-.21-3.15-.62-4.04-.62-1.44,0-2.95.48-4.18,1.1v-12.82h2.47c.82,6.17,4.8,10.42,11.24,10.42,3.5,0,6.79-1.99,6.79-5.14,0-2.95-1.17-4.32-6.58-5.69l-3.29-.82c-6.03-1.51-11.1-3.7-11.1-10.83,0-7.88,6.72-11.65,13.91-11.65,2.26,0,4.18.27,6.37.55.96.14,1.85.21,2.74.21,1.23,0,2.47-.21,3.56-.89v11.17Z"/></svg>