<?xml version="1.0" encoding="UTF-8"?><svg id="Ebene_1" xmlns="http://www.w3.org/2000/svg" viewBox="0 0 234 125"><defs><style>.cls-1{fill:#a4112e;}</style></defs><g id="g26"><g id="g12"><path id="path2" class="cls-1" d="M71.43,43.64h-2.5c-1.04-4.57-4.3-8.74-9.43-8.74-3.12,0-6.65,1.46-6.65,4.71,0,3.47,3.33,4.3,7.76,5.34l4.37,1.04c4.78,1.11,9.08,3.4,9.08,10.75,0,8.73-7.14,12.69-15.11,12.69-1.87,0-3.81-.14-5.62-.49-1.04-.21-3.19-.62-4.09-.62-1.46,0-2.98.49-4.23,1.11v-12.96h2.5c.83,6.24,4.85,10.54,11.37,10.54,3.54,0,6.86-2.01,6.86-5.2,0-2.98-1.18-4.37-6.65-5.75l-3.33-.83c-6.1-1.52-11.23-3.74-11.23-10.95,0-7.97,6.79-11.79,14.07-11.79,2.29,0,4.23.28,6.45.55.97.14,1.87.21,2.77.21,1.25,0,2.5-.21,3.6-.9v11.3Z"/><path id="path4" class="cls-1" d="M89.24,68.32c-1.59-5.34-3.67-10.81-5.75-16.29l-5.61-14.83c-.49-1.39-1.04-1.59-2.29-1.59h-.76v-2.01h19.34v2.01h-1.04c-1.59,0-2.91,0-2.91,1.73,0,.55.83,2.84,1.94,5.55l1.11,2.77,3.12,7.83h.14l3.33-8.39c1.32-3.4,2.43-6.65,2.43-7.97,0-1.52-2.22-1.52-3.6-1.52v-2.01h18.86v2.01h-.97c-1.25,0-2.91.07-2.91.97,0,1.04,1.25,3.6,3.33,8.6l3.47,8.32h.14l2.91-9.08c1.11-3.4,2.15-6.86,2.15-7.62,0-1.11-1.39-1.18-2.56-1.18h-.97v-2.01h10.75v2.01h-.76c-2.08,0-2.56,1.39-3.26,3.26l-4.99,13.73c-1.87,5.13-3.74,10.4-4.85,15.74h-4.92c-1.39-4.16-2.98-8.32-4.71-12.48l-1.94-4.57-3.67-8.73-3.81,9.63-1.66,4.23c-1.59,3.95-3.05,7.9-4.16,11.92h-4.85,0Z"/><path id="path6" class="cls-1" d="M133.88,66.31h1.66c2.63,0,3.12-.42,3.12-8.46v-9.57c0-12.06-.28-12.69-2.98-12.69h-1.8v-2.01h3.12c4.57,0,10.19-.35,13.93-1.11-.14,2.84-.35,5.69-.35,8.53v18.79c0,4.85.07,6.52,2.7,6.52h1.32v2.01h-20.73v-2.01h0ZM144.28,15.91c3.54,0,6.93,2.98,6.93,6.65s-3.33,6.65-6.93,6.65-7-2.91-7-6.65,3.4-6.65,7-6.65Z"/><path id="path8" class="cls-1" d="M185.25,43.64h-2.5c-1.04-4.57-4.3-8.74-9.43-8.74-3.12,0-6.65,1.46-6.65,4.71,0,3.47,3.33,4.3,7.76,5.34l4.37,1.04c4.78,1.11,9.08,3.4,9.08,10.75,0,8.73-7.14,12.69-15.11,12.69-1.87,0-3.81-.14-5.62-.49-1.04-.21-3.19-.62-4.09-.62-1.46,0-2.98.49-4.23,1.11v-12.96h2.5c.83,6.24,4.85,10.54,11.37,10.54,3.54,0,6.86-2.01,6.86-5.2,0-2.98-1.18-4.37-6.65-5.75l-3.33-.83c-6.1-1.52-11.23-3.74-11.23-10.95,0-7.97,6.79-11.79,14.07-11.79,2.29,0,4.23.28,6.45.55.97.14,1.87.21,2.77.21,1.25,0,2.5-.21,3.6-.9v11.3Z"/><path id="path10" class="cls-1" d="M219.9,43.64h-2.5c-1.04-4.57-4.3-8.74-9.43-8.74-3.12,0-6.65,1.46-6.65,4.71,0,3.47,3.33,4.3,7.76,5.34l4.37,1.04c4.78,1.11,9.08,3.4,9.08,10.75,0,8.73-7.14,12.69-15.11,12.69-1.87,0-3.81-.14-5.62-.49-1.04-.21-3.19-.62-4.09-.62-1.46,0-2.98.49-4.23,1.11v-12.96h2.5c.83,6.24,4.85,10.54,11.37,10.54,3.54,0,6.86-2.01,6.86-5.2,0-2.98-1.18-4.37-6.65-5.75l-3.33-.83c-6.1-1.52-11.23-3.74-11.23-10.95,0-7.97,6.79-11.79,14.07-11.79,2.29,0,4.23.28,6.45.55.97.14,1.87.21,2.77.21,1.25,0,2.5-.21,3.6-.9v11.3Z"/></g><g id="g24"><path id="path14" class="cls-1" d="M27.17,108.75l-6.79-18.02c-1.66-4.44-3.19-9.01-5.41-13.24-.76-1.46-1.59-1.46-3.26-1.46v-2.01h20.45v2.01h-1.46c-1.8,0-3.12,0-3.12,1.04,0,1.18.97,3.6,1.59,5.27l2.08,5.34,3.26,8.46h.14l2.91-7.07,1.39-3.33c1.18-2.77,2.77-6.52,2.77-8.04,0-1.66-1.59-1.66-2.98-1.66h-.97v-2.01h11.02v2.01c-1.46,0-2.29.07-3.12,1.73-.97,2.01-3.33,7.21-5.48,12.27l-2.29,5.41c-1.87,4.44-3.54,9.01-5.27,13.31h-5.48Z"/><path id="path16" class="cls-1" d="M85.19,91.36c0,11.09-6.72,18.51-17.88,18.51s-17.88-7.42-17.88-18.51,6.72-18.44,17.88-18.44c11.16,0,17.88,7.42,17.88,18.44ZM61.9,91.36c0,10.54.42,16.08,5.41,16.08s5.41-5.55,5.41-16.08-.42-16.01-5.41-16.01-5.41,5.55-5.41,16.01h0Z"/><path id="path18" class="cls-1" d="M105.7,74.02h6.86v2.01h-6.86v21.7c0,2.56,0,7.56,3.05,7.56,3.33,0,3.33-4.85,3.33-7.28h2.5v1.66c0,6.03-2.7,10.19-9.84,10.19-8.04,0-10.81-4.3-10.88-11.85,0-2.08-.07-4.16-.07-6.24v-15.74h-4.51v-2.01c7.28-.69,12.69-8.18,14.49-14.63h1.94v14.63Z"/><path id="path20" class="cls-1" d="M131.14,91.56c0,8.46.35,15.87,7.62,15.87,6.59,0,10.33-5.2,10.81-10.74h2.91c-1.11,9.01-6.38,13.17-15.94,13.17-11.16,0-17.88-7.42-17.88-18.51s6.72-18.44,17.88-18.44,16.85,7.07,16.85,17.82v.83h-22.25ZM140.92,89.14c0-6.45-.28-13.8-4.37-13.8-4.44,0-4.99,2.84-5.41,13.8h9.77Z"/><path id="path22" class="cls-1" d="M185.28,84.08h-2.5c-1.04-4.57-4.3-8.74-9.43-8.74-3.12,0-6.65,1.46-6.65,4.71,0,3.47,3.33,4.3,7.76,5.34l4.37,1.04c4.78,1.11,9.08,3.4,9.08,10.75,0,8.74-7.14,12.68-15.11,12.68-1.87,0-3.81-.14-5.62-.49-1.04-.21-3.19-.62-4.09-.62-1.46,0-2.98.49-4.23,1.11v-12.96h2.5c.83,6.24,4.85,10.54,11.37,10.54,3.54,0,6.86-2.01,6.86-5.2,0-2.98-1.18-4.37-6.65-5.75l-3.33-.83c-6.1-1.52-11.23-3.74-11.23-10.95,0-7.97,6.79-11.79,14.07-11.79,2.29,0,4.23.28,6.45.55.97.14,1.87.21,2.77.21,1.25,0,2.5-.21,3.6-.9v11.3Z"/></g></g></svg>