<?xml version="1.0" encoding="UTF-8"?>
<svg xmlns="http://www.w3.org/2000/svg" width="200" height="100" style="background:#fff" viewBox="0 0 200 100">
  <g fill="none" transform="translate(0 23)">
    <path fill="#007CBF" d="M19.9917551 30.3371389C19.9917551 38.3058804 23.4868172 47.2532393 32.5739786 47.2532393 41.5213375 47.2532393 45.1562021 38.3058804 45.1562021 30.3371389 45.1562021 22.3683973 41.66114 13.4210384 32.5739786 13.4210384 23.4868172 13.2812359 19.9917551 22.2285948 19.9917551 30.3371389zM28.6595091 30.3371389C28.6595091 28.2401016 29.218719 21.6693849 32.5739786 21.6693849 35.9292382 21.6693849 36.4884481 28.3799041 36.4884481 30.3371389 36.4884481 32.2943736 35.9292382 39.0048928 32.5739786 39.0048928 29.218719 39.0048928 28.6595091 32.2943736 28.6595091 30.3371389zM90.0327992 30.3371389C90.0327992 38.3058804 93.5278613 47.2532393 102.615023 47.2532393 111.562382 47.2532393 115.197246 38.3058804 115.197246 30.3371389 115.197246 22.3683973 111.702184 13.4210384 102.615023 13.4210384 93.6676638 13.2812359 90.0327992 22.2285948 90.0327992 30.3371389zM98.7005532 30.3371389C98.7005532 28.2401016 99.2597631 21.6693849 102.615023 21.6693849 105.970282 21.6693849 106.529492 28.3799041 106.529492 30.3371389 106.529492 32.2943736 105.970282 39.0048928 102.615023 39.0048928 99.2597631 39.0048928 98.7005532 32.2943736 98.7005532 30.3371389zM54.9423759 37.0476581L54.9423759 46.6940294 46.5542269 46.6940294 46.5542269 13.8404458 54.9423759 13.8404458 61.2334877 31.4555587 61.2334877 31.4555587C61.2334877 31.4555587 61.0936852 26.0032619 61.0936852 22.2285948L61.0936852 13.8404458 69.3420317 13.8404458 69.3420317 46.6940294 61.0936852 46.6940294 54.9423759 29.218719 54.9423759 37.0476581zM140.221891 46.6940294L133.231767 32.9933861C136.726829 31.5953612 138.684063 28.3799041 138.684063 24.7450395 138.684063 16.0772856 132.812359 13.8404458 125.123223 13.8404458L116.735074 13.8404458 116.735074 46.6940294 125.402828 46.6940294 125.402828 37.886473C125.402828 36.2088432 125.263025 34.6710159 125.263025 32.9933861L125.402828 32.8535836 130.575519 46.5542269 140.221891 46.6940294zM125.402828 29.0789165L125.402828 20.9703725C127.77947 20.83057 129.876507 22.0887924 129.876507 24.884842 129.876507 26.9818793 128.33868 29.0789165 125.962037 29.0789165L125.402828 29.0789165zM140.641298 46.6940294L148.190632 46.6940294C153.642929 46.6940294 163.149498 45.2960046 163.149498 30.1973364 163.149498 20.2713601 159.095226 13.8404458 148.749842 13.9802483 145.534385 13.9802483 140.641298 14.3996558 140.641298 14.3996558L140.641298 46.6940294zM149.309052 22.0887924C153.363324 22.0887924 154.341942 26.9818793 154.341942 30.6167438 154.341942 33.6923985 153.363324 38.7252879 149.309052 38.7252879L149.309052 22.0887924zM199.498144 46.6940294L192.508019 13.8404458 181.743228 13.8404458 173.914289 46.6940294 183.001451 46.6940294 183.700463 42.4999549 189.71197 42.4999549 190.410982 46.6940294 199.498144 46.6940294zM184.958685 35.5098308L186.216908 27.9604967C186.496513 25.8634594 186.776118 23.7664222 187.055723 21.8091874L187.195525 21.8091874C187.47513 23.9062246 187.614933 26.0032619 187.894538 27.9604967L188.873155 35.5098308 184.958685 35.5098308zM90.0327992 14.1200508C88.6347744 13.5608409 86.8173421 13.2812359 85.2795148 13.2812359 80.9456378 13.2812359 70.879859 15.7976806 70.879859 30.4769414 70.879859 41.66114 77.0311683 47.2532393 84.3008974 47.2532393 86.2581322 47.2532393 88.3551694 46.6940294 90.0327992 45.5756095L89.8929967 37.0476581C88.6347744 38.5854854 87.5163545 38.8650904 85.5591198 38.8650904 81.0854403 38.8650904 79.6874155 33.9720034 79.6874155 30.1973364 79.6874155 26.5624718 81.0854403 21.5295824 85.6989222 21.5295824 87.5163545 21.5295824 88.6347744 22.2285948 89.8929967 23.4868172L90.0327992 14.1200508zM19.8519526 14.1200508C18.4539278 13.5608409 16.6364955 13.2812359 15.0986682 13.2812359 10.7647912 13.2812359.699012416 15.7976806.699012416 30.4769414.699012416 41.66114 6.85032168 47.2532393 14.1200508 47.2532393 16.0772856 47.2532393 18.1743228 46.6940294 19.8519526 45.5756095L19.7121501 37.0476581C18.4539278 38.5854854 17.3355079 38.8650904 15.3782732 38.8650904 10.9045937 38.8650904 9.50656886 33.9720034 9.50656886 30.1973364 9.50656886 26.5624718 10.9045937 21.5295824 15.5180756 21.5295824 17.3355079 21.5295824 18.4539278 22.2285948 19.7121501 23.4868172L19.8519526 14.1200508zM169.161005 15.2384707C167.483375 15.2384707 166.08535 14.6792607 164.827128 13.8404458L164.827128 46.6940294 173.494882 46.6940294 173.494882 13.8404458 173.494882 13.8404458C172.236659 14.8190632 170.698832 15.2384707 169.161005 15.2384707z"/>
    <circle cx="169.161" cy="6.151" r="5.872" fill="#FF8A00"/>
  </g>
</svg>
