<?xml version="1.0" encoding="UTF-8"?>
<svg xmlns="http://www.w3.org/2000/svg" xmlns:xlink="http://www.w3.org/1999/xlink" width="124px" height="38px" viewBox="0 0 125 38" version="1.1">
<g id="surface1">
<path style=" stroke:none;fill-rule:nonzero;fill:rgb(0%,0%,0%);fill-opacity:1;" d="M 46.464844 34.242188 L 40.410156 34.242188 L 40.410156 20.8125 L 36.730469 20.8125 L 36.730469 37.246094 L 46.464844 37.246094 Z M 61.757812 20.8125 L 58.074219 20.8125 L 58.074219 30.484375 C 58.074219 33.050781 57.0625 34.332031 55.03125 34.332031 C 52.964844 34.332031 51.929688 33.003906 51.929688 30.34375 L 51.929688 20.8125 L 48.238281 20.8125 L 48.238281 30.300781 C 48.238281 35.121094 50.457031 37.53125 54.894531 37.53125 C 59.46875 37.53125 61.757812 35.0625 61.757812 30.128906 Z M 77.574219 34.242188 L 69.355469 34.242188 L 77.550781 22.886719 L 77.550781 20.8125 L 65.011719 20.8125 L 65.011719 23.824219 L 72.785156 23.824219 L 64.40625 35.113281 L 64.40625 37.246094 L 77.574219 37.246094 Z M 90.691406 34.242188 L 84.566406 34.242188 L 84.566406 30.484375 L 89.914062 30.484375 L 89.914062 27.480469 L 84.566406 27.480469 L 84.566406 23.824219 L 90.3125 23.824219 L 90.3125 20.8125 L 80.886719 20.8125 L 80.886719 37.246094 L 90.691406 37.246094 Z M 105.105469 32.386719 C 104.945312 32.132812 104.765625 31.875 104.574219 31.613281 C 104.378906 31.347656 104.175781 31.101562 103.964844 30.871094 C 103.75 30.644531 103.53125 30.441406 103.300781 30.269531 C 103.074219 30.097656 102.839844 29.976562 102.59375 29.898438 L 102.59375 29.851562 C 103.148438 29.691406 103.652344 29.472656 104.105469 29.1875 C 104.558594 28.90625 104.945312 28.570312 105.261719 28.179688 C 105.582031 27.789062 105.828125 27.351562 106.003906 26.867188 C 106.179688 26.382812 106.265625 25.855469 106.265625 25.28125 C 106.265625 22.300781 104.28125 20.8125 100.316406 20.8125 L 94.480469 20.8125 L 94.480469 37.246094 L 98.160156 37.246094 L 98.160156 30.953125 L 99.152344 30.953125 C 99.382812 30.953125 99.59375 31 99.785156 31.097656 C 99.980469 31.191406 100.164062 31.328125 100.34375 31.507812 C 100.523438 31.6875 100.699219 31.902344 100.875 32.15625 C 101.050781 32.410156 101.230469 32.695312 101.421875 33.015625 L 103.964844 37.246094 L 108.191406 37.246094 Z M 99.824219 23.585938 C 101.535156 23.585938 102.390625 24.304688 102.390625 25.738281 C 102.390625 26.425781 102.148438 27.003906 101.660156 27.46875 C 101.183594 27.925781 100.546875 28.15625 99.757812 28.15625 L 98.160156 28.15625 L 98.160156 23.585938 Z M 125 20.8125 L 121.523438 20.8125 L 121.523438 29.898438 C 121.523438 31.023438 121.550781 31.773438 121.613281 32.15625 L 121.566406 32.15625 C 121.316406 31.714844 121.042969 31.265625 120.746094 30.816406 L 114.261719 20.8125 L 110.292969 20.8125 L 110.292969 37.246094 L 113.769531 37.246094 L 113.769531 28.214844 C 113.769531 27.023438 113.738281 26.136719 113.679688 25.554688 L 113.722656 25.554688 C 113.875 25.859375 114.148438 26.316406 114.546875 26.917969 L 121.28125 37.246094 L 125 37.246094 L 125 20.8125 "/>
<path style=" stroke:none;fill-rule:nonzero;fill:rgb(0%,0%,0%);fill-opacity:1;" d="M 40.605469 8.160156 L 47.617188 0.277344 L 45.234375 0.277344 L 39.125 7.4375 C 38.941406 7.644531 38.796875 7.832031 38.691406 8 L 38.644531 8 L 38.644531 0.277344 L 36.730469 0.277344 L 36.730469 16.710938 L 38.644531 16.710938 L 38.644531 8.617188 L 38.691406 8.617188 C 38.742188 8.71875 38.886719 8.910156 39.125 9.191406 L 45.4375 16.710938 L 48.105469 16.710938 Z M 56.90625 0.277344 L 54.921875 0.277344 L 48.652344 16.710938 L 50.785156 16.710938 L 52.414062 12.101562 L 59.347656 12.101562 L 61.078125 16.710938 L 63.199219 16.710938 Z M 53.054688 10.371094 L 55.597656 3.371094 C 55.695312 3.101562 55.78125 2.734375 55.859375 2.269531 L 55.902344 2.269531 C 55.988281 2.773438 56.070312 3.140625 56.15625 3.371094 L 58.71875 10.371094 Z M 78.785156 0.277344 L 76.867188 0.277344 L 76.867188 11.851562 C 76.867188 12.988281 76.90625 13.792969 76.984375 14.269531 L 76.9375 14.269531 C 76.835938 14.070312 76.617188 13.703125 76.277344 13.167969 L 68.089844 0.277344 L 65.605469 0.277344 L 65.605469 16.710938 L 67.519531 16.710938 L 67.519531 4.835938 C 67.519531 3.683594 67.488281 2.929688 67.429688 2.578125 L 67.496094 2.578125 C 67.632812 2.9375 67.808594 3.28125 68.023438 3.609375 L 76.433594 16.710938 L 78.785156 16.710938 Z M 92.53125 0.277344 L 81.1875 0.277344 L 81.1875 2.019531 L 85.894531 2.019531 L 85.894531 16.710938 L 87.8125 16.710938 L 87.8125 2.019531 L 92.53125 2.019531 Z M 106.484375 14.644531 C 107.898438 13.085938 108.605469 10.96875 108.605469 8.285156 C 108.605469 5.820312 107.914062 3.820312 106.535156 2.292969 C 105.15625 0.765625 103.339844 0 101.082031 0 C 98.632812 0 96.699219 0.789062 95.277344 2.363281 C 93.859375 3.9375 93.148438 6.042969 93.148438 8.6875 C 93.148438 11.148438 93.84375 13.144531 95.238281 14.679688 C 96.632812 16.214844 98.488281 16.984375 100.808594 16.984375 C 103.179688 16.984375 105.070312 16.203125 106.484375 14.644531 Z M 105.09375 3.519531 C 106.097656 4.703125 106.597656 6.378906 106.597656 8.550781 C 106.597656 10.667969 106.082031 12.3125 105.046875 13.488281 C 104.015625 14.664062 102.601562 15.253906 100.808594 15.253906 C 99.128906 15.253906 97.765625 14.636719 96.722656 13.402344 C 95.675781 12.167969 95.152344 10.539062 95.152344 8.515625 C 95.152344 6.492188 95.691406 4.855469 96.761719 3.609375 C 97.832031 2.367188 99.226562 1.742188 100.945312 1.742188 C 102.707031 1.742188 104.089844 2.335938 105.09375 3.519531 Z M 125 0.277344 L 123.082031 0.277344 L 123.082031 11.851562 C 123.082031 12.988281 123.121094 13.792969 123.199219 14.269531 L 123.152344 14.269531 C 123.054688 14.070312 122.832031 13.703125 122.492188 13.167969 L 114.304688 0.277344 L 111.820312 0.277344 L 111.820312 16.710938 L 113.734375 16.710938 L 113.734375 4.835938 C 113.734375 3.683594 113.703125 2.929688 113.644531 2.578125 L 113.710938 2.578125 C 113.847656 2.9375 114.023438 3.28125 114.238281 3.609375 L 122.648438 16.710938 L 125 16.710938 L 125 0.277344 "/>
<path style=" stroke:none;fill-rule:nonzero;fill:rgb(0%,62.352943%,89.019608%);fill-opacity:1;" d="M 0 0.289062 L 0 37.210938 L 18.363281 37.210938 L 18.363281 0.289062 L 0 0.289062 "/>
</g>
</svg>
