<?xml version="1.0" encoding="UTF-8" standalone="no"?>
<svg
   xmlns:dc="http://purl.org/dc/elements/1.1/"
   xmlns:cc="http://creativecommons.org/ns#"
   xmlns:rdf="http://www.w3.org/1999/02/22-rdf-syntax-ns#"
   xmlns:svg="http://www.w3.org/2000/svg"
   xmlns="http://www.w3.org/2000/svg"
   viewBox="0 0 113.38584 31.327378"
   id="svg6"
   version="1.1"
   height="0.82887018cm"
   width="3cm">
  <metadata
     id="metadata12">
    <rdf:RDF>
      <cc:Work
         rdf:about="">
        <dc:format>image/svg+xml</dc:format>
        <dc:type
           rdf:resource="http://purl.org/dc/dcmitype/StillImage" />
        <dc:title>Logo Kanton Zug</dc:title>
      </cc:Work>
    </rdf:RDF>
  </metadata>
  <defs
     id="defs10" />
  <title
     id="title2">Logo Kanton Zug</title>
  <g
     transform="matrix(0.71513788,0,0,0.71513788,0.71513788,0)"
     style="fill:none;fill-rule:evenodd;stroke:none;stroke-width:1"
     id="Page-1">
    <path
       style="fill:#1a1918"
       id="Monochrome-Logo"
       d="M 41.296,0.821 V 0 H -1 v 0.821 z m 0,14.003 V 14 H -1 v 0.824 z m 0,3.998 V 18 H -1 v 0.822 z m 0,3 V 21 H -1 v 0.822 z m 0,3.002 V 24 H -1 v 0.824 z m 0,3.996 V 28 H -1 v 0.82 z m 108.286,1.56 h 1.444 c 0.227,1.176 1.009,1.598 2.195,1.598 2.053,0 2.68,-1.371 2.68,-3.773 v -0.67 c -0.742,1.124 -1.555,1.598 -2.721,1.598 -2.361,0 -3.938,-2.041 -3.938,-5.103 0,-3.154 1.577,-5.288 3.979,-5.288 1.269,0 2.103,0.526 2.701,1.711 0.02,-0.66 0.073,-1.082 0.197,-1.443 h 1.432 c -0.145,0.619 -0.186,1.155 -0.186,2.948 v 6.536 c 0,3.113 -1.258,4.742 -4.144,4.742 -1.732,0 -3.412,-0.763 -3.639,-2.856 z m 1.165,-6.35 c 0,2.33 0.98,3.835 2.495,3.835 1.628,0 2.68,-1.546 2.68,-3.938 0,-2.329 -1.052,-3.917 -2.598,-3.917 -1.567,0 -2.577,1.588 -2.577,4.02 z m -11.266,3.526 c -0.31,-0.546 -0.393,-1.155 -0.393,-2.505 V 19.01 h 1.453 v 6.041 c 0,1.103 0.103,1.649 0.371,2.02 0.33,0.485 0.939,0.753 1.65,0.753 0.876,0 1.577,-0.412 2.02,-1.144 0.289,-0.505 0.392,-1.083 0.392,-2.062 V 19.01 h 1.455 v 6.876 c 0,2.154 0,2.268 0.236,3 h -1.432 c -0.144,-0.433 -0.186,-0.794 -0.206,-1.309 -0.599,1.103 -1.362,1.556 -2.63,1.556 -1.288,0 -2.392,-0.577 -2.916,-1.577 z m -38.513,-3.68 c 0,-2.99 1.793,-5.134 4.309,-5.134 2.534,0 4.307,2.134 4.307,5.206 0,3.041 -1.773,5.185 -4.307,5.185 -2.568,0 -4.309,-2.123 -4.309,-5.257 z m 1.493,0.01 c 0,2.423 1.103,4 2.816,4 1.679,0 2.813,-1.577 2.813,-3.959 0,-2.35 -1.134,-3.927 -2.813,-3.927 -1.67,0 -2.816,1.577 -2.816,3.886 z m -29.678,2.392 c 0,-1.371 0.793,-2.392 2.288,-2.949 0.959,-0.35 1.877,-0.567 3.711,-0.876 V 22.03 c 0,-1.474 -0.567,-2.03 -2.02,-2.03 -1.268,0 -1.98,0.494 -2.186,1.598 h -1.433 c 0.207,-1.856 1.495,-2.856 3.681,-2.856 1.608,0 2.793,0.608 3.164,1.629 0.186,0.505 0.237,0.979 0.237,2.206 v 3.701 c 0,1.608 0.031,1.917 0.258,2.608 h -1.39 c -0.145,-0.464 -0.167,-0.691 -0.227,-1.33 -0.579,1.051 -1.537,1.577 -2.898,1.577 -1.938,0 -3.185,-1.113 -3.185,-2.855 z m 1.505,-0.103 c 0,1.02 0.762,1.731 1.917,1.731 0.95,0 1.783,-0.453 2.207,-1.226 0.248,-0.475 0.37,-1.145 0.37,-2.165 v -0.979 c -3.33,0.577 -4.494,1.288 -4.494,2.639 z m 21.122,1.979 c -0.186,-0.33 -0.247,-0.681 -0.247,-1.392 0,-0.185 0,-0.526 0.02,-0.835 l 0.031,-0.773 0.114,-4.948 H 93.855 V 19.01 h 1.525 l 0.051,-2.845 h 1.422 l -0.041,2.845 h 2.33 v 1.196 h -2.351 l -0.103,5 v 0.969 c 0,0.69 0.021,0.938 0.145,1.185 0.123,0.299 0.474,0.464 0.948,0.464 0.443,0 0.99,-0.124 1.423,-0.351 v 1.279 c -0.669,0.257 -1.145,0.34 -1.753,0.34 -0.969,0 -1.711,-0.34 -2.041,-0.938 z m 33.102,0.732 V 27.68 l 7.071,-11.35 h -6.629 V 15 h 8.527 v 1.062 l -7.134,11.473 h 7.01 v 1.351 z m -9.999,0 v -5.577 c 0,-1.505 -0.041,-1.856 -0.269,-2.33 -0.32,-0.608 -0.897,-0.938 -1.71,-0.938 -0.898,0 -1.712,0.453 -2.165,1.227 -0.3,0.525 -0.433,1.165 -0.433,2.103 v 5.515 h -1.464 v -6.515 c 0,-2.361 0,-2.433 -0.227,-3.361 h 1.391 c 0.144,0.423 0.206,0.825 0.206,1.443 0.671,-1.144 1.67,-1.711 2.98,-1.711 1.35,0 2.392,0.608 2.834,1.608 0.268,0.639 0.321,0.918 0.321,2.876 v 5.66 z m -28.721,0 v -5.577 c 0,-1.505 -0.031,-1.856 -0.267,-2.33 -0.31,-0.608 -0.898,-0.938 -1.711,-0.938 -0.898,0 -1.702,0.453 -2.165,1.227 -0.289,0.525 -0.433,1.165 -0.433,2.103 v 5.515 h -1.464 v -6.515 c 0,-2.361 0,-2.433 -0.228,-3.361 h 1.392 c 0.156,0.423 0.217,0.825 0.217,1.443 0.669,-1.144 1.659,-1.711 2.979,-1.711 1.351,0 2.391,0.608 2.824,1.608 0.268,0.639 0.309,0.918 0.309,2.876 v 5.66 z m -20.277,0 L 63.587,21.598 69.205,15 h 1.897 l -5.67,6.556 6.206,7.33 z m -7.515,0 V 15 h 1.567 v 13.886 z" />
  </g>
</svg>
