<svg xmlns="http://www.w3.org/2000/svg" width="32" height="32" viewBox="0 0 32 32"><path d="M30.116,7.642c-.438-3.223-3.278-5.764-6.645-6.256-.568-.083-2.72-.386-7.705-.386h-.037c-4.987,0-6.056,.303-6.624,.386-3.273,.479-6.262,2.761-6.987,6.023-.349,1.606-.386,3.387-.321,5.02,.092,2.343,.11,4.681,.325,7.014,.149,1.55,.408,3.087,.776,4.601,.689,2.795,3.48,5.121,6.214,6.07,2.927,.99,6.075,1.154,9.091,.474,.332-.076,.66-.165,.984-.266,.732-.23,1.591-.488,2.222-.941,.009-.006,.016-.015,.021-.024,.005-.009,.008-.02,.008-.031v-2.261c0-.01-.003-.02-.007-.029-.004-.009-.011-.017-.019-.023-.008-.006-.017-.01-.027-.013-.01-.002-.02-.002-.03,0-1.932,.457-3.913,.685-5.899,.682-3.419,0-4.339-1.605-4.602-2.273-.212-.577-.346-1.18-.4-1.792,0-.01,.001-.021,.006-.03,.004-.009,.011-.018,.019-.024,.008-.006,.018-.011,.028-.013,.01-.002,.021-.002,.031,0,1.9,.453,3.848,.682,5.803,.682,.47,0,.939,0,1.409-.012,1.966-.055,4.038-.154,5.972-.528,.048-.01,.097-.018,.138-.03,3.051-.579,5.954-2.398,6.249-7.004,.011-.181,.039-1.899,.039-2.088,.001-.64,.208-4.536-.03-6.931Zm-4.696,11.493h-3.208v-7.772c0-1.636-.689-2.471-2.091-2.471-1.541,0-2.313,.987-2.313,2.937v4.254h-3.189v-4.254c0-1.95-.773-2.937-2.315-2.937-1.394,0-2.09,.834-2.091,2.471v7.772h-3.205V11.127c0-1.636,.422-2.936,1.267-3.9,.871-.961,2.014-1.455,3.433-1.455,1.642,0,2.883,.624,3.71,1.872l.798,1.325,.8-1.325c.827-1.248,2.068-1.872,3.707-1.872,1.417,0,2.56,.494,3.434,1.455,.845,.963,1.267,2.263,1.267,3.9l-.003,8.008Z" fill="none" stroke="#a4112e" stroke-width="2" stroke-linecap="round" stroke-linejoin="round"></path></svg>