<?xml version="1.0" encoding="UTF-8"?>
<svg xmlns="http://www.w3.org/2000/svg" width="200" height="46" viewBox="0 0 200 46" xmlns:xlink="http://www.w3.org/1999/xlink">
  <defs>
    <polygon id="a" points=".042 .125 .042 21.831 44.232 21.831 88.422 21.831 88.422 .125 .042 .125"/>
  </defs>
  <g fill="none" fill-rule="evenodd">
    <rect width="200" height="46" fill="#FFFFFF"/>
    <g transform="translate(0 23.24)">
      <mask id="b" fill="white">
        <use xlink:href="#a"/>
      </mask>
      <path fill="#002C4E" d="M88.3246479 4.62323944L75.1725352 4.62323944 75.1725352 7.61126761 75.5809859 7.56901408 75.5908451 7.51901408C75.6795775 7.07746479 76.4697183 6.23239437 77.443662 6.23239437 77.443662 6.23239437 80.2492958 6.23239437 80.3809859 6.23239437 80.3809859 6.36901408 80.3830986 21.5598592 80.3830986 21.5598592L83.2521127 21.5598592C83.2521127 21.5598592 83.2352113 6.38098592 83.2352113 6.24295775 83.3669014 6.24295775 86.2401408 6.24295775 86.2401408 6.24295775 87.2323944 6.24295775 87.8830986 6.78802817 87.993662 7.29929577L88.0056338 7.35492958 88.421831 7.34295775 88.393662 4.62323944 88.3246479 4.62323944M2.99366197 3.59577465C2.99366197 3.59577465 3.01901408 3.62042254 3.04366197 3.6443662 3.01901408 3.62042254 2.99366197 3.59577465 2.99366197 3.59577465 1.09084507 5.57394366 0 8.28661972 0 11.0387324 0 14.1007042 1.23521127 16.8859155 3.47957746 18.8788732 5.62323944 20.7830986 8.48943662 21.8309859 11.5507042 21.8309859 13.1542254 21.8309859 16.2985915 21.5584507 19.3323944 19.7309859L19.4507042 19.6598592 19.8112676 15.3471831 19.2443662 15.2746479 19.1605634 15.45C16.9330986 20.1084507 13.4260563 20.1084507 12.1056338 20.1084507 6.19084507 20.1084507 3.4971831 15.2028169 3.4971831 10.6443662 3.4971831 6.23591549 6.16549296 1.78661972 12.1267606 1.78661972 13.9549296 1.78661972 17.2788732 2.38450704 19.0084507 6.38309859L19.1042254 6.60492958 19.6605634 6.43450704 19.2971831 1.93943662 19.1492958 1.87605634C16.3711268.664084507 14.1302817.124647887 11.884507.124647887 8.25492958.124647887 5.18028169 1.32464789 2.99366197 3.59577465" mask="url(#b)"/>
    </g>
    <path fill="#002C4E" d="M27.4591549 29.3873239C30.3485915 29.5091549 30.4316901 31.9528169 30.4316901 32.2309859 30.4316901 34.6901408 28.615493 35.5626761 27.0605634 35.5626761 27.0605634 35.5626761 26.05 35.5415493 25.9316901 35.5387324 25.9316901 35.4077465 25.9316901 29.5387324 25.9316901 29.4140845 26.2260563 29.3894366 26.7669014 29.3584507 27.4591549 29.3873239zM22.6387324 27.8612676L22.5683099 27.8612676 22.5739437 28.2521127 22.6098592 28.2711268C22.85 28.3985915 23.1183099 29.0507042 23.1183099 29.7809859L23.1176056 44.7985915 25.9352113 44.7985915C25.9352113 44.7985915 25.9239437 37.2211268 25.9239437 37.0816901 26.0478873 37.0852113 27.156338 37.1133803 27.156338 37.1133803 28.2633803 37.1753521 28.7 37.9084507 29.2535211 38.8366197 29.2535211 38.8373239 29.321831 38.9521127 29.321831 38.9521127L29.6767606 39.5492958C30.2788732 40.5661972 31.1042254 41.9591549 31.9612676 43.2330986 32.5774648 44.1485915 33.3471831 44.6746479 34.3133803 44.8422535 35.0028169 44.9619718 36.3795775 44.915493 36.8985915 44.756338 36.8957746 44.7570423 37.5183099 44.5957746 37.5183099 44.5957746L37.7542254 44.5352113 36.8985915 44.2711268C36.5535211 44.1647887 36.0098592 43.9260563 35.2788732 43.0830986 34.8267606 42.5605634 34.0943662 41.3915493 32.9852113 39.6225352 32.9830986 39.6183099 31.8873239 37.8739437 31.8873239 37.8739437 31.8859155 37.8725352 31.8661972 37.8429577 31.8661972 37.8429577 31.5725352 37.4133803 31.0809859 36.7183099 30.2549296 36.2760563 31.8415493 35.756338 33.3992958 34.3112676 33.3992958 32.1577465 33.3992958 31.5464789 33.2429577 30.3732394 32.193662 29.3795775 31.1309859 28.371831 29.4746479 27.8612676 27.2704225 27.8612676L22.6387324 27.8612676 22.6387324 27.8612676zM54.8077465 29.4859155C54.9338028 29.4859155 56.3190141 29.4894366 56.3190141 29.4894366 56.7211268 29.4950704 57.7366197 29.5197183 58.45 29.628169 63.1943662 30.3471831 63.7070423 34.3690141 63.7070423 36.0640845 63.7070423 37.4535211 63.4591549 39.4309859 62.2795775 40.9605634 61.1225352 42.4612676 59.3084507 43.221831 56.8866197 43.221831 56.3091549 43.221831 55.5901408 43.2204225 54.8077465 43.184507 54.8077465 43.0528169 54.8077465 29.621831 54.8077465 29.4859155zM51.4683099 27.8612676L51.3901408 27.8612676 51.4429577 28.2802817 51.4760563 28.2971831C51.7211268 28.4190141 51.9535211 29.0260563 51.9535211 29.5457746L51.9373239 44.7985915 56.7661972 44.7985915C59.9542254 44.7985915 62.5929577 43.806338 64.3964789 41.9302817 65.8943662 40.371831 66.7535211 38.2338028 66.7535211 36.0640845 66.7535211 34.7528169 66.3119718 32.7725352 65.0704225 31.1478873 63.4056338 28.9669014 60.7661972 27.8612676 57.2239437 27.8612676L51.4683099 27.8612676 51.4683099 27.8612676zM72.5859155 27.8612676L69.2760563 27.8612676 69.2866197 28.2711268 69.3239437 28.2901408C69.6288732 28.4415493 69.8260563 28.9922535 69.8260563 29.6929577L69.8253521 44.7985915 72.6507042 44.7985915 72.6542254 27.8612676 72.5859155 27.8612676M129.496479 27.8612676L126.166197 27.8612676 126.199296 28.2422535 126.233803 28.2598592C126.533803 28.4098592 126.735915 28.9852113 126.735915 29.6929577L126.735915 44.7985915 129.561268 44.7985915 129.564789 27.8612676 129.496479 27.8612676M47.8169014 27.8612676L38.3478873 27.8612676 38.4014085 28.2584507 38.434507 28.2746479C38.6929577 28.4028169 38.9605634 29.0021127 38.9605634 29.7809859L38.9591549 44.7985915 48.4147887 44.7985915 49.1021127 41.7978873 48.7211268 41.6605634 48.6140845 41.828169C47.8316901 43.0584507 47.0373239 43.221831 44.293662 43.221831 43.3161972 43.2422535 42.3626761 43.1570423 41.7661972 43.1014085 41.7661972 42.9788732 41.7661972 36.3232394 41.7661972 36.1894366 41.9 36.1894366 46.55 36.1894366 46.55 36.1894366L46.55 34.6626761C46.55 34.6626761 41.8985915 34.6619718 41.7661972 34.6619718 41.7661972 34.5288732 41.7661972 29.5267606 41.7661972 29.3922535 41.9007042 29.393662 45.6443662 29.4373239 45.6443662 29.4373239 46.5183099 29.4373239 47.4788732 30.2739437 47.5633803 30.7788732L47.5732394 30.8380282 47.9605634 30.8288732 47.884507 27.8612676 47.8169014 27.8612676"/>
    <g fill="#002C4E" transform="translate(93.662 23.24)">
      <path d="M75.2119718 4.62183099L65.7732394 4.62183099 65.7929577 5.05492958 65.8302817 5.07253521C66.084507 5.2 66.3556338 5.7584507 66.3556338 6.5415493L66.3542254 21.5591549 75.8098592 21.5591549 76.4978873 18.5556338 76.0704225 18.4225352 75.9640845 18.5887324C75.1816901 19.8190141 74.3964789 19.9823944 71.6894366 19.9823944 70.7112676 20.0028169 69.7584507 19.9176056 69.1612676 19.8619718 69.1612676 19.7394366 69.1612676 13.0838028 69.1612676 12.95 69.2957746 12.95 73.9450704 12.95 73.9450704 12.95L73.9450704 11.4232394C73.9450704 11.4232394 69.2943662 11.4225352 69.1612676 11.4225352 69.1612676 11.2894366 69.1612676 6.28732394 69.1612676 6.1528169 69.2971831 6.15422535 73.0401408 6.19788732 73.0401408 6.19788732 74.1098592 6.19788732 74.9147887 7.01338028 74.9147887 7.54295775L74.9147887 7.61549296 75.3549296 7.58661972 75.2788732 4.62183099 75.2119718 4.62183099M2.89295775 1.45422535C1.89647887 2.17042254.704225352 3.48732394.680985915 5.69859155.680985915 5.72042254.680985915 5.7415493.680985915 5.76338028.680985915 8.48098592 2.41267606 9.9084507 5.2028169 11.3246479 5.2028169 11.3246479 5.1971831 11.3091549 5.19366197 11.2964789 5.26478873 11.3556338 5.5084507 11.4809859 6.26619718 11.8669014 8.59647887 13.0366197 10.2788732 13.8823944 10.2788732 16.2605634 10.2788732 17.0767606 9.97042254 18.2535211 9.10704225 19.1084507 8.38732394 19.8204225 7.42183099 20.1746479 6.23450704 20.1626761 2.67746479 20.1260563 1.41830986 17.0070423 1.04225352 15.6676056L.977464789 15.4352113.38028169 15.534507.545774648 19.9612676.674647887 20.034507C1.80985915 20.6950704 3.70915493 21.7992958 6.42957746 21.8267606 8.35704225 21.8464789 10.3119718 21.0612676 11.6584507 19.7274648 12.8408451 18.5570423 13.465493 17.0739437 13.465493 15.4380282 13.465493 11.8471831 10.893662 10.5 8.16619718 9.07183099L7.65422535 8.8028169C4.86197183 7.40070423 3.54859155 6.5471831 3.56619718 4.78661972 3.57887324 3.59084507 4.47957746 1.70070423 6.8443662 1.72464789 9.59366197 1.75211268 11.1119718 3.82112676 11.4232394 5.11830986L11.4795775 5.35352113 12.0711268 5.27676056 11.8690141 1.4443662 11.7584507 1.36901408C10.1302817.271830986 8.08732394.134507042 7.28450704.127464789 5.69014085.111267606 4.08873239.595070423 2.89295775 1.45422535"/>
    </g>
    <path fill="#002C4E" d="M134.057042 32.1443662L134.057042 32.1443662C134.033803 34.4908451 135.442254 35.6788732 137.723944 36.8373239 137.723944 36.8373239 138.583803 37.2753521 138.585211 37.2753521 140.38169 38.178169 141.569718 38.7739437 141.569718 40.4612676 141.569718 40.7556338 141.509155 41.7767606 140.725352 42.5528169 140.182394 43.0901408 139.428169 43.3577465 138.487324 43.3485915 135.792958 43.321831 134.804225 41.2260563 134.45493 39.9795775L134.388732 39.7464789 133.817606 39.8408451 133.951408 43.4091549 134.080986 43.4830986C134.978873 44.0056338 136.480986 44.8788732 138.640141 44.9014085 140.172535 44.9176056 141.726761 44.2929577 142.797887 43.2316901 143.740141 42.2985915 144.238028 41.1176056 144.238028 39.8133803 144.238028 36.8471831 142.185915 35.7725352 140.014085 34.634507 140.014085 34.634507 139.63169 34.4338028 139.630282 34.4330986 137.297887 33.2612676 136.483803 32.734507 136.495775 31.4274648 136.504225 30.5098592 137.192958 29.1521127 139.048592 29.1704225 141.31831 29.193662 142.309859 30.8359155 142.517606 31.7014085L142.572535 31.9373239 143.143662 31.8626761 142.979577 28.7633803 142.86831 28.6887324C141.572535 27.8147887 139.952113 27.7070423 139.314085 27.7007042 136.787324 27.6753521 134.087324 29.2239437 134.057042 32.1443662M146.738732 32.1443662C146.715493 34.4901408 148.123944 35.6788732 150.407042 36.8380282L151.266901 37.2753521C153.064789 38.178169 154.251408 38.7746479 154.251408 40.4612676 154.251408 40.7556338 154.189437 41.7767606 153.407042 42.5528169 152.86338 43.0901408 152.109859 43.3577465 151.169014 43.3485915 148.476056 43.321831 147.485915 41.2260563 147.13662 39.9795775L147.070423 39.7464789 146.499296 39.8408451 146.633099 43.4084507 146.761972 43.4830986C147.660563 44.0056338 149.164085 44.8788732 151.321831 44.9014085 152.854225 44.9176056 154.408451 44.2929577 155.479577 43.2316901 156.421831 42.2985915 156.919718 41.1176056 156.919718 39.8133803 156.919718 36.8471831 154.869014 35.7725352 152.695775 34.634507 152.695775 34.634507 152.31338 34.4338028 152.311972 34.4330986 149.979577 33.2612676 149.164789 32.734507 149.177465 31.4274648 149.183099 30.8492958 149.438732 30.2570423 149.859859 29.8443662 150.316197 29.3957746 150.964085 29.1626761 151.73169 29.1704225 154.001408 29.193662 154.991549 30.8359155 155.197887 31.7021127L155.255634 31.9373239 155.824648 31.8626761 155.661268 28.7633803 155.55 28.6887324C154.254225 27.8147887 152.632394 27.7070423 151.997183 27.7007042 149.470423 27.6753521 146.769014 29.2239437 146.738732 32.1443662M122.469014 27.8464789L120.243662 27.8619718 120.279577 28.2429577 120.314085 28.2598592C120.425352 28.315493 120.790845 28.5809859 120.790845 29.6507042L120.803521 39.278169C120.803521 41.143662 120.119718 43.3669014 116.861268 43.3669014 113.783099 43.3669014 113.152113 41.5260563 113.152113 38.7612676L113.15493 27.8612676 109.633803 27.8612676 109.659859 28.2387324 109.692958 28.256338C109.91831 28.3753521 110.297887 28.8225352 110.297887 29.7373239L110.297887 38.7612676C110.297887 44.3669014 113.982394 45.015493 116.755634 45.015493 118.109155 45.015493 122.526761 44.6049296 122.526761 39.3197183L122.539437 27.8457746 122.469014 27.8464789M193.178873 23.0225352C195.171127 23.6626761 197.283803 24.5584507 199.499296 25.7978873 194.059155 16.8119718 184.326761 7.02394366 174.778873.681690141 177.240845 3.11830986 181.235211 8.48239437 182.270423 14.234507 186.182394 17.0211268 189.873944 19.9873239 193.178873 23.0225352M193.172535 23.0197183C188.505634 21.5183099 184.527465 21.4429577 181.576056 21.7471831 182.614789 19.3126761 182.720423 16.743662 182.273239 14.2464789 175.046479 9.09859155 167.08169 4.54929577 159.423239 1.30140845 165.042958 5.10633803 171.238028 16.0823944 173.838028 27.856338 179.376761 26.2161972 187.907042 25.0852113 198.903521 28.7852113 197.174648 26.8542254 195.249296 24.9239437 193.172535 23.0197183"/>
  </g>
</svg>
