<?xml version="1.0" encoding="utf-8"?>
<!-- Generator: Adobe Illustrator 22.1.0, SVG Export Plug-In . SVG Version: 6.00 Build 0)  -->
<svg version="1.1" id="Ebene_1" xmlns="http://www.w3.org/2000/svg" xmlns:xlink="http://www.w3.org/1999/xlink" x="0px" y="0px"
	 viewBox="0 0 249.2 103.9" style="enable-background:new 0 0 249.2 103.9;" xml:space="preserve">
<style type="text/css">
	.st0{fill:#1D1D1B;}
	.st1{fill:#002596;}
</style>
<g id="neu">
	<g>
		<path class="st0" d="M14.6,46c0-23.7,19.2-42.9,42.9-42.9s42.9,19.2,42.9,42.9c0,15.6-12.7,28.3-28.3,28.3c-2.4,0-4.4-2-4.4-4.4
			s2-4.4,4.4-4.4c10.8,0,19.5-8.7,19.5-19.5c0-18.8-15.2-34-34-34s-34,15.2-34,34c0,13.8,11.5,25.4,24.5,25.4c0.9,0,1.6-0.7,1.6-1.5
			c0-0.9-0.7-1.6-1.6-1.6C36.6,68.3,26.6,58,26.6,46c0-17.1,13.8-30.9,30.9-30.9S88.4,28.9,88.4,46c0,9-7.3,16.4-16.4,16.4
			c-4.2,0-7.5,3.4-7.5,7.5c0,4.2,3.4,7.5,7.5,7.5c17.4,0,31.4-14.1,31.4-31.4c0-25.4-20.6-46-46-46s-46,20.6-46,46
			c0,20.3,16.6,37.4,36.5,37.4c7.6,0,13.6-6,13.6-13.5V59.5H72c7.5,0,13.5-6,13.5-13.5c0-15.5-12.6-28.1-28.1-28.1
			c-15.4,0-28,12.6-28,28.1c0,10.5,8.9,19.5,18.7,19.5c2.4,0,4.4,2,4.4,4.4s-1.9,4.4-4.5,4.4c-14.7,0-27.4-13-27.4-28.3
			c0-20.4,16.5-36.9,36.9-36.9S94.4,25.6,94.4,46c0,12.3-10,22.3-22.3,22.3c-0.9,0-1.6,0.7-1.6,1.6s0.7,1.6,1.6,1.6
			C86.1,71.4,97.5,60,97.5,46c0-22.1-17.9-40-40-40s-40,17.9-40,40c0,17,14,31.4,30.5,31.4c4.4,0,7.7-3.4,7.7-7.5
			c0-4.2-3.4-7.6-7.5-7.6c-8.4,0-15.6-7.6-15.6-16.3c-0.1-13.8,11.1-25,24.9-25s24.9,11.2,24.9,25c0,5.7-4.6,10.4-10.4,10.4H61.6V46
			c0-2.3-1.9-4.2-4.2-4.2s-4.2,1.9-4.2,4.2c0,2.4-2,4.4-4.4,4.4s-4.4-2-4.4-4.4c0-7.2,5.8-13,13-13s13,5.8,13,13
			c0,0.9,0.7,1.6,1.6,1.6s1.6-0.7,1.6-1.6c0-8.9-7.2-16.1-16.1-16.1S41.4,37.1,41.4,46c0,4.2,3.4,7.5,7.5,7.5c4.2,0,7.5-3.4,7.5-7.5
			c0-0.6,0.5-1,1-1c0.6,0,1,0.5,1,1v10.4h-9.6c-5.8,0-10.4-4.6-10.4-10.4c0-10.5,8.5-19,19-19s19,8.5,19,19c0,2.4-2,4.4-4.4,4.4
			s-4.4-2-4.4-4.4c0-5.6-4.5-10.1-10.1-10.1S47.4,40.4,47.4,46c0,0.9,0.7,1.6,1.6,1.6c0.9,0,1.6-0.7,1.6-1.6c0-3.9,3.1-7,7-7
			s7,3.1,7,7c0,4.2,3.4,7.5,7.5,7.5c4.2,0,7.5-3.4,7.5-7.5c0-12.2-9.9-22.1-22.1-22.1S35.4,33.8,35.4,46c0,7.5,6,13.5,13.5,13.5h9.6
			v10.4c0,5.7-4.6,10.4-10.5,10.4C30,80.3,14.6,64.6,14.6,46L14.6,46z"/>
		<polygon class="st1" points="0,91.9 114.9,91.9 114.9,103.4 0,103.4 		"/>
	</g>
	<g>
		<path class="st0" d="M150.9,35.5c-0.1-0.6-0.1-1-0.2-1.3c-0.1-0.3-0.2-0.6-0.3-0.8c-0.5-1.2-1.2-2.1-2.2-2.6S146,30,144.8,30
			c-0.7,0-1.3,0.1-1.9,0.2c-0.5,0.2-1,0.4-1.4,0.6s-0.7,0.5-1,0.8s-0.5,0.5-0.7,0.8c-0.3,0.5-0.5,1-0.6,1.4s-0.1,0.7-0.1,1
			c0,0.2,0,0.6,0.1,1s0.3,0.9,0.7,1.3c0.2,0.3,0.5,0.6,0.8,0.8s0.6,0.5,1,0.7s0.9,0.5,1.4,0.7c0.5,0.3,1.1,0.5,1.8,0.8
			c1,0.4,2,0.9,2.9,1.3c1,0.4,1.9,0.9,2.9,1.5c0.4,0.2,0.8,0.5,1.3,0.9s1,0.9,1.5,1.4c0.5,0.6,0.9,1.3,1.2,2.2
			c0.3,0.8,0.5,1.8,0.5,3c0,0.3,0,0.9-0.1,1.6c-0.1,0.7-0.3,1.5-0.8,2.4c-0.3,0.5-0.6,1.1-1.1,1.7c-0.5,0.6-1.1,1.1-1.9,1.6
			c-0.8,0.5-1.7,0.9-2.7,1.2c-1.1,0.3-2.3,0.5-3.7,0.5h-0.5c-0.4,0-1-0.1-1.8-0.2c-0.8-0.1-1.6-0.3-2.5-0.7s-1.8-0.9-2.6-1.6
			c-0.9-0.7-1.6-1.7-2.1-3c-0.2-0.6-0.4-1.2-0.6-1.8c-0.2-0.7-0.3-1.6-0.3-2.8h3.5c0,0.1,0,0.4,0,0.8c0,0.4,0.1,0.8,0.2,1.2
			c0.1,0.2,0.2,0.5,0.3,0.9s0.3,0.8,0.6,1.2s0.6,0.8,1,1.2s1,0.7,1.6,1c0.3,0.1,0.7,0.3,1.3,0.4c0.6,0.2,1.3,0.2,2.1,0.2
			s1.6-0.1,2.4-0.3s1.5-0.6,2.1-1c0.6-0.5,1.1-1,1.5-1.7s0.6-1.5,0.6-2.4c0-0.8-0.2-1.5-0.5-2.1s-0.7-1.1-1.2-1.6s-1.1-0.9-1.7-1.2
			c-0.6-0.3-1.3-0.6-1.9-0.9c-2.2-1-4-1.9-5.3-2.5c-1.4-0.7-2.5-1.4-3.3-2.2c-0.2-0.2-0.4-0.4-0.6-0.7c-0.3-0.3-0.5-0.7-0.7-1.1
			c-0.2-0.4-0.4-0.9-0.6-1.5c-0.2-0.6-0.2-1.2-0.2-1.9s0.1-1.3,0.2-1.9c0.1-0.5,0.3-0.9,0.4-1.2c0.4-0.9,0.9-1.7,1.5-2.3
			c0.6-0.7,1.4-1.2,2.1-1.6s1.6-0.7,2.5-0.9c0.9-0.2,1.8-0.3,2.7-0.3c1.8,0,3.5,0.4,5,1.2c1.6,0.8,2.7,2,3.5,3.7
			c0.4,0.8,0.6,1.6,0.7,2.3c0.1,0.7,0.1,1.2,0.1,1.5h-3.5V35.5z"/>
		<path class="st0" d="M172.7,27.1l10.8,31.7h-3.7l-2.8-8.3h-11.8l-2.9,8.3h-3.7l10.9-31.7C169.5,27.1,172.7,27.1,172.7,27.1z
			 M171.2,31.7l-4.9,15.7h9.9L171.2,31.7z"/>
		<path class="st0" d="M210.4,43.2v13c-0.2,0.1-0.5,0.3-0.8,0.5s-0.7,0.4-1.2,0.7c-0.3,0.2-0.8,0.4-1.3,0.6
			c-0.5,0.2-1.2,0.4-1.9,0.6c-0.7,0.2-1.5,0.4-2.4,0.5s-1.8,0.2-2.8,0.2c-1.3,0-2.5-0.1-3.6-0.4s-2-0.6-2.8-1s-1.5-0.9-2-1.3
			c-0.6-0.5-1-0.9-1.4-1.3c-0.4-0.5-0.9-1.1-1.3-1.9c-0.4-0.7-0.9-1.6-1.2-2.7c-0.4-1-0.7-2.2-0.9-3.5s-0.4-2.7-0.4-4.3
			c0-1.2,0.1-2.5,0.3-3.8s0.5-2.5,0.9-3.7s1-2.3,1.7-3.4c0.7-1.1,1.6-2,2.6-2.8c0.3-0.2,0.7-0.5,1.2-0.8s1-0.5,1.6-0.8
			s1.3-0.5,2.1-0.6c0.8-0.2,1.7-0.3,2.7-0.3c2.1,0,4,0.5,5.8,1.4c1.7,1,3,2.5,3.9,4.5c0.2,0.5,0.4,1.1,0.5,1.6s0.2,1.1,0.3,1.6h-3.3
			c-0.1-0.2-0.2-0.6-0.3-1.2c-0.1-0.6-0.4-1.1-0.8-1.7c-0.5-0.9-1-1.5-1.6-1.8c-0.6-0.4-1-0.6-1.4-0.8c-0.3-0.1-0.7-0.2-1.2-0.4
			s-1.2-0.2-1.9-0.2c-1,0-1.9,0.1-2.7,0.4s-1.4,0.6-2,1s-1.1,0.8-1.4,1.2c-0.4,0.4-0.7,0.8-0.9,1.1c-0.9,1.3-1.5,2.9-1.8,4.6
			c-0.3,1.7-0.5,3.3-0.5,4.9c0,0.1,0,0.5,0,1s0.1,1.2,0.2,1.9c0.1,0.8,0.2,1.6,0.5,2.5c0.2,0.9,0.5,1.8,1,2.7c0.4,0.9,1,1.7,1.6,2.5
			c0.7,0.8,1.5,1.4,2.5,1.8c0.4,0.2,0.9,0.3,1.6,0.5s1.5,0.2,2.5,0.2c0.7,0,1.7-0.1,3-0.3s2.7-0.8,4.2-1.7v-7.9h-6.4V43h9.5V43.2z"
			/>
		<path class="st0" d="M217.5,27.3l6.1,26.8l6.5-26.8h3l6.5,26.8l6.2-26.8h3.3L241.7,59h-3.8l-6.2-24.6L225.4,59h-3.8l-7.5-31.6h3.4
			V27.3z"/>
		<path class="st0" d="M147.6,71.7l11.3,31.7H155l-2.9-8.3h-12.3l-3,8.3H133l11.3-31.7H147.6z M146,76.3L140.8,92h10.3L146,76.3z"/>
		<path class="st0" d="M179.4,80c-0.1-0.6-0.1-1-0.2-1.3c-0.1-0.3-0.2-0.6-0.3-0.8c-0.5-1.2-1.3-2.1-2.3-2.6
			c-1.1-0.5-2.2-0.8-3.5-0.8c-0.7,0-1.4,0.1-2,0.2c-0.6,0.2-1.1,0.4-1.5,0.6s-0.8,0.5-1,0.8c-0.3,0.3-0.5,0.5-0.7,0.8
			c-0.3,0.5-0.5,1-0.6,1.4s-0.1,0.7-0.1,1c0,0.2,0,0.6,0.1,1s0.3,0.9,0.7,1.3c0.2,0.3,0.5,0.6,0.8,0.8c0.3,0.2,0.7,0.5,1.1,0.7
			s0.9,0.5,1.4,0.7c0.5,0.3,1.2,0.5,1.9,0.8c1,0.4,2,0.9,3.1,1.3s2,0.9,3,1.5c0.4,0.2,0.9,0.5,1.4,0.9s1,0.9,1.5,1.4
			c0.5,0.6,0.9,1.3,1.3,2.2s0.5,1.8,0.5,3c0,0.3,0,0.9-0.1,1.6s-0.4,1.5-0.8,2.4c-0.3,0.5-0.7,1.1-1.2,1.7s-1.2,1.1-1.9,1.6
			c-0.8,0.5-1.7,0.9-2.8,1.2c-1.1,0.3-2.4,0.5-3.9,0.5h-0.5c-0.4,0-1.1-0.1-1.9-0.2c-0.8-0.1-1.7-0.3-2.6-0.7s-1.8-0.9-2.7-1.6
			s-1.6-1.7-2.2-3c-0.2-0.6-0.5-1.2-0.6-1.8c-0.2-0.7-0.3-1.6-0.3-2.8h3.6c0,0.1,0,0.4,0,0.8s0.1,0.8,0.2,1.2
			c0.1,0.2,0.2,0.5,0.3,0.9s0.3,0.8,0.6,1.2c0.3,0.4,0.6,0.8,1.1,1.2c0.4,0.4,1,0.7,1.7,1c0.3,0.1,0.8,0.3,1.3,0.4
			c0.6,0.2,1.3,0.2,2.2,0.2c0.8,0,1.7-0.1,2.5-0.3c0.8-0.2,1.5-0.6,2.2-1c0.6-0.5,1.1-1,1.5-1.7s0.6-1.5,0.6-2.4
			c0-0.8-0.2-1.5-0.5-2.1s-0.8-1.1-1.3-1.6s-1.1-0.9-1.8-1.2c-0.7-0.3-1.3-0.6-2-0.9c-2.3-1-4.1-1.9-5.6-2.5
			c-1.4-0.7-2.5-1.4-3.4-2.2c-0.2-0.2-0.4-0.4-0.7-0.7c-0.3-0.3-0.5-0.7-0.7-1.1s-0.4-0.9-0.6-1.5s-0.3-1.2-0.3-1.9s0.1-1.3,0.2-1.9
			c0.2-0.5,0.3-0.9,0.4-1.2c0.4-0.9,0.9-1.7,1.6-2.3c0.7-0.7,1.4-1.2,2.2-1.6s1.7-0.7,2.6-0.9s1.9-0.3,2.8-0.3
			c1.9,0,3.6,0.4,5.2,1.2c1.6,0.8,2.9,2,3.7,3.7c0.4,0.8,0.6,1.6,0.7,2.3c0.1,0.7,0.1,1.2,0.1,1.5L179.4,80L179.4,80z"/>
		<path class="st0" d="M207.2,80c-0.1-0.6-0.1-1-0.2-1.3c-0.1-0.3-0.2-0.6-0.3-0.8c-0.5-1.2-1.3-2.1-2.3-2.6
			c-1.1-0.5-2.2-0.8-3.5-0.8c-0.7,0-1.4,0.1-2,0.2c-0.6,0.2-1.1,0.4-1.5,0.6s-0.8,0.5-1,0.8c-0.3,0.3-0.5,0.5-0.7,0.8
			c-0.3,0.5-0.5,1-0.6,1.4s-0.1,0.7-0.1,1c0,0.2,0,0.6,0.1,1s0.3,0.9,0.7,1.3c0.2,0.3,0.5,0.6,0.8,0.8c0.3,0.2,0.7,0.5,1.1,0.7
			s0.9,0.5,1.4,0.7c0.5,0.3,1.2,0.5,1.9,0.8c1,0.4,2,0.9,3.1,1.3s2,0.9,3,1.5c0.4,0.2,0.9,0.5,1.4,0.9s1,0.9,1.5,1.4
			c0.5,0.6,0.9,1.3,1.3,2.2s0.5,1.8,0.5,3c0,0.3,0,0.9-0.1,1.6s-0.4,1.5-0.8,2.4c-0.3,0.5-0.7,1.1-1.2,1.7s-1.2,1.1-1.9,1.6
			c-0.8,0.5-1.7,0.9-2.8,1.2c-1.1,0.3-2.4,0.5-3.9,0.5h-0.5c-0.4,0-1.1-0.1-1.9-0.2c-0.8-0.1-1.7-0.3-2.6-0.7s-1.8-0.9-2.7-1.6
			s-1.6-1.7-2.2-3c-0.2-0.6-0.5-1.2-0.6-1.8c-0.2-0.7-0.3-1.6-0.3-2.8h3.6c0,0.1,0,0.4,0,0.8s0.1,0.8,0.2,1.2
			c0.1,0.2,0.2,0.5,0.3,0.9s0.3,0.8,0.6,1.2c0.3,0.4,0.6,0.8,1.1,1.2c0.4,0.4,1,0.7,1.7,1c0.3,0.1,0.8,0.3,1.3,0.4
			c0.6,0.2,1.3,0.2,2.2,0.2c0.8,0,1.7-0.1,2.5-0.3c0.8-0.2,1.5-0.6,2.2-1c0.6-0.5,1.1-1,1.5-1.7s0.6-1.5,0.6-2.4
			c0-0.8-0.2-1.5-0.5-2.1s-0.8-1.1-1.3-1.6s-1.1-0.9-1.8-1.2c-0.7-0.3-1.3-0.6-2-0.9c-2.3-1-4.1-1.9-5.6-2.5
			c-1.4-0.7-2.5-1.4-3.4-2.2c-0.2-0.2-0.4-0.4-0.7-0.7c-0.3-0.3-0.5-0.7-0.7-1.1s-0.4-0.9-0.6-1.5s-0.3-1.2-0.3-1.9s0.1-1.3,0.2-1.9
			c0.2-0.5,0.3-0.9,0.4-1.2c0.4-0.9,0.9-1.7,1.6-2.3c0.7-0.7,1.4-1.2,2.2-1.6s1.7-0.7,2.6-0.9s1.9-0.3,2.8-0.3
			c1.9,0,3.6,0.4,5.2,1.2c1.6,0.8,2.9,2,3.7,3.7c0.4,0.8,0.6,1.6,0.7,2.3c0.1,0.7,0.1,1.2,0.1,1.5L207.2,80L207.2,80z"/>
		<path class="st0" d="M238.7,85.4V71.9h3.6v31.5h-3.6v-15h-15.5v15h-3.6V71.9h3.6v13.5H238.7z"/>
	</g>
</g>
</svg>
