<?xml version="1.0" encoding="UTF-8" standalone="no"?>
<!-- Created with Inkscape (http://www.inkscape.org/) -->

<svg
   xmlns:dc="http://purl.org/dc/elements/1.1/"
   xmlns:cc="http://creativecommons.org/ns#"
   xmlns:rdf="http://www.w3.org/1999/02/22-rdf-syntax-ns#"
   xmlns:svg="http://www.w3.org/2000/svg"
   xmlns="http://www.w3.org/2000/svg"
   xmlns:sodipodi="http://sodipodi.sourceforge.net/DTD/sodipodi-0.dtd"
   xmlns:inkscape="http://www.inkscape.org/namespaces/inkscape"
   width="484.16"
   height="435.20001"
   id="svg6149"
   version="1.1"
   inkscape:version="0.48.1 "
   sodipodi:docname="Neues Dokument 3">
  <defs
     id="defs6151">
    <clipPath
       clipPathUnits="userSpaceOnUse"
       id="clipPath2306">
      <path
         inkscape:connector-curvature="0"
         d="m 197.151,38.02 123.165,0 0,124.406 -123.165,0 0,-124.406 z"
         id="path2308" />
    </clipPath>
  </defs>
  <sodipodi:namedview
     id="base"
     pagecolor="#ffffff"
     bordercolor="#666666"
     borderopacity="1.0"
     inkscape:pageopacity="0.0"
     inkscape:pageshadow="2"
     inkscape:zoom="1.8617559"
     inkscape:cx="241.99003"
     inkscape:cy="229.08483"
     inkscape:document-units="px"
     inkscape:current-layer="g2304"
     showgrid="false"
     fit-margin-top="0"
     fit-margin-left="0"
     fit-margin-right="0"
     fit-margin-bottom="0"
     inkscape:window-width="1680"
     inkscape:window-height="990"
     inkscape:window-x="-4"
     inkscape:window-y="-4"
     inkscape:window-maximized="1" />
  <metadata
     id="metadata6154">
    <rdf:RDF>
      <cc:Work
         rdf:about="">
        <dc:format>image/svg+xml</dc:format>
        <dc:type
           rdf:resource="http://purl.org/dc/dcmitype/StillImage" />
        <dc:title></dc:title>
      </cc:Work>
    </rdf:RDF>
  </metadata>
  <g
     inkscape:label="Ebene 1"
     inkscape:groupmode="layer"
     id="layer1"
     transform="translate(327.29562,344.37433)">
    <g
       id="g2302"
       transform="matrix(4.4027766,0,0,-4.4027766,-1177.9777,375.56747)">
      <g
         id="g2304"
         clip-path="url(#clipPath2306)">
        <g
           id="g2310"
           transform="translate(237.25754,66.944589)">
          <path
             d="m 0,0 c -18.216,0 -33.037,14.821 -33.037,33.037 0,18.217 14.821,33.037 33.037,33.037 5.569,0 11.073,-1.416 15.934,-4.097 0.065,-0.027 0.129,-0.057 0.192,-0.091 0.676,-0.372 1.17,-0.523 1.706,-0.523 1.678,0 3.042,1.365 3.042,3.042 0,0.373 -0.071,0.746 -0.211,1.106 -0.018,0.044 -0.033,0.09 -0.047,0.136 -0.948,2.436 -1.428,4.998 -1.428,7.617 0,11.602 9.438,21.04 21.04,21.04 11.601,0 21.04,-9.438 21.04,-21.04 0,-11.602 -9.439,-21.04 -21.04,-21.04 -2.551,0 -5.056,0.46 -7.447,1.367 -0.133,0.043 -0.26,0.087 -0.386,0.131 -0.418,0.145 -0.649,0.225 -1.11,0.233 l -0.052,0 c -1.632,0 -2.959,-1.365 -2.959,-3.044 0,-0.58 0.172,-1.114 0.574,-1.787 0.011,-0.017 0.02,-0.033 0.03,-0.051 2.721,-4.889 4.16,-10.434 4.16,-16.036 C 33.038,14.821 18.216,0 0,0"
             style="fill:#000000;fill-opacity:1;fill-rule:nonzero;stroke:none"
             id="path2312"
             inkscape:connector-curvature="0" />
        </g>
        <g
           id="g2314"
           transform="translate(237.25754,129.29179)">
          <path
             d="m 0,0 c -16.162,0 -29.311,-13.148 -29.311,-29.31 0,-16.162 13.149,-29.311 29.311,-29.311 16.162,0 29.311,13.149 29.311,29.311 0,4.96 -1.271,9.869 -3.675,14.199 -0.742,1.247 -1.089,2.416 -1.089,3.675 0,3.733 3,6.77 6.686,6.77 l 0.118,-10e-4 c 1.055,-0.018 1.727,-0.251 2.266,-0.438 0.108,-0.038 0.219,-0.076 0.337,-0.114 0.036,-0.011 0.072,-0.023 0.107,-0.037 1.98,-0.757 4.055,-1.141 6.167,-1.141 9.547,0 17.313,7.767 17.313,17.314 0,9.547 -7.766,17.313 -17.313,17.313 -9.547,0 -17.313,-7.766 -17.313,-17.313 0,-2.197 0.41,-4.345 1.22,-6.385 0.023,-0.058 0.043,-0.116 0.06,-0.175 0.269,-0.745 0.406,-1.517 0.406,-2.299 0,-3.732 -3.037,-6.769 -6.769,-6.769 -1.116,0 -2.139,0.27 -3.291,0.871 -0.079,0.031 -0.157,0.067 -0.233,0.11 C 9.955,-1.29 5.007,0 0,0"
             style="fill:#3abeca;fill-opacity:1;fill-rule:nonzero;stroke:none"
             id="path2316"
             inkscape:connector-curvature="0" />
        </g>
        <g
           id="g2318"
           transform="translate(226.86554,121.28109)">
          <path
             d="m 0,0 0,-3.757 c 0.11,-0.007 0.203,-0.01 0.283,-0.01 0.352,0 0.597,0.087 0.734,0.26 0.136,0.174 0.205,0.534 0.205,1.081 l 0,1.213 c 0,0.505 -0.079,0.833 -0.237,0.985 C 0.827,-0.076 0.499,0 0,0 m -3.84,2.526 3.867,0 C 1.073,2.526 1.877,2.444 2.44,2.28 3.002,2.116 3.425,1.879 3.707,1.569 3.99,1.258 4.181,0.883 4.282,0.442 c 0.1,-0.441 0.15,-1.123 0.15,-2.047 l 0,-1.286 c 0,-0.942 -0.097,-1.63 -0.291,-2.061 C 3.946,-5.384 3.589,-5.715 3.069,-5.946 2.549,-6.178 1.869,-6.293 1.031,-6.293 l -1.031,0 0,-5.946 -3.84,0 0,14.765 z"
             style="fill:#000000;fill-opacity:1;fill-rule:nonzero;stroke:none"
             id="path2320"
             inkscape:connector-curvature="0" />
        </g>
        <g
           id="g2322"
           transform="translate(236.24124,121.28109)">
          <path
             d="m 0,0 0,-3.283 c 0.431,0 0.734,0.059 0.907,0.178 0.174,0.118 0.26,0.503 0.26,1.153 l 0,0.812 c 0,0.468 -0.083,0.775 -0.25,0.921 C 0.749,-0.073 0.444,0 0,0 m -3.84,2.526 2.718,0 c 1.812,0 3.039,-0.07 3.68,-0.21 C 3.2,2.177 3.722,1.82 4.127,1.245 4.531,0.67 4.733,-0.246 4.733,-1.505 4.733,-2.654 4.59,-3.426 4.305,-3.821 4.019,-4.217 3.456,-4.454 2.617,-4.533 3.377,-4.721 3.888,-4.974 4.15,-5.29 4.411,-5.606 4.574,-5.896 4.638,-6.16 4.702,-6.425 4.733,-7.153 4.733,-8.345 l 0,-3.894 -3.566,0 0,4.906 c 0,0.791 -0.062,1.28 -0.186,1.469 C 0.856,-5.676 0.529,-5.581 0,-5.581 l 0,-6.658 -3.84,0 0,14.765 z"
             style="fill:#000000;fill-opacity:1;fill-rule:nonzero;stroke:none"
             id="path2324"
             inkscape:connector-curvature="0" />
        </g>
        <g
           id="g2326"
           transform="translate(247.39484,120.01349)">
          <path
             d="M 0,0 C 0,0.687 -0.038,1.126 -0.114,1.318 -0.19,1.509 -0.346,1.605 -0.583,1.605 -0.784,1.605 -0.938,1.527 -1.044,1.372 -1.15,1.218 -1.204,0.76 -1.204,0 l 0,-6.895 c 0,-0.857 0.035,-1.386 0.105,-1.586 0.07,-0.201 0.233,-0.302 0.488,-0.302 0.262,0 0.429,0.115 0.501,0.346 C -0.036,-8.205 0,-7.655 0,-6.785 L 0,0 z m 3.839,-4.852 c 0,-1.484 -0.035,-2.534 -0.104,-3.151 -0.07,-0.618 -0.289,-1.181 -0.657,-1.692 -0.368,-0.51 -0.864,-0.903 -1.491,-1.176 -0.627,-0.274 -1.356,-0.411 -2.189,-0.411 -0.79,0 -1.5,0.129 -2.129,0.388 -0.63,0.258 -1.136,0.646 -1.519,1.163 -0.383,0.517 -0.611,1.079 -0.684,1.687 -0.073,0.608 -0.11,1.672 -0.11,3.192 l 0,2.526 c 0,1.484 0.036,2.534 0.105,3.152 0.071,0.617 0.289,1.181 0.657,1.691 0.368,0.511 0.865,0.903 1.491,1.177 0.626,0.273 1.356,0.41 2.189,0.41 0.791,0 1.5,-0.129 2.13,-0.387 C 2.157,3.458 2.663,3.07 3.046,2.554 3.429,2.036 3.657,1.474 3.73,0.866 3.803,0.258 3.839,-0.805 3.839,-2.326 l 0,-2.526 z"
             style="fill:#000000;fill-opacity:1;fill-rule:nonzero;stroke:none"
             id="path2328"
             inkscape:connector-curvature="0" />
        </g>
        <g
           id="g2330"
           transform="translate(220.09684,108.08059)">
          <path
             d="m 0,0 0,-9.868 c 0,-1.478 -0.015,-2.428 -0.046,-2.85 -0.031,-0.423 -0.169,-0.804 -0.416,-1.145 -0.248,-0.34 -0.582,-0.576 -1.004,-0.706 -0.423,-0.132 -1.06,-0.197 -1.91,-0.197 l -1.923,0 0,2.581 c 0.231,-0.018 0.398,-0.027 0.502,-0.027 0.273,0 0.489,0.067 0.647,0.2 0.159,0.134 0.249,0.298 0.274,0.493 0.024,0.195 0.036,0.572 0.036,1.13 L -3.84,0 0,0 z"
             style="fill:#000000;fill-opacity:1;fill-rule:nonzero;stroke:none"
             id="path2332"
             inkscape:connector-curvature="0" />
        </g>
        <g
           id="g2334"
           transform="translate(230.31164,108.08059)">
          <path
             d="m 0,0 0,-9.868 c 0,-1.119 -0.037,-1.905 -0.11,-2.358 -0.073,-0.453 -0.289,-0.918 -0.647,-1.395 -0.359,-0.478 -0.832,-0.839 -1.418,-1.086 -0.587,-0.246 -1.279,-0.369 -2.076,-0.369 -0.881,0 -1.659,0.146 -2.334,0.438 -0.675,0.292 -1.18,0.672 -1.514,1.14 -0.335,0.468 -0.532,0.962 -0.593,1.482 -0.061,0.519 -0.091,1.613 -0.091,3.278 l 0,8.738 3.839,0 0,-11.072 c 0,-0.645 0.036,-1.057 0.106,-1.236 0.069,-0.179 0.211,-0.269 0.423,-0.269 0.244,0 0.4,0.099 0.47,0.297 0.07,0.197 0.106,0.664 0.106,1.399 L -3.839,0 0,0 z"
             style="fill:#000000;fill-opacity:1;fill-rule:nonzero;stroke:none"
             id="path2336"
             inkscape:connector-curvature="0" />
        </g>
        <g
           id="g2338"
           transform="translate(240.92714,108.08059)">
          <path
             d="m 0,0 -1.954,-14.766 -5.832,0 L -10.005,0 -5.956,0 c 0.471,-4.067 0.807,-7.509 1.008,-10.324 0.199,2.845 0.409,5.371 0.632,7.578 L -4.049,0 0,0 z"
             style="fill:#000000;fill-opacity:1;fill-rule:nonzero;stroke:none"
             id="path2340"
             inkscape:connector-curvature="0" />
        </g>
        <g
           id="g2342"
           transform="translate(241.57424,108.08059)">
          <path
             d="m 0,0 6.403,0 0,-2.955 -2.563,0 0,-2.8 2.399,0 0,-2.809 -2.399,0 0,-3.246 2.818,0 0,-2.956 -6.658,0 L 0,0 z"
             style="fill:#000000;fill-opacity:1;fill-rule:nonzero;stroke:none"
             id="path2344"
             inkscape:connector-curvature="0" />
        </g>
        <g
           id="g2346"
           transform="translate(257.90914,108.08059)">
          <path
             d="m 0,0 0,-14.766 -3.365,0 -1.998,6.713 0,-6.713 -3.21,0 0,14.766 3.21,0 2.152,-6.649 0,6.649 L 0,0 z"
             style="fill:#000000;fill-opacity:1;fill-rule:nonzero;stroke:none"
             id="path2348"
             inkscape:connector-curvature="0" />
        </g>
        <g
           id="g2350"
           transform="translate(227.91094,92.353189)">
          <path
             d="m 0,0 0,-2.954 -2.28,0 0,-11.811 -3.84,0 0,11.811 -2.271,0 0,2.954 L 0,0 z"
             style="fill:#000000;fill-opacity:1;fill-rule:nonzero;stroke:none"
             id="path2352"
             inkscape:connector-curvature="0" />
        </g>
        <g
           id="g2354"
           transform="translate(237.58134,92.353189)">
          <path
             d="m 0,0 0,-9.868 c 0,-1.119 -0.037,-1.904 -0.109,-2.357 -0.074,-0.453 -0.289,-0.919 -0.648,-1.396 -0.358,-0.477 -0.831,-0.839 -1.418,-1.085 -0.587,-0.246 -1.279,-0.369 -2.075,-0.369 -0.882,0 -1.66,0.145 -2.335,0.437 -0.675,0.292 -1.179,0.672 -1.514,1.14 -0.335,0.468 -0.532,0.963 -0.593,1.482 -0.06,0.52 -0.091,1.613 -0.091,3.279 l 0,8.737 3.84,0 0,-11.072 c 0,-0.644 0.035,-1.056 0.105,-1.235 0.069,-0.18 0.211,-0.269 0.424,-0.269 0.243,0 0.4,0.098 0.469,0.296 0.071,0.198 0.106,0.664 0.106,1.4 L -3.839,0 0,0 z"
             style="fill:#000000;fill-opacity:1;fill-rule:nonzero;stroke:none"
             id="path2356"
             inkscape:connector-curvature="0" />
        </g>
        <g
           id="g2358"
           transform="translate(246.80204,92.353189)">
          <path
             d="m 0,0 0,-2.954 -2.28,0 0,-11.811 -3.839,0 0,11.811 -2.272,0 0,2.954 L 0,0 z"
             style="fill:#000000;fill-opacity:1;fill-rule:nonzero;stroke:none"
             id="path2360"
             inkscape:connector-curvature="0" />
        </g>
        <g
           id="g2362"
           transform="translate(247.67714,92.353189)">
          <path
             d="m 0,0 6.403,0 0,-2.954 -2.563,0 0,-2.8 2.399,0 0,-2.809 -2.399,0 0,-3.247 2.818,0 0,-2.955 -6.658,0 L 0,0 z"
             style="fill:#000000;fill-opacity:1;fill-rule:nonzero;stroke:none"
             id="path2364"
             inkscape:connector-curvature="0" />
        </g>
        <g
           id="g2366"
           transform="translate(215.58424,136.85729)">
          <path
             d="m 0,0 c 0,-4.889 -3.965,-8.855 -8.856,-8.855 -4.893,0 -8.857,3.966 -8.857,8.855 0,4.892 3.964,8.857 8.857,8.857 C -3.965,8.857 0,4.892 0,0"
             style="fill:#000000;fill-opacity:1;fill-rule:nonzero;stroke:none"
             id="path2368"
             inkscape:connector-curvature="0" />
        </g>
        <g
           id="g2370"
           transform="translate(270.86514,153.93869)">
          <path
             d="m 0,0 3.736,0 0,-1.698 -1.53,0 0,-1.608 1.362,0 0,-1.614 -1.362,0 0,-3.563 L 0,-8.483 0,0 z m 8.457,-1.064 -1.368,0 0,1.363 1.368,0 0,-1.363 z m -2.29,0 -1.368,0 0,1.363 1.368,0 0,-1.363 z m 2.888,-0.466 0,-6.953 -2.154,0 0.037,0.578 C 6.791,-8.14 6.61,-8.316 6.395,-8.433 6.18,-8.55 5.933,-8.609 5.654,-8.609 c -0.319,0 -0.582,0.056 -0.792,0.168 -0.209,0.112 -0.364,0.26 -0.464,0.445 -0.099,0.185 -0.161,0.378 -0.186,0.58 -0.024,0.2 -0.036,0.599 -0.036,1.197 l 0,4.689 2.117,0 0,-4.732 c 0,-0.541 0.016,-0.862 0.05,-0.964 0.033,-0.101 0.123,-0.151 0.27,-0.151 0.157,0 0.25,0.052 0.28,0.157 0.029,0.104 0.045,0.442 0.045,1.011 l 0,4.679 2.117,0 z"
             style="fill:#000000;fill-opacity:1;fill-rule:nonzero;stroke:none"
             id="path2372"
             inkscape:connector-curvature="0" />
        </g>
        <g
           id="g2374"
           transform="translate(282.79654,152.40879)">
          <path
             d="m 0,0 -0.084,-0.914 c 0.308,0.654 0.753,1.001 1.336,1.04 l 0,-2.447 C 0.865,-2.321 0.579,-2.374 0.398,-2.478 0.216,-2.583 0.105,-2.729 0.063,-2.916 0.021,-3.103 0,-3.533 0,-4.207 l 0,-2.746 -2.117,0 0,6.953 L 0,0 z"
             style="fill:#000000;fill-opacity:1;fill-rule:nonzero;stroke:none"
             id="path2376"
             inkscape:connector-curvature="0" />
        </g>
        <g
           id="g2378"
           transform="translate(270.63774,141.15039)">
          <path
             d="M 0,0 C 0,0.255 -0.022,0.426 -0.066,0.513 -0.11,0.601 -0.196,0.644 -0.325,0.644 -0.451,0.644 -0.536,0.605 -0.579,0.527 -0.623,0.448 -0.645,0.272 -0.645,0 l 0,-3.406 c 0,-0.283 0.021,-0.469 0.063,-0.558 0.042,-0.089 0.122,-0.133 0.241,-0.133 0.137,0 0.227,0.049 0.272,0.149 C -0.023,-3.849 0,-3.605 0,-3.217 L 0,0 z m 2.116,3.28 0,-8.483 -2.116,0 0,0.504 c -0.203,-0.21 -0.417,-0.367 -0.64,-0.472 -0.223,-0.105 -0.457,-0.158 -0.702,-0.158 -0.328,0 -0.613,0.086 -0.854,0.259 -0.241,0.173 -0.395,0.373 -0.464,0.6 -0.067,0.227 -0.102,0.598 -0.102,1.111 l 0,3.254 c 0,0.534 0.035,0.913 0.102,1.137 0.069,0.224 0.225,0.42 0.469,0.59 0.245,0.169 0.537,0.253 0.875,0.253 0.262,0 0.502,-0.047 0.721,-0.141 C -0.377,1.639 -0.178,1.498 0,1.309 l 0,1.971 2.116,0 z m 2.94,-8.483 -2.18,0 0,6.953 2.18,0 0,-6.953 z m 0,7.377 -2.18,0 0,1.106 2.18,0 0,-1.106 z"
             style="fill:#000000;fill-opacity:1;fill-rule:nonzero;stroke:none"
             id="path2380"
             inkscape:connector-curvature="0" />
        </g>
        <g
           id="g2382"
           transform="translate(281.13274,140.27549)">
          <path
             d="m 0,0 -1.996,0 0,0.801 c 0,0.28 -0.023,0.47 -0.069,0.569 -0.045,0.1 -0.129,0.149 -0.251,0.149 -0.122,0 -0.205,-0.043 -0.247,-0.131 C -2.604,1.301 -2.625,1.105 -2.625,0.801 l 0,-3.279 c 0,-0.249 0.031,-0.435 0.095,-0.559 0.062,-0.124 0.155,-0.186 0.277,-0.186 0.143,0 0.24,0.065 0.291,0.194 0.05,0.129 0.075,0.374 0.075,0.734 l 0,0.828 1.887,0 c -0.004,-0.556 -0.024,-0.972 -0.06,-1.25 -0.037,-0.278 -0.154,-0.562 -0.352,-0.854 -0.197,-0.292 -0.455,-0.512 -0.773,-0.66 -0.317,-0.149 -0.71,-0.223 -1.178,-0.223 -0.597,0 -1.071,0.102 -1.42,0.306 -0.35,0.205 -0.596,0.491 -0.741,0.86 -0.146,0.368 -0.218,0.892 -0.218,1.569 l 0,1.975 c 0,0.591 0.059,1.036 0.179,1.337 0.118,0.3 0.371,0.568 0.759,0.804 0.388,0.236 0.859,0.353 1.415,0.353 0.552,0 1.023,-0.116 1.414,-0.351 C -0.583,2.166 -0.323,1.87 -0.194,1.514 -0.065,1.158 0,0.653 0,0"
             style="fill:#000000;fill-opacity:1;fill-rule:nonzero;stroke:none"
             id="path2384"
             inkscape:connector-curvature="0" />
        </g>
        <g
           id="g2386"
           transform="translate(283.87794,144.43029)">
          <path
             d="m 0,0 0,-1.909 c 0.182,0.168 0.378,0.294 0.589,0.379 0.212,0.084 0.438,0.125 0.679,0.125 0.37,0 0.686,-0.094 0.946,-0.282 0.26,-0.189 0.419,-0.406 0.476,-0.653 0.058,-0.245 0.087,-0.696 0.087,-1.349 l 0,-4.794 -2.117,0 0,4.894 c 0,0.405 -0.02,0.665 -0.06,0.781 -0.04,0.115 -0.13,0.172 -0.27,0.172 -0.129,0 -0.216,-0.059 -0.261,-0.178 C 0.023,-2.932 0,-3.168 0,-3.521 l 0,-4.962 -2.117,0 0,8.483 L 0,0 z"
             style="fill:#000000;fill-opacity:1;fill-rule:nonzero;stroke:none"
             id="path2388"
             inkscape:connector-curvature="0" />
        </g>
        <g
           id="g2390"
           transform="translate(273.41994,131.64199)">
          <path
             d="M 0,0 C 0,0.255 -0.022,0.426 -0.066,0.513 -0.11,0.601 -0.196,0.644 -0.325,0.644 -0.451,0.644 -0.536,0.605 -0.579,0.526 -0.623,0.448 -0.645,0.272 -0.645,0 l 0,-3.406 c 0,-0.283 0.021,-0.469 0.063,-0.558 0.042,-0.09 0.122,-0.134 0.241,-0.134 0.137,0 0.227,0.05 0.272,0.149 C -0.023,-3.849 0,-3.605 0,-3.218 L 0,0 z m 2.117,3.28 0,-8.484 -2.117,0 0,0.505 c -0.203,-0.21 -0.416,-0.368 -0.639,-0.473 -0.224,-0.105 -0.458,-0.157 -0.703,-0.157 -0.328,0 -0.613,0.086 -0.854,0.259 -0.241,0.173 -0.395,0.373 -0.464,0.6 -0.067,0.227 -0.102,0.598 -0.102,1.111 l 0,3.254 c 0,0.534 0.035,0.913 0.102,1.137 0.069,0.223 0.225,0.42 0.47,0.589 0.244,0.17 0.536,0.254 0.875,0.254 0.261,0 0.502,-0.047 0.72,-0.141 C -0.377,1.639 -0.179,1.497 0,1.308 l 0,1.972 2.117,0 z"
             style="fill:#000000;fill-opacity:1;fill-rule:nonzero;stroke:none"
             id="path2392"
             inkscape:connector-curvature="0" />
        </g>
        <g
           id="g2394"
           transform="translate(278.85844,129.74489)">
          <path
             d="m 0,0 c -0.339,-0.248 -0.536,-0.456 -0.59,-0.624 -0.054,-0.167 -0.081,-0.408 -0.081,-0.723 0,-0.359 0.024,-0.592 0.071,-0.697 0.047,-0.104 0.14,-0.157 0.28,-0.157 0.133,0 0.219,0.042 0.259,0.124 C -0.02,-1.995 0,-1.78 0,-1.431 L 0,0 z m -0.671,0.953 -1.986,0 0,0.467 c 0,0.538 0.062,0.953 0.186,1.244 0.124,0.292 0.373,0.55 0.747,0.774 0.374,0.223 0.859,0.335 1.456,0.335 0.717,0 1.256,-0.127 1.619,-0.38 C 1.715,3.14 1.933,2.828 2.007,2.46 2.08,2.092 2.117,1.333 2.117,0.183 l 0,-3.489 -2.06,0 0,0.619 c -0.129,-0.248 -0.295,-0.434 -0.5,-0.559 -0.204,-0.124 -0.448,-0.186 -0.731,-0.186 -0.37,0 -0.709,0.104 -1.019,0.312 -0.309,0.208 -0.464,0.663 -0.464,1.365 l 0,0.571 c 0,0.52 0.082,0.875 0.246,1.064 0.165,0.188 0.572,0.408 1.221,0.66 0.695,0.272 1.068,0.456 1.117,0.55 C -0.025,1.184 0,1.377 0,1.666 c 0,0.364 -0.027,0.6 -0.081,0.71 -0.055,0.11 -0.145,0.165 -0.27,0.165 -0.144,0 -0.232,-0.046 -0.267,-0.139 C -0.654,2.31 -0.671,2.07 -0.671,1.682 l 0,-0.729 z m 5.669,-4.259 -1.98,0 0,1.698 1.98,0 0,-1.698 z m 0.174,8.483 -0.346,-6.387 -1.635,0 -0.346,6.387 2.327,0 z"
             style="fill:#000000;fill-opacity:1;fill-rule:nonzero;stroke:none"
             id="path2396"
             inkscape:connector-curvature="0" />
        </g>
      </g>
    </g>
  </g>
</svg>
