<?xml version="1.0" encoding="UTF-8"?><svg id="Ebene_1" xmlns="http://www.w3.org/2000/svg" viewBox="0 0 303 139"><defs><style>.cls-1{fill:#4b3d3f;}</style></defs><path class="cls-1" d="M11.41,77.6h.75c3.01,0,3.97-1.64,3.97-6.98v-31.9c0-5-.55-6.3-3.97-6.3h-.75v-1.99h2.33c4.52,0,10.06-.34,13.76-1.09v5.75h.14c1.85-4.17,6.02-5.75,9.86-5.75,9.51,0,13.28,8.42,13.28,15.95,0,9.65-2.53,20.54-13.83,20.54-3.97,0-6.91-1.78-8.9-5.27h-.14v12.8c0,3.29,1.92,4.24,3.42,4.24h1.3v1.98H11.41v-1.98ZM27.9,47.9c0,4.79.14,14.72,6.02,14.72,3.7,0,4.52-5.48,4.52-15.47,0-8.01-.34-14.17-4.45-14.17-5.34,0-6.09,7.74-6.09,14.92Z"/><path class="cls-1" d="M89.23,47.55c0,10.95-6.64,18.28-17.66,18.28s-17.66-7.33-17.66-18.28,6.64-18.21,17.66-18.21,17.66,7.32,17.66,18.21ZM66.23,47.55c0,10.41.41,15.88,5.34,15.88s5.34-5.48,5.34-15.88-.41-15.81-5.34-15.81-5.34,5.48-5.34,15.81Z"/><path class="cls-1" d="M107.43,54.74c0,7.12.34,8.01,2.67,8.01h1.64v1.99h-21.15v-1.99h2.12c2.33,0,2.94-1.09,2.94-3.9V21.61c0-4.93-.68-5.89-2.6-5.89h-2.46v-1.99h16.84v41Z"/><path class="cls-1" d="M111.68,62.75h1.64c2.6,0,3.08-.41,3.08-8.35v-9.45c0-11.91-.27-12.53-2.94-12.53h-1.78v-1.99h3.08c4.52,0,10.06-.34,13.76-1.09-.14,2.81-.34,5.61-.34,8.42v18.55c0,4.79.07,6.43,2.67,6.43h1.3v1.99h-20.47v-1.99ZM121.94,12.99c3.49,0,6.84,2.94,6.84,6.57s-3.29,6.57-6.84,6.57-6.91-2.88-6.91-6.57,3.35-6.57,6.91-6.57Z"/><path class="cls-1" d="M148.91,30.44h6.78v1.99h-6.78v21.42c0,2.53,0,7.46,3.01,7.46,3.29,0,3.29-4.79,3.29-7.19h2.46v1.64c0,5.96-2.67,10.06-9.72,10.06-7.94,0-10.68-4.24-10.75-11.71,0-2.05-.07-4.11-.07-6.16v-15.54h-4.45v-1.99c7.19-.68,12.53-8.08,14.31-14.44h1.92v14.44Z"/><path class="cls-1" d="M72.94,111.05c-.55,8.9-6.37,12.8-14.24,12.8-11.02,0-17.66-7.33-17.66-18.28s6.64-18.21,17.66-18.21c5.34,0,13.83,2.12,13.83,8.56,0,3.08-2.67,5.07-5.61,5.07s-5.13-1.78-5.13-4.24c0-2.26,1.03-2.19,1.03-4.04,0-1.57-1.37-2.94-3.56-2.94-5.54,0-5.89,4.93-5.89,15.81,0,8.56.34,15.88,7.53,15.88,5.61,0,9.04-5.13,9.04-10.4h3.01Z"/><path class="cls-1" d="M72.39,120.77h1.78c2.33,0,2.94-1.09,2.94-3.9v-37.24c0-4.93-.68-5.89-2.6-5.89h-2.12v-1.99h16.5v21.01h.14c1.85-3.42,6.09-5.41,10.41-5.41,9.58,0,10.68,4.59,10.68,10.68v17.52c0,4.72.21,5.2,2.74,5.2h1.57v1.99h-19.65v-1.99h1.23c1.92,0,2.33-.82,2.33-4.86v-19.3c0-3.63-1.64-4.79-3.97-4.79-3.08,0-5.48,2.46-5.48,8.69v14.72c0,4.65.34,5.54,2.67,5.54h1.16v1.99h-20.33v-1.99Z"/><path class="cls-1" d="M114.42,120.77h1.78c2.33,0,2.94-1.09,2.94-3.9v-20.54c0-4.93-.68-5.89-2.6-5.89h-2.12v-1.99h2.33c4.52,0,10.06-.34,13.76-1.09v7.25h.14c1.92-3.76,4.93-7.25,9.51-7.25,3.63,0,6.71,2.4,6.71,6.16s-2.53,6.16-6.16,6.16c-2.81,0-5.34-1.78-5.34-4.79,0-.75.14-.89.14-1.37,0-.55-.14-.89-.55-.89-2.4,0-4.04,7.32-4.04,11.5v12.73c0,2.81.62,3.9,2.94,3.9h2.33v1.99h-21.77v-1.99Z"/><path class="cls-1" d="M184.44,105.57c0,10.95-6.64,18.28-17.66,18.28s-17.66-7.33-17.66-18.28,6.64-18.21,17.66-18.21,17.66,7.32,17.66,18.21ZM161.44,105.57c0,10.41.41,15.88,5.34,15.88s5.34-5.48,5.34-15.88-.41-15.81-5.34-15.81-5.34,5.48-5.34,15.81Z"/><path class="cls-1" d="M185.88,120.77h1.78c2.33,0,2.94-1.09,2.94-3.9v-22.32c0-3.7-.68-4.11-2.6-4.11h-2.12v-1.99h2.33c4.52,0,10.06-.34,13.76-1.09v5.96h.14c2.19-4.11,6.43-5.96,10.82-5.96,9.58,0,10.68,4.59,10.68,10.68v17.52c0,4.72.21,5.2,2.74,5.2h1.57v1.99h-19.65v-1.99h1.23c1.92,0,2.33-.82,2.33-4.86v-19.3c0-3.63-1.64-4.79-3.97-4.79-3.08,0-5.48,2.46-5.48,8.69v14.72c0,4.65.34,5.54,2.67,5.54h1.16v1.99h-20.33v-1.99Z"/><path class="cls-1" d="M227.9,120.77h1.64c2.6,0,3.08-.41,3.08-8.35v-9.45c0-11.91-.27-12.53-2.94-12.53h-1.78v-1.99h3.08c4.52,0,10.06-.34,13.76-1.09-.14,2.81-.34,5.61-.34,8.42v18.55c0,4.79.07,6.43,2.67,6.43h1.3v1.99h-20.47v-1.99ZM238.17,71c3.49,0,6.84,2.94,6.84,6.57s-3.29,6.57-6.84,6.57-6.91-2.88-6.91-6.57,3.35-6.57,6.91-6.57Z"/><path class="cls-1" d="M248.37,120.77h1.78c2.33,0,2.94-1.09,2.94-3.9v-37.24c0-4.93-.68-5.89-2.6-5.89h-2.12v-1.99h16.5v31.62h.34l2.6-2.19c6.09-5.13,9.24-8.35,9.24-9.51,0-1.09-1.3-1.23-2.26-1.23h-1.3v-1.99h14.38v1.99c-3.42,0-6.5,2.33-11.5,6.78l-2.33,2.05,3.35,4.93c9.45,13.9,11.71,16.22,14.03,16.56v1.99h-20.4v-1.99h.96c.27,0,1.64,0,1.64-1.16,0-1.03-6.3-10.34-7.26-11.91l-1.16-1.92h-.34v10.4c0,2.94,0,4.59,2.4,4.59h1.1v1.99h-19.99v-1.99Z"/></svg>