<?xml version="1.0" encoding="UTF-8" standalone="no"?>
<svg
   xmlns:dc="http://purl.org/dc/elements/1.1/"
   xmlns:cc="http://creativecommons.org/ns#"
   xmlns:rdf="http://www.w3.org/1999/02/22-rdf-syntax-ns#"
   xmlns:svg="http://www.w3.org/2000/svg"
   xmlns="http://www.w3.org/2000/svg"
   height="1cm"
   width="4.6168046cm"
   version="1.1"
   viewBox="0 0 174.4934 37.795277"
   data-name="Ebene 1"
   id="Ebene_1">
  <metadata
     id="metadata101">
    <rdf:RDF>
      <cc:Work
         rdf:about="">
        <dc:format>image/svg+xml</dc:format>
        <dc:type
           rdf:resource="http://purl.org/dc/dcmitype/StillImage" />
        <dc:title>AR_gross_cmyk_C</dc:title>
      </cc:Work>
    </rdf:RDF>
  </metadata>
  <defs
     id="defs4">
    <style
       id="style2">.cls-1{fill:#e30518;}.cls-1,.cls-2,.cls-3,.cls-4{fill-rule:evenodd;}.cls-2,.cls-3,.cls-5{fill:#1d1d1b;}.cls-3{stroke:#1d1d1b;stroke-miterlimit:3.86;stroke-width:0;}.cls-4{fill:#fff;}</style>
  </defs>
  <title
     id="title6">AR_gross_cmyk_C</title>
  <path
     style="fill:#e30518;fill-rule:evenodd;stroke-width:0.40800944"
     id="path8"
     d="m 3.9128105,10.069674 h 0.14688 l 0.13057,-0.03672 c 0.0816,-1.175067 -0.74258,-0.983303 -0.74258,-0.983303 a 0.85273976,0.85273976 0 0 1 0.33457,0.958822 c -0.45697,-1.011863 -1.07715,-0.620174 -1.07715,-0.620174 0.52633,0.0816 0.81602,0.816019 0.81602,0.816019 -0.63649,-0.648735 -1.18731,-0.269286 -1.18731,-0.269286 a 1.4321132,1.4321132 0 0 1 0.91394,0.45697 c -0.91394,-0.350888 -1.17098,0.09384 -1.17098,0.09384 a 1.0649047,1.0649047 0 0 1 0.88946,0.191765 c -0.66098,-0.05304 -0.68954,0.44473 -0.68954,0.44473 a 0.83641938,0.83641938 0 0 1 0.75482,-0.0816 5.4224456,5.4224456 0 0 1 0.8813,-0.971063 z"
     class="cls-1" />
  <path
     style="fill:#1d1d1b;fill-rule:evenodd;stroke-width:0.40800944"
     id="path10"
     d="m 3.4395205,9.008849 c -0.0653,0 -0.10608,0.02448 -0.11016,0.0408 -0.004,0.01632 0.0816,0.06936 0.0816,0.06936 a 0.78745824,0.78745824 0 0 1 0.35089,0.656895 0.4447303,0.4447303 0 0 1 0,0.07344 1.0526644,1.0526644 0 0 0 -0.5753,-0.546733 0.68137579,0.68137579 0 0 0 -0.51001,0.05304 c -0.053,0.02448 -0.053,0.03672 -0.049,0.0612 0.004,0.02448 0.0326,0.02856 0.0694,0.03672 a 1.4157928,1.4157928 0 0 1 0.62834,0.534493 0.88538051,0.88538051 0 0 0 -1.02819,-0.07752 c -0.0408,0.03264 -0.0694,0.05712 -0.0571,0.0816 0.0122,0.02448 0.0898,0.03264 0.0898,0.03264 a 1.29339,1.29339 0 0 1 0.66506,0.252966 c -0.73442,-0.183605 -0.95882,0.187684 -0.97106,0.208084 -0.0122,0.0204 -0.049,0.06528 -0.0367,0.08568 0.0122,0.0204 0.0979,0 0.0979,0 a 1.1383464,1.1383464 0 0 1 0.67321,0.07344 0.61609427,0.61609427 0 0 0 -0.35905,0.142803 0.58345352,0.58345352 0 0 0 -0.1836,0.354969 c 0,0 0,0.07344 0.0204,0.0816 0.0204,0.0082 0.0734,-0.02448 0.0734,-0.02448 a 0.75889758,0.75889758 0 0 1 0.6977,-0.07752 l 0.049,0.0204 0.0286,-0.04488 a 7.6909782,7.6909782 0 0 1 0.84458,-1.007784 l 0.1428,0.03672 0.19177,-0.04896 v -0.05712 a 0.91802127,0.91802127 0 0 0 -0.24889,-0.8405 0.68545588,0.68545588 0 0 0 -0.57529,-0.171364 z m -0.21625,1.468834 0.15913,0.0612 a 3.6312841,3.6312841 0 0 0 -0.37537,0.45697 0.90170089,0.90170089 0 0 0 -0.6365,0.0408 0.40800945,0.40800945 0 0 1 0.10609,-0.155043 0.62425446,0.62425446 0 0 1 0.48145,-0.114243 h 0.17136 l -0.12648,-0.118323 a 1.0689848,1.0689848 0 0 0 -0.76706,-0.220325 1.1016255,1.1016255 0 0 1 0.99554,0.04896 z m 0.62018,-0.42841 a 0.98330278,0.98330278 0 0 0 0.0367,-0.273366 0.90578098,0.90578098 0 0 0 -0.26521,-0.644655 0.61201418,0.61201418 0 0 1 0.31825,0.142803 0.76297768,0.76297768 0 0 1 0.21216,0.624255 0.8160189,0.8160189 0 0 1 0,0.102002 l -0.11424,0.0408 c 0,0 -0.0938,-0.03672 -0.11424,-0.02856 a 4.0800945,4.0800945 0 0 0 -0.51001,0.505932 l -0.11016,-0.134643 a 1.5381956,1.5381956 0 0 0 -0.74258,-0.44881 0.93842174,0.93842174 0 0 1 0.9221,0.338647 l 0.0979,-0.06528 a 1.5830767,1.5830767 0 0 0 -0.67321,-0.816019 0.54673267,0.54673267 0 0 1 0.25296,0 1.0608246,1.0608246 0 0 1 0.57938,0.640575 l 0.0612,0.134643 z"
     class="cls-2" />
  <path
     style="fill:#e30518;fill-rule:evenodd;stroke-width:0.40800944"
     id="path12"
     d="m 3.4558405,15.467639 c -0.18769,-1.081225 -0.9221,-0.775218 -0.9221,-0.775218 a 0.95882221,0.95882221 0 0 1 0.48145,0.89354 c -0.58754,-0.816018 -1.12203,-0.334567 -1.12203,-0.334567 a 1.1791473,1.1791473 0 0 1 0.86906,0.550813 c -0.85274,-0.481452 -1.02818,0.199924 -1.02818,0.199924 0.59977,-0.187684 0.68137,0.130563 0.68137,0.130563 -0.69361,0.0408 -0.74665,0.563053 -0.74665,0.563053 a 0.96290231,0.96290231 0 0 1 0.74665,-0.187684 c -0.61201,0.505932 -0.3876,0.816019 -0.3876,0.816019 a 2.113489,2.113489 0 0 1 0.55897,-0.493692 c -0.15913,-0.8813 0.86906,-1.374992 0.86906,-1.374992 z"
     class="cls-1" />
  <path
     style="fill:#1d1d1b;fill-rule:evenodd;stroke-width:0.40800944"
     id="path14"
     d="m 2.5133405,14.635299 c 0,0 -0.0653,0.02856 -0.0653,0.05712 0,0.02856 0.0612,0.05712 0.0612,0.05712 a 0.8160189,0.8160189 0 0 1 0.43657,0.656895 0.93434165,0.93434165 0 0 0 -0.58754,-0.354968 0.6691355,0.6691355 0 0 0 -0.50185,0.159124 c 0,0 -0.0571,0.04896 -0.0449,0.07344 0.0122,0.02448 0.0816,0.02856 0.0816,0.02856 a 1.0608246,1.0608246 0 0 1 0.66098,0.326408 0.72625682,0.72625682 0 0 0 -0.55898,-0.02448 0.58753361,0.58753361 0 0 0 -0.31824,0.371289 c 0,0 0,0.06528 0,0.07752 0,0.01224 0.0775,0 0.0775,0 a 0.6732156,0.6732156 0 0 1 0.50593,0 0.19992463,0.19992463 0 0 1 0.053,0.0408 0.75073739,0.75073739 0 0 0 -0.70585,0.603854 c 0,0 0,0.07752 0,0.08976 0,0.01224 0.0857,-0.02856 0.0857,-0.02856 a 1.0689848,1.0689848 0 0 1 0.57121,-0.191765 0.88946061,0.88946061 0 0 0 -0.34681,0.616095 0.3712886,0.3712886 0 0 0 0.053,0.199924 c 0,0 0.0245,0.03264 0.0449,0.03264 0.0204,0 0.049,-0.03672 0.049,-0.03672 a 2.0400473,2.0400473 0 0 1 0.54265,-0.473291 l 0.0408,-0.0204 v -0.04488 a 0.8160189,0.8160189 0 0 1 0,-0.171364 1.0567445,1.0567445 0 0 1 0.28969,-0.697696 v 0 a 2.1542899,2.1542899 0 0 1 0.55897,-0.43657 l 0.0408,-0.0204 v -0.04488 a 1.0404241,1.0404241 0 0 0 -0.44473,-0.787458 0.69361607,0.69361607 0 0 0 -0.57937,-0.05712 z m -0.46921,1.089386 a 0.8160189,0.8160189 0 0 1 0.68953,0.130563 l 0.0816,0.04488 a 1.2240284,1.2240284 0 0 0 -0.2856,0.579373 l -0.0979,-0.02856 a 0.9710625,0.9710625 0 0 0 -0.66097,0.122402 0.67729569,0.67729569 0 0 1 0.64873,-0.379448 h 0.0735 v -0.06936 a 0.31824737,0.31824737 0 0 0 -0.15505,-0.179524 0.68953597,0.68953597 0 0 0 -0.48145,-0.02856 0.44065021,0.44065021 0 0 1 0.18769,-0.191764 z m 0.30192,-0.554893 a 0.93434165,0.93434165 0 0 1 0.62018,0.45289 l 0.053,0.07344 a 1.8401226,1.8401226 0 0 0 -0.15913,0.150964 0.8160189,0.8160189 0 0 1 -0.0449,-0.07752 1.2566691,1.2566691 0 0 0 -0.75073,-0.546733 0.48961134,0.48961134 0 0 1 0.28152,-0.05304 z m 0.66506,-0.40801 a 0.90986108,0.90986108 0 0 1 0.37537,0.660976 2.4766174,2.4766174 0 0 0 -0.31417,0.212165 0.56305304,0.56305304 0 0 1 0,-0.05712 v -0.03672 a 1.0526644,1.0526644 0 0 0 -0.38353,-0.836419 0.55897295,0.55897295 0 0 1 0.32233,0.06936 z m -0.9629,2.399096 c 0,-0.126483 0.0694,-0.338648 0.40801,-0.616094 l 0.0734,-0.0612 a 1.0526644,1.0526644 0 0 0 0,0.163204 1.0037033,1.0037033 0 0 0 0,0.150964 2.0400473,2.0400473 0 0 0 -0.46921,0.408009 0.12240284,0.12240284 0 0 1 -0.0122,-0.03264 z"
     class="cls-2" />
  <path
     style="fill:#e30518;fill-rule:evenodd;stroke-width:0.40800944"
     id="path16"
     d="m 11.05705,28.132252 c -1.2240195,-0.306007 -1.1301795,0.452891 -1.1301795,0.452891 0.1346395,-0.306007 0.9751405,-0.159124 0.9751405,-0.159124 -0.78338,0.163204 -0.76298,0.746657 -0.76298,0.746657 a 1.2811497,1.2811497 0 0 1 0.8813,-0.375368 c -0.74665,0.575293 -0.49369,0.922101 -0.49369,0.922101 a 1.8890838,1.8890838 0 0 1 0.85274,-0.534492 c -0.54673,0.652815 -0.13464,0.934341 -0.13464,0.934341 0.13464,-0.599774 0.51817,-0.693616 0.51817,-0.693616 -0.15912,0.599774 0.28153,0.746657 0.28153,0.746657 -0.053,-0.534492 0.19992,-0.718096 0.19992,-0.718096 -1.59939,-0.534493 -1.18731,-1.321951 -1.187311,-1.321951 z"
     class="cls-1" />
  <path
     style="fill:#1d1d1b;fill-rule:evenodd;stroke-width:0.40800944"
     id="path18"
     d="m 10.02887,28.156733 a 0.40800945,0.40800945 0 0 0 -0.1550395,0.408009 c 0,0.05304 0.0245,0.06528 0.053,0.06528 0.0286,0 0.0449,-0.07344 0.1346395,-0.114243 a 1.2566691,1.2566691 0 0 1 0.54673,-0.0612 0.8160189,0.8160189 0 0 0 -0.52633,0.714016 c 0,0 0,0.106083 0.0245,0.110163 0.0245,0.0041 0.0816,-0.07344 0.0816,-0.07344 a 1.1097857,1.1097857 0 0 1 0.6365,-0.330488 0.95882221,0.95882221 0 0 0 -0.40801,0.677296 0.3712886,0.3712886 0 0 0 0.053,0.199925 c 0,0 0,0.03672 0.0449,0.03672 0.0449,0 0.049,-0.03672 0.049,-0.03672 a 1.6973193,1.6973193 0 0 1 0.6365,-0.444731 0.88946061,0.88946061 0 0 0 -0.17137,0.481452 0.5222521,0.5222521 0 0 0 0,0.07752 0.43657011,0.43657011 0 0 0 0.17137,0.297847 c 0,0 0.0408,0.03672 0.0612,0.02448 0.0204,-0.01224 0.0286,-0.0612 0.0286,-0.0612 a 0.88538051,0.88538051 0 0 1 0.37945,-0.603854 0.92210136,0.92210136 0 0 0 0,0.142804 0.57121323,0.57121323 0 0 0 0.35497,0.558973 c 0,0 0.053,0.02448 0.0694,0 0.0163,-0.02448 0,-0.07752 0,-0.07752 -0.0449,-0.485531 0.16728,-0.656895 0.17952,-0.665056 l 0.0898,-0.06936 -0.110171,-0.03264 c -0.7793,-0.261126 -1.05266,-0.583453 -1.142419,-0.816019 a 0.53449238,0.53449238 0 0 1 0,-0.43249 l 0.0367,-0.06936 h -0.0734 a 1.1505867,1.1505867 0 0 0 -1.04451,0.09384 z m 0.0816,0.08976 a 1.0200236,1.0200236 0 0 1 0.86498,-0.06936 0.72217673,0.72217673 0 0 0 -0.0245,0.187685 0.69769616,0.69769616 0 0 0 0.053,0.269286 l 0.053,0.106082 h -0.0367 a 1.4321132,1.4321132 0 0 0 -0.79153,0.261126 0.8160189,0.8160189 0 0 1 0.68545,-0.514092 v -0.118322 a 1.6320378,1.6320378 0 0 0 -0.90986,0.05712 0.3712886,0.3712886 0 0 1 0.10608,-0.179524 z m 0.43657,1.31379 c 0,-0.138723 0.0775,-0.383529 0.51001,-0.714016 l 0.0449,-0.03672 a 1.2240284,1.2240284 0 0 0 0.306,0.306007 h -0.0449 a 2.0114866,2.0114866 0 0 0 -0.81602,0.477371 c 0,0 0,-0.02856 0,-0.02856 z m 0.61202,0.289687 a 0.26928624,0.26928624 0 0 1 0,-0.05712 0.96290231,0.96290231 0 0 1 0.26928,-0.567134 l 0.053,-0.06528 a 2.4480567,2.4480567 0 0 0 0.34273,0.187684 h -0.0694 a 0.87722032,0.87722032 0 0 0 -0.53449,0.636495 0.34272794,0.34272794 0 0 1 -0.0612,-0.134643 z m 0.62833,-0.179524 a 1.0241037,1.0241037 0 0 1 0.0326,-0.228486 l 0.0245,-0.0816 c 0.0898,0.0408 0.18769,0.0816 0.29377,0.118322 a 0.85273976,0.85273976 0 0 0 -0.1632,0.550813 c 0,0 0,0.02856 0,0.0408 a 0.46105068,0.46105068 0 0 1 -0.17545,-0.399849 z"
     class="cls-2" />
  <path
     style="fill:#e30518;fill-rule:evenodd;stroke-width:0.40800944"
     id="path20"
     d="m 4.6472305,26.418612 c -0.95475,-0.518172 -1.22403,0.244806 -1.22403,0.244806 a 0.93434165,0.93434165 0 0 1 0.9221,0.06936 c -0.8609,0.102002 -0.85274,0.579373 -0.85274,0.579373 a 1.0526644,1.0526644 0 0 1 0.88946,-0.126483 c -0.81602,0.269286 -0.6773,0.705857 -0.6773,0.705857 0.5141,-0.40801 0.77522,-0.350889 0.77522,-0.350889 -0.57121,0.518172 -0.40801,0.816019 -0.40801,0.816019 a 0.92210136,0.92210136 0 0 1 0.66098,-0.45697 c -0.31417,0.493691 -0.0938,0.726257 -0.0938,0.726257 a 0.77113786,0.77113786 0 0 1 0.57937,-0.522253 c -0.55081,-0.612014 -0.72626,-1.060824 -0.72218,-1.338271 a 0.46513078,0.46513078 0 0 1 0.14281,-0.338647 z"
     class="cls-1" />
  <path
     style="fill:#1d1d1b;fill-rule:evenodd;stroke-width:0.40800944"
     id="path22"
     d="m 3.7863305,26.230928 a 0.62425446,0.62425446 0 0 0 -0.40801,0.40801 c 0,0 0,0.07344 0,0.09384 0,0.0204 0.0653,0 0.0653,0 a 1.1179459,1.1179459 0 0 1 0.70585,-0.03264 c -0.68953,0.150963 -0.70993,0.567133 -0.70993,0.607934 0,0.0408 0,0.08568 0.0245,0.09384 0.0245,0.0082 0.0775,-0.04896 0.0775,-0.04896 a 0.83641938,0.83641938 0 0 1 0.62426,-0.150963 c -0.45698,0.208084 -0.52634,0.473291 -0.52634,0.612014 a 0.40800945,0.40800945 0 0 0 0,0.09384 c 0,0 0,0.0612 0.0367,0.06528 0.0367,0.0041 0.0612,-0.03672 0.0612,-0.03672 a 1.7626008,1.7626008 0 0 1 0.55897,-0.310088 0.92618146,0.92618146 0 0 0 -0.31417,0.612015 0.35088813,0.35088813 0 0 0 0.0245,0.134643 c 0,0 0.0367,0.07344 0.0612,0.07344 0.0245,0 0.049,-0.07344 0.049,-0.07344 a 0.8160189,0.8160189 0 0 1 0.48146,-0.40801 0.86906013,0.86906013 0 0 0 -0.11017,0.40801 0.40800945,0.40800945 0 0 0 0.0938,0.281526 c 0,0 0.0408,0.04488 0.0571,0.0408 0.0163,-0.0041 0.0367,-0.05712 0.0367,-0.05712 a 0.71809664,0.71809664 0 0 1 0.53857,-0.485531 h 0.11424 l -0.0775,-0.08568 c -0.53041,-0.587534 -0.73442,-1.003704 -0.73442,-1.26891 a 0.49369144,0.49369144 0 0 1 0.13873,-0.334568 l 0.0612,-0.05304 -0.0612,-0.03264 a 1.0689848,1.0689848 0 0 0 -0.86906,-0.146884 z m 0.0449,0.114243 a 0.93434165,0.93434165 0 0 1 0.73033,0.102002 0.56305304,0.56305304 0 0 0 -0.102,0.281527 l -0.0653,-0.04488 a 0.88538051,0.88538051 0 0 0 -0.81602,-0.142804 0.4488104,0.4488104 0 0 1 0.25297,-0.195844 z m 0.53449,0.44881 h 0.0938 a 0.88130042,0.88130042 0 0 0 0.10608,0.387609 l -0.14688,-0.04488 a 1.2240284,1.2240284 0 0 0 -0.81602,0.04488 c 0.0816,-0.146883 0.26929,-0.326407 0.76298,-0.387609 z m 0.053,0.448811 0.15504,-0.05304 a 2.8315856,2.8315856 0 0 0 0.54266,0.873141 0.84049947,0.84049947 0 0 0 -0.47329,0.408009 0.52633219,0.52633219 0 0 1 0,-0.09384 0.86498004,0.86498004 0 0 1 0.1632,-0.452891 l 0.0694,-0.106082 h -0.13056 a 1.0077833,1.0077833 0 0 0 -0.59978,0.334568 1.1505867,1.1505867 0 0 1 0.40801,-0.579374 l 0.0939,-0.08976 -0.12649,-0.0204 a 1.2240284,1.2240284 0 0 0 -0.73033,0.301927 c 0.004,-0.118323 0.11016,-0.350888 0.62833,-0.522252 z"
     class="cls-2" />
  <path
     style="fill:#1d1d1b;fill-rule:evenodd;stroke:#1d1d1b;stroke-width:0;stroke-miterlimit:3.8599999"
     id="path24"
     d="m 9.5841405,20.477995 c 0.9343395,0.795618 1.2240295,1.472914 0.9628995,2.084928 -3.5659995,-0.06936 -2.1094095,4.834912 -2.1094095,4.834912 0.25705,0.754818 -0.73441,0.816019 -0.73441,0.816019 a 12.0934,12.0934 0 0 1 -2.53374,0 c -0.61202,-0.02856 -1.07715,-1.224028 -0.83642,-1.632038 a 0.33048766,0.33048766 0 0 1 0.49369,-0.183604 c 0.72218,0.236645 1.41579,0.252966 1.40355,-0.08976 a 1.4647539,1.4647539 0 0 0 0.32641,0.526332 l 0.0979,-0.08568 a 2.6235008,2.6235008 0 0 1 -0.45289,-1.117946 2.4480567,2.4480567 0 0 1 -0.0286,-0.612014 c 0,-0.04896 -0.15912,0.03264 -0.17136,0 a 1.1913876,1.1913876 0 0 1 0.1428,-0.693616 c 0,-0.06528 -0.19176,0.04488 -0.19992,0 a 0.84865966,0.84865966 0 0 1 0.0857,-0.481451 c 0,-0.03672 -0.1224,0.03672 -0.12648,0 a 1.3668317,1.3668317 0 0 1 0.19584,-0.722177 c 0,-0.05712 -0.1632,-0.05304 -0.15912,-0.102002 a 1.1873075,1.1873075 0 0 1 0.40801,-0.693616 c 0,-0.04488 -0.25297,-0.03264 -0.24073,-0.07752 a 1.2811497,1.2811497 0 0 1 0.52225,-0.563053 c 0.0367,-0.04896 -0.15096,-0.114243 -0.11424,-0.159124 a 3.1253524,3.1253524 0 0 1 0.27337,-0.363128 c 1.0853,-0.966983 2.7867,-0.681376 2.7867,-0.681376 z m -1.76668,7.515534 c 0.25297,-1.032264 -1.63204,-0.816019 -1.63204,-0.816019 -1.65652,0.126483 -1.47699,-0.354968 -1.47699,-0.354968 l -0.10608,0.02856 c -0.0449,0.652816 1.63203,0.461051 1.63203,0.461051 1.71364,-0.171364 1.46068,0.689536 1.46068,0.689536 h 0.11424 z"
     class="cls-3" />
  <path
     style="fill:#e30518;fill-rule:evenodd;stroke-width:0.40800944"
     id="path26"
     d="m 10.95097,12.191323 c -0.51001,-0.216245 -1.8972395,0.07344 -2.3909295,0.05304 -1.27299,0.02856 -1.05675,-0.889461 -0.91394,-1.154667 0,-0.03672 0.0571,0 0.0571,0 a 0.88538051,0.88538051 0 0 0 0.9629,0.673216 C 10.95095,11.628269 11.11416,12.052599 11.11416,12.052599 l -0.17953,0.155043 z"
     class="cls-1" />
  <path
     style="fill:#1d1d1b;fill-rule:evenodd;stroke-width:0.40800944"
     id="path28"
     d="m 7.6134605,11.048896 a 0.98738287,0.98738287 0 0 0 -0.0898,0.795619 c 0.12241,0.322327 0.47329,0.477371 1.03635,0.465131 a 7.2421678,7.2421678 0 0 0 0.75481,-0.05712 c 0.5753,-0.0612 1.2933895,-0.138723 1.6320395,0 h 0.0367 l 0.24481,-0.212165 -0.0204,-0.04488 c -0.0204,-0.04488 -0.25705,-0.46105 -2.5255795,-0.330487 A 0.76705777,0.76705777 0 0 1 7.8133305,11.0693 c 0,0 -0.0204,-0.118323 -0.053,-0.126483 -0.0326,-0.0082 -0.0979,0.0408 -0.14688,0.106082 z m 0.0367,0.762978 a 0.53857248,0.53857248 0 0 1 -0.0449,-0.224405 c 0,-0.142803 0.0449,-0.371289 0.0857,-0.367209 0.0408,0.0041 0.0326,0.05712 0.0612,0.130563 a 0.93026155,0.93026155 0 0 0 0.9017,0.461051 v 0 c 1.7748405,-0.106082 2.2522095,0.130563 2.3664495,0.220325 l -0.0979,0.08976 a 4.5533855,4.5533855 0 0 0 -1.6320395,0 5.9283773,5.9283773 0 0 1 -0.74257,0.05304 c -0.48961,0.01632 -0.79562,-0.106082 -0.89762,-0.363128 z"
     class="cls-2" />
  <path
     style="fill:#ffffff;fill-rule:evenodd;stroke-width:0.40800944"
     id="path30"
     d="m 9.2169305,10.657207 a 1.2240284,1.2240284 0 0 0 0,0.738497 1.4076326,1.4076326 0 0 1 0.35497,-0.640574 1.4443535,1.4443535 0 0 0 0.0694,0.669135 1.4769942,1.4769942 0 0 1 0.33865,-0.669135 z"
     class="cls-4" />
  <path
     style="fill:#1d1d1b;fill-rule:evenodd;stroke-width:0.40800944"
     id="path32"
     d="m 9.1883705,10.649047 a 1.2240284,1.2240284 0 0 0 0,0.754818 c 0,0 0.0204,0.06528 0.0286,0.06528 0.008,0 0.0286,-0.06528 0.0286,-0.06528 a 1.4565937,1.4565937 0 0 1 0.28969,-0.567134 c 0,0.03264 0,0.06936 0,0.102003 a 1.4321132,1.4321132 0 0 0 0.0816,0.497771 c 0,0 0.0245,0.06528 0.0367,0.06528 0.0122,0 0.0204,-0.07344 0.0204,-0.07344 A 1.509635,1.509635 0 0 1 10.004451,10.77553 l 0.0408,-0.0408 -0.8445795,-0.110162 z m 0,0.375369 a 1.2770696,1.2770696 0 0 1 0.049,-0.334568 l 0.31825,0.0408 v 0 a 1.4484336,1.4484336 0 0 0 -0.33457,0.554893 1.3790719,1.3790719 0 0 1 -0.0326,-0.261126 z m 0.40801,-0.08976 a 1.3137904,1.3137904 0 0 1 0,-0.175444 v -0.02448 l 0.32233,0.04488 a 1.5055549,1.5055549 0 0 0 -0.28561,0.534493 1.5300354,1.5300354 0 0 1 -0.0449,-0.379449 z"
     class="cls-2" />
  <path
     style="fill:#ffffff;fill-rule:evenodd;stroke-width:0.40800944"
     id="path34"
     d="m 10.23696,12.427968 a 1.8686833,1.8686833 0 0 1 -0.4406495,-0.44065 0.85273976,0.85273976 0 0 0 0.0857,0.40801 1.7544406,1.7544406 0 0 1 -0.49777,-0.40801 0.88946061,0.88946061 0 0 0 0.13056,0.44065 l 0.7221795,-0.02856 z"
     class="cls-4" />
  <path
     style="fill:#1d1d1b;fill-rule:evenodd;stroke-width:0.40800944"
     id="path36"
     d="m 9.7595805,11.954677 a 0.4447303,0.4447303 0 0 0 0,0.07344 0.8160189,0.8160189 0 0 0 0.0612,0.293767 2.0767681,2.0767681 0 0 1 -0.40801,-0.350888 c 0,0 -0.0326,-0.04896 -0.0408,-0.04488 -0.008,0.0041 0,0.0612 0,0.0612 a 0.87722032,0.87722032 0 0 0 0.13464,0.456971 v 0 l 0.43249,-0.0204 v 0 0 h 0.3835305 l -0.0734,-0.05304 a 1.8197222,1.8197222 0 0 1 -0.4324905,-0.43249 c 0,0 -0.0204,-0.0408 -0.0326,-0.03672 -0.0122,0.0041 -0.0245,0.05304 -0.0245,0.05304 z m -0.35088,0.114243 a 1.6646786,1.6646786 0 0 0 0.40801,0.318247 h -0.29377 a 0.96290231,0.96290231 0 0 1 -0.13464,-0.318247 z m 0.49369,0.306007 a 0.84457957,0.84457957 0 0 1 -0.0857,-0.330488 1.8646032,1.8646032 0 0 0 0.3263995,0.330488 H 9.9064505 Z"
     class="cls-2" />
  <path
     style="fill:#1d1d1b;fill-rule:evenodd;stroke:#1d1d1b;stroke-width:0;stroke-miterlimit:3.8599999"
     id="path38"
     d="m 11.55891,10.649047 h 0.15096 c 0,0.09792 0.0734,0.142803 0.16728,0.146884 a 0.17952416,0.17952416 0 0 0 0.17953,-0.175445 h 0.15096 a 0.30192699,0.30192699 0 0 1 -0.32233,0.326408 0.31416728,0.31416728 0 0 1 -0.31824,-0.326408 z m 1.81972,0.979223 a 0.7425772,0.7425772 0 0 0 0.86498,-0.738497 C 14.20691,10.416482 13.76216,10.236958 13.15422,10.3512 12.96654,9.988072 12.89718,9.657584 12.44429,9.535181 11.28146,9.265895 10.97953,9.865669 10.02479,9.979912 A 1.4484336,1.4484336 0 0 1 9.3475005,9.935032 c -0.10609,-0.02448 -0.26521,-0.04896 -0.30193,0 a 0.40800945,0.40800945 0 0 0 -0.0653,0.44065 c 0.0571,0.0612 0.0694,0.04896 0.0898,0.07752 0.0204,0.02856 0,0.106082 0,0.106082 a 0.66097531,0.66097531 0 0 0 -0.17545,0.489611 c 0.66506,-0.183604 1.9217295,-0.07752 1.8278895,0.922102 -0.0286,0.301927 -0.65282,0.567133 -1.4443595,0.301927 l 0.0857,0.408009 a 3.6435244,3.6435244 0 0 1 1.0893795,0.06528 c 0.90986,0.379448 1.7422,0.07344 2.04005,-0.318248 0.59569,-0.816019 -0.0326,-1.7422 0.9221,-1.917644 a 0.6732156,0.6732156 0 0 1 0.6773,0.212165 l -0.053,0.05712 a 0.8160189,0.8160189 0 0 0 -0.70177,-0.126483 c -0.56714,0.199925 -0.17545,1.28523 -0.67322,1.885004 -0.78746,0.950662 -1.95844,0.281526 -3.0029495,0.979223 a 2.7663041,2.7663041 0 0 0 -1.22403,2.301173 3.8271287,3.8271287 0 0 1 0.72218,-0.183604 l 0.0449,0.110162 a 25.296586,25.296586 0 0 0 -3.4436,1.077145 1.595317,1.595317 0 0 1 -1.89724,-0.408009 l 0.0571,-0.05712 c 0.49777,0.40801 0.87722,0.469211 1.00778,0.40801 -0.58345,-0.212165 -0.59569,-1.191388 -1.54635,-1.546356 -0.55082,-0.257046 -1.30155,1.191388 -0.96291,1.476994 0.0449,0.281527 0.35089,0.244806 0.56714,0.40801 0.59569,0.45289 0.7793,0.87314 1.48923,1.224028 a 3.0396704,3.0396704 0 0 0 0.59162,0.167284 c 0.0694,0 -0.0326,-0.138723 0.0449,-0.126483 a 1.4729141,1.4729141 0 0 0 0.56305,0.216245 c 0.0653,0 0,-0.220325 0.0571,-0.216245 a 1.5667563,1.5667563 0 0 0 0.6977,0.265206 c 0.0653,0 0,-0.122403 0.0694,-0.122403 a 1.1546667,1.1546667 0 0 0 0.48145,0.122403 c 0.0612,0 0,-0.155043 0.0571,-0.150963 a 1.2240284,1.2240284 0 0 0 0.52225,0.171364 c 0.0612,0 -0.0612,-0.179525 0,-0.183605 a 1.077145,1.077145 0 0 0 0.53858,0.142804 c 0.0571,0 -0.0571,-0.130563 0,-0.142804 0.1632,-0.0408 0.50185,0.03264 0.67729,0 A 1.6320378,1.6320378 0 0 0 10.46146,17.434242 l 0.15504,0.0408 c -0.44881,1.26483 -1.8401195,1.150587 -1.8401195,1.150587 a 2.4113359,2.4113359 0 0 0 0.32641,1.134266 c 0.24073,0.383529 1.3749895,1.040424 1.7013995,2.015567 0.2244,0.681376 -0.66506,1.501475 -0.49777,2.480697 l 0.1428,0.02856 a 2.4766174,2.4766174 0 0 0 0,0.612014 0.65281512,0.65281512 0 0 0 0.22849,-0.130563 1.4443535,1.4443535 0 0 0 0.0694,0.681376 1.3627516,1.3627516 0 0 1 0.1836,-0.297847 1.685079,1.685079 0 0 0 0.18769,0.816019 1.4606738,1.4606738 0 0 1 0.0816,-0.297847 1.5993971,1.5993971 0 0 0 0.1836,0.538573 2.4194961,2.4194961 0 0 1 0.14281,-0.240726 1.2852298,1.2852298 0 0 0 0.24072,0.636495 1.2648293,1.2648293 0 0 1 0.0734,-0.338648 0.88130042,0.88130042 0 0 0 0.16729,0.43657 c 0.0857,0.142803 1.40355,1.29339 0.69361,1.758521 0,-0.06936 -0.0694,-0.05304 -0.0694,-0.05304 a 0.49369144,0.49369144 0 0 0 0.0979,-0.383528 c -1.31787,-0.595694 -1.93804,0.09792 -1.93804,0.09792 a 0.56305304,0.56305304 0 0 0 0,0.567133 1.6320378,1.6320378 0 0 0 1.07714,0.950662 c 0.53858,0.183604 2.47254,-0.363128 2.77447,-1.574916 0.102,-0.40801 -0.95882,-1.497395 -1.06083,-2.57862 -0.0286,-0.301927 -0.0694,-2.174691 -0.0408,-3.219195 a 1.5381956,1.5381956 0 0 0 -0.2856,-0.554893 l 0.0857,-0.08568 c 0.15504,0.02856 0.40801,0.567134 0.40801,0.567134 a 0.70585635,0.70585635 0 0 0 0.0571,-0.481452 c 0.11424,0 0.23664,0.310088 0.23664,0.310088 a 1.0730649,1.0730649 0 0 0 0.0898,-0.636495 c -0.0734,-0.669136 -0.75482,-1.183228 -1.02003,-2.040047 -0.35905,-1.138347 -0.28152,-2.040048 -0.35497,-3.035591 a 0.5222521,0.5222521 0 0 0 0.26929,0.110163 0.77929805,0.77929805 0 0 1 0,-0.465131 1.5381956,1.5381956 0 0 0 0.35089,0.240726 1.2566691,1.2566691 0 0 1 -0.0286,-0.607935 0.69769616,0.69769616 0 0 0 0.37129,0.155044 2.3174937,2.3174937 0 0 1 -0.17137,-0.783378 0.4447303,0.4447303 0 0 0 0.35497,0.08568 c -0.21216,-0.240726 -0.0571,-0.493692 -0.25705,-0.816019 a 0.93434165,0.93434165 0 0 0 0.32641,0 0.72625682,0.72625682 0 0 1 -0.25296,-0.722177 c 0.51001,-1.489234 -0.31417,-1.885003 -0.31417,-1.885003 z"
     class="cls-3" />
  <path
     style="fill:#ffffff;fill-rule:evenodd;stroke-width:0.40800944"
     id="path40"
     d="m 11.36306,10.494004 a 2.8560662,2.8560662 0 0 1 0.99554,-0.114243 v -0.09384 a 2.2726126,2.2726126 0 0 0 -1.04042,0.167284 z"
     class="cls-4" />
  <path
     style="fill:#ffffff;fill-rule:evenodd;stroke-width:0.40800944"
     id="path42"
     d="m 13.86824,10.910173 c 0.0326,0.363129 -0.33049,0.338648 -0.50593,0.310087 0,0.05304 0,0.0612 0,0.0612 0.59161,0.126483 0.61609,-0.310087 0.59569,-0.375369 a 0.17136397,0.17136397 0 0 0 -0.0816,0 z"
     class="cls-4" />
  <path
     style="fill:#1d1d1b;fill-rule:evenodd;stroke:#1d1d1b;stroke-width:0;stroke-miterlimit:3.8599999"
     id="path44"
     d="m 8.9190905,13.81112 a 3.1579932,3.1579932 0 0 0 -0.6773,2.068608 1.2566691,1.2566691 0 0 0 -0.40801,0.08568 1.0281838,1.0281838 0 0 1 -0.25705,-0.167284 c -0.0408,0.05712 -0.12648,0.155044 -0.12648,0.155044 a 1.468834,1.468834 0 0 1 -0.40801,-0.44065 0.60793408,0.60793408 0 0 1 -0.12648,0.183604 2.9907093,2.9907093 0 0 1 -0.40801,-0.383529 0.40800945,0.40800945 0 0 1 -0.0979,0.159124 1.9502852,1.9502852 0 0 1 -0.32641,-0.526332 c -0.0408,0.06936 -0.12648,0.183604 -0.12648,0.183604 a 2.244052,2.244052 0 0 1 -0.26929,-0.465131 0.48553125,0.48553125 0 0 1 -0.15504,0.126483 2.6602216,2.6602216 0 0 1 -0.26929,-0.44065 c 0,0.06936 -0.12648,0.142803 -0.12648,0.142803 a 1.72588,1.72588 0 0 1 -0.27337,-0.43249 c -0.0286,0.06936 -0.1428,0.0816 -0.1428,0.0816 a 1.5626762,1.5626762 0 0 1 -0.19993,-0.538572 l -0.19584,0.02856 a 2.5949401,2.5949401 0 0 1 -0.33865,-0.705856 c -0.7385,0.167284 -1.07714,-2.101249 -1.07714,-2.101249 a 0.28152652,0.28152652 0 0 1 0.0694,-0.354968 2.2481321,2.2481321 0 0 1 0.81602,-0.636495 0.4447303,0.4447303 0 0 1 0.56713,0.0816 c 0.1836,0.269286 0.25297,1.476994 0.25297,1.476994 a 1.2240284,1.2240284 0 0 0 0.68137,1.020024 30.939357,30.939357 0 0 1 3.65169,1.419873 z m -5.09604,-3.423199 c -0.0449,0.43657 0.52225,1.203628 0.38353,1.7422 a 0.89762079,0.89762079 0 0 1 -0.32641,0.481452 l 0.0408,0.04488 c 0.24073,-0.167284 0.40801,-0.150964 0.45289,-0.595694 0.0449,-0.44473 -0.24073,-1.011864 -0.33865,-1.403553 -0.0979,-0.391689 -0.0245,-0.265206 0,-0.469211 l -0.102,-0.0204 a 0.40800945,0.40800945 0 0 0 -0.11016,0.220325 z"
     class="cls-3" />
  <path
     style="fill:#1d1d1b;fill-rule:evenodd;stroke:#1d1d1b;stroke-width:0;stroke-miterlimit:3.8599999"
     id="path46"
     d="m 17.10375,22.656765 c 0.64466,-0.04896 1.91357,-0.232565 1.92989,-1.591237 0,-1.542275 -2.13389,-1.379072 -2.26853,-1.379072 H 14.6557 v 0.06528 c 0.27336,0.02856 0.52225,-0.04488 0.52225,0.554893 v 4.659468 c 0,0.575293 -0.64873,0.632414 -0.64873,0.632414 v 0.06936 h 2.19509 v -0.06936 c 0,0 -0.6773,-0.05712 -0.67322,-0.624254 v -2.321574 h 0.195851 c 0.24072,0.816019 1.358669,3.264076 3.570079,3.133513 -1.25259,-0.473291 -2.525579,-2.484778 -2.705099,-3.145753 z m -1.06082,-2.741823 c 0,0 2.09309,-0.163204 2.08901,1.346431 0,1.334191 -2.08901,1.122026 -2.08901,1.122026 v -2.448057 z"
     class="cls-3" />
  <path
     style="fill:#1d1d1b;fill-rule:evenodd;stroke:#1d1d1b;stroke-width:0;stroke-miterlimit:3.8599999"
     id="path48"
     d="m 5.3571605,20.339272 a 0.8160189,0.8160189 0 0 1 0.78746,-0.591614 v -0.06528 h -1.83604 v 0.06528 a 0.54265257,0.54265257 0 0 1 0.56713,0.787458 l -1.48107,3.908731 c 0,0 -1.16691,-3.288556 -1.44844,-4.051534 -0.1632,-0.43249 0.40801,-0.644655 0.68546,-0.644655 0,0.02448 0,-0.06528 0,-0.06528 H 5e-7 v 0.06528 a 1.1342663,1.1342663 0 0 1 1.0037,0.718097 l 2.13797,5.569329 2.21549,-5.712133 z"
     class="cls-3" />
  <path
     style="fill:#e30518;fill-rule:evenodd;stroke-width:0.40800944"
     id="path50"
     d="M 10.63272,22.118193 A 2.7295832,2.7295832 0 0 0 9.5107005,20.967606 c 0,0 -0.0408,-0.02448 -0.0326,-0.04488 0.008,-0.0204 0.0449,0 0.0898,0 a 1.7544406,1.7544406 0 0 1 0.7507395,0.330488 1.4810743,1.4810743 0 0 1 0.31416,0.86498 z"
     class="cls-1" />
  <path
     style="fill:#1d1d1b;fill-rule:evenodd;stroke:#1d1d1b;stroke-width:0;stroke-miterlimit:3.8599999"
     id="path52"
     d="m 13.24807,10.241038 a 2.0400473,2.0400473 0 0 1 0.3468,0 c 0.21217,-0.155044 0.17545,-0.514092 -0.0245,-0.775218 -0.19992,-0.261126 -0.8405,-0.354969 -1.01186,0 a 1.077145,1.077145 0 0 1 0.26929,0.134643 0.99962316,0.99962316 0 0 1 0.25704,0.322327 c 0.0734,0.126483 0.16321,0.318248 0.16321,0.318248 z"
     class="cls-3" />
  <path
     style="fill:#1d1d1b;stroke-width:0.40800944"
     id="path54"
     d="m 38.59361,17.495446 -0.62833,-1.783002 h -2.90911 l -0.62833,1.783002 H 32.7142 L 35.77427,9.49846 h 1.55451 l 3.03967,7.996986 z m -1.69324,-4.75331 c -0.15912,-0.469211 -0.31824,-0.946582 -0.40801,-1.224029 -0.0775,0.297847 -0.23664,0.775218 -0.40801,1.224029 l -0.51409,1.452513 h 1.82789 z"
     class="cls-5" />
  <path
     style="fill:#1d1d1b;stroke-width:0.40800944"
     id="path56"
     d="m 44.59135,17.621929 a 1.8850037,1.8850037 0 0 1 -1.26483,-0.469211 v 1.762601 l -1.57899,0.787458 v -8.20507 h 1.57899 v 0.375368 a 1.8401226,1.8401226 0 0 1 1.26483,-0.501851 c 1.28115,0 2.33382,0.958822 2.33382,3.198794 0,1.795242 -0.85274,3.051911 -2.33382,3.051911 z m -0.29377,-4.765551 a 1.1016255,1.1016255 0 0 0 -0.97106,0.505932 v 2.260372 a 1.2485089,1.2485089 0 0 0 1.060831,0.514092 c 0.60385,0 0.93842,-0.526332 0.93842,-1.530035 0,-1.236269 -0.41209,-1.750361 -1.028191,-1.750361 z"
     class="cls-5" />
  <path
     style="fill:#1d1d1b;stroke-width:0.40800944"
     id="path58"
     d="M 51.58871,17.621929 A 1.8890838,1.8890838 0 0 1 50.3198,17.152718 v 1.762601 l -1.57899,0.787458 v -8.20507 h 1.57899 v 0.375368 a 1.8605231,1.8605231 0 0 1 1.26891,-0.501851 c 1.27707,0 2.32974,0.958822 2.32974,3.198794 0,1.795242 -0.84458,3.051911 -2.32974,3.051911 z M 51.29087,12.856378 A 1.1016255,1.1016255 0 0 0 50.3198,13.36231 v 2.260372 a 1.2566691,1.2566691 0 0 0 1.06083,0.514092 c 0.60793,0 0.93842,-0.526332 0.93842,-1.530035 0,-1.236269 -0.41209,-1.750361 -1.02818,-1.750361 z"
     class="cls-5" />
  <path
     style="fill:#1d1d1b;stroke-width:0.40800944"
     id="path60"
     d="m 60.60572,15.006588 h -3.59048 a 1.1546667,1.1546667 0 0 0 1.22403,1.130186 1.3341909,1.3341909 0 0 0 1.02818,-0.408009 l 1.11795,0.938422 a 2.7948647,2.7948647 0 0 1 -2.14613,0.971062 c -1.72588,0 -2.82343,-1.224028 -2.82343,-3.117192 0,-1.893164 1.15467,-3.133513 2.67246,-3.133513 1.5994,0 2.52558,1.415793 2.52558,3.133513 a 4.8961134,4.8961134 0 0 1 -0.008,0.485531 z m -2.5827,-2.264452 c -0.57121,0 -0.92618,0.46921 -0.9833,1.073064 h 2.04005 a 1.0649047,1.0649047 0 0 0 -1.05675,-1.073064 z"
     class="cls-5" />
  <path
     style="fill:#1d1d1b;stroke-width:0.40800944"
     id="path62"
     d="m 66.06489,17.495446 v -3.243675 c 0,-1.073065 -0.36313,-1.395393 -1.01594,-1.395393 -0.65282,0 -1.02819,0.322328 -1.02819,1.362752 v 3.264075 h -1.57899 v -5.997739 h 1.58307 v 0.40801 a 1.9625255,1.9625255 0 0 1 1.40763,-0.526332 c 1.53004,0 2.2155,1.052664 2.2155,2.741823 v 3.382399 z"
     class="cls-5" />
  <path
     style="fill:#1d1d1b;stroke-width:0.40800944"
     id="path64"
     d="m 69.62273,17.495446 v -1.142427 l 2.18285,-2.59086 c 0.24073,-0.289686 0.59162,-0.677295 0.75482,-0.8609 -0.22033,0 -0.68546,0.02448 -0.9833,0.02448 h -1.7626 v -1.428032 h 4.76555 v 1.142426 l -2.11349,2.59494 c -0.24073,0.297847 -0.58346,0.673216 -0.74258,0.85682 0.21625,0 0.68546,-0.02448 0.9833,-0.02448 h 1.87277 v 1.428033 z"
     class="cls-5" />
  <path
     style="fill:#1d1d1b;stroke-width:0.40800944"
     id="path66"
     d="m 81.28772,15.006588 h -3.5864 a 1.1546667,1.1546667 0 0 0 1.22403,1.130186 1.3260307,1.3260307 0 0 0 1.02818,-0.408009 l 1.12203,0.938422 a 2.807105,2.807105 0 0 1 -2.15021,0.971062 c -1.725879,0 -2.82343,-1.224028 -2.82343,-3.117192 0,-1.893164 1.154671,-3.133513 2.67654,-3.133513 1.5994,0 2.52558,1.415793 2.52558,3.133513 a 4.6594679,4.6594679 0 0 1 -0.0163,0.485531 z m -2.57454,-2.264452 c -0.57121,0 -0.92618,0.46921 -0.9833,1.073064 h 2.04005 a 1.0608246,1.0608246 0 0 0 -1.05675,-1.073064 z"
     class="cls-5" />
  <path
     style="fill:#1d1d1b;stroke-width:0.40800944"
     id="path68"
     d="M 83.20129,17.495446 V 9.955431 l 1.57899,-0.791538 v 8.331553 z"
     class="cls-5" />
  <path
     style="fill:#1d1d1b;stroke-width:0.40800944"
     id="path70"
     d="M 86.99169,17.495446 V 9.955431 l 1.579,-0.791538 v 8.331553 z"
     class="cls-5" />
  <path
     style="fill:#1d1d1b;stroke-width:0.40800944"
     id="path72"
     d="M 100.20304,17.495446 99.57471,15.712444 H 96.6656 l -0.62834,1.783002 H 94.32362 L 97.38369,9.49846 h 1.55452 l 3.03967,7.996986 z m -1.69324,-4.75331 c -0.15912,-0.469211 -0.31825,-0.946582 -0.40801,-1.224029 -0.0775,0.297847 -0.23664,0.775218 -0.40801,1.224029 l -0.51409,1.452513 h 1.82788 z"
     class="cls-5" />
  <path
     style="fill:#1d1d1b;stroke-width:0.40800944"
     id="path74"
     d="m 106.91072,17.495446 v -0.40801 a 1.9584454,1.9584454 0 0 1 -1.40356,0.526332 c -1.53411,0 -2.21957,-1.048584 -2.21957,-2.741823 v -3.382398 h 1.579 v 3.243675 c 0,1.077145 0.36313,1.395392 1.01594,1.395392 0.65282,0 1.02819,-0.318247 1.02819,-1.358671 v -3.264076 h 1.58715 v 5.997739 z"
     class="cls-5" />
  <path
     style="fill:#1d1d1b;stroke-width:0.40800944"
     id="path76"
     d="m 112.88805,17.621929 a 4.7002689,4.7002689 0 0 1 -2.51333,-0.705857 l 0.52633,-1.199547 a 4.1780168,4.1780168 0 0 0 2.07677,0.550812 c 0.62017,0 0.81601,-0.150963 0.81601,-0.45697 0,-0.306007 -0.22032,-0.40801 -0.8813,-0.607934 -1.44027,-0.43249 -2.36645,-0.787459 -2.36645,-2.040048 0,-1.252589 0.99554,-1.783001 2.3991,-1.783001 a 4.7859509,4.7859509 0 0 1 2.21957,0.583454 l -0.50186,1.244428 a 3.9209708,3.9209708 0 0 0 -1.75036,-0.477371 c -0.64057,0 -0.81601,0.122403 -0.81601,0.387609 0,0.265206 0.1836,0.354969 1.24442,0.697696 1.06083,0.342728 2.00333,0.742578 2.00333,1.942125 -0.008,1.374992 -1.1057,1.864604 -2.45622,1.864604 z"
     class="cls-5" />
  <path
     style="fill:#1d1d1b;stroke-width:0.40800944"
     id="path78"
     d="m 119.46109,17.621929 a 4.6798684,4.6798684 0 0 1 -2.51334,-0.697697 L 117.47,15.724685 a 4.1820969,4.1820969 0 0 0 2.08085,0.550812 c 0.61609,0 0.81602,-0.150963 0.81602,-0.45697 0,-0.306007 -0.21625,-0.40801 -0.87722,-0.607934 -1.44028,-0.43249 -2.36646,-0.787458 -2.36646,-2.040047 0,-1.252589 0.99146,-1.783002 2.3991,-1.783002 a 4.7573902,4.7573902 0 0 1 2.21549,0.583454 l -0.50185,1.244429 a 3.8924102,3.8924102 0 0 0 -1.74628,-0.477371 c -0.64058,0 -0.81602,0.122402 -0.81602,0.387608 0,0.265207 0.1836,0.354969 1.22403,0.697697 1.04042,0.342728 1.99924,0.742577 1.99924,1.942125 0.008,1.366831 -1.08938,1.856443 -2.43581,1.856443 z"
     class="cls-5" />
  <path
     style="fill:#1d1d1b;stroke-width:0.40800944"
     id="path80"
     d="m 128.62498,15.006588 h -3.5864 a 1.1546667,1.1546667 0 0 0 1.22402,1.130186 1.3260307,1.3260307 0 0 0 1.02819,-0.408009 l 1.12202,0.938422 a 2.807105,2.807105 0 0 1 -2.15021,0.971062 c -1.72588,0 -2.82342,-1.224028 -2.82342,-3.117192 0,-1.893164 1.15467,-3.133513 2.67654,-3.133513 1.5994,0 2.52558,1.415793 2.52558,3.133513 a 4.6594679,4.6594679 0 0 1 -0.0163,0.485531 z m -2.5827,-2.264452 c -0.57121,0 -0.92618,0.46921 -0.9833,1.073064 h 2.04004 a 1.0608246,1.0608246 0 0 0 -1.05674,-1.073064 z"
     class="cls-5" />
  <path
     style="fill:#1d1d1b;stroke-width:0.40800944"
     id="path82"
     d="m 133.98622,13.337829 a 1.3586715,1.3586715 0 0 0 -0.91394,-0.408009 c -0.62017,0 -1.01594,0.261126 -1.01594,1.30155 v 3.243675 h -1.579 v -5.997739 h 1.579 v 0.40801 a 1.6565184,1.6565184 0 0 1 1.22403,-0.526332 1.5463558,1.5463558 0 0 1 1.10978,0.408009 z"
     class="cls-5" />
  <path
     style="fill:#1d1d1b;stroke-width:0.40800944"
     id="path84"
     d="m 139.44947,13.337829 a 1.3668317,1.3668317 0 0 0 -0.91394,-0.408009 c -0.62018,0 -1.02003,0.261126 -1.02003,1.30155 v 3.243675 h -1.57491 v -5.997739 h 1.57491 v 0.40801 a 1.6646786,1.6646786 0 0 1 1.22403,-0.526332 1.5463558,1.5463558 0 0 1 1.10979,0.408009 z"
     class="cls-5" />
  <path
     style="fill:#1d1d1b;stroke-width:0.40800944"
     id="path86"
     d="m 145.02696,17.495446 v -3.243675 c 0,-1.073065 -0.36721,-1.395393 -1.01595,-1.395393 -0.64873,0 -1.03226,0.322328 -1.03226,1.362752 v 3.264075 h -1.57492 V 9.955431 l 1.57492,-0.791538 v 2.733663 a 1.9706857,1.9706857 0 0 1 1.40763,-0.526332 c 1.53004,0 2.21549,1.052664 2.21549,2.741823 v 3.382399 z"
     class="cls-5" />
  <path
     style="fill:#1d1d1b;stroke-width:0.40800944"
     id="path88"
     d="m 151.04918,17.621929 c -1.56676,0 -2.70918,-1.28115 -2.70918,-3.117193 0,-1.836042 1.14242,-3.133512 2.70918,-3.133512 1.56675,0 2.72142,1.29339 2.72142,3.133512 0,1.840123 -1.15467,3.117193 -2.72142,3.117193 z m 0,-4.72883 c -0.75482,0 -1.10979,0.685456 -1.10979,1.611637 0,0.926182 0.35497,1.599397 1.10979,1.599397 0.75482,0 1.12202,-0.767057 1.12202,-1.599397 -0.0163,-0.918021 -0.3672,-1.611637 -1.12202,-1.611637 z"
     class="cls-5" />
  <path
     style="fill:#1d1d1b;stroke-width:0.40800944"
     id="path90"
     d="m 158.8544,17.495446 v -0.375369 a 1.8605231,1.8605231 0 0 1 -1.26891,0.501852 c -1.28115,0 -2.32973,-0.958823 -2.32973,-3.198794 0,-1.795242 0.84457,-3.051911 2.32973,-3.051911 a 1.9094842,1.9094842 0 0 1 1.26891,0.469211 V 9.955431 l 1.579,-0.791538 v 8.331553 z m 0,-4.124976 a 1.2607492,1.2607492 0 0 0 -1.06491,-0.514092 c -0.60385,0 -0.93434,0.526332 -0.93434,1.534116 0,1.224028 0.40801,1.74628 1.02819,1.74628 a 1.1057056,1.1057056 0 0 0 0.97106,-0.501851 z"
     class="cls-5" />
  <path
     style="fill:#1d1d1b;stroke-width:0.40800944"
     id="path92"
     d="m 167.42668,15.006588 h -3.59049 a 1.1546667,1.1546667 0 0 0 1.22403,1.130186 1.3341909,1.3341909 0 0 0 1.02819,-0.408009 l 1.11794,0.938422 a 2.7948647,2.7948647 0 0 1 -2.14613,0.971062 c -1.72588,0 -2.82342,-1.224028 -2.82342,-3.117192 0,-1.893164 1.15466,-3.133513 2.67246,-3.133513 1.5994,0 2.52558,1.415793 2.52558,3.133513 0.0122,0.208085 0,0.354968 -0.008,0.485531 z m -2.5827,-2.264452 c -0.57122,0 -0.92618,0.46921 -0.98331,1.073064 h 2.04005 a 1.0649047,1.0649047 0 0 0 -1.05674,-1.073064 z"
     class="cls-5" />
  <path
     style="fill:#1d1d1b;stroke-width:0.40800944"
     id="path94"
     d="m 172.90216,17.495446 v -3.243675 c 0,-1.073065 -0.3672,-1.395393 -1.02002,-1.395393 -0.65281,0 -1.02818,0.322328 -1.02818,1.362752 v 3.264075 h -1.56268 v -5.997739 h 1.579 v 0.40801 a 1.9584454,1.9584454 0 0 1 1.40355,-0.526332 c 1.53412,0 2.21957,1.052664 2.21957,2.741823 v 3.382399 z"
     class="cls-5" />
  <path
     style="fill:#e30518;fill-rule:evenodd;stroke-width:0.40800944"
     id="path96"
     d="M 26.25949,6.499591 A 6.6546342,6.6546342 0 0 0 19.93534,0 H 6.8790405 V 3.215115 H 22.99541 v 16.112293 l 3.26408,-1.803402 z"
     class="cls-1" />
</svg>
