<?xml version="1.0" encoding="UTF-8"?><svg id="Ebene_1" xmlns="http://www.w3.org/2000/svg" viewBox="0 0 296 200"><defs><style>.cls-1{fill:#4b3d3f;}</style></defs><path class="cls-1" d="M51.57,57.65v2c0,5.6-2.2,8.7-9,8.7-4.6,0-7.5-1-8.5-4.4-1.8,3.3-5.8,4.4-9.4,4.4-6.6,0-11.6-3.5-11.6-9.9,0-8.3,9.4-11.5,17.3-11.5,1.2,0,2.2,0,3.1.1v-6.9c0-3.5-1-5.8-4.5-5.8-1.3,0-3.8.2-3.8,2,0,1.2,1.6,1.7,1.6,4,0,3.1-2.6,5.2-5.6,5.2-3.2,0-5.7-2.3-5.7-5.6,0-7,9.6-8,14.9-8,8.6,0,14.8,1.7,14.8,12.4v15.4c0,2.9,0,4.4,1.6,4.4,1.7,0,1.8-2.7,1.8-4.7v-2h3v.2ZM33.37,49.65c-.4-.1-.9-.2-2-.2-5.1,0-6.7,4.1-6.7,8.8,0,3.7,1.4,6.2,4.1,6.2,3.1,0,4.6-2.2,4.6-5.5v-9.3Z"/><path class="cls-1" d="M52.17,65.35h1.8c2.3,0,2.9-1.1,2.9-3.9v-22.1c0-3.7-.7-4.1-2.6-4.1h-2.1v-2h2.3c4.5,0,10-.3,13.7-1.1v5.9h.1c2.2-4.1,6.4-5.9,10.7-5.9,9.5,0,10.6,4.6,10.6,10.6v17.4c0,4.7.2,5.2,2.7,5.2h1.6v2h-19.5v-2h1.2c1.9,0,2.3-.8,2.3-4.8v-19.2c0-3.6-1.6-4.8-3.9-4.8-3.1,0-5.4,2.4-5.4,8.6v14.7c0,4.6.3,5.5,2.7,5.5h1.2v2h-20.3v-2Z"/><path class="cls-1" d="M92.27,65.35h1.8c2.3,0,2.9-1.1,2.9-3.9v-22.1c0-3.7-.7-4.1-2.6-4.1h-2.1v-2h2.3c4.5,0,10-.3,13.7-1.1v5.9h.1c2.2-4.1,6.4-5.9,10.7-5.9,9.5,0,10.6,4.6,10.6,10.6v17.4c0,4.7.2,5.2,2.7,5.2h1.6v2h-19.5v-2h1.2c1.9,0,2.3-.8,2.3-4.8v-19.2c0-3.6-1.6-4.8-3.9-4.8-3.1,0-5.4,2.4-5.4,8.6v14.7c0,4.6.3,5.5,2.7,5.5h1.2v2h-20.3v-2Z"/><path class="cls-1" d="M144.97,50.45c0,8.3.3,15.6,7.5,15.6,6.5,0,10.1-5.1,10.6-10.5h2.9c-1.1,8.8-6.3,12.9-15.6,12.9-10.9,0-17.5-7.3-17.5-18.2s6.6-18.1,17.5-18.1,16.5,6.9,16.5,17.5v.8h-21.9ZM151.47,17.95c1.3-1.7,2.8-3.1,5.1-3.1s4.5,1.2,4.5,3.6c0,2.7-2.6,4-4.6,5.2l-8.2,4.5h-4.4l7.6-10.2ZM154.57,48.05c0-6.3-.3-13.5-4.3-13.5-4.4,0-4.9,2.8-5.3,13.5h9.6Z"/><path class="cls-1" d="M181.77,50.45c0,8.3.3,15.6,7.5,15.6,6.5,0,10.1-5.1,10.6-10.5h2.9c-1.1,8.8-6.3,12.9-15.6,12.9-10.9,0-17.5-7.3-17.5-18.2s6.6-18.1,17.5-18.1,16.5,6.9,16.5,17.5v.8h-21.9ZM191.38,48.05c0-6.3-.3-13.5-4.3-13.5-4.4,0-4.9,2.8-5.3,13.5h9.6Z"/><path class="cls-1" d="M11.57,138.35h.7c3,0,3.9-1.6,3.9-6.9v-31.8c0-5-.5-6.3-3.9-6.3h-.7v-2h2.3c4.5,0,10-.3,13.7-1.1v5.7h.1c1.8-4.1,6-5.7,9.8-5.7,9.5,0,13.2,8.4,13.2,15.8,0,9.6-2.5,20.4-13.7,20.4-3.9,0-6.9-1.8-8.8-5.2h-.1v12.7c0,3.3,1.9,4.2,3.4,4.2h1.3v2H11.57v-1.8ZM27.97,108.75c0,4.8.1,14.6,6,14.6,3.7,0,4.5-5.4,4.5-15.4,0-8-.3-14.1-4.4-14.1-5.4.1-6.1,7.8-6.1,14.9Z"/><path class="cls-1" d="M88.27,108.45c0,10.9-6.6,18.2-17.5,18.2s-17.5-7.3-17.5-18.2,6.6-18.1,17.5-18.1,17.5,7.3,17.5,18.1ZM65.37,108.45c0,10.3.4,15.8,5.3,15.8s5.3-5.4,5.3-15.8-.4-15.7-5.3-15.7-5.3,5.4-5.3,15.7Z"/><path class="cls-1" d="M104.48,115.55c0,7.1.3,8,2.7,8h1.6v2h-21v-2h2.1c2.3,0,2.9-1.1,2.9-3.9v-37c0-4.9-.7-5.8-2.6-5.8h-2.4v-2h16.7v40.7Z"/><path class="cls-1" d="M108.17,123.55h1.6c2.6,0,3.1-.4,3.1-8.3v-9.4c0-11.8-.3-12.4-2.9-12.4h-1.8v-2h3.1c4.5,0,10-.3,13.7-1.1-.1,2.8-.3,5.6-.3,8.4v18.4c0,4.8.1,6.4,2.7,6.4h1.3v2h-20.5v-2ZM118.38,74.15c3.5,0,6.8,2.9,6.8,6.5s-3.3,6.5-6.8,6.5-6.9-2.9-6.9-6.5,3.4-6.5,6.9-6.5Z"/><path class="cls-1" d="M143.68,91.45h6.7v2h-6.7v21.3c0,2.5,0,7.4,3,7.4,3.3,0,3.3-4.8,3.3-7.1h2.4v1.6c0,5.9-2.7,10-9.7,10-7.9,0-10.6-4.2-10.7-11.6,0-2-.1-4.1-.1-6.1v-15.5h-4.3v-2c7.1-.7,12.4-8,14.2-14.3h1.9v14.3h0Z"/><path class="cls-1" d="M152.68,123.55h1.6c2.6,0,3.1-.4,3.1-8.3v-9.4c0-11.8-.3-12.4-2.9-12.4h-1.8v-2h3.1c4.5,0,10-.3,13.7-1.1-.1,2.8-.3,5.6-.3,8.4v18.4c0,4.8.1,6.4,2.7,6.4h1.3v2h-20.3v-2h-.2ZM162.88,74.15c3.5,0,6.8,2.9,6.8,6.5s-3.3,6.5-6.8,6.5-6.9-2.9-6.9-6.5c0-3.6,3.3-6.5,6.9-6.5Z"/><path class="cls-1" d="M190.07,140.25v-2h1.3c1.5,0,3.4-1,3.4-4.2v-12.7h-.1c-2,3.5-5.1,5.2-9.9,5.2-10.2,0-12.7-10.8-12.7-19s3.7-17.3,13.2-17.3c3.8,0,8,1.6,9.8,5.7h.1v-4.6h16v2h-.7c-3.4,0-3.9,1.3-3.9,6.3v31.7c0,5.3,1,6.9,3.9,6.9h.7v2h-21.1ZM184.38,108.05c0,9.9.8,15.4,4.5,15.4,5.8,0,6-9.9,6-14.6,0-7.1-.7-14.8-6.1-14.8-4.1-.1-4.4,6-4.4,14Z"/><path class="cls-1" d="M208.07,91.45h3c4.5,0,10-.3,13.7-1.1-.3,4.4-.3,8.5-.3,12.7v12.6c0,4.4.5,6.5,3.7,6.5,5.7,0,5.7-9.5,5.7-14.1v-10.1c0-3.9-.5-4.5-2.9-4.5h-1.6v-2h2.9c4.5,0,10-.3,13.7-1.1-.3,4.6-.4,8.2-.4,12.7v7.1c0,4.7-.1,9,.2,10.9.2,2.4,2.1,2.4,4.1,2.4v2c-5.1,0-10.3-.1-15.6.4v-5.6h-.1c-2.1,4-5.9,6.3-10.5,6.3-10.5,0-10.7-8.2-10.7-12.1v-14.4c0-5.6,0-6.7-2.9-6.7h-1.8v-1.9h-.2Z"/><path class="cls-1" d="M262.77,108.65c0,8.3.3,15.6,7.5,15.6,6.5,0,10.1-5.1,10.6-10.5h2.9c-1.1,8.8-6.3,12.9-15.6,12.9-10.9,0-17.5-7.3-17.5-18.2s6.6-18.1,17.5-18.1,16.5,6.9,16.5,17.5v.8h-21.9ZM272.37,106.25c0-6.3-.3-13.5-4.3-13.5-4.4,0-4.9,2.8-5.3,13.5h9.6Z"/><path class="cls-1" d="M39.27,159.55h-2.4c-1-4.5-4.2-8.6-9.2-8.6-3.1,0-6.5,1.4-6.5,4.6,0,3.4,3.3,4.2,7.6,5.2l4.3,1c4.7,1.1,8.9,3.3,8.9,10.5,0,8.6-7,12.4-14.8,12.4-1.8,0-3.7-.1-5.5-.5-1-.2-3.1-.6-4-.6-1.4,0-2.9.5-4.1,1.1v-12.7h2.4c.8,6.1,4.8,10.3,11.2,10.3,3.5,0,6.7-2,6.7-5.1,0-2.9-1.2-4.3-6.5-5.6l-3.3-.8c-6-1.5-11-3.7-11-10.7,0-7.8,6.7-11.6,13.8-11.6,2.2,0,4.1.3,6.3.5,1,.1,1.8.2,2.7.2,1.2,0,2.4-.2,3.5-.9v11.3h-.1Z"/><path class="cls-1" d="M42.67,149.65h3c4.5,0,10-.3,13.7-1.1-.3,4.4-.3,8.5-.3,12.7v12.6c0,4.4.5,6.5,3.7,6.5,5.7,0,5.7-9.5,5.7-14.1v-10.2c0-3.9-.5-4.5-2.9-4.5h-1.6v-2h2.9c4.5,0,10-.3,13.7-1.1-.3,4.6-.4,8.2-.4,12.7v7.1c0,4.7-.1,9,.2,10.9.2,2.4,2.1,2.4,4.1,2.4v2c-5.1,0-10.3-.1-15.6.4v-5.6h-.3c-2.1,4-5.9,6.3-10.5,6.3-10.5,0-10.7-8.2-10.7-12.1v-14.4c0-5.6,0-6.7-2.9-6.7h-1.8v-1.8Z"/><path class="cls-1" d="M84.07,181.75h1.6c2.6,0,3.1-.4,3.1-8.3v-9.4c0-11.8-.3-12.4-2.9-12.4h-1.8v-2h3.1c4.5,0,10-.3,13.7-1.1-.1,2.8-.3,5.6-.3,8.4v18.4c0,4.8.1,6.4,2.7,6.4h1.3v2h-20.5v-2ZM94.27,132.35c3.5,0,6.8,2.9,6.8,6.5s-3.3,6.5-6.8,6.5-6.9-2.9-6.9-6.5c0-3.6,3.3-6.5,6.9-6.5Z"/><path class="cls-1" d="M132.57,159.55h-2.4c-1-4.5-4.2-8.6-9.2-8.6-3.1,0-6.5,1.4-6.5,4.6,0,3.4,3.3,4.2,7.6,5.2l4.3,1c4.7,1.1,8.9,3.3,8.9,10.5,0,8.6-7,12.4-14.8,12.4-1.8,0-3.7-.1-5.5-.5-1-.2-3.1-.6-4-.6-1.4,0-2.9.5-4.1,1.1v-12.7h2.4c.8,6.1,4.8,10.3,11.1,10.3,3.5,0,6.7-2,6.7-5.1,0-2.9-1.2-4.3-6.5-5.6l-3.3-.8c-6-1.5-11-3.7-11-10.7,0-7.8,6.7-11.6,13.8-11.6,2.2,0,4.1.3,6.3.5,1,.1,1.8.2,2.7.2,1.2,0,2.4-.2,3.5-.9v11.3Z"/><path class="cls-1" d="M164.57,159.55h-2.4c-1-4.5-4.2-8.6-9.2-8.6-3.1,0-6.5,1.4-6.5,4.6,0,3.4,3.3,4.2,7.6,5.2l4.3,1c4.7,1.1,8.9,3.3,8.9,10.5,0,8.6-7,12.4-14.8,12.4-1.8,0-3.7-.1-5.5-.5-1-.2-3.1-.6-4-.6-1.4,0-2.9.5-4.1,1.1v-12.7h2.4c.8,6.1,4.8,10.3,11.1,10.3,3.5,0,6.7-2,6.7-5.1,0-2.9-1.2-4.3-6.5-5.6l-3.3-.8c-6-1.5-11-3.7-11-10.7,0-7.8,6.7-11.6,13.8-11.6,2.2,0,4.1.3,6.3.5,1,.1,1.8.2,2.7.2,1.2,0,2.4-.2,3.5-.9v11.3h0Z"/><path class="cls-1" d="M181.47,166.85c0,8.3.3,15.6,7.5,15.6,6.5,0,10.1-5.1,10.6-10.5h2.9c-1.1,8.8-6.3,12.9-15.6,12.9-10.9,0-17.5-7.3-17.5-18.2s6.6-18.1,17.5-18.1,16.5,6.9,16.5,17.5v.8h-21.9ZM191.07,164.45c0-6.3-.3-13.5-4.3-13.5-4.4,0-4.9,2.8-5.3,13.5h9.6Z"/></svg>